%TF.GenerationSoftware,KiCad,Pcbnew,9.0.6*%
%TF.CreationDate,2025-12-29T02:05:30+05:30*%
%TF.ProjectId,DATA LOGGER,44415441-204c-44f4-9747-45522e6b6963,rev?*%
%TF.SameCoordinates,Original*%
%TF.FileFunction,Copper,L3,Inr*%
%TF.FilePolarity,Positive*%
%FSLAX46Y46*%
G04 Gerber Fmt 4.6, Leading zero omitted, Abs format (unit mm)*
G04 Created by KiCad (PCBNEW 9.0.6) date 2025-12-29 02:05:30*
%MOMM*%
%LPD*%
G01*
G04 APERTURE LIST*
%TA.AperFunction,ComponentPad*%
%ADD10C,1.700000*%
%TD*%
%TA.AperFunction,ComponentPad*%
%ADD11R,1.700000X1.700000*%
%TD*%
%TA.AperFunction,ViaPad*%
%ADD12C,0.600000*%
%TD*%
%TA.AperFunction,Conductor*%
%ADD13C,0.200000*%
%TD*%
G04 APERTURE END LIST*
D10*
%TO.N,GND*%
%TO.C,J4*%
X94750000Y-72005000D03*
%TO.N,/RESET*%
X92210000Y-72005000D03*
%TO.N,/MOSI*%
X94750000Y-69465000D03*
%TO.N,/SCK*%
X92210000Y-69465000D03*
%TO.N,/Vcc*%
X94750000Y-66925000D03*
D11*
%TO.N,/MISO*%
X92210000Y-66925000D03*
%TD*%
D10*
%TO.N,/TX*%
%TO.C,J3*%
X94600000Y-84315000D03*
%TO.N,/RX*%
X94600000Y-81775000D03*
%TO.N,/Vcc*%
X94600000Y-79235000D03*
D11*
%TO.N,GND*%
X94600000Y-76695000D03*
%TD*%
D10*
%TO.N,/Vcc*%
%TO.C,J2*%
X78085000Y-89400000D03*
%TO.N,GND*%
X75545000Y-89400000D03*
%TO.N,/D8*%
X73005000Y-89400000D03*
%TO.N,/D7*%
X70465000Y-89400000D03*
%TO.N,/D6*%
X67925000Y-89400000D03*
%TO.N,/D5*%
X65385000Y-89400000D03*
%TO.N,/D4*%
X62845000Y-89400000D03*
%TO.N,/D3*%
X60305000Y-89400000D03*
D11*
%TO.N,/D2*%
X57765000Y-89400000D03*
%TD*%
D10*
%TO.N,/SCL*%
%TO.C,J1*%
X90531000Y-89400000D03*
%TO.N,/SDA*%
X87991000Y-89400000D03*
%TO.N,/Vcc*%
X85451000Y-89400000D03*
D11*
%TO.N,GND*%
X82911000Y-89400000D03*
%TD*%
%TO.N,/Vcc*%
%TO.C,BT1*%
X55550000Y-69325000D03*
D10*
%TO.N,GND*%
X55550000Y-71865000D03*
%TD*%
D12*
%TO.N,/SCK*%
X87774265Y-70704265D03*
X88390000Y-73920000D03*
X86810000Y-80845000D03*
X76780000Y-75940000D03*
%TO.N,/SDA*%
X74340000Y-67750000D03*
X76040000Y-70740000D03*
%TO.N,/SCK*%
X87378235Y-69403235D03*
%TO.N,/Vcc*%
X65540000Y-82140000D03*
X84660000Y-88020000D03*
%TO.N,GND*%
X82590000Y-77930000D03*
%TO.N,/Vcc*%
X76910091Y-74577611D03*
X70900000Y-72900000D03*
X91970000Y-78460000D03*
X85500000Y-73760000D03*
X81224265Y-70415735D03*
%TO.N,/RESET*%
X76490000Y-65350000D03*
X73570000Y-67180000D03*
%TO.N,GND*%
X73600000Y-62200000D03*
X60130000Y-66990000D03*
X71600000Y-72510000D03*
X76360000Y-72750000D03*
X79830000Y-73100000D03*
X81360000Y-74760000D03*
X85590000Y-66580000D03*
%TO.N,/D2*%
X70090000Y-67910000D03*
X65640000Y-85020000D03*
%TO.N,GND*%
X58700000Y-80380000D03*
X58340000Y-71360000D03*
X64000000Y-70420000D03*
%TO.N,/Vcc*%
X63810000Y-68990000D03*
X61880000Y-69610000D03*
%TO.N,Net-(U2-VCC)*%
X63160000Y-68080000D03*
%TO.N,Net-(U4-PB7)*%
X72870000Y-71310000D03*
X71590602Y-67777437D03*
%TO.N,/SDA*%
X65990000Y-67240000D03*
X66532677Y-71668795D03*
X63930000Y-72640000D03*
X63920000Y-75420000D03*
%TO.N,/SCL*%
X73870000Y-71640000D03*
X65650000Y-73940000D03*
%TO.N,/Vcc*%
X68085000Y-72715000D03*
X67240000Y-70680000D03*
%TO.N,Net-(U2-SQW{slash}~INT)*%
X63720000Y-77880000D03*
X62760000Y-82230000D03*
%TO.N,Net-(U2-VCC)*%
X63160000Y-76575000D03*
X62033630Y-81894752D03*
%TO.N,Net-(U4-AREF)*%
X79555000Y-74065000D03*
X81230000Y-75710000D03*
%TO.N,/SDA*%
X75175000Y-67630000D03*
X75180000Y-65950000D03*
%TO.N,/MOSI*%
X77320000Y-79310000D03*
X86210000Y-82830000D03*
%TO.N,/MISO*%
X84094000Y-72070000D03*
X89700000Y-67930000D03*
%TO.N,/SCL*%
X74900000Y-70520000D03*
X85460000Y-77760000D03*
%TO.N,/RX*%
X77897660Y-67949000D03*
X89804265Y-81505735D03*
%TO.N,/TX*%
X72558315Y-70219987D03*
X91720000Y-82560000D03*
%TO.N,Net-(U4-PB7)*%
X69830000Y-77590000D03*
X70960000Y-79390000D03*
%TO.N,Net-(U4-PB6)*%
X71020000Y-75180000D03*
X76160000Y-79400000D03*
%TD*%
D13*
%TO.N,/Vcc*%
X84300000Y-88249000D02*
X85451000Y-89400000D01*
X79236000Y-88249000D02*
X84300000Y-88249000D01*
X78085000Y-89400000D02*
X79236000Y-88249000D01*
%TD*%
%TA.AperFunction,Conductor*%
%TO.N,/Vcc*%
G36*
X94284075Y-67117993D02*
G01*
X94349901Y-67232007D01*
X94442993Y-67325099D01*
X94557007Y-67390925D01*
X94620590Y-67407962D01*
X93988282Y-68040269D01*
X93988282Y-68040270D01*
X94042452Y-68079626D01*
X94042451Y-68079626D01*
X94051495Y-68084234D01*
X94102292Y-68132208D01*
X94119087Y-68200029D01*
X94096550Y-68266164D01*
X94051499Y-68305202D01*
X94042182Y-68309949D01*
X93870213Y-68434890D01*
X93719890Y-68585213D01*
X93594949Y-68757182D01*
X93590484Y-68765946D01*
X93542509Y-68816742D01*
X93474688Y-68833536D01*
X93408553Y-68810998D01*
X93369516Y-68765946D01*
X93365050Y-68757182D01*
X93240109Y-68585213D01*
X93126569Y-68471673D01*
X93093084Y-68410350D01*
X93098068Y-68340658D01*
X93139940Y-68284725D01*
X93170915Y-68267810D01*
X93302331Y-68218796D01*
X93417546Y-68132546D01*
X93503796Y-68017331D01*
X93554091Y-67882483D01*
X93560500Y-67822873D01*
X93560499Y-67812312D01*
X93580179Y-67745275D01*
X93596818Y-67724626D01*
X94267037Y-67054408D01*
X94284075Y-67117993D01*
G37*
%TD.AperFunction*%
%TA.AperFunction,Conductor*%
G36*
X86540955Y-59994635D02*
G01*
X86542670Y-59994649D01*
X95811905Y-60141076D01*
X95823227Y-60143811D01*
X95831234Y-60142902D01*
X95864785Y-60153848D01*
X95963335Y-60202447D01*
X96030960Y-60235796D01*
X96045008Y-60243906D01*
X96227865Y-60366088D01*
X96240729Y-60375959D01*
X96406070Y-60520960D01*
X96417539Y-60532429D01*
X96562540Y-60697770D01*
X96572414Y-60710638D01*
X96694595Y-60893495D01*
X96702705Y-60907543D01*
X96772809Y-61049701D01*
X96785596Y-61104153D01*
X96875129Y-89530369D01*
X96874748Y-89540489D01*
X96867537Y-89632117D01*
X96864493Y-89651335D01*
X96822253Y-89827279D01*
X96816240Y-89845785D01*
X96746994Y-90012958D01*
X96738160Y-90030295D01*
X96643618Y-90184573D01*
X96632182Y-90200314D01*
X96514667Y-90337907D01*
X96500907Y-90351667D01*
X96363314Y-90469182D01*
X96347573Y-90480618D01*
X96193295Y-90575160D01*
X96175958Y-90583994D01*
X96008785Y-90653240D01*
X95990279Y-90659253D01*
X95904581Y-90679827D01*
X95875636Y-90683253D01*
X91443892Y-90683329D01*
X91376852Y-90663646D01*
X91331097Y-90610842D01*
X91321152Y-90541684D01*
X91350176Y-90478128D01*
X91371006Y-90459010D01*
X91410788Y-90430107D01*
X91410788Y-90430106D01*
X91410792Y-90430104D01*
X91561104Y-90279792D01*
X91561106Y-90279788D01*
X91561109Y-90279786D01*
X91686048Y-90107820D01*
X91686047Y-90107820D01*
X91686051Y-90107816D01*
X91782557Y-89918412D01*
X91848246Y-89716243D01*
X91881500Y-89506287D01*
X91881500Y-89293713D01*
X91848246Y-89083757D01*
X91782557Y-88881588D01*
X91686051Y-88692184D01*
X91604252Y-88579596D01*
X91604251Y-88579593D01*
X91561109Y-88520214D01*
X91561105Y-88520209D01*
X91552473Y-88511577D01*
X93659500Y-88511577D01*
X93659500Y-88708422D01*
X93690290Y-88902826D01*
X93751117Y-89090029D01*
X93810721Y-89207007D01*
X93840476Y-89265405D01*
X93956172Y-89424646D01*
X94095354Y-89563828D01*
X94254595Y-89679524D01*
X94308534Y-89707007D01*
X94429970Y-89768882D01*
X94429972Y-89768882D01*
X94429975Y-89768884D01*
X94526044Y-89800099D01*
X94617173Y-89829709D01*
X94811578Y-89860500D01*
X94811583Y-89860500D01*
X95008422Y-89860500D01*
X95202826Y-89829709D01*
X95210305Y-89827279D01*
X95390025Y-89768884D01*
X95565405Y-89679524D01*
X95724646Y-89563828D01*
X95863828Y-89424646D01*
X95979524Y-89265405D01*
X96068884Y-89090025D01*
X96129709Y-88902826D01*
X96150891Y-88769087D01*
X96160500Y-88708422D01*
X96160500Y-88511577D01*
X96129709Y-88317173D01*
X96074885Y-88148444D01*
X96068884Y-88129975D01*
X96068882Y-88129972D01*
X96068882Y-88129970D01*
X95979523Y-87954594D01*
X95863828Y-87795354D01*
X95724646Y-87656172D01*
X95565405Y-87540476D01*
X95390029Y-87451117D01*
X95202826Y-87390290D01*
X95008422Y-87359500D01*
X95008417Y-87359500D01*
X94811583Y-87359500D01*
X94811578Y-87359500D01*
X94617173Y-87390290D01*
X94429970Y-87451117D01*
X94254594Y-87540476D01*
X94163741Y-87606485D01*
X94095354Y-87656172D01*
X94095352Y-87656174D01*
X94095351Y-87656174D01*
X93956174Y-87795351D01*
X93956174Y-87795352D01*
X93956172Y-87795354D01*
X93906485Y-87863741D01*
X93840476Y-87954594D01*
X93751117Y-88129970D01*
X93690290Y-88317173D01*
X93659500Y-88511577D01*
X91552473Y-88511577D01*
X91410786Y-88369890D01*
X91238820Y-88244951D01*
X91049414Y-88148444D01*
X91049413Y-88148443D01*
X91049412Y-88148443D01*
X90847243Y-88082754D01*
X90847241Y-88082753D01*
X90847240Y-88082753D01*
X90685957Y-88057208D01*
X90637287Y-88049500D01*
X90424713Y-88049500D01*
X90376042Y-88057208D01*
X90214760Y-88082753D01*
X90012585Y-88148444D01*
X89823179Y-88244951D01*
X89651213Y-88369890D01*
X89500890Y-88520213D01*
X89375949Y-88692182D01*
X89371484Y-88700946D01*
X89323509Y-88751742D01*
X89255688Y-88768536D01*
X89189553Y-88745998D01*
X89150516Y-88700946D01*
X89146050Y-88692182D01*
X89021109Y-88520213D01*
X88870786Y-88369890D01*
X88698820Y-88244951D01*
X88509414Y-88148444D01*
X88509413Y-88148443D01*
X88509412Y-88148443D01*
X88307243Y-88082754D01*
X88307241Y-88082753D01*
X88307240Y-88082753D01*
X88145957Y-88057208D01*
X88097287Y-88049500D01*
X87884713Y-88049500D01*
X87836042Y-88057208D01*
X87674760Y-88082753D01*
X87472585Y-88148444D01*
X87283179Y-88244951D01*
X87111213Y-88369890D01*
X86960890Y-88520213D01*
X86835949Y-88692182D01*
X86831202Y-88701499D01*
X86783227Y-88752293D01*
X86715405Y-88769087D01*
X86649271Y-88746548D01*
X86610234Y-88701495D01*
X86605626Y-88692452D01*
X86566270Y-88638282D01*
X86566269Y-88638282D01*
X85933962Y-89270590D01*
X85916925Y-89207007D01*
X85851099Y-89092993D01*
X85758007Y-88999901D01*
X85643993Y-88934075D01*
X85580409Y-88917037D01*
X86212716Y-88284728D01*
X86158550Y-88245375D01*
X85969217Y-88148904D01*
X85767129Y-88083242D01*
X85557246Y-88050000D01*
X85344754Y-88050000D01*
X85134872Y-88083242D01*
X85134869Y-88083242D01*
X84932782Y-88148904D01*
X84743439Y-88245380D01*
X84689282Y-88284727D01*
X84689282Y-88284728D01*
X85321591Y-88917037D01*
X85258007Y-88934075D01*
X85143993Y-88999901D01*
X85050901Y-89092993D01*
X84985075Y-89207007D01*
X84968037Y-89270591D01*
X84297818Y-88600372D01*
X84264333Y-88539049D01*
X84264330Y-88539036D01*
X84261499Y-88526015D01*
X84261499Y-88502128D01*
X84255091Y-88442517D01*
X84226926Y-88367002D01*
X84204798Y-88307673D01*
X84204793Y-88307664D01*
X84118547Y-88192455D01*
X84118544Y-88192452D01*
X84003335Y-88106206D01*
X84003328Y-88106202D01*
X83868482Y-88055908D01*
X83868483Y-88055908D01*
X83808883Y-88049501D01*
X83808881Y-88049500D01*
X83808873Y-88049500D01*
X83808864Y-88049500D01*
X82013129Y-88049500D01*
X82013123Y-88049501D01*
X81953516Y-88055908D01*
X81818671Y-88106202D01*
X81818664Y-88106206D01*
X81703455Y-88192452D01*
X81703452Y-88192455D01*
X81617206Y-88307664D01*
X81617202Y-88307671D01*
X81566908Y-88442517D01*
X81560501Y-88502116D01*
X81560500Y-88502135D01*
X81560500Y-90297870D01*
X81560501Y-90297876D01*
X81566908Y-90357483D01*
X81617203Y-90492331D01*
X81621432Y-90500075D01*
X81636284Y-90568348D01*
X81611867Y-90633812D01*
X81555934Y-90675684D01*
X81512602Y-90683502D01*
X78967618Y-90683546D01*
X78900578Y-90663863D01*
X78854823Y-90611059D01*
X78843998Y-90549817D01*
X78846716Y-90515269D01*
X78214408Y-89882962D01*
X78277993Y-89865925D01*
X78392007Y-89800099D01*
X78485099Y-89707007D01*
X78550925Y-89592993D01*
X78567962Y-89529409D01*
X79200270Y-90161717D01*
X79200270Y-90161716D01*
X79239622Y-90107554D01*
X79336095Y-89918217D01*
X79401757Y-89716130D01*
X79401757Y-89716127D01*
X79435000Y-89506246D01*
X79435000Y-89293753D01*
X79401757Y-89083872D01*
X79401757Y-89083869D01*
X79336095Y-88881782D01*
X79239624Y-88692449D01*
X79200270Y-88638282D01*
X79200269Y-88638282D01*
X78567962Y-89270590D01*
X78550925Y-89207007D01*
X78485099Y-89092993D01*
X78392007Y-88999901D01*
X78277993Y-88934075D01*
X78214409Y-88917037D01*
X78846716Y-88284728D01*
X78792550Y-88245375D01*
X78603217Y-88148904D01*
X78401129Y-88083242D01*
X78191246Y-88050000D01*
X77978754Y-88050000D01*
X77768872Y-88083242D01*
X77768869Y-88083242D01*
X77566782Y-88148904D01*
X77377439Y-88245380D01*
X77323282Y-88284727D01*
X77323282Y-88284728D01*
X77955591Y-88917037D01*
X77892007Y-88934075D01*
X77777993Y-88999901D01*
X77684901Y-89092993D01*
X77619075Y-89207007D01*
X77602037Y-89270591D01*
X76969728Y-88638282D01*
X76969727Y-88638282D01*
X76930380Y-88692440D01*
X76930376Y-88692446D01*
X76925760Y-88701505D01*
X76877781Y-88752297D01*
X76809959Y-88769087D01*
X76743826Y-88746543D01*
X76704794Y-88701493D01*
X76700051Y-88692184D01*
X76700049Y-88692181D01*
X76700048Y-88692179D01*
X76575109Y-88520213D01*
X76424786Y-88369890D01*
X76252820Y-88244951D01*
X76063414Y-88148444D01*
X76063413Y-88148443D01*
X76063412Y-88148443D01*
X75861243Y-88082754D01*
X75861241Y-88082753D01*
X75861240Y-88082753D01*
X75699957Y-88057208D01*
X75651287Y-88049500D01*
X75438713Y-88049500D01*
X75390042Y-88057208D01*
X75228760Y-88082753D01*
X75026585Y-88148444D01*
X74837179Y-88244951D01*
X74665213Y-88369890D01*
X74514890Y-88520213D01*
X74389949Y-88692182D01*
X74385484Y-88700946D01*
X74337509Y-88751742D01*
X74269688Y-88768536D01*
X74203553Y-88745998D01*
X74164516Y-88700946D01*
X74160050Y-88692182D01*
X74035109Y-88520213D01*
X73884786Y-88369890D01*
X73712820Y-88244951D01*
X73523414Y-88148444D01*
X73523413Y-88148443D01*
X73523412Y-88148443D01*
X73321243Y-88082754D01*
X73321241Y-88082753D01*
X73321240Y-88082753D01*
X73159957Y-88057208D01*
X73111287Y-88049500D01*
X72898713Y-88049500D01*
X72850042Y-88057208D01*
X72688760Y-88082753D01*
X72486585Y-88148444D01*
X72297179Y-88244951D01*
X72125213Y-88369890D01*
X71974890Y-88520213D01*
X71849949Y-88692182D01*
X71845484Y-88700946D01*
X71797509Y-88751742D01*
X71729688Y-88768536D01*
X71663553Y-88745998D01*
X71624516Y-88700946D01*
X71620050Y-88692182D01*
X71495109Y-88520213D01*
X71344786Y-88369890D01*
X71172820Y-88244951D01*
X70983414Y-88148444D01*
X70983413Y-88148443D01*
X70983412Y-88148443D01*
X70781243Y-88082754D01*
X70781241Y-88082753D01*
X70781240Y-88082753D01*
X70619957Y-88057208D01*
X70571287Y-88049500D01*
X70358713Y-88049500D01*
X70310042Y-88057208D01*
X70148760Y-88082753D01*
X69946585Y-88148444D01*
X69757179Y-88244951D01*
X69585213Y-88369890D01*
X69434890Y-88520213D01*
X69309949Y-88692182D01*
X69305484Y-88700946D01*
X69257509Y-88751742D01*
X69189688Y-88768536D01*
X69123553Y-88745998D01*
X69084516Y-88700946D01*
X69080050Y-88692182D01*
X68955109Y-88520213D01*
X68804786Y-88369890D01*
X68632820Y-88244951D01*
X68443414Y-88148444D01*
X68443413Y-88148443D01*
X68443412Y-88148443D01*
X68241243Y-88082754D01*
X68241241Y-88082753D01*
X68241240Y-88082753D01*
X68079957Y-88057208D01*
X68031287Y-88049500D01*
X67818713Y-88049500D01*
X67770042Y-88057208D01*
X67608760Y-88082753D01*
X67406585Y-88148444D01*
X67217179Y-88244951D01*
X67045213Y-88369890D01*
X66894890Y-88520213D01*
X66769949Y-88692182D01*
X66765484Y-88700946D01*
X66717509Y-88751742D01*
X66649688Y-88768536D01*
X66583553Y-88745998D01*
X66544516Y-88700946D01*
X66540050Y-88692182D01*
X66415109Y-88520213D01*
X66264786Y-88369890D01*
X66092820Y-88244951D01*
X65903414Y-88148444D01*
X65903413Y-88148443D01*
X65903412Y-88148443D01*
X65701243Y-88082754D01*
X65701241Y-88082753D01*
X65701240Y-88082753D01*
X65539957Y-88057208D01*
X65491287Y-88049500D01*
X65278713Y-88049500D01*
X65230042Y-88057208D01*
X65068760Y-88082753D01*
X64866585Y-88148444D01*
X64677179Y-88244951D01*
X64505213Y-88369890D01*
X64354890Y-88520213D01*
X64229949Y-88692182D01*
X64225484Y-88700946D01*
X64177509Y-88751742D01*
X64109688Y-88768536D01*
X64043553Y-88745998D01*
X64004516Y-88700946D01*
X64000050Y-88692182D01*
X63875109Y-88520213D01*
X63724786Y-88369890D01*
X63552820Y-88244951D01*
X63363414Y-88148444D01*
X63363413Y-88148443D01*
X63363412Y-88148443D01*
X63161243Y-88082754D01*
X63161241Y-88082753D01*
X63161240Y-88082753D01*
X62999957Y-88057208D01*
X62951287Y-88049500D01*
X62738713Y-88049500D01*
X62690042Y-88057208D01*
X62528760Y-88082753D01*
X62326585Y-88148444D01*
X62137179Y-88244951D01*
X61965213Y-88369890D01*
X61814890Y-88520213D01*
X61689949Y-88692182D01*
X61685484Y-88700946D01*
X61637509Y-88751742D01*
X61569688Y-88768536D01*
X61503553Y-88745998D01*
X61464516Y-88700946D01*
X61460050Y-88692182D01*
X61335109Y-88520213D01*
X61184786Y-88369890D01*
X61012820Y-88244951D01*
X60823414Y-88148444D01*
X60823413Y-88148443D01*
X60823412Y-88148443D01*
X60621243Y-88082754D01*
X60621241Y-88082753D01*
X60621240Y-88082753D01*
X60459957Y-88057208D01*
X60411287Y-88049500D01*
X60198713Y-88049500D01*
X60150042Y-88057208D01*
X59988760Y-88082753D01*
X59786585Y-88148444D01*
X59597179Y-88244951D01*
X59425215Y-88369889D01*
X59311673Y-88483431D01*
X59250350Y-88516915D01*
X59180658Y-88511931D01*
X59124725Y-88470059D01*
X59107810Y-88439082D01*
X59058797Y-88307671D01*
X59058793Y-88307664D01*
X58972547Y-88192455D01*
X58972544Y-88192452D01*
X58857335Y-88106206D01*
X58857328Y-88106202D01*
X58722482Y-88055908D01*
X58722483Y-88055908D01*
X58662883Y-88049501D01*
X58662881Y-88049500D01*
X58662873Y-88049500D01*
X58662864Y-88049500D01*
X56867129Y-88049500D01*
X56867123Y-88049501D01*
X56807516Y-88055908D01*
X56672671Y-88106202D01*
X56672664Y-88106206D01*
X56557455Y-88192452D01*
X56557452Y-88192455D01*
X56471206Y-88307664D01*
X56471202Y-88307671D01*
X56420908Y-88442517D01*
X56414501Y-88502116D01*
X56414500Y-88502135D01*
X56414500Y-90297870D01*
X56414501Y-90297876D01*
X56420908Y-90357483D01*
X56471202Y-90492328D01*
X56475454Y-90500114D01*
X56472260Y-90501857D01*
X56490614Y-90551232D01*
X56475686Y-90619488D01*
X56426227Y-90668839D01*
X56366922Y-90683941D01*
X53131062Y-90683997D01*
X53064022Y-90664314D01*
X53018267Y-90611510D01*
X53007061Y-90559465D01*
X53009403Y-90015836D01*
X53029376Y-89948885D01*
X53082377Y-89903358D01*
X53151578Y-89893712D01*
X53171721Y-89898442D01*
X53237173Y-89919709D01*
X53431578Y-89950500D01*
X53431583Y-89950500D01*
X53628422Y-89950500D01*
X53822826Y-89919709D01*
X53827418Y-89918217D01*
X54010025Y-89858884D01*
X54185405Y-89769524D01*
X54344646Y-89653828D01*
X54483828Y-89514646D01*
X54599524Y-89355405D01*
X54688884Y-89180025D01*
X54749709Y-88992826D01*
X54759014Y-88934075D01*
X54780500Y-88798422D01*
X54780500Y-88601577D01*
X54749709Y-88407173D01*
X54709923Y-88284727D01*
X54688884Y-88219975D01*
X54688882Y-88219972D01*
X54688882Y-88219970D01*
X54630914Y-88106202D01*
X54599524Y-88044595D01*
X54483828Y-87885354D01*
X54344646Y-87746172D01*
X54185405Y-87630476D01*
X54010029Y-87541117D01*
X53822826Y-87480290D01*
X53628422Y-87449500D01*
X53628417Y-87449500D01*
X53431583Y-87449500D01*
X53431578Y-87449500D01*
X53237174Y-87480290D01*
X53183078Y-87497867D01*
X53113236Y-87499861D01*
X53053404Y-87463779D01*
X53022577Y-87401078D01*
X53020762Y-87379412D01*
X53031268Y-84941153D01*
X64839500Y-84941153D01*
X64839500Y-85098846D01*
X64870261Y-85253489D01*
X64870264Y-85253501D01*
X64930602Y-85399172D01*
X64930609Y-85399185D01*
X65018210Y-85530288D01*
X65018213Y-85530292D01*
X65129707Y-85641786D01*
X65129711Y-85641789D01*
X65260814Y-85729390D01*
X65260827Y-85729397D01*
X65406498Y-85789735D01*
X65406503Y-85789737D01*
X65561153Y-85820499D01*
X65561156Y-85820500D01*
X65561158Y-85820500D01*
X65718844Y-85820500D01*
X65718845Y-85820499D01*
X65873497Y-85789737D01*
X66019179Y-85729394D01*
X66150289Y-85641789D01*
X66261789Y-85530289D01*
X66349394Y-85399179D01*
X66409737Y-85253497D01*
X66440500Y-85098842D01*
X66440500Y-84941158D01*
X66440500Y-84941155D01*
X66440499Y-84941153D01*
X66409738Y-84786510D01*
X66409737Y-84786503D01*
X66409735Y-84786498D01*
X66349397Y-84640827D01*
X66349390Y-84640814D01*
X66261789Y-84509711D01*
X66261786Y-84509707D01*
X66150292Y-84398213D01*
X66150288Y-84398210D01*
X66019185Y-84310609D01*
X66019172Y-84310602D01*
X65873501Y-84250264D01*
X65873489Y-84250261D01*
X65718845Y-84219500D01*
X65718842Y-84219500D01*
X65561158Y-84219500D01*
X65561155Y-84219500D01*
X65406510Y-84250261D01*
X65406498Y-84250264D01*
X65260827Y-84310602D01*
X65260814Y-84310609D01*
X65129711Y-84398210D01*
X65129707Y-84398213D01*
X65018213Y-84509707D01*
X65018210Y-84509711D01*
X64930609Y-84640814D01*
X64930602Y-84640827D01*
X64870264Y-84786498D01*
X64870261Y-84786510D01*
X64839500Y-84941153D01*
X53031268Y-84941153D01*
X53044733Y-81815905D01*
X61233130Y-81815905D01*
X61233130Y-81973598D01*
X61263891Y-82128241D01*
X61263894Y-82128253D01*
X61324232Y-82273924D01*
X61324239Y-82273937D01*
X61411840Y-82405040D01*
X61411843Y-82405044D01*
X61523337Y-82516538D01*
X61523341Y-82516541D01*
X61654444Y-82604142D01*
X61654457Y-82604149D01*
X61776722Y-82654792D01*
X61800133Y-82664489D01*
X61954783Y-82695251D01*
X61954786Y-82695252D01*
X61954788Y-82695252D01*
X62042602Y-82695252D01*
X62109641Y-82714937D01*
X62133610Y-82736274D01*
X62133903Y-82735982D01*
X62249707Y-82851786D01*
X62249711Y-82851789D01*
X62380814Y-82939390D01*
X62380827Y-82939397D01*
X62484867Y-82982491D01*
X62526503Y-82999737D01*
X62681153Y-83030499D01*
X62681156Y-83030500D01*
X62681158Y-83030500D01*
X62838844Y-83030500D01*
X62838845Y-83030499D01*
X62993497Y-82999737D01*
X63139179Y-82939394D01*
X63270289Y-82851789D01*
X63370925Y-82751153D01*
X85409500Y-82751153D01*
X85409500Y-82908846D01*
X85440261Y-83063489D01*
X85440264Y-83063501D01*
X85500602Y-83209172D01*
X85500609Y-83209185D01*
X85588210Y-83340288D01*
X85588213Y-83340292D01*
X85699707Y-83451786D01*
X85699711Y-83451789D01*
X85830814Y-83539390D01*
X85830827Y-83539397D01*
X85976498Y-83599735D01*
X85976503Y-83599737D01*
X86131153Y-83630499D01*
X86131156Y-83630500D01*
X86131158Y-83630500D01*
X86288844Y-83630500D01*
X86288845Y-83630499D01*
X86443497Y-83599737D01*
X86589179Y-83539394D01*
X86720289Y-83451789D01*
X86831789Y-83340289D01*
X86919394Y-83209179D01*
X86979737Y-83063497D01*
X87010500Y-82908842D01*
X87010500Y-82751158D01*
X87010500Y-82751155D01*
X87010499Y-82751153D01*
X87003295Y-82714937D01*
X86979737Y-82596503D01*
X86946615Y-82516538D01*
X86931958Y-82481153D01*
X90919500Y-82481153D01*
X90919500Y-82638846D01*
X90950261Y-82793489D01*
X90950264Y-82793501D01*
X91010602Y-82939172D01*
X91010609Y-82939185D01*
X91098210Y-83070288D01*
X91098213Y-83070292D01*
X91209707Y-83181786D01*
X91209711Y-83181789D01*
X91340814Y-83269390D01*
X91340827Y-83269397D01*
X91486498Y-83329735D01*
X91486503Y-83329737D01*
X91641153Y-83360499D01*
X91641156Y-83360500D01*
X91641158Y-83360500D01*
X91798844Y-83360500D01*
X91798845Y-83360499D01*
X91953497Y-83329737D01*
X92099179Y-83269394D01*
X92230289Y-83181789D01*
X92341789Y-83070289D01*
X92429394Y-82939179D01*
X92431326Y-82934516D01*
X92489735Y-82793501D01*
X92489737Y-82793497D01*
X92520500Y-82638842D01*
X92520500Y-82481158D01*
X92520500Y-82481155D01*
X92520499Y-82481153D01*
X92514467Y-82450827D01*
X92489737Y-82326503D01*
X92482423Y-82308846D01*
X92429397Y-82180827D01*
X92429390Y-82180814D01*
X92341789Y-82049711D01*
X92341786Y-82049707D01*
X92230292Y-81938213D01*
X92230288Y-81938210D01*
X92099185Y-81850609D01*
X92099172Y-81850602D01*
X91953501Y-81790264D01*
X91953491Y-81790261D01*
X91929343Y-81785458D01*
X91929342Y-81785457D01*
X91798845Y-81759500D01*
X91798842Y-81759500D01*
X91641158Y-81759500D01*
X91641155Y-81759500D01*
X91486510Y-81790261D01*
X91486498Y-81790264D01*
X91340827Y-81850602D01*
X91340814Y-81850609D01*
X91209711Y-81938210D01*
X91209707Y-81938213D01*
X91098213Y-82049707D01*
X91098210Y-82049711D01*
X91010609Y-82180814D01*
X91010602Y-82180827D01*
X90950264Y-82326498D01*
X90950261Y-82326510D01*
X90919500Y-82481153D01*
X86931958Y-82481153D01*
X86919397Y-82450827D01*
X86919390Y-82450814D01*
X86831789Y-82319711D01*
X86831786Y-82319707D01*
X86720292Y-82208213D01*
X86720288Y-82208210D01*
X86589185Y-82120609D01*
X86589172Y-82120602D01*
X86443501Y-82060264D01*
X86443489Y-82060261D01*
X86288845Y-82029500D01*
X86288842Y-82029500D01*
X86131158Y-82029500D01*
X86131155Y-82029500D01*
X85976510Y-82060261D01*
X85976498Y-82060264D01*
X85830827Y-82120602D01*
X85830814Y-82120609D01*
X85699711Y-82208210D01*
X85699707Y-82208213D01*
X85588213Y-82319707D01*
X85588210Y-82319711D01*
X85500609Y-82450814D01*
X85500602Y-82450827D01*
X85440264Y-82596498D01*
X85440261Y-82596510D01*
X85409500Y-82751153D01*
X63370925Y-82751153D01*
X63381789Y-82740289D01*
X63411882Y-82695252D01*
X63424629Y-82676175D01*
X63469390Y-82609185D01*
X63469390Y-82609184D01*
X63469394Y-82609179D01*
X63471478Y-82604149D01*
X63505290Y-82522518D01*
X63529737Y-82463497D01*
X63560500Y-82308842D01*
X63560500Y-82151158D01*
X63560500Y-82151155D01*
X63560499Y-82151153D01*
X63540320Y-82049707D01*
X63529737Y-81996503D01*
X63505592Y-81938211D01*
X63469397Y-81850827D01*
X63469390Y-81850814D01*
X63381789Y-81719711D01*
X63381786Y-81719707D01*
X63270292Y-81608213D01*
X63270288Y-81608210D01*
X63139185Y-81520609D01*
X63139172Y-81520602D01*
X62993501Y-81460264D01*
X62993489Y-81460261D01*
X62838845Y-81429500D01*
X62838842Y-81429500D01*
X62751028Y-81429500D01*
X62683989Y-81409815D01*
X62660019Y-81388477D01*
X62659727Y-81388770D01*
X62543922Y-81272965D01*
X62543918Y-81272962D01*
X62412815Y-81185361D01*
X62412802Y-81185354D01*
X62267131Y-81125016D01*
X62267119Y-81125013D01*
X62112475Y-81094252D01*
X62112472Y-81094252D01*
X61954788Y-81094252D01*
X61954785Y-81094252D01*
X61800140Y-81125013D01*
X61800128Y-81125016D01*
X61654457Y-81185354D01*
X61654444Y-81185361D01*
X61523341Y-81272962D01*
X61523337Y-81272965D01*
X61411843Y-81384459D01*
X61411840Y-81384463D01*
X61324239Y-81515566D01*
X61324232Y-81515579D01*
X61263894Y-81661250D01*
X61263891Y-81661262D01*
X61233130Y-81815905D01*
X53044733Y-81815905D01*
X53051259Y-80301153D01*
X57899500Y-80301153D01*
X57899500Y-80458846D01*
X57930261Y-80613489D01*
X57930264Y-80613501D01*
X57990602Y-80759172D01*
X57990609Y-80759185D01*
X58078210Y-80890288D01*
X58078213Y-80890292D01*
X58189707Y-81001786D01*
X58189711Y-81001789D01*
X58320814Y-81089390D01*
X58320827Y-81089397D01*
X58410553Y-81126562D01*
X58466503Y-81149737D01*
X58621153Y-81180499D01*
X58621156Y-81180500D01*
X58621158Y-81180500D01*
X58778844Y-81180500D01*
X58778845Y-81180499D01*
X58933497Y-81149737D01*
X59079179Y-81089394D01*
X59210289Y-81001789D01*
X59321789Y-80890289D01*
X59404734Y-80766153D01*
X86009500Y-80766153D01*
X86009500Y-80923846D01*
X86040261Y-81078489D01*
X86040264Y-81078501D01*
X86100602Y-81224172D01*
X86100609Y-81224185D01*
X86188210Y-81355288D01*
X86188213Y-81355292D01*
X86299707Y-81466786D01*
X86299711Y-81466789D01*
X86430814Y-81554390D01*
X86430827Y-81554397D01*
X86576498Y-81614735D01*
X86576503Y-81614737D01*
X86731153Y-81645499D01*
X86731156Y-81645500D01*
X86731158Y-81645500D01*
X86888844Y-81645500D01*
X86888845Y-81645499D01*
X87043497Y-81614737D01*
X87189179Y-81554394D01*
X87320289Y-81466789D01*
X87360190Y-81426888D01*
X89003765Y-81426888D01*
X89003765Y-81584581D01*
X89034526Y-81739224D01*
X89034529Y-81739236D01*
X89094867Y-81884907D01*
X89094874Y-81884920D01*
X89182475Y-82016023D01*
X89182478Y-82016027D01*
X89293972Y-82127521D01*
X89293976Y-82127524D01*
X89425079Y-82215125D01*
X89425092Y-82215132D01*
X89567062Y-82273937D01*
X89570768Y-82275472D01*
X89725418Y-82306234D01*
X89725421Y-82306235D01*
X89725423Y-82306235D01*
X89883109Y-82306235D01*
X89883110Y-82306234D01*
X90037762Y-82275472D01*
X90183444Y-82215129D01*
X90314554Y-82127524D01*
X90426054Y-82016024D01*
X90513659Y-81884914D01*
X90574002Y-81739232D01*
X90604765Y-81584577D01*
X90604765Y-81426893D01*
X90604765Y-81426890D01*
X90604764Y-81426888D01*
X90597182Y-81388770D01*
X90574002Y-81272238D01*
X90554098Y-81224185D01*
X90513662Y-81126562D01*
X90513655Y-81126549D01*
X90426054Y-80995446D01*
X90426051Y-80995442D01*
X90314557Y-80883948D01*
X90314553Y-80883945D01*
X90183450Y-80796344D01*
X90183437Y-80796337D01*
X90037766Y-80735999D01*
X90037754Y-80735996D01*
X89883110Y-80705235D01*
X89883107Y-80705235D01*
X89725423Y-80705235D01*
X89725420Y-80705235D01*
X89570775Y-80735996D01*
X89570763Y-80735999D01*
X89425092Y-80796337D01*
X89425079Y-80796344D01*
X89293976Y-80883945D01*
X89293972Y-80883948D01*
X89182478Y-80995442D01*
X89182475Y-80995446D01*
X89094874Y-81126549D01*
X89094867Y-81126562D01*
X89034529Y-81272233D01*
X89034526Y-81272245D01*
X89003765Y-81426888D01*
X87360190Y-81426888D01*
X87431789Y-81355289D01*
X87519394Y-81224179D01*
X87579737Y-81078497D01*
X87610500Y-80923842D01*
X87610500Y-80766158D01*
X87610500Y-80766155D01*
X87610499Y-80766153D01*
X87606271Y-80744896D01*
X87579737Y-80611503D01*
X87543262Y-80523443D01*
X87519397Y-80465827D01*
X87519390Y-80465814D01*
X87431789Y-80334711D01*
X87431786Y-80334707D01*
X87320292Y-80223213D01*
X87320288Y-80223210D01*
X87189185Y-80135609D01*
X87189172Y-80135602D01*
X87043501Y-80075264D01*
X87043489Y-80075261D01*
X86888845Y-80044500D01*
X86888842Y-80044500D01*
X86731158Y-80044500D01*
X86731155Y-80044500D01*
X86576510Y-80075261D01*
X86576498Y-80075264D01*
X86430827Y-80135602D01*
X86430814Y-80135609D01*
X86299711Y-80223210D01*
X86299707Y-80223213D01*
X86188213Y-80334707D01*
X86188210Y-80334711D01*
X86100609Y-80465814D01*
X86100602Y-80465827D01*
X86040264Y-80611498D01*
X86040261Y-80611510D01*
X86009500Y-80766153D01*
X59404734Y-80766153D01*
X59409394Y-80759179D01*
X59415313Y-80744890D01*
X59428682Y-80712614D01*
X59447574Y-80667001D01*
X59469737Y-80613497D01*
X59500500Y-80458842D01*
X59500500Y-80301158D01*
X59500500Y-80301155D01*
X59500499Y-80301153D01*
X59469737Y-80146503D01*
X59454366Y-80109394D01*
X59409397Y-80000827D01*
X59409390Y-80000814D01*
X59321789Y-79869711D01*
X59321786Y-79869707D01*
X59210292Y-79758213D01*
X59210288Y-79758210D01*
X59079185Y-79670609D01*
X59079172Y-79670602D01*
X58933501Y-79610264D01*
X58933489Y-79610261D01*
X58778845Y-79579500D01*
X58778842Y-79579500D01*
X58621158Y-79579500D01*
X58621155Y-79579500D01*
X58466510Y-79610261D01*
X58466498Y-79610264D01*
X58320827Y-79670602D01*
X58320814Y-79670609D01*
X58189711Y-79758210D01*
X58189707Y-79758213D01*
X58078213Y-79869707D01*
X58078210Y-79869711D01*
X57990609Y-80000814D01*
X57990602Y-80000827D01*
X57930264Y-80146498D01*
X57930261Y-80146510D01*
X57899500Y-80301153D01*
X53051259Y-80301153D01*
X53055524Y-79311153D01*
X70159500Y-79311153D01*
X70159500Y-79468846D01*
X70190261Y-79623489D01*
X70190264Y-79623501D01*
X70250602Y-79769172D01*
X70250609Y-79769185D01*
X70338210Y-79900288D01*
X70338213Y-79900292D01*
X70449707Y-80011786D01*
X70449711Y-80011789D01*
X70580814Y-80099390D01*
X70580827Y-80099397D01*
X70668245Y-80135606D01*
X70726503Y-80159737D01*
X70881153Y-80190499D01*
X70881156Y-80190500D01*
X70881158Y-80190500D01*
X71038844Y-80190500D01*
X71038845Y-80190499D01*
X71193497Y-80159737D01*
X71312369Y-80110499D01*
X71339172Y-80099397D01*
X71339172Y-80099396D01*
X71339179Y-80099394D01*
X71470289Y-80011789D01*
X71581789Y-79900289D01*
X71669394Y-79769179D01*
X71673938Y-79758210D01*
X71683551Y-79735000D01*
X71729737Y-79623497D01*
X71760500Y-79468842D01*
X71760500Y-79321153D01*
X75359500Y-79321153D01*
X75359500Y-79478846D01*
X75390261Y-79633489D01*
X75390264Y-79633501D01*
X75450602Y-79779172D01*
X75450609Y-79779185D01*
X75538210Y-79910288D01*
X75538213Y-79910292D01*
X75649707Y-80021786D01*
X75649711Y-80021789D01*
X75780814Y-80109390D01*
X75780827Y-80109397D01*
X75902363Y-80159738D01*
X75926503Y-80169737D01*
X76081153Y-80200499D01*
X76081156Y-80200500D01*
X76081158Y-80200500D01*
X76238844Y-80200500D01*
X76238845Y-80200499D01*
X76393497Y-80169737D01*
X76539179Y-80109394D01*
X76670289Y-80021789D01*
X76708125Y-79983953D01*
X76769447Y-79950467D01*
X76839139Y-79955451D01*
X76864698Y-79968531D01*
X76940814Y-80019390D01*
X76940827Y-80019397D01*
X77075704Y-80075264D01*
X77086503Y-80079737D01*
X77235578Y-80109390D01*
X77241153Y-80110499D01*
X77241156Y-80110500D01*
X77241158Y-80110500D01*
X77398844Y-80110500D01*
X77398845Y-80110499D01*
X77553497Y-80079737D01*
X77699179Y-80019394D01*
X77830289Y-79931789D01*
X77941789Y-79820289D01*
X78029394Y-79689179D01*
X78089737Y-79543497D01*
X78120500Y-79388842D01*
X78120500Y-79231158D01*
X78120500Y-79231155D01*
X78120499Y-79231153D01*
X78103974Y-79148072D01*
X78089738Y-79076508D01*
X78089737Y-79076507D01*
X78089737Y-79076503D01*
X78089735Y-79076498D01*
X78029397Y-78930827D01*
X78029390Y-78930814D01*
X77941789Y-78799711D01*
X77941786Y-78799707D01*
X77830292Y-78688213D01*
X77830288Y-78688210D01*
X77699185Y-78600609D01*
X77699172Y-78600602D01*
X77553501Y-78540264D01*
X77553489Y-78540261D01*
X77398845Y-78509500D01*
X77398842Y-78509500D01*
X77241158Y-78509500D01*
X77241155Y-78509500D01*
X77086510Y-78540261D01*
X77086498Y-78540264D01*
X76940827Y-78600602D01*
X76940814Y-78600609D01*
X76809711Y-78688210D01*
X76809706Y-78688214D01*
X76771872Y-78726048D01*
X76710549Y-78759533D01*
X76640857Y-78754547D01*
X76615302Y-78741468D01*
X76539190Y-78690612D01*
X76539172Y-78690602D01*
X76393501Y-78630264D01*
X76393489Y-78630261D01*
X76238845Y-78599500D01*
X76238842Y-78599500D01*
X76081158Y-78599500D01*
X76081155Y-78599500D01*
X75926510Y-78630261D01*
X75926498Y-78630264D01*
X75780827Y-78690602D01*
X75780814Y-78690609D01*
X75649711Y-78778210D01*
X75649707Y-78778213D01*
X75538213Y-78889707D01*
X75538210Y-78889711D01*
X75450609Y-79020814D01*
X75450602Y-79020827D01*
X75390264Y-79166498D01*
X75390261Y-79166510D01*
X75359500Y-79321153D01*
X71760500Y-79321153D01*
X71760500Y-79311158D01*
X71760500Y-79311155D01*
X71760499Y-79311153D01*
X71732257Y-79169174D01*
X71729737Y-79156503D01*
X71718243Y-79128753D01*
X71669397Y-79010827D01*
X71669390Y-79010814D01*
X71581789Y-78879711D01*
X71581786Y-78879707D01*
X71470292Y-78768213D01*
X71470288Y-78768210D01*
X71339185Y-78680609D01*
X71339172Y-78680602D01*
X71193501Y-78620264D01*
X71193489Y-78620261D01*
X71038845Y-78589500D01*
X71038842Y-78589500D01*
X70881158Y-78589500D01*
X70881155Y-78589500D01*
X70726510Y-78620261D01*
X70726498Y-78620264D01*
X70580827Y-78680602D01*
X70580814Y-78680609D01*
X70449711Y-78768210D01*
X70449707Y-78768213D01*
X70338213Y-78879707D01*
X70338210Y-78879711D01*
X70250609Y-79010814D01*
X70250602Y-79010827D01*
X70190264Y-79156498D01*
X70190261Y-79156510D01*
X70159500Y-79311153D01*
X53055524Y-79311153D01*
X53067653Y-76496153D01*
X62359500Y-76496153D01*
X62359500Y-76653846D01*
X62390261Y-76808489D01*
X62390264Y-76808501D01*
X62450602Y-76954172D01*
X62450609Y-76954185D01*
X62538210Y-77085288D01*
X62538213Y-77085292D01*
X62649707Y-77196786D01*
X62649711Y-77196789D01*
X62780814Y-77284390D01*
X62780827Y-77284397D01*
X62902695Y-77334875D01*
X62926503Y-77344737D01*
X62926511Y-77344738D01*
X62927731Y-77345109D01*
X62928298Y-77345481D01*
X62932130Y-77347068D01*
X62931829Y-77347794D01*
X62986170Y-77383407D01*
X63014626Y-77447219D01*
X63006297Y-77511222D01*
X62950264Y-77646498D01*
X62950261Y-77646510D01*
X62919500Y-77801153D01*
X62919500Y-77958846D01*
X62950261Y-78113489D01*
X62950264Y-78113501D01*
X63010602Y-78259172D01*
X63010609Y-78259185D01*
X63098210Y-78390288D01*
X63098213Y-78390292D01*
X63209707Y-78501786D01*
X63209711Y-78501789D01*
X63340814Y-78589390D01*
X63340827Y-78589397D01*
X63486498Y-78649735D01*
X63486503Y-78649737D01*
X63641153Y-78680499D01*
X63641156Y-78680500D01*
X63641158Y-78680500D01*
X63798844Y-78680500D01*
X63798845Y-78680499D01*
X63953497Y-78649737D01*
X64099179Y-78589394D01*
X64230289Y-78501789D01*
X64341789Y-78390289D01*
X64429394Y-78259179D01*
X64489737Y-78113497D01*
X64520500Y-77958842D01*
X64520500Y-77801158D01*
X64520500Y-77801155D01*
X64520499Y-77801153D01*
X64517749Y-77787328D01*
X64489737Y-77646503D01*
X64467523Y-77592873D01*
X64450808Y-77552518D01*
X64433674Y-77511153D01*
X69029500Y-77511153D01*
X69029500Y-77668846D01*
X69060261Y-77823489D01*
X69060264Y-77823501D01*
X69120602Y-77969172D01*
X69120609Y-77969185D01*
X69208210Y-78100288D01*
X69208213Y-78100292D01*
X69319707Y-78211786D01*
X69319711Y-78211789D01*
X69450814Y-78299390D01*
X69450827Y-78299397D01*
X69596498Y-78359735D01*
X69596503Y-78359737D01*
X69750092Y-78390288D01*
X69751153Y-78390499D01*
X69751156Y-78390500D01*
X69751158Y-78390500D01*
X69908844Y-78390500D01*
X69908845Y-78390499D01*
X70063497Y-78359737D01*
X70209179Y-78299394D01*
X70340289Y-78211789D01*
X70451789Y-78100289D01*
X70539394Y-77969179D01*
X70588282Y-77851153D01*
X81789500Y-77851153D01*
X81789500Y-78008846D01*
X81820261Y-78163489D01*
X81820264Y-78163501D01*
X81880602Y-78309172D01*
X81880609Y-78309185D01*
X81968210Y-78440288D01*
X81968213Y-78440292D01*
X82079707Y-78551786D01*
X82079711Y-78551789D01*
X82210814Y-78639390D01*
X82210827Y-78639397D01*
X82334466Y-78690609D01*
X82356503Y-78699737D01*
X82511153Y-78730499D01*
X82511156Y-78730500D01*
X82511158Y-78730500D01*
X82668844Y-78730500D01*
X82668845Y-78730499D01*
X82823497Y-78699737D01*
X82969179Y-78639394D01*
X83100289Y-78551789D01*
X83211789Y-78440289D01*
X83299394Y-78309179D01*
X83359737Y-78163497D01*
X83390500Y-78008842D01*
X83390500Y-77851158D01*
X83390500Y-77851155D01*
X83360285Y-77699258D01*
X83360285Y-77699256D01*
X83360284Y-77699253D01*
X83359738Y-77696510D01*
X83359737Y-77696503D01*
X83353379Y-77681153D01*
X84659500Y-77681153D01*
X84659500Y-77838846D01*
X84690261Y-77993489D01*
X84690264Y-77993501D01*
X84750602Y-78139172D01*
X84750609Y-78139185D01*
X84838210Y-78270288D01*
X84838213Y-78270292D01*
X84949707Y-78381786D01*
X84949711Y-78381789D01*
X85080814Y-78469390D01*
X85080827Y-78469397D01*
X85177646Y-78509500D01*
X85226503Y-78529737D01*
X85381153Y-78560499D01*
X85381156Y-78560500D01*
X85381158Y-78560500D01*
X85538844Y-78560500D01*
X85538845Y-78560499D01*
X85693497Y-78529737D01*
X85806166Y-78483067D01*
X85839172Y-78469397D01*
X85839172Y-78469396D01*
X85839179Y-78469394D01*
X85970289Y-78381789D01*
X86081789Y-78270289D01*
X86169394Y-78139179D01*
X86229737Y-77993497D01*
X86260500Y-77838842D01*
X86260500Y-77681158D01*
X86260500Y-77681155D01*
X86260499Y-77681153D01*
X86242939Y-77592873D01*
X86229737Y-77526503D01*
X86229735Y-77526498D01*
X86169397Y-77380827D01*
X86169390Y-77380814D01*
X86081789Y-77249711D01*
X86081786Y-77249707D01*
X85970292Y-77138213D01*
X85970288Y-77138210D01*
X85839185Y-77050609D01*
X85839172Y-77050602D01*
X85693501Y-76990264D01*
X85693489Y-76990261D01*
X85538845Y-76959500D01*
X85538842Y-76959500D01*
X85381158Y-76959500D01*
X85381155Y-76959500D01*
X85226510Y-76990261D01*
X85226498Y-76990264D01*
X85080827Y-77050602D01*
X85080814Y-77050609D01*
X84949711Y-77138210D01*
X84949707Y-77138213D01*
X84838213Y-77249707D01*
X84838210Y-77249711D01*
X84750609Y-77380814D01*
X84750602Y-77380827D01*
X84690264Y-77526498D01*
X84690261Y-77526510D01*
X84659500Y-77681153D01*
X83353379Y-77681153D01*
X83348281Y-77668846D01*
X83299397Y-77550827D01*
X83299390Y-77550814D01*
X83211789Y-77419711D01*
X83211786Y-77419707D01*
X83100292Y-77308213D01*
X83100288Y-77308210D01*
X82969185Y-77220609D01*
X82969172Y-77220602D01*
X82823501Y-77160264D01*
X82823489Y-77160261D01*
X82668845Y-77129500D01*
X82668842Y-77129500D01*
X82511158Y-77129500D01*
X82511155Y-77129500D01*
X82356510Y-77160261D01*
X82356498Y-77160264D01*
X82210827Y-77220602D01*
X82210814Y-77220609D01*
X82079711Y-77308210D01*
X82079707Y-77308213D01*
X81968213Y-77419707D01*
X81968210Y-77419711D01*
X81880609Y-77550814D01*
X81880602Y-77550827D01*
X81820264Y-77696498D01*
X81820261Y-77696510D01*
X81789500Y-77851153D01*
X70588282Y-77851153D01*
X70599737Y-77823497D01*
X70624450Y-77699258D01*
X70630500Y-77668844D01*
X70630500Y-77511155D01*
X70630499Y-77511153D01*
X70628442Y-77500814D01*
X70599737Y-77356503D01*
X70595172Y-77345481D01*
X70539397Y-77210827D01*
X70539390Y-77210814D01*
X70451789Y-77079711D01*
X70451786Y-77079707D01*
X70340292Y-76968213D01*
X70340288Y-76968210D01*
X70209185Y-76880609D01*
X70209172Y-76880602D01*
X70063501Y-76820264D01*
X70063489Y-76820261D01*
X69908845Y-76789500D01*
X69908842Y-76789500D01*
X69751158Y-76789500D01*
X69751155Y-76789500D01*
X69596510Y-76820261D01*
X69596498Y-76820264D01*
X69450827Y-76880602D01*
X69450814Y-76880609D01*
X69319711Y-76968210D01*
X69319707Y-76968213D01*
X69208213Y-77079707D01*
X69208210Y-77079711D01*
X69120609Y-77210814D01*
X69120602Y-77210827D01*
X69060264Y-77356498D01*
X69060261Y-77356510D01*
X69029500Y-77511153D01*
X64433674Y-77511153D01*
X64429397Y-77500827D01*
X64429390Y-77500814D01*
X64341789Y-77369711D01*
X64341786Y-77369707D01*
X64230292Y-77258213D01*
X64230288Y-77258210D01*
X64099185Y-77170609D01*
X64099172Y-77170602D01*
X63953492Y-77110260D01*
X63952257Y-77109886D01*
X63951689Y-77109514D01*
X63947870Y-77107932D01*
X63948170Y-77107207D01*
X63893822Y-77071584D01*
X63865371Y-77007769D01*
X63873701Y-76943779D01*
X63929737Y-76808497D01*
X63960500Y-76653842D01*
X63960500Y-76496158D01*
X63960500Y-76496155D01*
X63945230Y-76419390D01*
X63933405Y-76359944D01*
X63939632Y-76290355D01*
X63982494Y-76235177D01*
X64030831Y-76214137D01*
X64040518Y-76212209D01*
X64153497Y-76189737D01*
X64299179Y-76129394D01*
X64430289Y-76041789D01*
X64541789Y-75930289D01*
X64629394Y-75799179D01*
X64689737Y-75653497D01*
X64720500Y-75498842D01*
X64720500Y-75341158D01*
X64720500Y-75341155D01*
X64720499Y-75341153D01*
X64715936Y-75318213D01*
X64689737Y-75186503D01*
X64654384Y-75101153D01*
X70219500Y-75101153D01*
X70219500Y-75258846D01*
X70250261Y-75413489D01*
X70250264Y-75413501D01*
X70310602Y-75559172D01*
X70310609Y-75559185D01*
X70398210Y-75690288D01*
X70398213Y-75690292D01*
X70509707Y-75801786D01*
X70509711Y-75801789D01*
X70640814Y-75889390D01*
X70640827Y-75889397D01*
X70739558Y-75930292D01*
X70786503Y-75949737D01*
X70941153Y-75980499D01*
X70941156Y-75980500D01*
X70941158Y-75980500D01*
X71098844Y-75980500D01*
X71098845Y-75980499D01*
X71253497Y-75949737D01*
X71399179Y-75889394D01*
X71441445Y-75861153D01*
X75979500Y-75861153D01*
X75979500Y-76018846D01*
X76010261Y-76173489D01*
X76010264Y-76173501D01*
X76070602Y-76319172D01*
X76070609Y-76319185D01*
X76158210Y-76450288D01*
X76158213Y-76450292D01*
X76269707Y-76561786D01*
X76269711Y-76561789D01*
X76400814Y-76649390D01*
X76400827Y-76649397D01*
X76546498Y-76709735D01*
X76546503Y-76709737D01*
X76701153Y-76740499D01*
X76701156Y-76740500D01*
X76701158Y-76740500D01*
X76858844Y-76740500D01*
X76858845Y-76740499D01*
X77013497Y-76709737D01*
X77148436Y-76653844D01*
X77159172Y-76649397D01*
X77159172Y-76649396D01*
X77159179Y-76649394D01*
X77290289Y-76561789D01*
X77401789Y-76450289D01*
X77489394Y-76319179D01*
X77549737Y-76173497D01*
X77580500Y-76018842D01*
X77580500Y-75861158D01*
X77580500Y-75861155D01*
X77580499Y-75861153D01*
X77568173Y-75799185D01*
X77549737Y-75706503D01*
X77518526Y-75631153D01*
X80429500Y-75631153D01*
X80429500Y-75788846D01*
X80460261Y-75943489D01*
X80460264Y-75943501D01*
X80520602Y-76089172D01*
X80520609Y-76089185D01*
X80608210Y-76220288D01*
X80608213Y-76220292D01*
X80719707Y-76331786D01*
X80719711Y-76331789D01*
X80850814Y-76419390D01*
X80850827Y-76419397D01*
X80996498Y-76479735D01*
X80996503Y-76479737D01*
X81151153Y-76510499D01*
X81151156Y-76510500D01*
X81151158Y-76510500D01*
X81308844Y-76510500D01*
X81308845Y-76510499D01*
X81463497Y-76479737D01*
X81609179Y-76419394D01*
X81740289Y-76331789D01*
X81851789Y-76220289D01*
X81939394Y-76089179D01*
X81999737Y-75943497D01*
X82028850Y-75797135D01*
X93249500Y-75797135D01*
X93249500Y-77592870D01*
X93249501Y-77592876D01*
X93255908Y-77652483D01*
X93306202Y-77787328D01*
X93306206Y-77787335D01*
X93392452Y-77902544D01*
X93392455Y-77902547D01*
X93507664Y-77988793D01*
X93507671Y-77988797D01*
X93552618Y-78005561D01*
X93642517Y-78039091D01*
X93702127Y-78045500D01*
X93712685Y-78045499D01*
X93779723Y-78065179D01*
X93800372Y-78081818D01*
X94470591Y-78752037D01*
X94407007Y-78769075D01*
X94292993Y-78834901D01*
X94199901Y-78927993D01*
X94134075Y-79042007D01*
X94117037Y-79105591D01*
X93484728Y-78473282D01*
X93484727Y-78473282D01*
X93445380Y-78527439D01*
X93348904Y-78716782D01*
X93283242Y-78918869D01*
X93283242Y-78918872D01*
X93250000Y-79128753D01*
X93250000Y-79341246D01*
X93283242Y-79551127D01*
X93283242Y-79551130D01*
X93348904Y-79753217D01*
X93445375Y-79942550D01*
X93484728Y-79996716D01*
X94117037Y-79364408D01*
X94134075Y-79427993D01*
X94199901Y-79542007D01*
X94292993Y-79635099D01*
X94407007Y-79700925D01*
X94470590Y-79717962D01*
X93838282Y-80350269D01*
X93838282Y-80350270D01*
X93892452Y-80389626D01*
X93892451Y-80389626D01*
X93901495Y-80394234D01*
X93952292Y-80442208D01*
X93969087Y-80510029D01*
X93946550Y-80576164D01*
X93901499Y-80615202D01*
X93892182Y-80619949D01*
X93720213Y-80744890D01*
X93569890Y-80895213D01*
X93444951Y-81067179D01*
X93348444Y-81256585D01*
X93282753Y-81458760D01*
X93259082Y-81608213D01*
X93249500Y-81668713D01*
X93249500Y-81881287D01*
X93258516Y-81938210D01*
X93267748Y-81996503D01*
X93282754Y-82091243D01*
X93342614Y-82275473D01*
X93348444Y-82293414D01*
X93444951Y-82482820D01*
X93569890Y-82654786D01*
X93720213Y-82805109D01*
X93892182Y-82930050D01*
X93900946Y-82934516D01*
X93951742Y-82982491D01*
X93968536Y-83050312D01*
X93945998Y-83116447D01*
X93900946Y-83155484D01*
X93892182Y-83159949D01*
X93720213Y-83284890D01*
X93569890Y-83435213D01*
X93444951Y-83607179D01*
X93348444Y-83796585D01*
X93282753Y-83998760D01*
X93249500Y-84208713D01*
X93249500Y-84421287D01*
X93282754Y-84631243D01*
X93333201Y-84786503D01*
X93348444Y-84833414D01*
X93444951Y-85022820D01*
X93569890Y-85194786D01*
X93720213Y-85345109D01*
X93892179Y-85470048D01*
X93892181Y-85470049D01*
X93892184Y-85470051D01*
X94081588Y-85566557D01*
X94283757Y-85632246D01*
X94493713Y-85665500D01*
X94493714Y-85665500D01*
X94706286Y-85665500D01*
X94706287Y-85665500D01*
X94916243Y-85632246D01*
X95118412Y-85566557D01*
X95307816Y-85470051D01*
X95329789Y-85454086D01*
X95479786Y-85345109D01*
X95479788Y-85345106D01*
X95479792Y-85345104D01*
X95630104Y-85194792D01*
X95630106Y-85194788D01*
X95630109Y-85194786D01*
X95755048Y-85022820D01*
X95755047Y-85022820D01*
X95755051Y-85022816D01*
X95851557Y-84833412D01*
X95917246Y-84631243D01*
X95950500Y-84421287D01*
X95950500Y-84208713D01*
X95917246Y-83998757D01*
X95851557Y-83796588D01*
X95755051Y-83607184D01*
X95755049Y-83607181D01*
X95755048Y-83607179D01*
X95630109Y-83435213D01*
X95479786Y-83284890D01*
X95307820Y-83159951D01*
X95307115Y-83159591D01*
X95299054Y-83155485D01*
X95248259Y-83107512D01*
X95231463Y-83039692D01*
X95253999Y-82973556D01*
X95299054Y-82934515D01*
X95307816Y-82930051D01*
X95337008Y-82908842D01*
X95479786Y-82805109D01*
X95479788Y-82805106D01*
X95479792Y-82805104D01*
X95630104Y-82654792D01*
X95630106Y-82654788D01*
X95630109Y-82654786D01*
X95755048Y-82482820D01*
X95755047Y-82482820D01*
X95755051Y-82482816D01*
X95851557Y-82293412D01*
X95917246Y-82091243D01*
X95950500Y-81881287D01*
X95950500Y-81668713D01*
X95917246Y-81458757D01*
X95851557Y-81256588D01*
X95755051Y-81067184D01*
X95755049Y-81067181D01*
X95755048Y-81067179D01*
X95630109Y-80895213D01*
X95479786Y-80744890D01*
X95307817Y-80619949D01*
X95298504Y-80615204D01*
X95247707Y-80567230D01*
X95230912Y-80499409D01*
X95253449Y-80433274D01*
X95298507Y-80394232D01*
X95307555Y-80389622D01*
X95361716Y-80350270D01*
X95361717Y-80350270D01*
X94729408Y-79717962D01*
X94792993Y-79700925D01*
X94907007Y-79635099D01*
X95000099Y-79542007D01*
X95065925Y-79427993D01*
X95082962Y-79364408D01*
X95715270Y-79996717D01*
X95715270Y-79996716D01*
X95754622Y-79942554D01*
X95851095Y-79753217D01*
X95916757Y-79551130D01*
X95916757Y-79551127D01*
X95950000Y-79341246D01*
X95950000Y-79128753D01*
X95916757Y-78918872D01*
X95916757Y-78918869D01*
X95851095Y-78716782D01*
X95754624Y-78527449D01*
X95715270Y-78473282D01*
X95715269Y-78473282D01*
X95082962Y-79105590D01*
X95065925Y-79042007D01*
X95000099Y-78927993D01*
X94907007Y-78834901D01*
X94792993Y-78769075D01*
X94729409Y-78752037D01*
X95399627Y-78081818D01*
X95460950Y-78048333D01*
X95487307Y-78045499D01*
X95497872Y-78045499D01*
X95557483Y-78039091D01*
X95692331Y-77988796D01*
X95807546Y-77902546D01*
X95893796Y-77787331D01*
X95944091Y-77652483D01*
X95950500Y-77592873D01*
X95950499Y-75797128D01*
X95944091Y-75737517D01*
X95932523Y-75706502D01*
X95893797Y-75602671D01*
X95893793Y-75602664D01*
X95807547Y-75487455D01*
X95807544Y-75487452D01*
X95692335Y-75401206D01*
X95692328Y-75401202D01*
X95557482Y-75350908D01*
X95557483Y-75350908D01*
X95497883Y-75344501D01*
X95497881Y-75344500D01*
X95497873Y-75344500D01*
X95497864Y-75344500D01*
X93702129Y-75344500D01*
X93702123Y-75344501D01*
X93642516Y-75350908D01*
X93507671Y-75401202D01*
X93507664Y-75401206D01*
X93392455Y-75487452D01*
X93392452Y-75487455D01*
X93306206Y-75602664D01*
X93306202Y-75602671D01*
X93255908Y-75737517D01*
X93250390Y-75788846D01*
X93249501Y-75797123D01*
X93249500Y-75797135D01*
X82028850Y-75797135D01*
X82030500Y-75788842D01*
X82030500Y-75631158D01*
X82030500Y-75631155D01*
X82030499Y-75631153D01*
X81999737Y-75476503D01*
X81968548Y-75401206D01*
X81965393Y-75393588D01*
X81957924Y-75324119D01*
X81979981Y-75276407D01*
X81978405Y-75275354D01*
X82069390Y-75139185D01*
X82069390Y-75139184D01*
X82069394Y-75139179D01*
X82129737Y-74993497D01*
X82160500Y-74838842D01*
X82160500Y-74681158D01*
X82160500Y-74681155D01*
X82160499Y-74681153D01*
X82154355Y-74650264D01*
X82129737Y-74526503D01*
X82098170Y-74450292D01*
X82069397Y-74380827D01*
X82069390Y-74380814D01*
X81981789Y-74249711D01*
X81981786Y-74249707D01*
X81870292Y-74138213D01*
X81870288Y-74138210D01*
X81739185Y-74050609D01*
X81739172Y-74050602D01*
X81593501Y-73990264D01*
X81593489Y-73990261D01*
X81438845Y-73959500D01*
X81438842Y-73959500D01*
X81281158Y-73959500D01*
X81281155Y-73959500D01*
X81126510Y-73990261D01*
X81126498Y-73990264D01*
X80980827Y-74050602D01*
X80980814Y-74050609D01*
X80849711Y-74138210D01*
X80849707Y-74138213D01*
X80738213Y-74249707D01*
X80738210Y-74249711D01*
X80650609Y-74380814D01*
X80650602Y-74380827D01*
X80590264Y-74526498D01*
X80590261Y-74526510D01*
X80559500Y-74681153D01*
X80559500Y-74838846D01*
X80590261Y-74993489D01*
X80590264Y-74993501D01*
X80624606Y-75076411D01*
X80632075Y-75145881D01*
X80610030Y-75193600D01*
X80611595Y-75194646D01*
X80520609Y-75330814D01*
X80520602Y-75330827D01*
X80460264Y-75476498D01*
X80460261Y-75476510D01*
X80429500Y-75631153D01*
X77518526Y-75631153D01*
X77506726Y-75602664D01*
X77489397Y-75560827D01*
X77489390Y-75560814D01*
X77401789Y-75429711D01*
X77401786Y-75429707D01*
X77290292Y-75318213D01*
X77290288Y-75318210D01*
X77159185Y-75230609D01*
X77159172Y-75230602D01*
X77013501Y-75170264D01*
X77013489Y-75170261D01*
X76858845Y-75139500D01*
X76858842Y-75139500D01*
X76701158Y-75139500D01*
X76701155Y-75139500D01*
X76546510Y-75170261D01*
X76546498Y-75170264D01*
X76400827Y-75230602D01*
X76400814Y-75230609D01*
X76269711Y-75318210D01*
X76269707Y-75318213D01*
X76158213Y-75429707D01*
X76158210Y-75429711D01*
X76070609Y-75560814D01*
X76070602Y-75560827D01*
X76010264Y-75706498D01*
X76010261Y-75706510D01*
X75979500Y-75861153D01*
X71441445Y-75861153D01*
X71530289Y-75801789D01*
X71543236Y-75788842D01*
X71564694Y-75767385D01*
X71641786Y-75690292D01*
X71641789Y-75690289D01*
X71729394Y-75559179D01*
X71789737Y-75413497D01*
X71820500Y-75258842D01*
X71820500Y-75101158D01*
X71820500Y-75101155D01*
X71820499Y-75101153D01*
X71808497Y-75040814D01*
X71789737Y-74946503D01*
X71789735Y-74946498D01*
X71729397Y-74800827D01*
X71729390Y-74800814D01*
X71641789Y-74669711D01*
X71641786Y-74669707D01*
X71530292Y-74558213D01*
X71530288Y-74558210D01*
X71399185Y-74470609D01*
X71399172Y-74470602D01*
X71253501Y-74410264D01*
X71253489Y-74410261D01*
X71098845Y-74379500D01*
X71098842Y-74379500D01*
X70941158Y-74379500D01*
X70941155Y-74379500D01*
X70786510Y-74410261D01*
X70786498Y-74410264D01*
X70640827Y-74470602D01*
X70640814Y-74470609D01*
X70509711Y-74558210D01*
X70509707Y-74558213D01*
X70398213Y-74669707D01*
X70398210Y-74669711D01*
X70310609Y-74800814D01*
X70310602Y-74800827D01*
X70250264Y-74946498D01*
X70250261Y-74946510D01*
X70219500Y-75101153D01*
X64654384Y-75101153D01*
X64644136Y-75076411D01*
X64629397Y-75040827D01*
X64629390Y-75040814D01*
X64541789Y-74909711D01*
X64541786Y-74909707D01*
X64430292Y-74798213D01*
X64430288Y-74798210D01*
X64299185Y-74710609D01*
X64299172Y-74710602D01*
X64153501Y-74650264D01*
X64153489Y-74650261D01*
X63998845Y-74619500D01*
X63998842Y-74619500D01*
X63841158Y-74619500D01*
X63841155Y-74619500D01*
X63686510Y-74650261D01*
X63686498Y-74650264D01*
X63540827Y-74710602D01*
X63540814Y-74710609D01*
X63409711Y-74798210D01*
X63409707Y-74798213D01*
X63298213Y-74909707D01*
X63298210Y-74909711D01*
X63210609Y-75040814D01*
X63210602Y-75040827D01*
X63150264Y-75186498D01*
X63150261Y-75186510D01*
X63119500Y-75341153D01*
X63119500Y-75341158D01*
X63119500Y-75498842D01*
X63119500Y-75498844D01*
X63119499Y-75498844D01*
X63146594Y-75635053D01*
X63140367Y-75704645D01*
X63097504Y-75759822D01*
X63049169Y-75780862D01*
X62926508Y-75805261D01*
X62926498Y-75805264D01*
X62780827Y-75865602D01*
X62780814Y-75865609D01*
X62649711Y-75953210D01*
X62649707Y-75953213D01*
X62538213Y-76064707D01*
X62538210Y-76064711D01*
X62450609Y-76195814D01*
X62450602Y-76195827D01*
X62390264Y-76341498D01*
X62390261Y-76341510D01*
X62359500Y-76496153D01*
X53067653Y-76496153D01*
X53079006Y-73861153D01*
X64849500Y-73861153D01*
X64849500Y-74018846D01*
X64880261Y-74173489D01*
X64880264Y-74173501D01*
X64940602Y-74319172D01*
X64940609Y-74319185D01*
X65028210Y-74450288D01*
X65028213Y-74450292D01*
X65139707Y-74561786D01*
X65139711Y-74561789D01*
X65270814Y-74649390D01*
X65270827Y-74649397D01*
X65416498Y-74709735D01*
X65416503Y-74709737D01*
X65571153Y-74740499D01*
X65571156Y-74740500D01*
X65571158Y-74740500D01*
X65728844Y-74740500D01*
X65728845Y-74740499D01*
X65883497Y-74709737D01*
X66029179Y-74649394D01*
X66160289Y-74561789D01*
X66271789Y-74450289D01*
X66359394Y-74319179D01*
X66419737Y-74173497D01*
X66450500Y-74018842D01*
X66450500Y-73986153D01*
X78754500Y-73986153D01*
X78754500Y-74143846D01*
X78785261Y-74298489D01*
X78785264Y-74298501D01*
X78845602Y-74444172D01*
X78845609Y-74444185D01*
X78933210Y-74575288D01*
X78933213Y-74575292D01*
X79044707Y-74686786D01*
X79044711Y-74686789D01*
X79175814Y-74774390D01*
X79175827Y-74774397D01*
X79239636Y-74800827D01*
X79321503Y-74834737D01*
X79476153Y-74865499D01*
X79476156Y-74865500D01*
X79476158Y-74865500D01*
X79633844Y-74865500D01*
X79633845Y-74865499D01*
X79788497Y-74834737D01*
X79934179Y-74774394D01*
X80065289Y-74686789D01*
X80176789Y-74575289D01*
X80264394Y-74444179D01*
X80324737Y-74298497D01*
X80355500Y-74143842D01*
X80355500Y-73986158D01*
X80355500Y-73986155D01*
X80339342Y-73904926D01*
X80326657Y-73841153D01*
X87589500Y-73841153D01*
X87589500Y-73998846D01*
X87620261Y-74153489D01*
X87620264Y-74153501D01*
X87680602Y-74299172D01*
X87680609Y-74299185D01*
X87768210Y-74430288D01*
X87768213Y-74430292D01*
X87879707Y-74541786D01*
X87879711Y-74541789D01*
X88010814Y-74629390D01*
X88010827Y-74629397D01*
X88149386Y-74686789D01*
X88156503Y-74689737D01*
X88311153Y-74720499D01*
X88311156Y-74720500D01*
X88311158Y-74720500D01*
X88468844Y-74720500D01*
X88468845Y-74720499D01*
X88623497Y-74689737D01*
X88769179Y-74629394D01*
X88900289Y-74541789D01*
X89011789Y-74430289D01*
X89099394Y-74299179D01*
X89099677Y-74298497D01*
X89159735Y-74153501D01*
X89159737Y-74153497D01*
X89190500Y-73998842D01*
X89190500Y-73841158D01*
X89190500Y-73841155D01*
X89190499Y-73841153D01*
X89166756Y-73721789D01*
X89159737Y-73686503D01*
X89128170Y-73610292D01*
X89099397Y-73540827D01*
X89099390Y-73540814D01*
X89011789Y-73409711D01*
X89011786Y-73409707D01*
X88900292Y-73298213D01*
X88900288Y-73298210D01*
X88769185Y-73210609D01*
X88769172Y-73210602D01*
X88623501Y-73150264D01*
X88623489Y-73150261D01*
X88468845Y-73119500D01*
X88468842Y-73119500D01*
X88311158Y-73119500D01*
X88311155Y-73119500D01*
X88156510Y-73150261D01*
X88156498Y-73150264D01*
X88010827Y-73210602D01*
X88010814Y-73210609D01*
X87879711Y-73298210D01*
X87879707Y-73298213D01*
X87768213Y-73409707D01*
X87768210Y-73409711D01*
X87680609Y-73540814D01*
X87680602Y-73540827D01*
X87620264Y-73686498D01*
X87620261Y-73686510D01*
X87589500Y-73841153D01*
X80326657Y-73841153D01*
X80324737Y-73831503D01*
X80323658Y-73828899D01*
X80321871Y-73820653D01*
X80324040Y-73790631D01*
X80323769Y-73760520D01*
X80326558Y-73755769D01*
X80326906Y-73750965D01*
X80338326Y-73735732D01*
X80355374Y-73706703D01*
X80451789Y-73610289D01*
X80539394Y-73479179D01*
X80599737Y-73333497D01*
X80630500Y-73178842D01*
X80630500Y-73021158D01*
X80630500Y-73021155D01*
X80630499Y-73021153D01*
X80630105Y-73019172D01*
X80599737Y-72866503D01*
X80588650Y-72839737D01*
X80539397Y-72720827D01*
X80539390Y-72720814D01*
X80451789Y-72589711D01*
X80451786Y-72589707D01*
X80340292Y-72478213D01*
X80340288Y-72478210D01*
X80209185Y-72390609D01*
X80209172Y-72390602D01*
X80063501Y-72330264D01*
X80063489Y-72330261D01*
X79908845Y-72299500D01*
X79908842Y-72299500D01*
X79751158Y-72299500D01*
X79751155Y-72299500D01*
X79596510Y-72330261D01*
X79596498Y-72330264D01*
X79450827Y-72390602D01*
X79450814Y-72390609D01*
X79319711Y-72478210D01*
X79319707Y-72478213D01*
X79208213Y-72589707D01*
X79208210Y-72589711D01*
X79120609Y-72720814D01*
X79120602Y-72720827D01*
X79060264Y-72866498D01*
X79060261Y-72866510D01*
X79029500Y-73021153D01*
X79029500Y-73178846D01*
X79060261Y-73333492D01*
X79060603Y-73334618D01*
X79060608Y-73335236D01*
X79061451Y-73339472D01*
X79060647Y-73339631D01*
X79061228Y-73404484D01*
X79029625Y-73458296D01*
X78933210Y-73554711D01*
X78845609Y-73685814D01*
X78845602Y-73685827D01*
X78785264Y-73831498D01*
X78785261Y-73831510D01*
X78754500Y-73986153D01*
X66450500Y-73986153D01*
X66450500Y-73861158D01*
X66450500Y-73861155D01*
X66450499Y-73861153D01*
X66436471Y-73790631D01*
X66419737Y-73706503D01*
X66411170Y-73685821D01*
X66359397Y-73560827D01*
X66359390Y-73560814D01*
X66271789Y-73429711D01*
X66271786Y-73429707D01*
X66160292Y-73318213D01*
X66160288Y-73318210D01*
X66029185Y-73230609D01*
X66029172Y-73230602D01*
X65883501Y-73170264D01*
X65883489Y-73170261D01*
X65728845Y-73139500D01*
X65728842Y-73139500D01*
X65571158Y-73139500D01*
X65571155Y-73139500D01*
X65416510Y-73170261D01*
X65416498Y-73170264D01*
X65270827Y-73230602D01*
X65270814Y-73230609D01*
X65139711Y-73318210D01*
X65139707Y-73318213D01*
X65028213Y-73429707D01*
X65028210Y-73429711D01*
X64940609Y-73560814D01*
X64940602Y-73560827D01*
X64880264Y-73706498D01*
X64880261Y-73706510D01*
X64849500Y-73861153D01*
X53079006Y-73861153D01*
X53088065Y-71758713D01*
X54199500Y-71758713D01*
X54199500Y-71971287D01*
X54202647Y-71991155D01*
X54232412Y-72179087D01*
X54232754Y-72181243D01*
X54278477Y-72321964D01*
X54298444Y-72383414D01*
X54394951Y-72572820D01*
X54519890Y-72744786D01*
X54670213Y-72895109D01*
X54842179Y-73020048D01*
X54842181Y-73020049D01*
X54842184Y-73020051D01*
X55031588Y-73116557D01*
X55233757Y-73182246D01*
X55443713Y-73215500D01*
X55443714Y-73215500D01*
X55656286Y-73215500D01*
X55656287Y-73215500D01*
X55866243Y-73182246D01*
X56068412Y-73116557D01*
X56257816Y-73020051D01*
X56308140Y-72983489D01*
X56429786Y-72895109D01*
X56429788Y-72895106D01*
X56429792Y-72895104D01*
X56580104Y-72744792D01*
X56580106Y-72744788D01*
X56580109Y-72744786D01*
X56658809Y-72636463D01*
X56705051Y-72572816D01*
X56710994Y-72561153D01*
X63129500Y-72561153D01*
X63129500Y-72718846D01*
X63160261Y-72873489D01*
X63160264Y-72873501D01*
X63220602Y-73019172D01*
X63220609Y-73019185D01*
X63308210Y-73150288D01*
X63308213Y-73150292D01*
X63419707Y-73261786D01*
X63419711Y-73261789D01*
X63550814Y-73349390D01*
X63550827Y-73349397D01*
X63696440Y-73409711D01*
X63696503Y-73409737D01*
X63851153Y-73440499D01*
X63851156Y-73440500D01*
X63851158Y-73440500D01*
X64008844Y-73440500D01*
X64008845Y-73440499D01*
X64163497Y-73409737D01*
X64309179Y-73349394D01*
X64440289Y-73261789D01*
X64551789Y-73150289D01*
X64639394Y-73019179D01*
X64699737Y-72873497D01*
X64730500Y-72718842D01*
X64730500Y-72561158D01*
X64730500Y-72561155D01*
X64730499Y-72561153D01*
X64721619Y-72516510D01*
X64699737Y-72406503D01*
X64690173Y-72383414D01*
X64639397Y-72260827D01*
X64639390Y-72260814D01*
X64551789Y-72129711D01*
X64551786Y-72129707D01*
X64440292Y-72018213D01*
X64440288Y-72018210D01*
X64309185Y-71930609D01*
X64309172Y-71930602D01*
X64163501Y-71870264D01*
X64163489Y-71870261D01*
X64008845Y-71839500D01*
X64008842Y-71839500D01*
X63851158Y-71839500D01*
X63851155Y-71839500D01*
X63696510Y-71870261D01*
X63696498Y-71870264D01*
X63550827Y-71930602D01*
X63550814Y-71930609D01*
X63419711Y-72018210D01*
X63419707Y-72018213D01*
X63308213Y-72129707D01*
X63308210Y-72129711D01*
X63220609Y-72260814D01*
X63220602Y-72260827D01*
X63160264Y-72406498D01*
X63160261Y-72406510D01*
X63129500Y-72561153D01*
X56710994Y-72561153D01*
X56801557Y-72383412D01*
X56867246Y-72181243D01*
X56900500Y-71971287D01*
X56900500Y-71758713D01*
X56867246Y-71548757D01*
X56801557Y-71346588D01*
X56801555Y-71346584D01*
X56793798Y-71331359D01*
X56768216Y-71281153D01*
X57539500Y-71281153D01*
X57539500Y-71438846D01*
X57570261Y-71593489D01*
X57570264Y-71593501D01*
X57630602Y-71739172D01*
X57630609Y-71739185D01*
X57718210Y-71870288D01*
X57718213Y-71870292D01*
X57829707Y-71981786D01*
X57829711Y-71981789D01*
X57960814Y-72069390D01*
X57960827Y-72069397D01*
X58106440Y-72129711D01*
X58106503Y-72129737D01*
X58261153Y-72160499D01*
X58261156Y-72160500D01*
X58261158Y-72160500D01*
X58418844Y-72160500D01*
X58418845Y-72160499D01*
X58573497Y-72129737D01*
X58719179Y-72069394D01*
X58850289Y-71981789D01*
X58961789Y-71870289D01*
X59049394Y-71739179D01*
X59109737Y-71593497D01*
X59110443Y-71589948D01*
X65732177Y-71589948D01*
X65732177Y-71747641D01*
X65762938Y-71902284D01*
X65762941Y-71902296D01*
X65823279Y-72047967D01*
X65823286Y-72047980D01*
X65910887Y-72179083D01*
X65910890Y-72179087D01*
X66022384Y-72290581D01*
X66022388Y-72290584D01*
X66153491Y-72378185D01*
X66153504Y-72378192D01*
X66281365Y-72431153D01*
X66299180Y-72438532D01*
X66440538Y-72466650D01*
X66453830Y-72469294D01*
X66453833Y-72469295D01*
X66453835Y-72469295D01*
X66611521Y-72469295D01*
X66611522Y-72469294D01*
X66766174Y-72438532D01*
X66783989Y-72431153D01*
X70799500Y-72431153D01*
X70799500Y-72588846D01*
X70830261Y-72743489D01*
X70830264Y-72743501D01*
X70890602Y-72889172D01*
X70890609Y-72889185D01*
X70978210Y-73020288D01*
X70978213Y-73020292D01*
X71089707Y-73131786D01*
X71089711Y-73131789D01*
X71220814Y-73219390D01*
X71220827Y-73219397D01*
X71319558Y-73260292D01*
X71366503Y-73279737D01*
X71521153Y-73310499D01*
X71521156Y-73310500D01*
X71521158Y-73310500D01*
X71678844Y-73310500D01*
X71678845Y-73310499D01*
X71833497Y-73279737D01*
X71979179Y-73219394D01*
X72110289Y-73131789D01*
X72221789Y-73020289D01*
X72309394Y-72889179D01*
X72369737Y-72743497D01*
X72375840Y-72712816D01*
X72384128Y-72671153D01*
X75559500Y-72671153D01*
X75559500Y-72828846D01*
X75590261Y-72983489D01*
X75590264Y-72983501D01*
X75650602Y-73129172D01*
X75650609Y-73129185D01*
X75738210Y-73260288D01*
X75738213Y-73260292D01*
X75849707Y-73371786D01*
X75849711Y-73371789D01*
X75980814Y-73459390D01*
X75980827Y-73459397D01*
X76126498Y-73519735D01*
X76126503Y-73519737D01*
X76281153Y-73550499D01*
X76281156Y-73550500D01*
X76281158Y-73550500D01*
X76438844Y-73550500D01*
X76438845Y-73550499D01*
X76593497Y-73519737D01*
X76739179Y-73459394D01*
X76870289Y-73371789D01*
X76981789Y-73260289D01*
X77069394Y-73129179D01*
X77129737Y-72983497D01*
X77160500Y-72828842D01*
X77160500Y-72671158D01*
X77160500Y-72671155D01*
X77160499Y-72671153D01*
X77144127Y-72588846D01*
X77129737Y-72516503D01*
X77110183Y-72469294D01*
X77069397Y-72370827D01*
X77069390Y-72370814D01*
X76981789Y-72239711D01*
X76981786Y-72239707D01*
X76870292Y-72128213D01*
X76870288Y-72128210D01*
X76810361Y-72088168D01*
X76739185Y-72040609D01*
X76739172Y-72040602D01*
X76619790Y-71991153D01*
X83293500Y-71991153D01*
X83293500Y-72148846D01*
X83324261Y-72303489D01*
X83324264Y-72303501D01*
X83384602Y-72449172D01*
X83384609Y-72449185D01*
X83472210Y-72580288D01*
X83472213Y-72580292D01*
X83583707Y-72691786D01*
X83583711Y-72691789D01*
X83714814Y-72779390D01*
X83714827Y-72779397D01*
X83860498Y-72839735D01*
X83860503Y-72839737D01*
X83995039Y-72866498D01*
X84015153Y-72870499D01*
X84015156Y-72870500D01*
X84015158Y-72870500D01*
X84172844Y-72870500D01*
X84172845Y-72870499D01*
X84327497Y-72839737D01*
X84473179Y-72779394D01*
X84604289Y-72691789D01*
X84715789Y-72580289D01*
X84803394Y-72449179D01*
X84810859Y-72431158D01*
X84827654Y-72390609D01*
X84863737Y-72303497D01*
X84894500Y-72148842D01*
X84894500Y-71991158D01*
X84894500Y-71991155D01*
X84894499Y-71991153D01*
X84882455Y-71930606D01*
X84863737Y-71836503D01*
X84849830Y-71802928D01*
X84803397Y-71690827D01*
X84803390Y-71690814D01*
X84715789Y-71559711D01*
X84715786Y-71559707D01*
X84604292Y-71448213D01*
X84604288Y-71448210D01*
X84473185Y-71360609D01*
X84473172Y-71360602D01*
X84327501Y-71300264D01*
X84327489Y-71300261D01*
X84172845Y-71269500D01*
X84172842Y-71269500D01*
X84015158Y-71269500D01*
X84015155Y-71269500D01*
X83860510Y-71300261D01*
X83860498Y-71300264D01*
X83714827Y-71360602D01*
X83714814Y-71360609D01*
X83583711Y-71448210D01*
X83583707Y-71448213D01*
X83472213Y-71559707D01*
X83472210Y-71559711D01*
X83384609Y-71690814D01*
X83384602Y-71690827D01*
X83324264Y-71836498D01*
X83324261Y-71836510D01*
X83293500Y-71991153D01*
X76619790Y-71991153D01*
X76593501Y-71980264D01*
X76593489Y-71980261D01*
X76438845Y-71949500D01*
X76438842Y-71949500D01*
X76281158Y-71949500D01*
X76281155Y-71949500D01*
X76126510Y-71980261D01*
X76126498Y-71980264D01*
X75980827Y-72040602D01*
X75980814Y-72040609D01*
X75849711Y-72128210D01*
X75849707Y-72128213D01*
X75738213Y-72239707D01*
X75738210Y-72239711D01*
X75650609Y-72370814D01*
X75650602Y-72370827D01*
X75590264Y-72516498D01*
X75590261Y-72516510D01*
X75559500Y-72671153D01*
X72384128Y-72671153D01*
X72390151Y-72640874D01*
X72390151Y-72640873D01*
X72400499Y-72588846D01*
X72400500Y-72588844D01*
X72400500Y-72431155D01*
X72400499Y-72431153D01*
X72388497Y-72370814D01*
X72369737Y-72276503D01*
X72330665Y-72182176D01*
X72323197Y-72112709D01*
X72354472Y-72050229D01*
X72414561Y-72014577D01*
X72484386Y-72017071D01*
X72492679Y-72020164D01*
X72611540Y-72069397D01*
X72636503Y-72079737D01*
X72791153Y-72110499D01*
X72791156Y-72110500D01*
X72791158Y-72110500D01*
X72948844Y-72110500D01*
X73108359Y-72078770D01*
X73177951Y-72084997D01*
X73233128Y-72127860D01*
X73235652Y-72131495D01*
X73248208Y-72150285D01*
X73248213Y-72150292D01*
X73359707Y-72261786D01*
X73359711Y-72261789D01*
X73490814Y-72349390D01*
X73490827Y-72349397D01*
X73628683Y-72406498D01*
X73636503Y-72409737D01*
X73781254Y-72438530D01*
X73791153Y-72440499D01*
X73791156Y-72440500D01*
X73791158Y-72440500D01*
X73948844Y-72440500D01*
X73948845Y-72440499D01*
X74103497Y-72409737D01*
X74249179Y-72349394D01*
X74380289Y-72261789D01*
X74491789Y-72150289D01*
X74579394Y-72019179D01*
X74639737Y-71873497D01*
X74670500Y-71718842D01*
X74670500Y-71561158D01*
X74670500Y-71561155D01*
X74650656Y-71461397D01*
X74656883Y-71391805D01*
X74699745Y-71336628D01*
X74765635Y-71313383D01*
X74796462Y-71315587D01*
X74821158Y-71320500D01*
X74978844Y-71320500D01*
X74978845Y-71320499D01*
X75133497Y-71289737D01*
X75221530Y-71253273D01*
X75284808Y-71227063D01*
X75285763Y-71229370D01*
X75343443Y-71217352D01*
X75408691Y-71242342D01*
X75421194Y-71253273D01*
X75529707Y-71361786D01*
X75529711Y-71361789D01*
X75660814Y-71449390D01*
X75660827Y-71449397D01*
X75794497Y-71504764D01*
X75806503Y-71509737D01*
X75961153Y-71540499D01*
X75961156Y-71540500D01*
X75961158Y-71540500D01*
X76118844Y-71540500D01*
X76118845Y-71540499D01*
X76273497Y-71509737D01*
X76419179Y-71449394D01*
X76550289Y-71361789D01*
X76661789Y-71250289D01*
X76749394Y-71119179D01*
X76809737Y-70973497D01*
X76840500Y-70818842D01*
X76840500Y-70661158D01*
X76840500Y-70661155D01*
X76840499Y-70661153D01*
X76831009Y-70613443D01*
X76809737Y-70506503D01*
X76806564Y-70498842D01*
X76749397Y-70360827D01*
X76749390Y-70360814D01*
X76661789Y-70229711D01*
X76661786Y-70229707D01*
X76550292Y-70118213D01*
X76550288Y-70118210D01*
X76419185Y-70030609D01*
X76419172Y-70030602D01*
X76273501Y-69970264D01*
X76273489Y-69970261D01*
X76118845Y-69939500D01*
X76118842Y-69939500D01*
X75961158Y-69939500D01*
X75961155Y-69939500D01*
X75806510Y-69970261D01*
X75806498Y-69970264D01*
X75655193Y-70032937D01*
X75654239Y-70030635D01*
X75596516Y-70042644D01*
X75531277Y-70017633D01*
X75518806Y-70006727D01*
X75410292Y-69898213D01*
X75410288Y-69898210D01*
X75279185Y-69810609D01*
X75279172Y-69810602D01*
X75133501Y-69750264D01*
X75133489Y-69750261D01*
X74978845Y-69719500D01*
X74978842Y-69719500D01*
X74821158Y-69719500D01*
X74821155Y-69719500D01*
X74666510Y-69750261D01*
X74666498Y-69750264D01*
X74520827Y-69810602D01*
X74520814Y-69810609D01*
X74389711Y-69898210D01*
X74389707Y-69898213D01*
X74278213Y-70009707D01*
X74278210Y-70009711D01*
X74190609Y-70140814D01*
X74190602Y-70140827D01*
X74130264Y-70286498D01*
X74130261Y-70286510D01*
X74099500Y-70441153D01*
X74099500Y-70598846D01*
X74119343Y-70698603D01*
X74113116Y-70768194D01*
X74070253Y-70823372D01*
X74004363Y-70846616D01*
X73973535Y-70844411D01*
X73948846Y-70839500D01*
X73948842Y-70839500D01*
X73791158Y-70839500D01*
X73791153Y-70839500D01*
X73631639Y-70871229D01*
X73562047Y-70865002D01*
X73506870Y-70822138D01*
X73504346Y-70818503D01*
X73491789Y-70799711D01*
X73491786Y-70799707D01*
X73380292Y-70688213D01*
X73380286Y-70688208D01*
X73347837Y-70666526D01*
X73303033Y-70612914D01*
X73294326Y-70543589D01*
X73302166Y-70515978D01*
X73328052Y-70453484D01*
X73358815Y-70298829D01*
X73358815Y-70141145D01*
X73358815Y-70141142D01*
X73358814Y-70141140D01*
X73354410Y-70118999D01*
X73328052Y-69986490D01*
X73321330Y-69970261D01*
X73267712Y-69840814D01*
X73267705Y-69840801D01*
X73180104Y-69709698D01*
X73180101Y-69709694D01*
X73068607Y-69598200D01*
X73068603Y-69598197D01*
X72937500Y-69510596D01*
X72937487Y-69510589D01*
X72791816Y-69450251D01*
X72791806Y-69450248D01*
X72739872Y-69439918D01*
X72739871Y-69439917D01*
X72637160Y-69419487D01*
X72637157Y-69419487D01*
X72479473Y-69419487D01*
X72479470Y-69419487D01*
X72324825Y-69450248D01*
X72324813Y-69450251D01*
X72179142Y-69510589D01*
X72179129Y-69510596D01*
X72048026Y-69598197D01*
X72048022Y-69598200D01*
X71936528Y-69709694D01*
X71936525Y-69709698D01*
X71848924Y-69840801D01*
X71848917Y-69840814D01*
X71788579Y-69986485D01*
X71788576Y-69986497D01*
X71757815Y-70141140D01*
X71757815Y-70298833D01*
X71788576Y-70453476D01*
X71788579Y-70453488D01*
X71848917Y-70599159D01*
X71848924Y-70599172D01*
X71936525Y-70730275D01*
X71936528Y-70730279D01*
X72048022Y-70841773D01*
X72048026Y-70841776D01*
X72080476Y-70863459D01*
X72125281Y-70917072D01*
X72133988Y-70986397D01*
X72126147Y-71014012D01*
X72100263Y-71076503D01*
X72100261Y-71076510D01*
X72069500Y-71231153D01*
X72069500Y-71388846D01*
X72100261Y-71543489D01*
X72100264Y-71543501D01*
X72139333Y-71637822D01*
X72146802Y-71707291D01*
X72115527Y-71769770D01*
X72055438Y-71805422D01*
X71985612Y-71802928D01*
X71977320Y-71799835D01*
X71833501Y-71740264D01*
X71833489Y-71740261D01*
X71678845Y-71709500D01*
X71678842Y-71709500D01*
X71521158Y-71709500D01*
X71521155Y-71709500D01*
X71366510Y-71740261D01*
X71366498Y-71740264D01*
X71220827Y-71800602D01*
X71220814Y-71800609D01*
X71089711Y-71888210D01*
X71089707Y-71888213D01*
X70978213Y-71999707D01*
X70978210Y-71999711D01*
X70890609Y-72130814D01*
X70890602Y-72130827D01*
X70830264Y-72276498D01*
X70830261Y-72276510D01*
X70799500Y-72431153D01*
X66783989Y-72431153D01*
X66881871Y-72390609D01*
X66911849Y-72378192D01*
X66911849Y-72378191D01*
X66911856Y-72378189D01*
X66922883Y-72370821D01*
X66996003Y-72321964D01*
X67029622Y-72299500D01*
X67042966Y-72290584D01*
X67154466Y-72179084D01*
X67242071Y-72047974D01*
X67302414Y-71902292D01*
X67333177Y-71747637D01*
X67333177Y-71589953D01*
X67333177Y-71589950D01*
X67333176Y-71589948D01*
X67324983Y-71548760D01*
X67302414Y-71435298D01*
X67283173Y-71388846D01*
X67242074Y-71289622D01*
X67242067Y-71289609D01*
X67154466Y-71158506D01*
X67154463Y-71158502D01*
X67042969Y-71047008D01*
X67042965Y-71047005D01*
X66911862Y-70959404D01*
X66911849Y-70959397D01*
X66766178Y-70899059D01*
X66766166Y-70899056D01*
X66611522Y-70868295D01*
X66611519Y-70868295D01*
X66453835Y-70868295D01*
X66453832Y-70868295D01*
X66299187Y-70899056D01*
X66299175Y-70899059D01*
X66153504Y-70959397D01*
X66153491Y-70959404D01*
X66022388Y-71047005D01*
X66022384Y-71047008D01*
X65910890Y-71158502D01*
X65910887Y-71158506D01*
X65823286Y-71289609D01*
X65823279Y-71289622D01*
X65762941Y-71435293D01*
X65762938Y-71435305D01*
X65732177Y-71589948D01*
X59110443Y-71589948D01*
X59116170Y-71561158D01*
X59116466Y-71559670D01*
X59116466Y-71559669D01*
X59140500Y-71438844D01*
X59140500Y-71281155D01*
X59140499Y-71281153D01*
X59134360Y-71250289D01*
X59109737Y-71126503D01*
X59106703Y-71119179D01*
X59049397Y-70980827D01*
X59049390Y-70980814D01*
X58961789Y-70849711D01*
X58961786Y-70849707D01*
X58850292Y-70738213D01*
X58850288Y-70738210D01*
X58719185Y-70650609D01*
X58719172Y-70650602D01*
X58573501Y-70590264D01*
X58573489Y-70590261D01*
X58418845Y-70559500D01*
X58418842Y-70559500D01*
X58261158Y-70559500D01*
X58261155Y-70559500D01*
X58106510Y-70590261D01*
X58106498Y-70590264D01*
X57960827Y-70650602D01*
X57960814Y-70650609D01*
X57829711Y-70738210D01*
X57829707Y-70738213D01*
X57718213Y-70849707D01*
X57718210Y-70849711D01*
X57630609Y-70980814D01*
X57630602Y-70980827D01*
X57570264Y-71126498D01*
X57570261Y-71126510D01*
X57539500Y-71281153D01*
X56768216Y-71281153D01*
X56748441Y-71242342D01*
X56705051Y-71157184D01*
X56682760Y-71126503D01*
X56580109Y-70985213D01*
X56466181Y-70871285D01*
X56432696Y-70809962D01*
X56437680Y-70740270D01*
X56479552Y-70684337D01*
X56510529Y-70667422D01*
X56642086Y-70618354D01*
X56642093Y-70618350D01*
X56757187Y-70532190D01*
X56757190Y-70532187D01*
X56843350Y-70417093D01*
X56843354Y-70417086D01*
X56871675Y-70341153D01*
X63199500Y-70341153D01*
X63199500Y-70498846D01*
X63230261Y-70653489D01*
X63230264Y-70653501D01*
X63290602Y-70799172D01*
X63290609Y-70799185D01*
X63378210Y-70930288D01*
X63378213Y-70930292D01*
X63489707Y-71041786D01*
X63489711Y-71041789D01*
X63620814Y-71129390D01*
X63620827Y-71129397D01*
X63766498Y-71189735D01*
X63766503Y-71189737D01*
X63891261Y-71214553D01*
X63921153Y-71220499D01*
X63921156Y-71220500D01*
X63921158Y-71220500D01*
X64078844Y-71220500D01*
X64078845Y-71220499D01*
X64233497Y-71189737D01*
X64379179Y-71129394D01*
X64510289Y-71041789D01*
X64621789Y-70930289D01*
X64709394Y-70799179D01*
X64710085Y-70797512D01*
X64734647Y-70738213D01*
X64769737Y-70653497D01*
X64800500Y-70498842D01*
X64800500Y-70341158D01*
X64800500Y-70341155D01*
X64800499Y-70341153D01*
X64792081Y-70298833D01*
X64769737Y-70186503D01*
X64764068Y-70172816D01*
X64709397Y-70040827D01*
X64709390Y-70040814D01*
X64621789Y-69909711D01*
X64621786Y-69909707D01*
X64510292Y-69798213D01*
X64510288Y-69798210D01*
X64379185Y-69710609D01*
X64379172Y-69710602D01*
X64233501Y-69650264D01*
X64233489Y-69650261D01*
X64078845Y-69619500D01*
X64078842Y-69619500D01*
X63921158Y-69619500D01*
X63921155Y-69619500D01*
X63766510Y-69650261D01*
X63766498Y-69650264D01*
X63620827Y-69710602D01*
X63620814Y-69710609D01*
X63489711Y-69798210D01*
X63489707Y-69798213D01*
X63378213Y-69909707D01*
X63378210Y-69909711D01*
X63290609Y-70040814D01*
X63290602Y-70040827D01*
X63230264Y-70186498D01*
X63230261Y-70186510D01*
X63199500Y-70341153D01*
X56871675Y-70341153D01*
X56890108Y-70291733D01*
X56890109Y-70291731D01*
X56893596Y-70282380D01*
X56893598Y-70282372D01*
X56899999Y-70222844D01*
X56900000Y-70222827D01*
X56900000Y-69575000D01*
X55983012Y-69575000D01*
X56015925Y-69517993D01*
X56050000Y-69390826D01*
X56050000Y-69324388D01*
X86577735Y-69324388D01*
X86577735Y-69482081D01*
X86608496Y-69636724D01*
X86608499Y-69636736D01*
X86668837Y-69782407D01*
X86668844Y-69782420D01*
X86756445Y-69913523D01*
X86756448Y-69913527D01*
X86867942Y-70025021D01*
X86867946Y-70025024D01*
X86999049Y-70112625D01*
X86999056Y-70112629D01*
X87022196Y-70122213D01*
X87076599Y-70166053D01*
X87098665Y-70232347D01*
X87081387Y-70300047D01*
X87077847Y-70305665D01*
X87064873Y-70325081D01*
X87064867Y-70325092D01*
X87004529Y-70470763D01*
X87004526Y-70470775D01*
X86973765Y-70625418D01*
X86973765Y-70783111D01*
X87004526Y-70937754D01*
X87004529Y-70937766D01*
X87064867Y-71083437D01*
X87064874Y-71083450D01*
X87152475Y-71214553D01*
X87152478Y-71214557D01*
X87263972Y-71326051D01*
X87263976Y-71326054D01*
X87395079Y-71413655D01*
X87395092Y-71413662D01*
X87540763Y-71474000D01*
X87540768Y-71474002D01*
X87695418Y-71504764D01*
X87695421Y-71504765D01*
X87695423Y-71504765D01*
X87853109Y-71504765D01*
X87853110Y-71504764D01*
X88007762Y-71474002D01*
X88153444Y-71413659D01*
X88284554Y-71326054D01*
X88396054Y-71214554D01*
X88483659Y-71083444D01*
X88544002Y-70937762D01*
X88574765Y-70783107D01*
X88574765Y-70625423D01*
X88574765Y-70625420D01*
X88574764Y-70625418D01*
X88561652Y-70559500D01*
X88544002Y-70470768D01*
X88544000Y-70470763D01*
X88483662Y-70325092D01*
X88483655Y-70325079D01*
X88396054Y-70193976D01*
X88396051Y-70193972D01*
X88284557Y-70082478D01*
X88284553Y-70082475D01*
X88153450Y-69994874D01*
X88153440Y-69994869D01*
X88130302Y-69985285D01*
X88075899Y-69941444D01*
X88053834Y-69875150D01*
X88071113Y-69807450D01*
X88074633Y-69801863D01*
X88087629Y-69782414D01*
X88147972Y-69636732D01*
X88178735Y-69482077D01*
X88178735Y-69324393D01*
X88178735Y-69324390D01*
X88178734Y-69324388D01*
X88147973Y-69169745D01*
X88147972Y-69169738D01*
X88139283Y-69148760D01*
X88087632Y-69024062D01*
X88087625Y-69024049D01*
X88000024Y-68892946D01*
X88000021Y-68892942D01*
X87888527Y-68781448D01*
X87888523Y-68781445D01*
X87757420Y-68693844D01*
X87757407Y-68693837D01*
X87611736Y-68633499D01*
X87611724Y-68633496D01*
X87457080Y-68602735D01*
X87457077Y-68602735D01*
X87299393Y-68602735D01*
X87299390Y-68602735D01*
X87144745Y-68633496D01*
X87144733Y-68633499D01*
X86999062Y-68693837D01*
X86999049Y-68693844D01*
X86867946Y-68781445D01*
X86867942Y-68781448D01*
X86756448Y-68892942D01*
X86756445Y-68892946D01*
X86668844Y-69024049D01*
X86668837Y-69024062D01*
X86608499Y-69169733D01*
X86608496Y-69169745D01*
X86577735Y-69324388D01*
X56050000Y-69324388D01*
X56050000Y-69259174D01*
X56015925Y-69132007D01*
X55983012Y-69075000D01*
X56900000Y-69075000D01*
X56900000Y-68427172D01*
X56899999Y-68427155D01*
X56893598Y-68367627D01*
X56893596Y-68367620D01*
X56843354Y-68232913D01*
X56843350Y-68232906D01*
X56757190Y-68117812D01*
X56725825Y-68094332D01*
X56725823Y-68094330D01*
X56642093Y-68031649D01*
X56642086Y-68031645D01*
X56560332Y-68001153D01*
X62359500Y-68001153D01*
X62359500Y-68158846D01*
X62390261Y-68313489D01*
X62390264Y-68313501D01*
X62450602Y-68459172D01*
X62450609Y-68459185D01*
X62538210Y-68590288D01*
X62538213Y-68590292D01*
X62649707Y-68701786D01*
X62649711Y-68701789D01*
X62780814Y-68789390D01*
X62780827Y-68789397D01*
X62846845Y-68816742D01*
X62926503Y-68849737D01*
X63081153Y-68880499D01*
X63081156Y-68880500D01*
X63081158Y-68880500D01*
X63238844Y-68880500D01*
X63238845Y-68880499D01*
X63393497Y-68849737D01*
X63539179Y-68789394D01*
X63670289Y-68701789D01*
X63781789Y-68590289D01*
X63869253Y-68459390D01*
X63869390Y-68459185D01*
X63869390Y-68459184D01*
X63869394Y-68459179D01*
X63929737Y-68313497D01*
X63960500Y-68158842D01*
X63960500Y-68001158D01*
X63960500Y-68001155D01*
X63960499Y-68001153D01*
X63938269Y-67889397D01*
X63929737Y-67846503D01*
X63923379Y-67831153D01*
X63869397Y-67700827D01*
X63869390Y-67700814D01*
X63781789Y-67569711D01*
X63781786Y-67569707D01*
X63670292Y-67458213D01*
X63670288Y-67458210D01*
X63539185Y-67370609D01*
X63539172Y-67370602D01*
X63393501Y-67310264D01*
X63393489Y-67310261D01*
X63238845Y-67279500D01*
X63238842Y-67279500D01*
X63081158Y-67279500D01*
X63081155Y-67279500D01*
X62926510Y-67310261D01*
X62926498Y-67310264D01*
X62780827Y-67370602D01*
X62780814Y-67370609D01*
X62649711Y-67458210D01*
X62649707Y-67458213D01*
X62538213Y-67569707D01*
X62538210Y-67569711D01*
X62450609Y-67700814D01*
X62450602Y-67700827D01*
X62390264Y-67846498D01*
X62390261Y-67846510D01*
X62359500Y-68001153D01*
X56560332Y-68001153D01*
X56507379Y-67981403D01*
X56507372Y-67981401D01*
X56447844Y-67975000D01*
X55800000Y-67975000D01*
X55800000Y-68891988D01*
X55742993Y-68859075D01*
X55615826Y-68825000D01*
X55484174Y-68825000D01*
X55357007Y-68859075D01*
X55300000Y-68891988D01*
X55300000Y-67975000D01*
X54652155Y-67975000D01*
X54592627Y-67981401D01*
X54592620Y-67981403D01*
X54457913Y-68031645D01*
X54457906Y-68031649D01*
X54342812Y-68117809D01*
X54342809Y-68117812D01*
X54256649Y-68232906D01*
X54256645Y-68232913D01*
X54206403Y-68367620D01*
X54206401Y-68367627D01*
X54200000Y-68427155D01*
X54200000Y-69075000D01*
X55116988Y-69075000D01*
X55084075Y-69132007D01*
X55050000Y-69259174D01*
X55050000Y-69390826D01*
X55084075Y-69517993D01*
X55116988Y-69575000D01*
X54200000Y-69575000D01*
X54200000Y-70222844D01*
X54206401Y-70282372D01*
X54206403Y-70282379D01*
X54256645Y-70417086D01*
X54256649Y-70417093D01*
X54342809Y-70532187D01*
X54342812Y-70532190D01*
X54457906Y-70618350D01*
X54457913Y-70618354D01*
X54589470Y-70667422D01*
X54645404Y-70709293D01*
X54669821Y-70774758D01*
X54654969Y-70843031D01*
X54633819Y-70871285D01*
X54519889Y-70985215D01*
X54394951Y-71157179D01*
X54298444Y-71346585D01*
X54232753Y-71548760D01*
X54202422Y-71740263D01*
X54199500Y-71758713D01*
X53088065Y-71758713D01*
X53108951Y-66911153D01*
X59329500Y-66911153D01*
X59329500Y-67068846D01*
X59360261Y-67223489D01*
X59360264Y-67223501D01*
X59420602Y-67369172D01*
X59420609Y-67369185D01*
X59508210Y-67500288D01*
X59508213Y-67500292D01*
X59619707Y-67611786D01*
X59619711Y-67611789D01*
X59750814Y-67699390D01*
X59750827Y-67699397D01*
X59896498Y-67759735D01*
X59896503Y-67759737D01*
X60051153Y-67790499D01*
X60051156Y-67790500D01*
X60051158Y-67790500D01*
X60208844Y-67790500D01*
X60208845Y-67790499D01*
X60363497Y-67759737D01*
X60486369Y-67708842D01*
X60509172Y-67699397D01*
X60509172Y-67699396D01*
X60509179Y-67699394D01*
X60640289Y-67611789D01*
X60751789Y-67500289D01*
X60839394Y-67369179D01*
X60899737Y-67223497D01*
X60912138Y-67161153D01*
X65189500Y-67161153D01*
X65189500Y-67318846D01*
X65220261Y-67473489D01*
X65220264Y-67473501D01*
X65280602Y-67619172D01*
X65280609Y-67619185D01*
X65368210Y-67750288D01*
X65368213Y-67750292D01*
X65479707Y-67861786D01*
X65479711Y-67861789D01*
X65610814Y-67949390D01*
X65610827Y-67949397D01*
X65706067Y-67988846D01*
X65756503Y-68009737D01*
X65909997Y-68040269D01*
X65911153Y-68040499D01*
X65911156Y-68040500D01*
X65911158Y-68040500D01*
X66068844Y-68040500D01*
X66068845Y-68040499D01*
X66223497Y-68009737D01*
X66369179Y-67949394D01*
X66500289Y-67861789D01*
X66530925Y-67831153D01*
X69289500Y-67831153D01*
X69289500Y-67988846D01*
X69320261Y-68143489D01*
X69320264Y-68143501D01*
X69380602Y-68289172D01*
X69380609Y-68289185D01*
X69468210Y-68420288D01*
X69468213Y-68420292D01*
X69579707Y-68531786D01*
X69579711Y-68531789D01*
X69710814Y-68619390D01*
X69710827Y-68619397D01*
X69804983Y-68658397D01*
X69856503Y-68679737D01*
X70011153Y-68710499D01*
X70011156Y-68710500D01*
X70011158Y-68710500D01*
X70168844Y-68710500D01*
X70168845Y-68710499D01*
X70323497Y-68679737D01*
X70469179Y-68619394D01*
X70600289Y-68531789D01*
X70711789Y-68420289D01*
X70764997Y-68340658D01*
X70783892Y-68312380D01*
X70837504Y-68267574D01*
X70906829Y-68258867D01*
X70969856Y-68289021D01*
X70974675Y-68293589D01*
X71080309Y-68399223D01*
X71080313Y-68399226D01*
X71211416Y-68486827D01*
X71211429Y-68486834D01*
X71319962Y-68531789D01*
X71357105Y-68547174D01*
X71475810Y-68570786D01*
X71511755Y-68577936D01*
X71511758Y-68577937D01*
X71511760Y-68577937D01*
X71669446Y-68577937D01*
X71669447Y-68577936D01*
X71824099Y-68547174D01*
X71969781Y-68486831D01*
X72100891Y-68399226D01*
X72212391Y-68287726D01*
X72299996Y-68156616D01*
X72360339Y-68010934D01*
X72391102Y-67856279D01*
X72391102Y-67698595D01*
X72391102Y-67698592D01*
X72391101Y-67698590D01*
X72386707Y-67676498D01*
X72360339Y-67543940D01*
X72360337Y-67543935D01*
X72299999Y-67398264D01*
X72299992Y-67398251D01*
X72212391Y-67267148D01*
X72212388Y-67267144D01*
X72100894Y-67155650D01*
X72100890Y-67155647D01*
X72019335Y-67101153D01*
X72769500Y-67101153D01*
X72769500Y-67258846D01*
X72800261Y-67413489D01*
X72800264Y-67413501D01*
X72860602Y-67559172D01*
X72860609Y-67559185D01*
X72948210Y-67690288D01*
X72948213Y-67690292D01*
X73059707Y-67801786D01*
X73059711Y-67801789D01*
X73190814Y-67889390D01*
X73190827Y-67889397D01*
X73335665Y-67949390D01*
X73336503Y-67949737D01*
X73491158Y-67980500D01*
X73491163Y-67980500D01*
X73497218Y-67981097D01*
X73496964Y-67983670D01*
X73553206Y-68000185D01*
X73598961Y-68052989D01*
X73600728Y-68057048D01*
X73630602Y-68129172D01*
X73630609Y-68129185D01*
X73718210Y-68260288D01*
X73718213Y-68260292D01*
X73829707Y-68371786D01*
X73829711Y-68371789D01*
X73960814Y-68459390D01*
X73960827Y-68459397D01*
X74106498Y-68519735D01*
X74106503Y-68519737D01*
X74244427Y-68547172D01*
X74261153Y-68550499D01*
X74261156Y-68550500D01*
X74261158Y-68550500D01*
X74418844Y-68550500D01*
X74418845Y-68550499D01*
X74573497Y-68519737D01*
X74719179Y-68459394D01*
X74804266Y-68402540D01*
X74870942Y-68381663D01*
X74920606Y-68391081D01*
X74941503Y-68399737D01*
X75079342Y-68427155D01*
X75096153Y-68430499D01*
X75096156Y-68430500D01*
X75096158Y-68430500D01*
X75253844Y-68430500D01*
X75253845Y-68430499D01*
X75408497Y-68399737D01*
X75521166Y-68353067D01*
X75554172Y-68339397D01*
X75554172Y-68339396D01*
X75554179Y-68339394D01*
X75685289Y-68251789D01*
X75796789Y-68140289D01*
X75884394Y-68009179D01*
X75887719Y-68001153D01*
X75909156Y-67949397D01*
X75941980Y-67870153D01*
X77097160Y-67870153D01*
X77097160Y-68027846D01*
X77127921Y-68182489D01*
X77127924Y-68182501D01*
X77188262Y-68328172D01*
X77188269Y-68328185D01*
X77275870Y-68459288D01*
X77275873Y-68459292D01*
X77387367Y-68570786D01*
X77387371Y-68570789D01*
X77518474Y-68658390D01*
X77518487Y-68658397D01*
X77644277Y-68710500D01*
X77664163Y-68718737D01*
X77818813Y-68749499D01*
X77818816Y-68749500D01*
X77818818Y-68749500D01*
X77976504Y-68749500D01*
X77976505Y-68749499D01*
X78131157Y-68718737D01*
X78276839Y-68658394D01*
X78407949Y-68570789D01*
X78519449Y-68459289D01*
X78607054Y-68328179D01*
X78616571Y-68305204D01*
X78632741Y-68266164D01*
X78667397Y-68182497D01*
X78698160Y-68027842D01*
X78698160Y-67870158D01*
X78694379Y-67851153D01*
X88899500Y-67851153D01*
X88899500Y-68008846D01*
X88930261Y-68163489D01*
X88930264Y-68163501D01*
X88990602Y-68309172D01*
X88990609Y-68309185D01*
X89078210Y-68440288D01*
X89078213Y-68440292D01*
X89189707Y-68551786D01*
X89189711Y-68551789D01*
X89320814Y-68639390D01*
X89320827Y-68639397D01*
X89452276Y-68693844D01*
X89466503Y-68699737D01*
X89621153Y-68730499D01*
X89621156Y-68730500D01*
X89621158Y-68730500D01*
X89778844Y-68730500D01*
X89778845Y-68730499D01*
X89933497Y-68699737D01*
X90079179Y-68639394D01*
X90210289Y-68551789D01*
X90321789Y-68440289D01*
X90409394Y-68309179D01*
X90411041Y-68305204D01*
X90427211Y-68266164D01*
X90469737Y-68163497D01*
X90500500Y-68008842D01*
X90500500Y-67851158D01*
X90500500Y-67851155D01*
X90500499Y-67851153D01*
X90494874Y-67822873D01*
X90469737Y-67696503D01*
X90434648Y-67611789D01*
X90409397Y-67550827D01*
X90409390Y-67550814D01*
X90321789Y-67419711D01*
X90321786Y-67419707D01*
X90210292Y-67308213D01*
X90210288Y-67308210D01*
X90079185Y-67220609D01*
X90079172Y-67220602D01*
X89933501Y-67160264D01*
X89933489Y-67160261D01*
X89778845Y-67129500D01*
X89778842Y-67129500D01*
X89621158Y-67129500D01*
X89621155Y-67129500D01*
X89466510Y-67160261D01*
X89466498Y-67160264D01*
X89320827Y-67220602D01*
X89320814Y-67220609D01*
X89189711Y-67308210D01*
X89189707Y-67308213D01*
X89078213Y-67419707D01*
X89078210Y-67419711D01*
X88990609Y-67550814D01*
X88990602Y-67550827D01*
X88930264Y-67696498D01*
X88930261Y-67696510D01*
X88899500Y-67851153D01*
X78694379Y-67851153D01*
X78692136Y-67839876D01*
X78674317Y-67750292D01*
X78667397Y-67715503D01*
X78660726Y-67699397D01*
X78607057Y-67569827D01*
X78607050Y-67569814D01*
X78519449Y-67438711D01*
X78519446Y-67438707D01*
X78407952Y-67327213D01*
X78407948Y-67327210D01*
X78276845Y-67239609D01*
X78276832Y-67239602D01*
X78131161Y-67179264D01*
X78131149Y-67179261D01*
X77976505Y-67148500D01*
X77976502Y-67148500D01*
X77818818Y-67148500D01*
X77818815Y-67148500D01*
X77664170Y-67179261D01*
X77664158Y-67179264D01*
X77518487Y-67239602D01*
X77518474Y-67239609D01*
X77387371Y-67327210D01*
X77387367Y-67327213D01*
X77275873Y-67438707D01*
X77275870Y-67438711D01*
X77188269Y-67569814D01*
X77188262Y-67569827D01*
X77127924Y-67715498D01*
X77127921Y-67715510D01*
X77097160Y-67870153D01*
X75941980Y-67870153D01*
X75944737Y-67863497D01*
X75968253Y-67745275D01*
X75975500Y-67708844D01*
X75975500Y-67551155D01*
X75975499Y-67551153D01*
X75960052Y-67473497D01*
X75944737Y-67396503D01*
X75942427Y-67390925D01*
X75884397Y-67250827D01*
X75884390Y-67250814D01*
X75796789Y-67119711D01*
X75796786Y-67119707D01*
X75685292Y-67008213D01*
X75685288Y-67008210D01*
X75554185Y-66920609D01*
X75554176Y-66920604D01*
X75517942Y-66905596D01*
X75463539Y-66861755D01*
X75441474Y-66795461D01*
X75458753Y-66727762D01*
X75509890Y-66680151D01*
X75517931Y-66676478D01*
X75559179Y-66659394D01*
X75690289Y-66571789D01*
X75760925Y-66501153D01*
X84789500Y-66501153D01*
X84789500Y-66658846D01*
X84820261Y-66813489D01*
X84820264Y-66813501D01*
X84880602Y-66959172D01*
X84880609Y-66959185D01*
X84968210Y-67090288D01*
X84968213Y-67090292D01*
X85079707Y-67201786D01*
X85079711Y-67201789D01*
X85210814Y-67289390D01*
X85210827Y-67289397D01*
X85356498Y-67349735D01*
X85356503Y-67349737D01*
X85511153Y-67380499D01*
X85511156Y-67380500D01*
X85511158Y-67380500D01*
X85668844Y-67380500D01*
X85668845Y-67380499D01*
X85823497Y-67349737D01*
X85969179Y-67289394D01*
X86100289Y-67201789D01*
X86211789Y-67090289D01*
X86299394Y-66959179D01*
X86359737Y-66813497D01*
X86390500Y-66658842D01*
X86390500Y-66501158D01*
X86390500Y-66501155D01*
X86390499Y-66501153D01*
X86384355Y-66470264D01*
X86359737Y-66346503D01*
X86332440Y-66280602D01*
X86299397Y-66200827D01*
X86299390Y-66200814D01*
X86227148Y-66092697D01*
X86211789Y-66069710D01*
X86169214Y-66027135D01*
X90859500Y-66027135D01*
X90859500Y-67822870D01*
X90859501Y-67822876D01*
X90865908Y-67882483D01*
X90916202Y-68017328D01*
X90916206Y-68017335D01*
X91002452Y-68132544D01*
X91002455Y-68132547D01*
X91117664Y-68218793D01*
X91117671Y-68218797D01*
X91249082Y-68267810D01*
X91305016Y-68309681D01*
X91329433Y-68375145D01*
X91314582Y-68443418D01*
X91293431Y-68471673D01*
X91179889Y-68585215D01*
X91054951Y-68757179D01*
X90958444Y-68946585D01*
X90892753Y-69148760D01*
X90859500Y-69358713D01*
X90859500Y-69571286D01*
X90883861Y-69725099D01*
X90892754Y-69781243D01*
X90930759Y-69898211D01*
X90958444Y-69983414D01*
X91054951Y-70172820D01*
X91179890Y-70344786D01*
X91330213Y-70495109D01*
X91502182Y-70620050D01*
X91510946Y-70624516D01*
X91561742Y-70672491D01*
X91578536Y-70740312D01*
X91555998Y-70806447D01*
X91510946Y-70845484D01*
X91502182Y-70849949D01*
X91330213Y-70974890D01*
X91179890Y-71125213D01*
X91054951Y-71297179D01*
X90958444Y-71486585D01*
X90892753Y-71688760D01*
X90861163Y-71888211D01*
X90859500Y-71898713D01*
X90859500Y-72111287D01*
X90867295Y-72160500D01*
X90887897Y-72290581D01*
X90892754Y-72321243D01*
X90956200Y-72516510D01*
X90958444Y-72523414D01*
X91054951Y-72712820D01*
X91179890Y-72884786D01*
X91330213Y-73035109D01*
X91502179Y-73160048D01*
X91502181Y-73160049D01*
X91502184Y-73160051D01*
X91691588Y-73256557D01*
X91893757Y-73322246D01*
X92103713Y-73355500D01*
X92103714Y-73355500D01*
X92316286Y-73355500D01*
X92316287Y-73355500D01*
X92526243Y-73322246D01*
X92728412Y-73256557D01*
X92917816Y-73160051D01*
X92977684Y-73116555D01*
X93089786Y-73035109D01*
X93089788Y-73035106D01*
X93089792Y-73035104D01*
X93240104Y-72884792D01*
X93240106Y-72884788D01*
X93240109Y-72884786D01*
X93365048Y-72712820D01*
X93365047Y-72712820D01*
X93365051Y-72712816D01*
X93369514Y-72704054D01*
X93417488Y-72653259D01*
X93485308Y-72636463D01*
X93551444Y-72658999D01*
X93590486Y-72704056D01*
X93594951Y-72712820D01*
X93719890Y-72884786D01*
X93870213Y-73035109D01*
X94042179Y-73160048D01*
X94042181Y-73160049D01*
X94042184Y-73160051D01*
X94231588Y-73256557D01*
X94433757Y-73322246D01*
X94643713Y-73355500D01*
X94643714Y-73355500D01*
X94856286Y-73355500D01*
X94856287Y-73355500D01*
X95066243Y-73322246D01*
X95268412Y-73256557D01*
X95457816Y-73160051D01*
X95517684Y-73116555D01*
X95629786Y-73035109D01*
X95629788Y-73035106D01*
X95629792Y-73035104D01*
X95780104Y-72884792D01*
X95780106Y-72884788D01*
X95780109Y-72884786D01*
X95905048Y-72712820D01*
X95905047Y-72712820D01*
X95905051Y-72712816D01*
X96001557Y-72523412D01*
X96067246Y-72321243D01*
X96100500Y-72111287D01*
X96100500Y-71898713D01*
X96067246Y-71688757D01*
X96001557Y-71486588D01*
X95905051Y-71297184D01*
X95905049Y-71297181D01*
X95905048Y-71297179D01*
X95780109Y-71125213D01*
X95629786Y-70974890D01*
X95457820Y-70849951D01*
X95457115Y-70849591D01*
X95449054Y-70845485D01*
X95398259Y-70797512D01*
X95381463Y-70729692D01*
X95403999Y-70663556D01*
X95449054Y-70624515D01*
X95457816Y-70620051D01*
X95563058Y-70543589D01*
X95629786Y-70495109D01*
X95629788Y-70495106D01*
X95629792Y-70495104D01*
X95780104Y-70344792D01*
X95780106Y-70344788D01*
X95780109Y-70344786D01*
X95895107Y-70186503D01*
X95905051Y-70172816D01*
X96001557Y-69983412D01*
X96067246Y-69781243D01*
X96100500Y-69571287D01*
X96100500Y-69358713D01*
X96067246Y-69148757D01*
X96001557Y-68946588D01*
X95905051Y-68757184D01*
X95905049Y-68757181D01*
X95905048Y-68757179D01*
X95780109Y-68585213D01*
X95629786Y-68434890D01*
X95457817Y-68309949D01*
X95448504Y-68305204D01*
X95397707Y-68257230D01*
X95380912Y-68189409D01*
X95403449Y-68123274D01*
X95448507Y-68084232D01*
X95457555Y-68079622D01*
X95511716Y-68040270D01*
X95511717Y-68040270D01*
X94879408Y-67407962D01*
X94942993Y-67390925D01*
X95057007Y-67325099D01*
X95150099Y-67232007D01*
X95215925Y-67117993D01*
X95232962Y-67054408D01*
X95865270Y-67686717D01*
X95865270Y-67686716D01*
X95904622Y-67632554D01*
X96001095Y-67443217D01*
X96066757Y-67241130D01*
X96066757Y-67241127D01*
X96100000Y-67031246D01*
X96100000Y-66818753D01*
X96066757Y-66608872D01*
X96066757Y-66608869D01*
X96001095Y-66406782D01*
X95904624Y-66217449D01*
X95865270Y-66163282D01*
X95865269Y-66163282D01*
X95232962Y-66795590D01*
X95215925Y-66732007D01*
X95150099Y-66617993D01*
X95057007Y-66524901D01*
X94942993Y-66459075D01*
X94879409Y-66442037D01*
X95511716Y-65809728D01*
X95457550Y-65770375D01*
X95268217Y-65673904D01*
X95066129Y-65608242D01*
X94856246Y-65575000D01*
X94643754Y-65575000D01*
X94433872Y-65608242D01*
X94433869Y-65608242D01*
X94231782Y-65673904D01*
X94042439Y-65770380D01*
X93988282Y-65809727D01*
X93988282Y-65809728D01*
X94620591Y-66442037D01*
X94557007Y-66459075D01*
X94442993Y-66524901D01*
X94349901Y-66617993D01*
X94284075Y-66732007D01*
X94267037Y-66795591D01*
X93596818Y-66125372D01*
X93563333Y-66064049D01*
X93563330Y-66064036D01*
X93560499Y-66051015D01*
X93560499Y-66027128D01*
X93554091Y-65967517D01*
X93525926Y-65892002D01*
X93503798Y-65832673D01*
X93503793Y-65832664D01*
X93417547Y-65717455D01*
X93417544Y-65717452D01*
X93302335Y-65631206D01*
X93302328Y-65631202D01*
X93167482Y-65580908D01*
X93167483Y-65580908D01*
X93107883Y-65574501D01*
X93107881Y-65574500D01*
X93107873Y-65574500D01*
X93107864Y-65574500D01*
X91312129Y-65574500D01*
X91312123Y-65574501D01*
X91252516Y-65580908D01*
X91117671Y-65631202D01*
X91117664Y-65631206D01*
X91002455Y-65717452D01*
X91002452Y-65717455D01*
X90916206Y-65832664D01*
X90916202Y-65832671D01*
X90865908Y-65967517D01*
X90859501Y-66027116D01*
X90859500Y-66027135D01*
X86169214Y-66027135D01*
X86100292Y-65958213D01*
X86100288Y-65958210D01*
X85969185Y-65870609D01*
X85969172Y-65870602D01*
X85823501Y-65810264D01*
X85823489Y-65810261D01*
X85668845Y-65779500D01*
X85668842Y-65779500D01*
X85511158Y-65779500D01*
X85511155Y-65779500D01*
X85356510Y-65810261D01*
X85356498Y-65810264D01*
X85210827Y-65870602D01*
X85210814Y-65870609D01*
X85079711Y-65958210D01*
X85079707Y-65958213D01*
X84968213Y-66069707D01*
X84968210Y-66069711D01*
X84880609Y-66200814D01*
X84880602Y-66200827D01*
X84820264Y-66346498D01*
X84820261Y-66346510D01*
X84789500Y-66501153D01*
X75760925Y-66501153D01*
X75801789Y-66460289D01*
X75815680Y-66439500D01*
X75824584Y-66426175D01*
X75889390Y-66329185D01*
X75889390Y-66329184D01*
X75889394Y-66329179D01*
X75949737Y-66183497D01*
X75955328Y-66155387D01*
X75987711Y-66093479D01*
X76048426Y-66058903D01*
X76118196Y-66062641D01*
X76124397Y-66065018D01*
X76256498Y-66119735D01*
X76256503Y-66119737D01*
X76411153Y-66150499D01*
X76411156Y-66150500D01*
X76411158Y-66150500D01*
X76568844Y-66150500D01*
X76568845Y-66150499D01*
X76723497Y-66119737D01*
X76844281Y-66069707D01*
X76869172Y-66059397D01*
X76869172Y-66059396D01*
X76869179Y-66059394D01*
X77000289Y-65971789D01*
X77111789Y-65860289D01*
X77199394Y-65729179D01*
X77204252Y-65717452D01*
X77259735Y-65583501D01*
X77259737Y-65583497D01*
X77290500Y-65428842D01*
X77290500Y-65271158D01*
X77290500Y-65271155D01*
X77290499Y-65271153D01*
X77284422Y-65240602D01*
X77259737Y-65116503D01*
X77259735Y-65116498D01*
X77199397Y-64970827D01*
X77199390Y-64970814D01*
X77111789Y-64839711D01*
X77111786Y-64839707D01*
X77000292Y-64728213D01*
X77000288Y-64728210D01*
X76869185Y-64640609D01*
X76869172Y-64640602D01*
X76723501Y-64580264D01*
X76723489Y-64580261D01*
X76568845Y-64549500D01*
X76568842Y-64549500D01*
X76411158Y-64549500D01*
X76411155Y-64549500D01*
X76256510Y-64580261D01*
X76256498Y-64580264D01*
X76110827Y-64640602D01*
X76110814Y-64640609D01*
X75979711Y-64728210D01*
X75979707Y-64728213D01*
X75868213Y-64839707D01*
X75868210Y-64839711D01*
X75780609Y-64970814D01*
X75780602Y-64970827D01*
X75720264Y-65116498D01*
X75720261Y-65116508D01*
X75714671Y-65144613D01*
X75682286Y-65206524D01*
X75621570Y-65241098D01*
X75551800Y-65237357D01*
X75545602Y-65234982D01*
X75413501Y-65180264D01*
X75413489Y-65180261D01*
X75258845Y-65149500D01*
X75258842Y-65149500D01*
X75101158Y-65149500D01*
X75101155Y-65149500D01*
X74946510Y-65180261D01*
X74946498Y-65180264D01*
X74800827Y-65240602D01*
X74800814Y-65240609D01*
X74669711Y-65328210D01*
X74669707Y-65328213D01*
X74558213Y-65439707D01*
X74558210Y-65439711D01*
X74470609Y-65570814D01*
X74470602Y-65570827D01*
X74410264Y-65716498D01*
X74410261Y-65716510D01*
X74379500Y-65871153D01*
X74379500Y-66028846D01*
X74410261Y-66183489D01*
X74410264Y-66183501D01*
X74470602Y-66329172D01*
X74470609Y-66329185D01*
X74558210Y-66460288D01*
X74558213Y-66460292D01*
X74669707Y-66571786D01*
X74669711Y-66571789D01*
X74800814Y-66659390D01*
X74800821Y-66659394D01*
X74837056Y-66674403D01*
X74848092Y-66683296D01*
X74861489Y-66687927D01*
X74874756Y-66704783D01*
X74891459Y-66718243D01*
X74895935Y-66731691D01*
X74904702Y-66742830D01*
X74906750Y-66764182D01*
X74913525Y-66784537D01*
X74910019Y-66798271D01*
X74911373Y-66812380D01*
X74901552Y-66831449D01*
X74896247Y-66852236D01*
X74885246Y-66863111D01*
X74879383Y-66874496D01*
X74860923Y-66887156D01*
X74851649Y-66896325D01*
X74844584Y-66900407D01*
X74795821Y-66920606D01*
X74707396Y-66979689D01*
X74703888Y-66981717D01*
X74673705Y-66989052D01*
X74644056Y-66998336D01*
X74639254Y-66997425D01*
X74635994Y-66998218D01*
X74626950Y-66995092D01*
X74594393Y-66988918D01*
X74573498Y-66980263D01*
X74573488Y-66980260D01*
X74418846Y-66949500D01*
X74412782Y-66948903D01*
X74413035Y-66946329D01*
X74356794Y-66929815D01*
X74311039Y-66877011D01*
X74309272Y-66872952D01*
X74279397Y-66800827D01*
X74279390Y-66800814D01*
X74191789Y-66669711D01*
X74191786Y-66669707D01*
X74080292Y-66558213D01*
X74080288Y-66558210D01*
X73949185Y-66470609D01*
X73949172Y-66470602D01*
X73803501Y-66410264D01*
X73803489Y-66410261D01*
X73648845Y-66379500D01*
X73648842Y-66379500D01*
X73491158Y-66379500D01*
X73491155Y-66379500D01*
X73336510Y-66410261D01*
X73336498Y-66410264D01*
X73190827Y-66470602D01*
X73190814Y-66470609D01*
X73059711Y-66558210D01*
X73059707Y-66558213D01*
X72948213Y-66669707D01*
X72948210Y-66669711D01*
X72860609Y-66800814D01*
X72860602Y-66800827D01*
X72800264Y-66946498D01*
X72800261Y-66946510D01*
X72769500Y-67101153D01*
X72019335Y-67101153D01*
X71969787Y-67068046D01*
X71969774Y-67068039D01*
X71824103Y-67007701D01*
X71824091Y-67007698D01*
X71669447Y-66976937D01*
X71669444Y-66976937D01*
X71511760Y-66976937D01*
X71511757Y-66976937D01*
X71357112Y-67007698D01*
X71357100Y-67007701D01*
X71211429Y-67068039D01*
X71211416Y-67068046D01*
X71080313Y-67155647D01*
X71080309Y-67155650D01*
X70968815Y-67267144D01*
X70968812Y-67267148D01*
X70896709Y-67375057D01*
X70843096Y-67419862D01*
X70773771Y-67428569D01*
X70710744Y-67398414D01*
X70705926Y-67393847D01*
X70600292Y-67288213D01*
X70600288Y-67288210D01*
X70469185Y-67200609D01*
X70469172Y-67200602D01*
X70323501Y-67140264D01*
X70323489Y-67140261D01*
X70168845Y-67109500D01*
X70168842Y-67109500D01*
X70011158Y-67109500D01*
X70011155Y-67109500D01*
X69856510Y-67140261D01*
X69856498Y-67140264D01*
X69710827Y-67200602D01*
X69710814Y-67200609D01*
X69579711Y-67288210D01*
X69579707Y-67288213D01*
X69468213Y-67399707D01*
X69468210Y-67399711D01*
X69380609Y-67530814D01*
X69380602Y-67530827D01*
X69320264Y-67676498D01*
X69320261Y-67676510D01*
X69289500Y-67831153D01*
X66530925Y-67831153D01*
X66611789Y-67750289D01*
X66699394Y-67619179D01*
X66759737Y-67473497D01*
X66790500Y-67318842D01*
X66790500Y-67161158D01*
X66790500Y-67161155D01*
X66790499Y-67161153D01*
X66781914Y-67117993D01*
X66759737Y-67006503D01*
X66755977Y-66997425D01*
X66699397Y-66860827D01*
X66699390Y-66860814D01*
X66611789Y-66729711D01*
X66611786Y-66729707D01*
X66500292Y-66618213D01*
X66500288Y-66618210D01*
X66369185Y-66530609D01*
X66369172Y-66530602D01*
X66223501Y-66470264D01*
X66223489Y-66470261D01*
X66068845Y-66439500D01*
X66068842Y-66439500D01*
X65911158Y-66439500D01*
X65911155Y-66439500D01*
X65756510Y-66470261D01*
X65756498Y-66470264D01*
X65610827Y-66530602D01*
X65610814Y-66530609D01*
X65479711Y-66618210D01*
X65479707Y-66618213D01*
X65368213Y-66729707D01*
X65368210Y-66729711D01*
X65280609Y-66860814D01*
X65280602Y-66860827D01*
X65220264Y-67006498D01*
X65220261Y-67006510D01*
X65189500Y-67161153D01*
X60912138Y-67161153D01*
X60916293Y-67140264D01*
X60918161Y-67130875D01*
X60918161Y-67130874D01*
X60930500Y-67068844D01*
X60930500Y-66911155D01*
X60930499Y-66911153D01*
X60929394Y-66905596D01*
X60899737Y-66756503D01*
X60899735Y-66756498D01*
X60839397Y-66610827D01*
X60839390Y-66610814D01*
X60751789Y-66479711D01*
X60751786Y-66479707D01*
X60640292Y-66368213D01*
X60640288Y-66368210D01*
X60509185Y-66280609D01*
X60509172Y-66280602D01*
X60363501Y-66220264D01*
X60363489Y-66220261D01*
X60208845Y-66189500D01*
X60208842Y-66189500D01*
X60051158Y-66189500D01*
X60051155Y-66189500D01*
X59896510Y-66220261D01*
X59896498Y-66220264D01*
X59750827Y-66280602D01*
X59750814Y-66280609D01*
X59619711Y-66368210D01*
X59619707Y-66368213D01*
X59508213Y-66479707D01*
X59508210Y-66479711D01*
X59420609Y-66610814D01*
X59420602Y-66610827D01*
X59360264Y-66756498D01*
X59360261Y-66756510D01*
X59329500Y-66911153D01*
X53108951Y-66911153D01*
X53124391Y-63327455D01*
X53144364Y-63260505D01*
X53197365Y-63214978D01*
X53266566Y-63205332D01*
X53286710Y-63210063D01*
X53347166Y-63229707D01*
X53347169Y-63229707D01*
X53347174Y-63229709D01*
X53437213Y-63243969D01*
X53541578Y-63260500D01*
X53541583Y-63260500D01*
X53738422Y-63260500D01*
X53932826Y-63229709D01*
X53978163Y-63214978D01*
X54120025Y-63168884D01*
X54295405Y-63079524D01*
X54454646Y-62963828D01*
X54593828Y-62824646D01*
X54709524Y-62665405D01*
X54798884Y-62490025D01*
X54859709Y-62302826D01*
X54888483Y-62121153D01*
X72799500Y-62121153D01*
X72799500Y-62278846D01*
X72830261Y-62433489D01*
X72830264Y-62433501D01*
X72890602Y-62579172D01*
X72890609Y-62579185D01*
X72978210Y-62710288D01*
X72978213Y-62710292D01*
X73089707Y-62821786D01*
X73089711Y-62821789D01*
X73220814Y-62909390D01*
X73220827Y-62909397D01*
X73337315Y-62957647D01*
X73366503Y-62969737D01*
X73521153Y-63000499D01*
X73521156Y-63000500D01*
X73521158Y-63000500D01*
X73678844Y-63000500D01*
X73678845Y-63000499D01*
X73833497Y-62969737D01*
X73979179Y-62909394D01*
X74110289Y-62821789D01*
X74221789Y-62710289D01*
X74309394Y-62579179D01*
X74369737Y-62433497D01*
X74400500Y-62278842D01*
X74400500Y-62121158D01*
X74400500Y-62121155D01*
X74400499Y-62121153D01*
X74389112Y-62063902D01*
X74385268Y-62044577D01*
X92893000Y-62044577D01*
X92893000Y-62241422D01*
X92923790Y-62435826D01*
X92984617Y-62623029D01*
X93029080Y-62710292D01*
X93073976Y-62798405D01*
X93189672Y-62957646D01*
X93328854Y-63096828D01*
X93488095Y-63212524D01*
X93521819Y-63229707D01*
X93663470Y-63301882D01*
X93663472Y-63301882D01*
X93663475Y-63301884D01*
X93742174Y-63327455D01*
X93850673Y-63362709D01*
X94045078Y-63393500D01*
X94045083Y-63393500D01*
X94241922Y-63393500D01*
X94436326Y-63362709D01*
X94623525Y-63301884D01*
X94798905Y-63212524D01*
X94958146Y-63096828D01*
X95097328Y-62957646D01*
X95213024Y-62798405D01*
X95302384Y-62623025D01*
X95363209Y-62435826D01*
X95384274Y-62302826D01*
X95394000Y-62241422D01*
X95394000Y-62044577D01*
X95363209Y-61850173D01*
X95334987Y-61763317D01*
X95302384Y-61662975D01*
X95302382Y-61662972D01*
X95302382Y-61662970D01*
X95253653Y-61567335D01*
X95213024Y-61487595D01*
X95097328Y-61328354D01*
X94958146Y-61189172D01*
X94798905Y-61073476D01*
X94752244Y-61049701D01*
X94623529Y-60984117D01*
X94436326Y-60923290D01*
X94241922Y-60892500D01*
X94241917Y-60892500D01*
X94045083Y-60892500D01*
X94045078Y-60892500D01*
X93850673Y-60923290D01*
X93663470Y-60984117D01*
X93488094Y-61073476D01*
X93434982Y-61112065D01*
X93328854Y-61189172D01*
X93328852Y-61189174D01*
X93328851Y-61189174D01*
X93189674Y-61328351D01*
X93189674Y-61328352D01*
X93189672Y-61328354D01*
X93170607Y-61354595D01*
X93073976Y-61487594D01*
X92984617Y-61662970D01*
X92923790Y-61850173D01*
X92893000Y-62044577D01*
X74385268Y-62044577D01*
X74369738Y-61966508D01*
X74369737Y-61966507D01*
X74369737Y-61966503D01*
X74346986Y-61911577D01*
X74309397Y-61820827D01*
X74309390Y-61820814D01*
X74221789Y-61689711D01*
X74221786Y-61689707D01*
X74110292Y-61578213D01*
X74110288Y-61578210D01*
X73979185Y-61490609D01*
X73979172Y-61490602D01*
X73833501Y-61430264D01*
X73833489Y-61430261D01*
X73678845Y-61399500D01*
X73678842Y-61399500D01*
X73521158Y-61399500D01*
X73521155Y-61399500D01*
X73366510Y-61430261D01*
X73366498Y-61430264D01*
X73220827Y-61490602D01*
X73220814Y-61490609D01*
X73089711Y-61578210D01*
X73089707Y-61578213D01*
X72978213Y-61689707D01*
X72978210Y-61689711D01*
X72890609Y-61820814D01*
X72890602Y-61820827D01*
X72830264Y-61966498D01*
X72830261Y-61966510D01*
X72799500Y-62121153D01*
X54888483Y-62121153D01*
X54890500Y-62108417D01*
X54890500Y-61911583D01*
X54890500Y-61911577D01*
X54859709Y-61717173D01*
X54815428Y-61580892D01*
X54798884Y-61529975D01*
X54798882Y-61529972D01*
X54798882Y-61529970D01*
X54748079Y-61430264D01*
X54709524Y-61354595D01*
X54593828Y-61195354D01*
X54454646Y-61056172D01*
X54295405Y-60940476D01*
X54120029Y-60851117D01*
X53932826Y-60790290D01*
X53738422Y-60759500D01*
X53738417Y-60759500D01*
X53541583Y-60759500D01*
X53541578Y-60759500D01*
X53347172Y-60790291D01*
X53347165Y-60790292D01*
X53298080Y-60806241D01*
X53228239Y-60808236D01*
X53168406Y-60772155D01*
X53137579Y-60709453D01*
X53135765Y-60687789D01*
X53138267Y-60107006D01*
X53158239Y-60040057D01*
X53211240Y-59994530D01*
X53262301Y-59983545D01*
X86540955Y-59994635D01*
G37*
%TD.AperFunction*%
%TA.AperFunction,Conductor*%
G36*
X77619075Y-89592993D02*
G01*
X77684901Y-89707007D01*
X77777993Y-89800099D01*
X77892007Y-89865925D01*
X77955590Y-89882962D01*
X77323282Y-90515269D01*
X77326004Y-90549847D01*
X77311640Y-90618225D01*
X77262589Y-90667982D01*
X77202388Y-90683577D01*
X76457532Y-90683590D01*
X76390492Y-90663907D01*
X76344737Y-90611103D01*
X76334792Y-90541945D01*
X76363816Y-90478389D01*
X76384642Y-90459274D01*
X76424792Y-90430104D01*
X76575104Y-90279792D01*
X76575106Y-90279788D01*
X76575109Y-90279786D01*
X76660890Y-90161717D01*
X76700051Y-90107816D01*
X76704793Y-90098508D01*
X76752763Y-90047711D01*
X76820583Y-90030911D01*
X76886719Y-90053445D01*
X76925763Y-90098500D01*
X76930373Y-90107547D01*
X76969728Y-90161716D01*
X77602037Y-89529408D01*
X77619075Y-89592993D01*
G37*
%TD.AperFunction*%
%TA.AperFunction,Conductor*%
G36*
X84985075Y-89592993D02*
G01*
X85050901Y-89707007D01*
X85143993Y-89800099D01*
X85258007Y-89865925D01*
X85321590Y-89882962D01*
X84689281Y-90515270D01*
X84691993Y-90549721D01*
X84677629Y-90618098D01*
X84628577Y-90667854D01*
X84568377Y-90683449D01*
X84309427Y-90683454D01*
X84242388Y-90663771D01*
X84196632Y-90610968D01*
X84186687Y-90541809D01*
X84200597Y-90500020D01*
X84204791Y-90492336D01*
X84204796Y-90492331D01*
X84255091Y-90357483D01*
X84261500Y-90297873D01*
X84261499Y-90287312D01*
X84281179Y-90220275D01*
X84297818Y-90199626D01*
X84968037Y-89529408D01*
X84985075Y-89592993D01*
G37*
%TD.AperFunction*%
%TA.AperFunction,Conductor*%
G36*
X86566270Y-90161717D02*
G01*
X86566270Y-90161716D01*
X86605622Y-90107555D01*
X86610232Y-90098507D01*
X86658205Y-90047709D01*
X86726025Y-90030912D01*
X86792161Y-90053447D01*
X86831204Y-90098504D01*
X86835949Y-90107817D01*
X86960890Y-90279786D01*
X86960896Y-90279792D01*
X87111208Y-90430104D01*
X87151053Y-90459053D01*
X87151099Y-90459086D01*
X87193765Y-90514416D01*
X87199744Y-90584029D01*
X87167139Y-90645825D01*
X87106301Y-90680182D01*
X87078216Y-90683405D01*
X86333628Y-90683418D01*
X86266588Y-90663735D01*
X86220833Y-90610931D01*
X86210008Y-90549689D01*
X86212716Y-90515269D01*
X85580408Y-89882962D01*
X85643993Y-89865925D01*
X85758007Y-89800099D01*
X85851099Y-89707007D01*
X85916925Y-89592993D01*
X85933962Y-89529408D01*
X86566270Y-90161717D01*
G37*
%TD.AperFunction*%
%TD*%
M02*
