%TF.GenerationSoftware,KiCad,Pcbnew,9.0.6*%
%TF.CreationDate,2025-12-29T02:05:30+05:30*%
%TF.ProjectId,DATA LOGGER,44415441-204c-44f4-9747-45522e6b6963,rev?*%
%TF.SameCoordinates,Original*%
%TF.FileFunction,Soldermask,Top*%
%TF.FilePolarity,Negative*%
%FSLAX46Y46*%
G04 Gerber Fmt 4.6, Leading zero omitted, Abs format (unit mm)*
G04 Created by KiCad (PCBNEW 9.0.6) date 2025-12-29 02:05:30*
%MOMM*%
%LPD*%
G01*
G04 APERTURE LIST*
G04 Aperture macros list*
%AMRoundRect*
0 Rectangle with rounded corners*
0 $1 Rounding radius*
0 $2 $3 $4 $5 $6 $7 $8 $9 X,Y pos of 4 corners*
0 Add a 4 corners polygon primitive as box body*
4,1,4,$2,$3,$4,$5,$6,$7,$8,$9,$2,$3,0*
0 Add four circle primitives for the rounded corners*
1,1,$1+$1,$2,$3*
1,1,$1+$1,$4,$5*
1,1,$1+$1,$6,$7*
1,1,$1+$1,$8,$9*
0 Add four rect primitives between the rounded corners*
20,1,$1+$1,$2,$3,$4,$5,0*
20,1,$1+$1,$4,$5,$6,$7,0*
20,1,$1+$1,$6,$7,$8,$9,0*
20,1,$1+$1,$8,$9,$2,$3,0*%
G04 Aperture macros list end*
%ADD10RoundRect,0.250000X-0.250000X-0.475000X0.250000X-0.475000X0.250000X0.475000X-0.250000X0.475000X0*%
%ADD11RoundRect,0.243750X-0.243750X-0.456250X0.243750X-0.456250X0.243750X0.456250X-0.243750X0.456250X0*%
%ADD12C,2.000000*%
%ADD13RoundRect,0.250001X-1.499999X-0.949999X1.499999X-0.949999X1.499999X0.949999X-1.499999X0.949999X0*%
%ADD14RoundRect,0.250001X0.949999X-1.499999X0.949999X1.499999X-0.949999X1.499999X-0.949999X-1.499999X0*%
%ADD15RoundRect,0.094250X-0.742750X-0.282750X0.742750X-0.282750X0.742750X0.282750X-0.742750X0.282750X0*%
%ADD16RoundRect,0.094250X-0.282750X-0.742750X0.282750X-0.742750X0.282750X0.742750X-0.282750X0.742750X0*%
%ADD17RoundRect,0.150000X-0.825000X-0.150000X0.825000X-0.150000X0.825000X0.150000X-0.825000X0.150000X0*%
%ADD18RoundRect,0.099250X-0.987750X-0.297750X0.987750X-0.297750X0.987750X0.297750X-0.987750X0.297750X0*%
%ADD19RoundRect,0.250000X-0.262500X-0.450000X0.262500X-0.450000X0.262500X0.450000X-0.262500X0.450000X0*%
%ADD20RoundRect,0.250000X0.262500X0.450000X-0.262500X0.450000X-0.262500X-0.450000X0.262500X-0.450000X0*%
%ADD21RoundRect,0.250000X0.450000X-0.262500X0.450000X0.262500X-0.450000X0.262500X-0.450000X-0.262500X0*%
%ADD22C,1.700000*%
%ADD23R,1.700000X1.700000*%
%ADD24RoundRect,0.250000X-0.475000X0.250000X-0.475000X-0.250000X0.475000X-0.250000X0.475000X0.250000X0*%
%ADD25RoundRect,0.250000X0.475000X-0.250000X0.475000X0.250000X-0.475000X0.250000X-0.475000X-0.250000X0*%
G04 APERTURE END LIST*
D10*
%TO.C,C1*%
X69290000Y-65760000D03*
X67390000Y-65760000D03*
%TD*%
D11*
%TO.C,D1*%
X87382500Y-68635000D03*
X85507500Y-68635000D03*
%TD*%
D12*
%TO.C,H1*%
X53640000Y-62010000D03*
%TD*%
%TO.C,H4*%
X94910000Y-88610000D03*
%TD*%
%TO.C,H3*%
X53530000Y-88700000D03*
%TD*%
%TO.C,H2*%
X94143500Y-62143000D03*
%TD*%
D13*
%TO.C,Y2*%
X70950000Y-81875000D03*
X76150000Y-81875000D03*
%TD*%
D14*
%TO.C,Y1*%
X55225000Y-82175000D03*
X55225000Y-76975000D03*
%TD*%
D15*
%TO.C,U4*%
X78145000Y-70355000D03*
X78145000Y-71155000D03*
X78145000Y-71955000D03*
X78145000Y-72755000D03*
X78145000Y-73555000D03*
X78145000Y-74355000D03*
X78145000Y-75155000D03*
X78145000Y-75955000D03*
X69805000Y-75955000D03*
X69805000Y-75155000D03*
X69805000Y-74355000D03*
X69805000Y-73555000D03*
X69805000Y-72755000D03*
X69805000Y-71955000D03*
X69805000Y-71155000D03*
X69805000Y-70355000D03*
D16*
X71175000Y-68985000D03*
X71975000Y-68985000D03*
X72775000Y-68985000D03*
X73575000Y-68985000D03*
X74375000Y-68985000D03*
X75175000Y-68985000D03*
X75975000Y-68985000D03*
X76775000Y-68985000D03*
X76775000Y-77325000D03*
X75975000Y-77325000D03*
X75175000Y-77325000D03*
X74375000Y-77325000D03*
X73575000Y-77325000D03*
X72775000Y-77325000D03*
X71975000Y-77325000D03*
X71175000Y-77325000D03*
%TD*%
D17*
%TO.C,U3*%
X60170000Y-68695000D03*
X60170000Y-69965000D03*
X60170000Y-71235000D03*
X60170000Y-72505000D03*
X65120000Y-72505000D03*
X65120000Y-71235000D03*
X65120000Y-69965000D03*
X65120000Y-68695000D03*
%TD*%
D18*
%TO.C,U2*%
X60160000Y-76575000D03*
X60160000Y-77845000D03*
X60160000Y-79115000D03*
X60160000Y-80385000D03*
X65110000Y-80385000D03*
X65110000Y-79115000D03*
X65110000Y-77845000D03*
X65110000Y-76575000D03*
%TD*%
D17*
%TO.C,U1*%
X60155000Y-61620000D03*
X60155000Y-62890000D03*
X60155000Y-64160000D03*
X60155000Y-65430000D03*
X65105000Y-65430000D03*
X65105000Y-64160000D03*
X65105000Y-62890000D03*
X65105000Y-61620000D03*
%TD*%
D19*
%TO.C,R7*%
X83820000Y-61985000D03*
X85645000Y-61985000D03*
%TD*%
%TO.C,R6*%
X85507500Y-72260000D03*
X87332500Y-72260000D03*
%TD*%
D20*
%TO.C,R5*%
X85557500Y-65285000D03*
X83732500Y-65285000D03*
%TD*%
D21*
%TO.C,R4*%
X82325000Y-70462500D03*
X82325000Y-68637500D03*
%TD*%
D20*
%TO.C,R3*%
X89257500Y-65260000D03*
X87432500Y-65260000D03*
%TD*%
D19*
%TO.C,R2*%
X59927500Y-83570000D03*
X61752500Y-83570000D03*
%TD*%
D20*
%TO.C,R1*%
X65515000Y-83570000D03*
X63690000Y-83570000D03*
%TD*%
D22*
%TO.C,J4*%
X94750000Y-72005000D03*
X92210000Y-72005000D03*
X94750000Y-69465000D03*
X92210000Y-69465000D03*
X94750000Y-66925000D03*
D23*
X92210000Y-66925000D03*
%TD*%
D22*
%TO.C,J3*%
X94600000Y-84315000D03*
X94600000Y-81775000D03*
X94600000Y-79235000D03*
D23*
X94600000Y-76695000D03*
%TD*%
D22*
%TO.C,J2*%
X78085000Y-89400000D03*
X75545000Y-89400000D03*
X73005000Y-89400000D03*
X70465000Y-89400000D03*
X67925000Y-89400000D03*
X65385000Y-89400000D03*
X62845000Y-89400000D03*
X60305000Y-89400000D03*
D23*
X57765000Y-89400000D03*
%TD*%
D22*
%TO.C,J1*%
X90531000Y-89400000D03*
X87991000Y-89400000D03*
X85451000Y-89400000D03*
D23*
X82911000Y-89400000D03*
%TD*%
D11*
%TO.C,D2*%
X87557500Y-61985000D03*
X89432500Y-61985000D03*
%TD*%
D10*
%TO.C,C5*%
X67315000Y-62060000D03*
X69215000Y-62060000D03*
%TD*%
D24*
%TO.C,C4*%
X71600000Y-63800000D03*
X71600000Y-61900000D03*
%TD*%
D25*
%TO.C,C3*%
X82450000Y-80950000D03*
X82450000Y-79050000D03*
%TD*%
D24*
%TO.C,C2*%
X82387500Y-73950000D03*
X82387500Y-75850000D03*
%TD*%
D23*
%TO.C,BT1*%
X55550000Y-69325000D03*
D22*
X55550000Y-71865000D03*
%TD*%
M02*
