%TF.GenerationSoftware,KiCad,Pcbnew,9.0.6*%
%TF.CreationDate,2025-12-29T02:05:30+05:30*%
%TF.ProjectId,DATA LOGGER,44415441-204c-44f4-9747-45522e6b6963,rev?*%
%TF.SameCoordinates,Original*%
%TF.FileFunction,Legend,Bot*%
%TF.FilePolarity,Positive*%
%FSLAX46Y46*%
G04 Gerber Fmt 4.6, Leading zero omitted, Abs format (unit mm)*
G04 Created by KiCad (PCBNEW 9.0.6) date 2025-12-29 02:05:30*
%MOMM*%
%LPD*%
G01*
G04 APERTURE LIST*
%ADD10C,0.100000*%
%ADD11C,0.010000*%
G04 APERTURE END LIST*
D10*
X91589615Y-60728609D02*
X91256282Y-60728609D01*
X91113425Y-61252419D02*
X91589615Y-61252419D01*
X91589615Y-61252419D02*
X91589615Y-60252419D01*
X91589615Y-60252419D02*
X91113425Y-60252419D01*
X90684853Y-61252419D02*
X90684853Y-60585752D01*
X90684853Y-60680990D02*
X90637234Y-60633371D01*
X90637234Y-60633371D02*
X90541996Y-60585752D01*
X90541996Y-60585752D02*
X90399139Y-60585752D01*
X90399139Y-60585752D02*
X90303901Y-60633371D01*
X90303901Y-60633371D02*
X90256282Y-60728609D01*
X90256282Y-60728609D02*
X90256282Y-61252419D01*
X90256282Y-60728609D02*
X90208663Y-60633371D01*
X90208663Y-60633371D02*
X90113425Y-60585752D01*
X90113425Y-60585752D02*
X89970568Y-60585752D01*
X89970568Y-60585752D02*
X89875329Y-60633371D01*
X89875329Y-60633371D02*
X89827710Y-60728609D01*
X89827710Y-60728609D02*
X89827710Y-61252419D01*
X89351520Y-61252419D02*
X89351520Y-60252419D01*
X89351520Y-60633371D02*
X89256282Y-60585752D01*
X89256282Y-60585752D02*
X89065806Y-60585752D01*
X89065806Y-60585752D02*
X88970568Y-60633371D01*
X88970568Y-60633371D02*
X88922949Y-60680990D01*
X88922949Y-60680990D02*
X88875330Y-60776228D01*
X88875330Y-60776228D02*
X88875330Y-61061942D01*
X88875330Y-61061942D02*
X88922949Y-61157180D01*
X88922949Y-61157180D02*
X88970568Y-61204800D01*
X88970568Y-61204800D02*
X89065806Y-61252419D01*
X89065806Y-61252419D02*
X89256282Y-61252419D01*
X89256282Y-61252419D02*
X89351520Y-61204800D01*
X88065806Y-61204800D02*
X88161044Y-61252419D01*
X88161044Y-61252419D02*
X88351520Y-61252419D01*
X88351520Y-61252419D02*
X88446758Y-61204800D01*
X88446758Y-61204800D02*
X88494377Y-61109561D01*
X88494377Y-61109561D02*
X88494377Y-60728609D01*
X88494377Y-60728609D02*
X88446758Y-60633371D01*
X88446758Y-60633371D02*
X88351520Y-60585752D01*
X88351520Y-60585752D02*
X88161044Y-60585752D01*
X88161044Y-60585752D02*
X88065806Y-60633371D01*
X88065806Y-60633371D02*
X88018187Y-60728609D01*
X88018187Y-60728609D02*
X88018187Y-60823847D01*
X88018187Y-60823847D02*
X88494377Y-60919085D01*
X87161044Y-61252419D02*
X87161044Y-60252419D01*
X87161044Y-61204800D02*
X87256282Y-61252419D01*
X87256282Y-61252419D02*
X87446758Y-61252419D01*
X87446758Y-61252419D02*
X87541996Y-61204800D01*
X87541996Y-61204800D02*
X87589615Y-61157180D01*
X87589615Y-61157180D02*
X87637234Y-61061942D01*
X87637234Y-61061942D02*
X87637234Y-60776228D01*
X87637234Y-60776228D02*
X87589615Y-60680990D01*
X87589615Y-60680990D02*
X87541996Y-60633371D01*
X87541996Y-60633371D02*
X87446758Y-60585752D01*
X87446758Y-60585752D02*
X87256282Y-60585752D01*
X87256282Y-60585752D02*
X87161044Y-60633371D01*
X86256282Y-61252419D02*
X86256282Y-60252419D01*
X86256282Y-61204800D02*
X86351520Y-61252419D01*
X86351520Y-61252419D02*
X86541996Y-61252419D01*
X86541996Y-61252419D02*
X86637234Y-61204800D01*
X86637234Y-61204800D02*
X86684853Y-61157180D01*
X86684853Y-61157180D02*
X86732472Y-61061942D01*
X86732472Y-61061942D02*
X86732472Y-60776228D01*
X86732472Y-60776228D02*
X86684853Y-60680990D01*
X86684853Y-60680990D02*
X86637234Y-60633371D01*
X86637234Y-60633371D02*
X86541996Y-60585752D01*
X86541996Y-60585752D02*
X86351520Y-60585752D01*
X86351520Y-60585752D02*
X86256282Y-60633371D01*
X85399139Y-61204800D02*
X85494377Y-61252419D01*
X85494377Y-61252419D02*
X85684853Y-61252419D01*
X85684853Y-61252419D02*
X85780091Y-61204800D01*
X85780091Y-61204800D02*
X85827710Y-61109561D01*
X85827710Y-61109561D02*
X85827710Y-60728609D01*
X85827710Y-60728609D02*
X85780091Y-60633371D01*
X85780091Y-60633371D02*
X85684853Y-60585752D01*
X85684853Y-60585752D02*
X85494377Y-60585752D01*
X85494377Y-60585752D02*
X85399139Y-60633371D01*
X85399139Y-60633371D02*
X85351520Y-60728609D01*
X85351520Y-60728609D02*
X85351520Y-60823847D01*
X85351520Y-60823847D02*
X85827710Y-60919085D01*
X84494377Y-61252419D02*
X84494377Y-60252419D01*
X84494377Y-61204800D02*
X84589615Y-61252419D01*
X84589615Y-61252419D02*
X84780091Y-61252419D01*
X84780091Y-61252419D02*
X84875329Y-61204800D01*
X84875329Y-61204800D02*
X84922948Y-61157180D01*
X84922948Y-61157180D02*
X84970567Y-61061942D01*
X84970567Y-61061942D02*
X84970567Y-60776228D01*
X84970567Y-60776228D02*
X84922948Y-60680990D01*
X84922948Y-60680990D02*
X84875329Y-60633371D01*
X84875329Y-60633371D02*
X84780091Y-60585752D01*
X84780091Y-60585752D02*
X84589615Y-60585752D01*
X84589615Y-60585752D02*
X84494377Y-60633371D01*
X83399138Y-60252419D02*
X82827710Y-60252419D01*
X83113424Y-61252419D02*
X83113424Y-60252419D01*
X82494376Y-61252419D02*
X82494376Y-60585752D01*
X82494376Y-60252419D02*
X82541995Y-60300038D01*
X82541995Y-60300038D02*
X82494376Y-60347657D01*
X82494376Y-60347657D02*
X82446757Y-60300038D01*
X82446757Y-60300038D02*
X82494376Y-60252419D01*
X82494376Y-60252419D02*
X82494376Y-60347657D01*
X82018186Y-61252419D02*
X82018186Y-60585752D01*
X82018186Y-60680990D02*
X81970567Y-60633371D01*
X81970567Y-60633371D02*
X81875329Y-60585752D01*
X81875329Y-60585752D02*
X81732472Y-60585752D01*
X81732472Y-60585752D02*
X81637234Y-60633371D01*
X81637234Y-60633371D02*
X81589615Y-60728609D01*
X81589615Y-60728609D02*
X81589615Y-61252419D01*
X81589615Y-60728609D02*
X81541996Y-60633371D01*
X81541996Y-60633371D02*
X81446758Y-60585752D01*
X81446758Y-60585752D02*
X81303901Y-60585752D01*
X81303901Y-60585752D02*
X81208662Y-60633371D01*
X81208662Y-60633371D02*
X81161043Y-60728609D01*
X81161043Y-60728609D02*
X81161043Y-61252419D01*
X80303901Y-61204800D02*
X80399139Y-61252419D01*
X80399139Y-61252419D02*
X80589615Y-61252419D01*
X80589615Y-61252419D02*
X80684853Y-61204800D01*
X80684853Y-61204800D02*
X80732472Y-61109561D01*
X80732472Y-61109561D02*
X80732472Y-60728609D01*
X80732472Y-60728609D02*
X80684853Y-60633371D01*
X80684853Y-60633371D02*
X80589615Y-60585752D01*
X80589615Y-60585752D02*
X80399139Y-60585752D01*
X80399139Y-60585752D02*
X80303901Y-60633371D01*
X80303901Y-60633371D02*
X80256282Y-60728609D01*
X80256282Y-60728609D02*
X80256282Y-60823847D01*
X80256282Y-60823847D02*
X80732472Y-60919085D01*
X79827710Y-60871466D02*
X79065806Y-60871466D01*
X78637234Y-61204800D02*
X78494377Y-61252419D01*
X78494377Y-61252419D02*
X78256282Y-61252419D01*
X78256282Y-61252419D02*
X78161044Y-61204800D01*
X78161044Y-61204800D02*
X78113425Y-61157180D01*
X78113425Y-61157180D02*
X78065806Y-61061942D01*
X78065806Y-61061942D02*
X78065806Y-60966704D01*
X78065806Y-60966704D02*
X78113425Y-60871466D01*
X78113425Y-60871466D02*
X78161044Y-60823847D01*
X78161044Y-60823847D02*
X78256282Y-60776228D01*
X78256282Y-60776228D02*
X78446758Y-60728609D01*
X78446758Y-60728609D02*
X78541996Y-60680990D01*
X78541996Y-60680990D02*
X78589615Y-60633371D01*
X78589615Y-60633371D02*
X78637234Y-60538133D01*
X78637234Y-60538133D02*
X78637234Y-60442895D01*
X78637234Y-60442895D02*
X78589615Y-60347657D01*
X78589615Y-60347657D02*
X78541996Y-60300038D01*
X78541996Y-60300038D02*
X78446758Y-60252419D01*
X78446758Y-60252419D02*
X78208663Y-60252419D01*
X78208663Y-60252419D02*
X78065806Y-60300038D01*
X77780091Y-60585752D02*
X77399139Y-60585752D01*
X77637234Y-60252419D02*
X77637234Y-61109561D01*
X77637234Y-61109561D02*
X77589615Y-61204800D01*
X77589615Y-61204800D02*
X77494377Y-61252419D01*
X77494377Y-61252419D02*
X77399139Y-61252419D01*
X76637234Y-61252419D02*
X76637234Y-60728609D01*
X76637234Y-60728609D02*
X76684853Y-60633371D01*
X76684853Y-60633371D02*
X76780091Y-60585752D01*
X76780091Y-60585752D02*
X76970567Y-60585752D01*
X76970567Y-60585752D02*
X77065805Y-60633371D01*
X76637234Y-61204800D02*
X76732472Y-61252419D01*
X76732472Y-61252419D02*
X76970567Y-61252419D01*
X76970567Y-61252419D02*
X77065805Y-61204800D01*
X77065805Y-61204800D02*
X77113424Y-61109561D01*
X77113424Y-61109561D02*
X77113424Y-61014323D01*
X77113424Y-61014323D02*
X77065805Y-60919085D01*
X77065805Y-60919085D02*
X76970567Y-60871466D01*
X76970567Y-60871466D02*
X76732472Y-60871466D01*
X76732472Y-60871466D02*
X76637234Y-60823847D01*
X76161043Y-61252419D02*
X76161043Y-60585752D01*
X76161043Y-60680990D02*
X76113424Y-60633371D01*
X76113424Y-60633371D02*
X76018186Y-60585752D01*
X76018186Y-60585752D02*
X75875329Y-60585752D01*
X75875329Y-60585752D02*
X75780091Y-60633371D01*
X75780091Y-60633371D02*
X75732472Y-60728609D01*
X75732472Y-60728609D02*
X75732472Y-61252419D01*
X75732472Y-60728609D02*
X75684853Y-60633371D01*
X75684853Y-60633371D02*
X75589615Y-60585752D01*
X75589615Y-60585752D02*
X75446758Y-60585752D01*
X75446758Y-60585752D02*
X75351519Y-60633371D01*
X75351519Y-60633371D02*
X75303900Y-60728609D01*
X75303900Y-60728609D02*
X75303900Y-61252419D01*
X74827710Y-60585752D02*
X74827710Y-61585752D01*
X74827710Y-60633371D02*
X74732472Y-60585752D01*
X74732472Y-60585752D02*
X74541996Y-60585752D01*
X74541996Y-60585752D02*
X74446758Y-60633371D01*
X74446758Y-60633371D02*
X74399139Y-60680990D01*
X74399139Y-60680990D02*
X74351520Y-60776228D01*
X74351520Y-60776228D02*
X74351520Y-61061942D01*
X74351520Y-61061942D02*
X74399139Y-61157180D01*
X74399139Y-61157180D02*
X74446758Y-61204800D01*
X74446758Y-61204800D02*
X74541996Y-61252419D01*
X74541996Y-61252419D02*
X74732472Y-61252419D01*
X74732472Y-61252419D02*
X74827710Y-61204800D01*
X73541996Y-61204800D02*
X73637234Y-61252419D01*
X73637234Y-61252419D02*
X73827710Y-61252419D01*
X73827710Y-61252419D02*
X73922948Y-61204800D01*
X73922948Y-61204800D02*
X73970567Y-61109561D01*
X73970567Y-61109561D02*
X73970567Y-60728609D01*
X73970567Y-60728609D02*
X73922948Y-60633371D01*
X73922948Y-60633371D02*
X73827710Y-60585752D01*
X73827710Y-60585752D02*
X73637234Y-60585752D01*
X73637234Y-60585752D02*
X73541996Y-60633371D01*
X73541996Y-60633371D02*
X73494377Y-60728609D01*
X73494377Y-60728609D02*
X73494377Y-60823847D01*
X73494377Y-60823847D02*
X73970567Y-60919085D01*
X72637234Y-61252419D02*
X72637234Y-60252419D01*
X72637234Y-61204800D02*
X72732472Y-61252419D01*
X72732472Y-61252419D02*
X72922948Y-61252419D01*
X72922948Y-61252419D02*
X73018186Y-61204800D01*
X73018186Y-61204800D02*
X73065805Y-61157180D01*
X73065805Y-61157180D02*
X73113424Y-61061942D01*
X73113424Y-61061942D02*
X73113424Y-60776228D01*
X73113424Y-60776228D02*
X73065805Y-60680990D01*
X73065805Y-60680990D02*
X73018186Y-60633371D01*
X73018186Y-60633371D02*
X72922948Y-60585752D01*
X72922948Y-60585752D02*
X72732472Y-60585752D01*
X72732472Y-60585752D02*
X72637234Y-60633371D01*
X71399138Y-61252419D02*
X71399138Y-60252419D01*
X71399138Y-60252419D02*
X71161043Y-60252419D01*
X71161043Y-60252419D02*
X71018186Y-60300038D01*
X71018186Y-60300038D02*
X70922948Y-60395276D01*
X70922948Y-60395276D02*
X70875329Y-60490514D01*
X70875329Y-60490514D02*
X70827710Y-60680990D01*
X70827710Y-60680990D02*
X70827710Y-60823847D01*
X70827710Y-60823847D02*
X70875329Y-61014323D01*
X70875329Y-61014323D02*
X70922948Y-61109561D01*
X70922948Y-61109561D02*
X71018186Y-61204800D01*
X71018186Y-61204800D02*
X71161043Y-61252419D01*
X71161043Y-61252419D02*
X71399138Y-61252419D01*
X69970567Y-61252419D02*
X69970567Y-60728609D01*
X69970567Y-60728609D02*
X70018186Y-60633371D01*
X70018186Y-60633371D02*
X70113424Y-60585752D01*
X70113424Y-60585752D02*
X70303900Y-60585752D01*
X70303900Y-60585752D02*
X70399138Y-60633371D01*
X69970567Y-61204800D02*
X70065805Y-61252419D01*
X70065805Y-61252419D02*
X70303900Y-61252419D01*
X70303900Y-61252419D02*
X70399138Y-61204800D01*
X70399138Y-61204800D02*
X70446757Y-61109561D01*
X70446757Y-61109561D02*
X70446757Y-61014323D01*
X70446757Y-61014323D02*
X70399138Y-60919085D01*
X70399138Y-60919085D02*
X70303900Y-60871466D01*
X70303900Y-60871466D02*
X70065805Y-60871466D01*
X70065805Y-60871466D02*
X69970567Y-60823847D01*
X69637233Y-60585752D02*
X69256281Y-60585752D01*
X69494376Y-60252419D02*
X69494376Y-61109561D01*
X69494376Y-61109561D02*
X69446757Y-61204800D01*
X69446757Y-61204800D02*
X69351519Y-61252419D01*
X69351519Y-61252419D02*
X69256281Y-61252419D01*
X68494376Y-61252419D02*
X68494376Y-60728609D01*
X68494376Y-60728609D02*
X68541995Y-60633371D01*
X68541995Y-60633371D02*
X68637233Y-60585752D01*
X68637233Y-60585752D02*
X68827709Y-60585752D01*
X68827709Y-60585752D02*
X68922947Y-60633371D01*
X68494376Y-61204800D02*
X68589614Y-61252419D01*
X68589614Y-61252419D02*
X68827709Y-61252419D01*
X68827709Y-61252419D02*
X68922947Y-61204800D01*
X68922947Y-61204800D02*
X68970566Y-61109561D01*
X68970566Y-61109561D02*
X68970566Y-61014323D01*
X68970566Y-61014323D02*
X68922947Y-60919085D01*
X68922947Y-60919085D02*
X68827709Y-60871466D01*
X68827709Y-60871466D02*
X68589614Y-60871466D01*
X68589614Y-60871466D02*
X68494376Y-60823847D01*
X66780090Y-61252419D02*
X67256280Y-61252419D01*
X67256280Y-61252419D02*
X67256280Y-60252419D01*
X66303899Y-61252419D02*
X66399137Y-61204800D01*
X66399137Y-61204800D02*
X66446756Y-61157180D01*
X66446756Y-61157180D02*
X66494375Y-61061942D01*
X66494375Y-61061942D02*
X66494375Y-60776228D01*
X66494375Y-60776228D02*
X66446756Y-60680990D01*
X66446756Y-60680990D02*
X66399137Y-60633371D01*
X66399137Y-60633371D02*
X66303899Y-60585752D01*
X66303899Y-60585752D02*
X66161042Y-60585752D01*
X66161042Y-60585752D02*
X66065804Y-60633371D01*
X66065804Y-60633371D02*
X66018185Y-60680990D01*
X66018185Y-60680990D02*
X65970566Y-60776228D01*
X65970566Y-60776228D02*
X65970566Y-61061942D01*
X65970566Y-61061942D02*
X66018185Y-61157180D01*
X66018185Y-61157180D02*
X66065804Y-61204800D01*
X66065804Y-61204800D02*
X66161042Y-61252419D01*
X66161042Y-61252419D02*
X66303899Y-61252419D01*
X65113423Y-60585752D02*
X65113423Y-61395276D01*
X65113423Y-61395276D02*
X65161042Y-61490514D01*
X65161042Y-61490514D02*
X65208661Y-61538133D01*
X65208661Y-61538133D02*
X65303899Y-61585752D01*
X65303899Y-61585752D02*
X65446756Y-61585752D01*
X65446756Y-61585752D02*
X65541994Y-61538133D01*
X65113423Y-61204800D02*
X65208661Y-61252419D01*
X65208661Y-61252419D02*
X65399137Y-61252419D01*
X65399137Y-61252419D02*
X65494375Y-61204800D01*
X65494375Y-61204800D02*
X65541994Y-61157180D01*
X65541994Y-61157180D02*
X65589613Y-61061942D01*
X65589613Y-61061942D02*
X65589613Y-60776228D01*
X65589613Y-60776228D02*
X65541994Y-60680990D01*
X65541994Y-60680990D02*
X65494375Y-60633371D01*
X65494375Y-60633371D02*
X65399137Y-60585752D01*
X65399137Y-60585752D02*
X65208661Y-60585752D01*
X65208661Y-60585752D02*
X65113423Y-60633371D01*
X64208661Y-60585752D02*
X64208661Y-61395276D01*
X64208661Y-61395276D02*
X64256280Y-61490514D01*
X64256280Y-61490514D02*
X64303899Y-61538133D01*
X64303899Y-61538133D02*
X64399137Y-61585752D01*
X64399137Y-61585752D02*
X64541994Y-61585752D01*
X64541994Y-61585752D02*
X64637232Y-61538133D01*
X64208661Y-61204800D02*
X64303899Y-61252419D01*
X64303899Y-61252419D02*
X64494375Y-61252419D01*
X64494375Y-61252419D02*
X64589613Y-61204800D01*
X64589613Y-61204800D02*
X64637232Y-61157180D01*
X64637232Y-61157180D02*
X64684851Y-61061942D01*
X64684851Y-61061942D02*
X64684851Y-60776228D01*
X64684851Y-60776228D02*
X64637232Y-60680990D01*
X64637232Y-60680990D02*
X64589613Y-60633371D01*
X64589613Y-60633371D02*
X64494375Y-60585752D01*
X64494375Y-60585752D02*
X64303899Y-60585752D01*
X64303899Y-60585752D02*
X64208661Y-60633371D01*
X63351518Y-61204800D02*
X63446756Y-61252419D01*
X63446756Y-61252419D02*
X63637232Y-61252419D01*
X63637232Y-61252419D02*
X63732470Y-61204800D01*
X63732470Y-61204800D02*
X63780089Y-61109561D01*
X63780089Y-61109561D02*
X63780089Y-60728609D01*
X63780089Y-60728609D02*
X63732470Y-60633371D01*
X63732470Y-60633371D02*
X63637232Y-60585752D01*
X63637232Y-60585752D02*
X63446756Y-60585752D01*
X63446756Y-60585752D02*
X63351518Y-60633371D01*
X63351518Y-60633371D02*
X63303899Y-60728609D01*
X63303899Y-60728609D02*
X63303899Y-60823847D01*
X63303899Y-60823847D02*
X63780089Y-60919085D01*
X62875327Y-61252419D02*
X62875327Y-60585752D01*
X62875327Y-60776228D02*
X62827708Y-60680990D01*
X62827708Y-60680990D02*
X62780089Y-60633371D01*
X62780089Y-60633371D02*
X62684851Y-60585752D01*
X62684851Y-60585752D02*
X62589613Y-60585752D01*
X71896115Y-87872419D02*
X71896115Y-86872419D01*
X71896115Y-86872419D02*
X71658020Y-86872419D01*
X71658020Y-86872419D02*
X71515163Y-86920038D01*
X71515163Y-86920038D02*
X71419925Y-87015276D01*
X71419925Y-87015276D02*
X71372306Y-87110514D01*
X71372306Y-87110514D02*
X71324687Y-87300990D01*
X71324687Y-87300990D02*
X71324687Y-87443847D01*
X71324687Y-87443847D02*
X71372306Y-87634323D01*
X71372306Y-87634323D02*
X71419925Y-87729561D01*
X71419925Y-87729561D02*
X71515163Y-87824800D01*
X71515163Y-87824800D02*
X71658020Y-87872419D01*
X71658020Y-87872419D02*
X71896115Y-87872419D01*
X70896115Y-87348609D02*
X70562782Y-87348609D01*
X70419925Y-87872419D02*
X70896115Y-87872419D01*
X70896115Y-87872419D02*
X70896115Y-86872419D01*
X70896115Y-86872419D02*
X70419925Y-86872419D01*
X70038972Y-87824800D02*
X69896115Y-87872419D01*
X69896115Y-87872419D02*
X69658020Y-87872419D01*
X69658020Y-87872419D02*
X69562782Y-87824800D01*
X69562782Y-87824800D02*
X69515163Y-87777180D01*
X69515163Y-87777180D02*
X69467544Y-87681942D01*
X69467544Y-87681942D02*
X69467544Y-87586704D01*
X69467544Y-87586704D02*
X69515163Y-87491466D01*
X69515163Y-87491466D02*
X69562782Y-87443847D01*
X69562782Y-87443847D02*
X69658020Y-87396228D01*
X69658020Y-87396228D02*
X69848496Y-87348609D01*
X69848496Y-87348609D02*
X69943734Y-87300990D01*
X69943734Y-87300990D02*
X69991353Y-87253371D01*
X69991353Y-87253371D02*
X70038972Y-87158133D01*
X70038972Y-87158133D02*
X70038972Y-87062895D01*
X70038972Y-87062895D02*
X69991353Y-86967657D01*
X69991353Y-86967657D02*
X69943734Y-86920038D01*
X69943734Y-86920038D02*
X69848496Y-86872419D01*
X69848496Y-86872419D02*
X69610401Y-86872419D01*
X69610401Y-86872419D02*
X69467544Y-86920038D01*
X69038972Y-87872419D02*
X69038972Y-86872419D01*
X68562782Y-87872419D02*
X68562782Y-86872419D01*
X68562782Y-86872419D02*
X67991354Y-87872419D01*
X67991354Y-87872419D02*
X67991354Y-86872419D01*
X66991354Y-86920038D02*
X67086592Y-86872419D01*
X67086592Y-86872419D02*
X67229449Y-86872419D01*
X67229449Y-86872419D02*
X67372306Y-86920038D01*
X67372306Y-86920038D02*
X67467544Y-87015276D01*
X67467544Y-87015276D02*
X67515163Y-87110514D01*
X67515163Y-87110514D02*
X67562782Y-87300990D01*
X67562782Y-87300990D02*
X67562782Y-87443847D01*
X67562782Y-87443847D02*
X67515163Y-87634323D01*
X67515163Y-87634323D02*
X67467544Y-87729561D01*
X67467544Y-87729561D02*
X67372306Y-87824800D01*
X67372306Y-87824800D02*
X67229449Y-87872419D01*
X67229449Y-87872419D02*
X67134211Y-87872419D01*
X67134211Y-87872419D02*
X66991354Y-87824800D01*
X66991354Y-87824800D02*
X66943735Y-87777180D01*
X66943735Y-87777180D02*
X66943735Y-87443847D01*
X66943735Y-87443847D02*
X67134211Y-87443847D01*
X66515163Y-87348609D02*
X66181830Y-87348609D01*
X66038973Y-87872419D02*
X66515163Y-87872419D01*
X66515163Y-87872419D02*
X66515163Y-86872419D01*
X66515163Y-86872419D02*
X66038973Y-86872419D01*
X65610401Y-87872419D02*
X65610401Y-86872419D01*
X65610401Y-86872419D02*
X65372306Y-86872419D01*
X65372306Y-86872419D02*
X65229449Y-86920038D01*
X65229449Y-86920038D02*
X65134211Y-87015276D01*
X65134211Y-87015276D02*
X65086592Y-87110514D01*
X65086592Y-87110514D02*
X65038973Y-87300990D01*
X65038973Y-87300990D02*
X65038973Y-87443847D01*
X65038973Y-87443847D02*
X65086592Y-87634323D01*
X65086592Y-87634323D02*
X65134211Y-87729561D01*
X65134211Y-87729561D02*
X65229449Y-87824800D01*
X65229449Y-87824800D02*
X65372306Y-87872419D01*
X65372306Y-87872419D02*
X65610401Y-87872419D01*
X63515163Y-87348609D02*
X63372306Y-87396228D01*
X63372306Y-87396228D02*
X63324687Y-87443847D01*
X63324687Y-87443847D02*
X63277068Y-87539085D01*
X63277068Y-87539085D02*
X63277068Y-87681942D01*
X63277068Y-87681942D02*
X63324687Y-87777180D01*
X63324687Y-87777180D02*
X63372306Y-87824800D01*
X63372306Y-87824800D02*
X63467544Y-87872419D01*
X63467544Y-87872419D02*
X63848496Y-87872419D01*
X63848496Y-87872419D02*
X63848496Y-86872419D01*
X63848496Y-86872419D02*
X63515163Y-86872419D01*
X63515163Y-86872419D02*
X63419925Y-86920038D01*
X63419925Y-86920038D02*
X63372306Y-86967657D01*
X63372306Y-86967657D02*
X63324687Y-87062895D01*
X63324687Y-87062895D02*
X63324687Y-87158133D01*
X63324687Y-87158133D02*
X63372306Y-87253371D01*
X63372306Y-87253371D02*
X63419925Y-87300990D01*
X63419925Y-87300990D02*
X63515163Y-87348609D01*
X63515163Y-87348609D02*
X63848496Y-87348609D01*
X62658020Y-87396228D02*
X62658020Y-87872419D01*
X62991353Y-86872419D02*
X62658020Y-87396228D01*
X62658020Y-87396228D02*
X62324687Y-86872419D01*
X61372305Y-86872419D02*
X60800877Y-86872419D01*
X61086591Y-87872419D02*
X61086591Y-86872419D01*
X60467543Y-87872419D02*
X60467543Y-86872419D01*
X60467543Y-87348609D02*
X59896115Y-87348609D01*
X59896115Y-87872419D02*
X59896115Y-86872419D01*
X59419924Y-87872419D02*
X59419924Y-86872419D01*
X58467544Y-87872419D02*
X58943734Y-87872419D01*
X58943734Y-87872419D02*
X58943734Y-86872419D01*
X58181829Y-87586704D02*
X57705639Y-87586704D01*
X58277067Y-87872419D02*
X57943734Y-86872419D01*
X57943734Y-86872419D02*
X57610401Y-87872419D01*
X57277067Y-87872419D02*
X57277067Y-86872419D01*
X56705639Y-87872419D02*
X57134210Y-87300990D01*
X56705639Y-86872419D02*
X57277067Y-87443847D01*
D11*
%TO.C,REF\u002A\u002A*%
X70375406Y-75404949D02*
X70401127Y-75420647D01*
X70427778Y-75442227D01*
X70427778Y-76089684D01*
X70401127Y-76111264D01*
X70369767Y-76128739D01*
X70333966Y-76129575D01*
X70302528Y-76109082D01*
X70298652Y-76104416D01*
X70293186Y-76094949D01*
X70288979Y-76081267D01*
X70285867Y-76060748D01*
X70283687Y-76030768D01*
X70282276Y-75988704D01*
X70281471Y-75931932D01*
X70281107Y-75857830D01*
X70281022Y-75763773D01*
X70281022Y-75442227D01*
X70307673Y-75420647D01*
X70331386Y-75405877D01*
X70354400Y-75399067D01*
X70375406Y-75404949D01*
G36*
X70375406Y-75404949D02*
G01*
X70401127Y-75420647D01*
X70427778Y-75442227D01*
X70427778Y-76089684D01*
X70401127Y-76111264D01*
X70369767Y-76128739D01*
X70333966Y-76129575D01*
X70302528Y-76109082D01*
X70298652Y-76104416D01*
X70293186Y-76094949D01*
X70288979Y-76081267D01*
X70285867Y-76060748D01*
X70283687Y-76030768D01*
X70282276Y-75988704D01*
X70281471Y-75931932D01*
X70281107Y-75857830D01*
X70281022Y-75763773D01*
X70281022Y-75442227D01*
X70307673Y-75420647D01*
X70331386Y-75405877D01*
X70354400Y-75399067D01*
X70375406Y-75404949D01*
G37*
X77506137Y-75403463D02*
X77540291Y-75426776D01*
X77568000Y-75454485D01*
X77568000Y-75767537D01*
X77567959Y-75851567D01*
X77567701Y-75925789D01*
X77567030Y-75982541D01*
X77565752Y-76024512D01*
X77563673Y-76054389D01*
X77560599Y-76074861D01*
X77556334Y-76088614D01*
X77550684Y-76098337D01*
X77543455Y-76106717D01*
X77511991Y-76128181D01*
X77476826Y-76129947D01*
X77443822Y-76110267D01*
X77438516Y-76104398D01*
X77433066Y-76095314D01*
X77428900Y-76081973D01*
X77425846Y-76061757D01*
X77423732Y-76032049D01*
X77422386Y-75990232D01*
X77421638Y-75933689D01*
X77421314Y-75859802D01*
X77421245Y-75765956D01*
X77421284Y-75690294D01*
X77421539Y-75612385D01*
X77422183Y-75552375D01*
X77423387Y-75507648D01*
X77425324Y-75475585D01*
X77428164Y-75453571D01*
X77432079Y-75438987D01*
X77437242Y-75429218D01*
X77443822Y-75421645D01*
X77473006Y-75402623D01*
X77506137Y-75403463D01*
G36*
X77506137Y-75403463D02*
G01*
X77540291Y-75426776D01*
X77568000Y-75454485D01*
X77568000Y-75767537D01*
X77567959Y-75851567D01*
X77567701Y-75925789D01*
X77567030Y-75982541D01*
X77565752Y-76024512D01*
X77563673Y-76054389D01*
X77560599Y-76074861D01*
X77556334Y-76088614D01*
X77550684Y-76098337D01*
X77543455Y-76106717D01*
X77511991Y-76128181D01*
X77476826Y-76129947D01*
X77443822Y-76110267D01*
X77438516Y-76104398D01*
X77433066Y-76095314D01*
X77428900Y-76081973D01*
X77425846Y-76061757D01*
X77423732Y-76032049D01*
X77422386Y-75990232D01*
X77421638Y-75933689D01*
X77421314Y-75859802D01*
X77421245Y-75765956D01*
X77421284Y-75690294D01*
X77421539Y-75612385D01*
X77422183Y-75552375D01*
X77423387Y-75507648D01*
X77425324Y-75475585D01*
X77428164Y-75453571D01*
X77432079Y-75438987D01*
X77437242Y-75429218D01*
X77443822Y-75421645D01*
X77473006Y-75402623D01*
X77506137Y-75403463D01*
G37*
X76974562Y-70162850D02*
X77057313Y-70190053D01*
X77132406Y-70235484D01*
X77204298Y-70301302D01*
X77242846Y-70345567D01*
X77282256Y-70403961D01*
X77307446Y-70464586D01*
X77320861Y-70533865D01*
X77324948Y-70618222D01*
X77324669Y-70664307D01*
X77322460Y-70705450D01*
X77316894Y-70737582D01*
X77306586Y-70768122D01*
X77290148Y-70804489D01*
X77276200Y-70831728D01*
X77217665Y-70917429D01*
X77145619Y-70986617D01*
X77061947Y-71037741D01*
X76968531Y-71069250D01*
X76935434Y-71076225D01*
X76894960Y-71083094D01*
X76861999Y-71084919D01*
X76827698Y-71081947D01*
X76783200Y-71074426D01*
X76731934Y-71062002D01*
X76641434Y-71024112D01*
X76562345Y-70969836D01*
X76496528Y-70901770D01*
X76445840Y-70822511D01*
X76412140Y-70734654D01*
X76397286Y-70640795D01*
X76403136Y-70543530D01*
X76429399Y-70447220D01*
X76474418Y-70358494D01*
X76535373Y-70283419D01*
X76610184Y-70223641D01*
X76696768Y-70180809D01*
X76793043Y-70156571D01*
X76896928Y-70152576D01*
X76974562Y-70162850D01*
G36*
X76974562Y-70162850D02*
G01*
X77057313Y-70190053D01*
X77132406Y-70235484D01*
X77204298Y-70301302D01*
X77242846Y-70345567D01*
X77282256Y-70403961D01*
X77307446Y-70464586D01*
X77320861Y-70533865D01*
X77324948Y-70618222D01*
X77324669Y-70664307D01*
X77322460Y-70705450D01*
X77316894Y-70737582D01*
X77306586Y-70768122D01*
X77290148Y-70804489D01*
X77276200Y-70831728D01*
X77217665Y-70917429D01*
X77145619Y-70986617D01*
X77061947Y-71037741D01*
X76968531Y-71069250D01*
X76935434Y-71076225D01*
X76894960Y-71083094D01*
X76861999Y-71084919D01*
X76827698Y-71081947D01*
X76783200Y-71074426D01*
X76731934Y-71062002D01*
X76641434Y-71024112D01*
X76562345Y-70969836D01*
X76496528Y-70901770D01*
X76445840Y-70822511D01*
X76412140Y-70734654D01*
X76397286Y-70640795D01*
X76403136Y-70543530D01*
X76429399Y-70447220D01*
X76474418Y-70358494D01*
X76535373Y-70283419D01*
X76610184Y-70223641D01*
X76696768Y-70180809D01*
X76793043Y-70156571D01*
X76896928Y-70152576D01*
X76974562Y-70162850D01*
G37*
X69675767Y-75399068D02*
X69769890Y-75399158D01*
X69844405Y-75399498D01*
X69901811Y-75400239D01*
X69944611Y-75401535D01*
X69975304Y-75403537D01*
X69996391Y-75406396D01*
X70010373Y-75410266D01*
X70019750Y-75415298D01*
X70027022Y-75421645D01*
X70045828Y-75454362D01*
X70047275Y-75491939D01*
X70030917Y-75525178D01*
X70029557Y-75526631D01*
X70018354Y-75534992D01*
X70001252Y-75540547D01*
X69974082Y-75543840D01*
X69932678Y-75545418D01*
X69872873Y-75545822D01*
X69733511Y-75545822D01*
X69733511Y-75809589D01*
X69733436Y-75885417D01*
X69733028Y-75952083D01*
X69732046Y-76001867D01*
X69730250Y-76037784D01*
X69727399Y-76062850D01*
X69723253Y-76080081D01*
X69717571Y-76092492D01*
X69710114Y-76103100D01*
X69707824Y-76105906D01*
X69676646Y-76128548D01*
X69642266Y-76130112D01*
X69609334Y-76110267D01*
X69602355Y-76102191D01*
X69596883Y-76091593D01*
X69592863Y-76075749D01*
X69590072Y-76051773D01*
X69588288Y-76016774D01*
X69587289Y-75967864D01*
X69586852Y-75902154D01*
X69586756Y-75816756D01*
X69586756Y-75545822D01*
X69440820Y-75545822D01*
X69429720Y-75545821D01*
X69373202Y-75545596D01*
X69334358Y-75544457D01*
X69308965Y-75541657D01*
X69292804Y-75536450D01*
X69281652Y-75528089D01*
X69271289Y-75515826D01*
X69255441Y-75485138D01*
X69258543Y-75451358D01*
X69284187Y-75418822D01*
X69289129Y-75415105D01*
X69299338Y-75410269D01*
X69314764Y-75406506D01*
X69337886Y-75403683D01*
X69371183Y-75401670D01*
X69417137Y-75400333D01*
X69478228Y-75399542D01*
X69556935Y-75399163D01*
X69655740Y-75399067D01*
X69675767Y-75399068D01*
G36*
X69675767Y-75399068D02*
G01*
X69769890Y-75399158D01*
X69844405Y-75399498D01*
X69901811Y-75400239D01*
X69944611Y-75401535D01*
X69975304Y-75403537D01*
X69996391Y-75406396D01*
X70010373Y-75410266D01*
X70019750Y-75415298D01*
X70027022Y-75421645D01*
X70045828Y-75454362D01*
X70047275Y-75491939D01*
X70030917Y-75525178D01*
X70029557Y-75526631D01*
X70018354Y-75534992D01*
X70001252Y-75540547D01*
X69974082Y-75543840D01*
X69932678Y-75545418D01*
X69872873Y-75545822D01*
X69733511Y-75545822D01*
X69733511Y-75809589D01*
X69733436Y-75885417D01*
X69733028Y-75952083D01*
X69732046Y-76001867D01*
X69730250Y-76037784D01*
X69727399Y-76062850D01*
X69723253Y-76080081D01*
X69717571Y-76092492D01*
X69710114Y-76103100D01*
X69707824Y-76105906D01*
X69676646Y-76128548D01*
X69642266Y-76130112D01*
X69609334Y-76110267D01*
X69602355Y-76102191D01*
X69596883Y-76091593D01*
X69592863Y-76075749D01*
X69590072Y-76051773D01*
X69588288Y-76016774D01*
X69587289Y-75967864D01*
X69586852Y-75902154D01*
X69586756Y-75816756D01*
X69586756Y-75545822D01*
X69440820Y-75545822D01*
X69429720Y-75545821D01*
X69373202Y-75545596D01*
X69334358Y-75544457D01*
X69308965Y-75541657D01*
X69292804Y-75536450D01*
X69281652Y-75528089D01*
X69271289Y-75515826D01*
X69255441Y-75485138D01*
X69258543Y-75451358D01*
X69284187Y-75418822D01*
X69289129Y-75415105D01*
X69299338Y-75410269D01*
X69314764Y-75406506D01*
X69337886Y-75403683D01*
X69371183Y-75401670D01*
X69417137Y-75400333D01*
X69478228Y-75399542D01*
X69556935Y-75399163D01*
X69655740Y-75399067D01*
X69675767Y-75399068D01*
G37*
X68999734Y-75421645D02*
X69005366Y-75427835D01*
X69010456Y-75436041D01*
X69014543Y-75447817D01*
X69017721Y-75465276D01*
X69020087Y-75490530D01*
X69021738Y-75525690D01*
X69022769Y-75572869D01*
X69023277Y-75634177D01*
X69023359Y-75711727D01*
X69023109Y-75807631D01*
X69022625Y-75924000D01*
X69022557Y-75938175D01*
X69021971Y-75999937D01*
X69020648Y-76043620D01*
X69018103Y-76073001D01*
X69013848Y-76091855D01*
X69007396Y-76103959D01*
X68998262Y-76113089D01*
X68964804Y-76130506D01*
X68929856Y-76127604D01*
X68898953Y-76103100D01*
X68889944Y-76089897D01*
X68882492Y-76071361D01*
X68878124Y-76045333D01*
X68876069Y-76006787D01*
X68875556Y-75950700D01*
X68875556Y-75828045D01*
X68378845Y-75828045D01*
X68378845Y-75962871D01*
X68378772Y-75998662D01*
X68378009Y-76044992D01*
X68375833Y-76075526D01*
X68371536Y-76094557D01*
X68364412Y-76106374D01*
X68353755Y-76115271D01*
X68321504Y-76130341D01*
X68286217Y-76127673D01*
X68255486Y-76103100D01*
X68250831Y-76096845D01*
X68244895Y-76086321D01*
X68240364Y-76072391D01*
X68237048Y-76052317D01*
X68234759Y-76023360D01*
X68233308Y-75982780D01*
X68232505Y-75927840D01*
X68232162Y-75855799D01*
X68232089Y-75763920D01*
X68232089Y-75454485D01*
X68259798Y-75426776D01*
X68291177Y-75404533D01*
X68324406Y-75401844D01*
X68356267Y-75421645D01*
X68364553Y-75431415D01*
X68371965Y-75447307D01*
X68376302Y-75471275D01*
X68378338Y-75508148D01*
X68378845Y-75562756D01*
X68378845Y-75681289D01*
X68875556Y-75681289D01*
X68875556Y-75565776D01*
X68875994Y-75514078D01*
X68877958Y-75479554D01*
X68882474Y-75456978D01*
X68890567Y-75441126D01*
X68903265Y-75426776D01*
X68934643Y-75404533D01*
X68967872Y-75401844D01*
X68999734Y-75421645D01*
G36*
X68999734Y-75421645D02*
G01*
X69005366Y-75427835D01*
X69010456Y-75436041D01*
X69014543Y-75447817D01*
X69017721Y-75465276D01*
X69020087Y-75490530D01*
X69021738Y-75525690D01*
X69022769Y-75572869D01*
X69023277Y-75634177D01*
X69023359Y-75711727D01*
X69023109Y-75807631D01*
X69022625Y-75924000D01*
X69022557Y-75938175D01*
X69021971Y-75999937D01*
X69020648Y-76043620D01*
X69018103Y-76073001D01*
X69013848Y-76091855D01*
X69007396Y-76103959D01*
X68998262Y-76113089D01*
X68964804Y-76130506D01*
X68929856Y-76127604D01*
X68898953Y-76103100D01*
X68889944Y-76089897D01*
X68882492Y-76071361D01*
X68878124Y-76045333D01*
X68876069Y-76006787D01*
X68875556Y-75950700D01*
X68875556Y-75828045D01*
X68378845Y-75828045D01*
X68378845Y-75962871D01*
X68378772Y-75998662D01*
X68378009Y-76044992D01*
X68375833Y-76075526D01*
X68371536Y-76094557D01*
X68364412Y-76106374D01*
X68353755Y-76115271D01*
X68321504Y-76130341D01*
X68286217Y-76127673D01*
X68255486Y-76103100D01*
X68250831Y-76096845D01*
X68244895Y-76086321D01*
X68240364Y-76072391D01*
X68237048Y-76052317D01*
X68234759Y-76023360D01*
X68233308Y-75982780D01*
X68232505Y-75927840D01*
X68232162Y-75855799D01*
X68232089Y-75763920D01*
X68232089Y-75454485D01*
X68259798Y-75426776D01*
X68291177Y-75404533D01*
X68324406Y-75401844D01*
X68356267Y-75421645D01*
X68364553Y-75431415D01*
X68371965Y-75447307D01*
X68376302Y-75471275D01*
X68378338Y-75508148D01*
X68378845Y-75562756D01*
X68378845Y-75681289D01*
X68875556Y-75681289D01*
X68875556Y-75565776D01*
X68875994Y-75514078D01*
X68877958Y-75479554D01*
X68882474Y-75456978D01*
X68890567Y-75441126D01*
X68903265Y-75426776D01*
X68934643Y-75404533D01*
X68967872Y-75401844D01*
X68999734Y-75421645D01*
G37*
X73705133Y-76010396D02*
X73703163Y-76043175D01*
X73700235Y-76066095D01*
X73696158Y-76081897D01*
X73690743Y-76093319D01*
X73683803Y-76103100D01*
X73660406Y-76132845D01*
X73494714Y-76132251D01*
X73459918Y-76131953D01*
X73361435Y-76128522D01*
X73280473Y-76120839D01*
X73213379Y-76108282D01*
X73156496Y-76090227D01*
X73106169Y-76066052D01*
X73102810Y-76064135D01*
X73044998Y-76027417D01*
X73002644Y-75990451D01*
X72969828Y-75946966D01*
X72940628Y-75890689D01*
X72936346Y-75881073D01*
X72913769Y-75817887D01*
X72908034Y-75772333D01*
X73057279Y-75772333D01*
X73062892Y-75797061D01*
X73068618Y-75812939D01*
X73101548Y-75872847D01*
X73148886Y-75918600D01*
X73212652Y-75951736D01*
X73294861Y-75973790D01*
X73297655Y-75974292D01*
X73343940Y-75980255D01*
X73400336Y-75984483D01*
X73455274Y-75986089D01*
X73549156Y-75986089D01*
X73549156Y-75545822D01*
X73461667Y-75546270D01*
X73394747Y-75548746D01*
X73302349Y-75559998D01*
X73223034Y-75579537D01*
X73161060Y-75606511D01*
X73130120Y-75627240D01*
X73102000Y-75657006D01*
X73078660Y-75699434D01*
X73071533Y-75715400D01*
X73059709Y-75747902D01*
X73057279Y-75772333D01*
X72908034Y-75772333D01*
X72906797Y-75762509D01*
X72915399Y-75707483D01*
X72939541Y-75645351D01*
X72940337Y-75643658D01*
X72980788Y-75574236D01*
X73031473Y-75517638D01*
X73094198Y-75473070D01*
X73170774Y-75439741D01*
X73263009Y-75416861D01*
X73372712Y-75403636D01*
X73501691Y-75399275D01*
X73505263Y-75399270D01*
X73565283Y-75399410D01*
X73607214Y-75400446D01*
X73635328Y-75403040D01*
X73653897Y-75407853D01*
X73667194Y-75415544D01*
X73679491Y-75426776D01*
X73707200Y-75454485D01*
X73707200Y-75763920D01*
X73707175Y-75825526D01*
X73706950Y-75904311D01*
X73706332Y-75965021D01*
X73705775Y-75986089D01*
X73705133Y-76010396D01*
G36*
X73705133Y-76010396D02*
G01*
X73703163Y-76043175D01*
X73700235Y-76066095D01*
X73696158Y-76081897D01*
X73690743Y-76093319D01*
X73683803Y-76103100D01*
X73660406Y-76132845D01*
X73494714Y-76132251D01*
X73459918Y-76131953D01*
X73361435Y-76128522D01*
X73280473Y-76120839D01*
X73213379Y-76108282D01*
X73156496Y-76090227D01*
X73106169Y-76066052D01*
X73102810Y-76064135D01*
X73044998Y-76027417D01*
X73002644Y-75990451D01*
X72969828Y-75946966D01*
X72940628Y-75890689D01*
X72936346Y-75881073D01*
X72913769Y-75817887D01*
X72908034Y-75772333D01*
X73057279Y-75772333D01*
X73062892Y-75797061D01*
X73068618Y-75812939D01*
X73101548Y-75872847D01*
X73148886Y-75918600D01*
X73212652Y-75951736D01*
X73294861Y-75973790D01*
X73297655Y-75974292D01*
X73343940Y-75980255D01*
X73400336Y-75984483D01*
X73455274Y-75986089D01*
X73549156Y-75986089D01*
X73549156Y-75545822D01*
X73461667Y-75546270D01*
X73394747Y-75548746D01*
X73302349Y-75559998D01*
X73223034Y-75579537D01*
X73161060Y-75606511D01*
X73130120Y-75627240D01*
X73102000Y-75657006D01*
X73078660Y-75699434D01*
X73071533Y-75715400D01*
X73059709Y-75747902D01*
X73057279Y-75772333D01*
X72908034Y-75772333D01*
X72906797Y-75762509D01*
X72915399Y-75707483D01*
X72939541Y-75645351D01*
X72940337Y-75643658D01*
X72980788Y-75574236D01*
X73031473Y-75517638D01*
X73094198Y-75473070D01*
X73170774Y-75439741D01*
X73263009Y-75416861D01*
X73372712Y-75403636D01*
X73501691Y-75399275D01*
X73505263Y-75399270D01*
X73565283Y-75399410D01*
X73607214Y-75400446D01*
X73635328Y-75403040D01*
X73653897Y-75407853D01*
X73667194Y-75415544D01*
X73679491Y-75426776D01*
X73707200Y-75454485D01*
X73707200Y-75763920D01*
X73707175Y-75825526D01*
X73706950Y-75904311D01*
X73706332Y-75965021D01*
X73705775Y-75986089D01*
X73705133Y-76010396D01*
G37*
X80796817Y-75584427D02*
X80796870Y-75665041D01*
X80796622Y-75765956D01*
X80796583Y-75841617D01*
X80796328Y-75919526D01*
X80795684Y-75979536D01*
X80794480Y-76024264D01*
X80792543Y-76056326D01*
X80789703Y-76078340D01*
X80785788Y-76092924D01*
X80780626Y-76102694D01*
X80774045Y-76110267D01*
X80767077Y-76116501D01*
X80754079Y-76123801D01*
X80734931Y-76128554D01*
X80705528Y-76131292D01*
X80661762Y-76132545D01*
X80599528Y-76132845D01*
X80550582Y-76132469D01*
X80443722Y-76128041D01*
X80354494Y-76117953D01*
X80279696Y-76101365D01*
X80216125Y-76077435D01*
X80160579Y-76045321D01*
X80109854Y-76004182D01*
X80103866Y-75998330D01*
X80066999Y-75949821D01*
X80035899Y-75889013D01*
X80014417Y-75824769D01*
X80009136Y-75786026D01*
X80156353Y-75786026D01*
X80174635Y-75836961D01*
X80204305Y-75882878D01*
X80251002Y-75925287D01*
X80312392Y-75955090D01*
X80391538Y-75974226D01*
X80393028Y-75974464D01*
X80441999Y-75980256D01*
X80500693Y-75984396D01*
X80556734Y-75986004D01*
X80649867Y-75986089D01*
X80649867Y-75545822D01*
X80573667Y-75545808D01*
X80570639Y-75545817D01*
X80519519Y-75547782D01*
X80459416Y-75552507D01*
X80402708Y-75559035D01*
X80352750Y-75568331D01*
X80277998Y-75594600D01*
X80220489Y-75633899D01*
X80178988Y-75686933D01*
X80157771Y-75738200D01*
X80156353Y-75786026D01*
X80009136Y-75786026D01*
X80006400Y-75765956D01*
X80007679Y-75744739D01*
X80019991Y-75687323D01*
X80042520Y-75627413D01*
X80071750Y-75573363D01*
X80104167Y-75533532D01*
X80123708Y-75516510D01*
X80178420Y-75477322D01*
X80238723Y-75447193D01*
X80307919Y-75425232D01*
X80389311Y-75410550D01*
X80486200Y-75402259D01*
X80601889Y-75399467D01*
X80641371Y-75399066D01*
X80687082Y-75398653D01*
X80722883Y-75400457D01*
X80749974Y-75406739D01*
X80769556Y-75419759D01*
X80782830Y-75441778D01*
X80790998Y-75475055D01*
X80795260Y-75521851D01*
X80795857Y-75545822D01*
X80796817Y-75584427D01*
G36*
X80796817Y-75584427D02*
G01*
X80796870Y-75665041D01*
X80796622Y-75765956D01*
X80796583Y-75841617D01*
X80796328Y-75919526D01*
X80795684Y-75979536D01*
X80794480Y-76024264D01*
X80792543Y-76056326D01*
X80789703Y-76078340D01*
X80785788Y-76092924D01*
X80780626Y-76102694D01*
X80774045Y-76110267D01*
X80767077Y-76116501D01*
X80754079Y-76123801D01*
X80734931Y-76128554D01*
X80705528Y-76131292D01*
X80661762Y-76132545D01*
X80599528Y-76132845D01*
X80550582Y-76132469D01*
X80443722Y-76128041D01*
X80354494Y-76117953D01*
X80279696Y-76101365D01*
X80216125Y-76077435D01*
X80160579Y-76045321D01*
X80109854Y-76004182D01*
X80103866Y-75998330D01*
X80066999Y-75949821D01*
X80035899Y-75889013D01*
X80014417Y-75824769D01*
X80009136Y-75786026D01*
X80156353Y-75786026D01*
X80174635Y-75836961D01*
X80204305Y-75882878D01*
X80251002Y-75925287D01*
X80312392Y-75955090D01*
X80391538Y-75974226D01*
X80393028Y-75974464D01*
X80441999Y-75980256D01*
X80500693Y-75984396D01*
X80556734Y-75986004D01*
X80649867Y-75986089D01*
X80649867Y-75545822D01*
X80573667Y-75545808D01*
X80570639Y-75545817D01*
X80519519Y-75547782D01*
X80459416Y-75552507D01*
X80402708Y-75559035D01*
X80352750Y-75568331D01*
X80277998Y-75594600D01*
X80220489Y-75633899D01*
X80178988Y-75686933D01*
X80157771Y-75738200D01*
X80156353Y-75786026D01*
X80009136Y-75786026D01*
X80006400Y-75765956D01*
X80007679Y-75744739D01*
X80019991Y-75687323D01*
X80042520Y-75627413D01*
X80071750Y-75573363D01*
X80104167Y-75533532D01*
X80123708Y-75516510D01*
X80178420Y-75477322D01*
X80238723Y-75447193D01*
X80307919Y-75425232D01*
X80389311Y-75410550D01*
X80486200Y-75402259D01*
X80601889Y-75399467D01*
X80641371Y-75399066D01*
X80687082Y-75398653D01*
X80722883Y-75400457D01*
X80749974Y-75406739D01*
X80769556Y-75419759D01*
X80782830Y-75441778D01*
X80790998Y-75475055D01*
X80795260Y-75521851D01*
X80795857Y-75545822D01*
X80796817Y-75584427D01*
G37*
X75851893Y-75397892D02*
X75863301Y-75404029D01*
X75873850Y-75414691D01*
X75885136Y-75428811D01*
X75889589Y-75434772D01*
X75895588Y-75445268D01*
X75900167Y-75459093D01*
X75903519Y-75478998D01*
X75905833Y-75507732D01*
X75907301Y-75548045D01*
X75908113Y-75602687D01*
X75908460Y-75674407D01*
X75908534Y-75765956D01*
X75908511Y-75824486D01*
X75908292Y-75903573D01*
X75907683Y-75964516D01*
X75906492Y-76010062D01*
X75904529Y-76042963D01*
X75901603Y-76065968D01*
X75897523Y-76081826D01*
X75892097Y-76093286D01*
X75885136Y-76103100D01*
X75854708Y-76127493D01*
X75819765Y-76130372D01*
X75782784Y-76111282D01*
X75778600Y-76107807D01*
X75770424Y-76099279D01*
X75764364Y-76087728D01*
X75759981Y-76069896D01*
X75756839Y-76042524D01*
X75754502Y-76002354D01*
X75752531Y-75946128D01*
X75750489Y-75870589D01*
X75744845Y-75651458D01*
X75479556Y-75892099D01*
X75405722Y-75958875D01*
X75340542Y-76016991D01*
X75288348Y-76061949D01*
X75247273Y-76094871D01*
X75215455Y-76116879D01*
X75191026Y-76129094D01*
X75172124Y-76132639D01*
X75156883Y-76128636D01*
X75143439Y-76118207D01*
X75129927Y-76102474D01*
X75123682Y-76093991D01*
X75118050Y-76083413D01*
X75113839Y-76069255D01*
X75110887Y-76048803D01*
X75109032Y-76019342D01*
X75108113Y-75978161D01*
X75107968Y-75922544D01*
X75108435Y-75849779D01*
X75109352Y-75757151D01*
X75112667Y-75442199D01*
X75139318Y-75420633D01*
X75165383Y-75404441D01*
X75198241Y-75401670D01*
X75232772Y-75420623D01*
X75237084Y-75424208D01*
X75245216Y-75432737D01*
X75251245Y-75444329D01*
X75255606Y-75462235D01*
X75258734Y-75489706D01*
X75261063Y-75529994D01*
X75263029Y-75586351D01*
X75265067Y-75662029D01*
X75270711Y-75881878D01*
X75451334Y-75718084D01*
X75538072Y-75639451D01*
X75613843Y-75571058D01*
X75675980Y-75515708D01*
X75726078Y-75472338D01*
X75765735Y-75439881D01*
X75796548Y-75417273D01*
X75820114Y-75403448D01*
X75838030Y-75397343D01*
X75851893Y-75397892D01*
G36*
X75851893Y-75397892D02*
G01*
X75863301Y-75404029D01*
X75873850Y-75414691D01*
X75885136Y-75428811D01*
X75889589Y-75434772D01*
X75895588Y-75445268D01*
X75900167Y-75459093D01*
X75903519Y-75478998D01*
X75905833Y-75507732D01*
X75907301Y-75548045D01*
X75908113Y-75602687D01*
X75908460Y-75674407D01*
X75908534Y-75765956D01*
X75908511Y-75824486D01*
X75908292Y-75903573D01*
X75907683Y-75964516D01*
X75906492Y-76010062D01*
X75904529Y-76042963D01*
X75901603Y-76065968D01*
X75897523Y-76081826D01*
X75892097Y-76093286D01*
X75885136Y-76103100D01*
X75854708Y-76127493D01*
X75819765Y-76130372D01*
X75782784Y-76111282D01*
X75778600Y-76107807D01*
X75770424Y-76099279D01*
X75764364Y-76087728D01*
X75759981Y-76069896D01*
X75756839Y-76042524D01*
X75754502Y-76002354D01*
X75752531Y-75946128D01*
X75750489Y-75870589D01*
X75744845Y-75651458D01*
X75479556Y-75892099D01*
X75405722Y-75958875D01*
X75340542Y-76016991D01*
X75288348Y-76061949D01*
X75247273Y-76094871D01*
X75215455Y-76116879D01*
X75191026Y-76129094D01*
X75172124Y-76132639D01*
X75156883Y-76128636D01*
X75143439Y-76118207D01*
X75129927Y-76102474D01*
X75123682Y-76093991D01*
X75118050Y-76083413D01*
X75113839Y-76069255D01*
X75110887Y-76048803D01*
X75109032Y-76019342D01*
X75108113Y-75978161D01*
X75107968Y-75922544D01*
X75108435Y-75849779D01*
X75109352Y-75757151D01*
X75112667Y-75442199D01*
X75139318Y-75420633D01*
X75165383Y-75404441D01*
X75198241Y-75401670D01*
X75232772Y-75420623D01*
X75237084Y-75424208D01*
X75245216Y-75432737D01*
X75251245Y-75444329D01*
X75255606Y-75462235D01*
X75258734Y-75489706D01*
X75261063Y-75529994D01*
X75263029Y-75586351D01*
X75265067Y-75662029D01*
X75270711Y-75881878D01*
X75451334Y-75718084D01*
X75538072Y-75639451D01*
X75613843Y-75571058D01*
X75675980Y-75515708D01*
X75726078Y-75472338D01*
X75765735Y-75439881D01*
X75796548Y-75417273D01*
X75820114Y-75403448D01*
X75838030Y-75397343D01*
X75851893Y-75397892D01*
G37*
X76649150Y-75404179D02*
X76755157Y-75420494D01*
X76848969Y-75448545D01*
X76927765Y-75487452D01*
X76988719Y-75536334D01*
X77014789Y-75569195D01*
X77044297Y-75618394D01*
X77069568Y-75672252D01*
X77087218Y-75723419D01*
X77093858Y-75764544D01*
X77092298Y-75784259D01*
X77079357Y-75835592D01*
X77056194Y-75892118D01*
X77026302Y-75946035D01*
X76993173Y-75989539D01*
X76982977Y-75999887D01*
X76915892Y-76051662D01*
X76835766Y-76091554D01*
X76749556Y-76115956D01*
X76694592Y-76124068D01*
X76601139Y-76130673D01*
X76511358Y-76128586D01*
X76428869Y-76118340D01*
X76357286Y-76100470D01*
X76300228Y-76075508D01*
X76261311Y-76043988D01*
X76259936Y-76042012D01*
X76252848Y-76016786D01*
X76248609Y-75969535D01*
X76247200Y-75900071D01*
X76248060Y-75837838D01*
X76252780Y-75790456D01*
X76264470Y-75758353D01*
X76286239Y-75738800D01*
X76321198Y-75729070D01*
X76372456Y-75726433D01*
X76443123Y-75728161D01*
X76491743Y-75731173D01*
X76541939Y-75739366D01*
X76574433Y-75753419D01*
X76591892Y-75774654D01*
X76596983Y-75804394D01*
X76596877Y-75808936D01*
X76588175Y-75843730D01*
X76564165Y-75867147D01*
X76522900Y-75880347D01*
X76462431Y-75884489D01*
X76393956Y-75884489D01*
X76393956Y-75922841D01*
X76394006Y-75931976D01*
X76396227Y-75949227D01*
X76405494Y-75959521D01*
X76426875Y-75966459D01*
X76465436Y-75973641D01*
X76470910Y-75974575D01*
X76567860Y-75984478D01*
X76657852Y-75981559D01*
X76738760Y-75966829D01*
X76808459Y-75941299D01*
X76864824Y-75905978D01*
X76905729Y-75861879D01*
X76929051Y-75810012D01*
X76932663Y-75751388D01*
X76927145Y-75722494D01*
X76900461Y-75666604D01*
X76854273Y-75620945D01*
X76789291Y-75586108D01*
X76706229Y-75562690D01*
X76681555Y-75558241D01*
X76592226Y-75547742D01*
X76512419Y-75548971D01*
X76434326Y-75561906D01*
X76399183Y-75568696D01*
X76353745Y-75569713D01*
X76322430Y-75557182D01*
X76302277Y-75530395D01*
X76295893Y-75502148D01*
X76305379Y-75470924D01*
X76314708Y-75457499D01*
X76348943Y-75433967D01*
X76401565Y-75416095D01*
X76470081Y-75404599D01*
X76552000Y-75400192D01*
X76649150Y-75404179D01*
G36*
X76649150Y-75404179D02*
G01*
X76755157Y-75420494D01*
X76848969Y-75448545D01*
X76927765Y-75487452D01*
X76988719Y-75536334D01*
X77014789Y-75569195D01*
X77044297Y-75618394D01*
X77069568Y-75672252D01*
X77087218Y-75723419D01*
X77093858Y-75764544D01*
X77092298Y-75784259D01*
X77079357Y-75835592D01*
X77056194Y-75892118D01*
X77026302Y-75946035D01*
X76993173Y-75989539D01*
X76982977Y-75999887D01*
X76915892Y-76051662D01*
X76835766Y-76091554D01*
X76749556Y-76115956D01*
X76694592Y-76124068D01*
X76601139Y-76130673D01*
X76511358Y-76128586D01*
X76428869Y-76118340D01*
X76357286Y-76100470D01*
X76300228Y-76075508D01*
X76261311Y-76043988D01*
X76259936Y-76042012D01*
X76252848Y-76016786D01*
X76248609Y-75969535D01*
X76247200Y-75900071D01*
X76248060Y-75837838D01*
X76252780Y-75790456D01*
X76264470Y-75758353D01*
X76286239Y-75738800D01*
X76321198Y-75729070D01*
X76372456Y-75726433D01*
X76443123Y-75728161D01*
X76491743Y-75731173D01*
X76541939Y-75739366D01*
X76574433Y-75753419D01*
X76591892Y-75774654D01*
X76596983Y-75804394D01*
X76596877Y-75808936D01*
X76588175Y-75843730D01*
X76564165Y-75867147D01*
X76522900Y-75880347D01*
X76462431Y-75884489D01*
X76393956Y-75884489D01*
X76393956Y-75922841D01*
X76394006Y-75931976D01*
X76396227Y-75949227D01*
X76405494Y-75959521D01*
X76426875Y-75966459D01*
X76465436Y-75973641D01*
X76470910Y-75974575D01*
X76567860Y-75984478D01*
X76657852Y-75981559D01*
X76738760Y-75966829D01*
X76808459Y-75941299D01*
X76864824Y-75905978D01*
X76905729Y-75861879D01*
X76929051Y-75810012D01*
X76932663Y-75751388D01*
X76927145Y-75722494D01*
X76900461Y-75666604D01*
X76854273Y-75620945D01*
X76789291Y-75586108D01*
X76706229Y-75562690D01*
X76681555Y-75558241D01*
X76592226Y-75547742D01*
X76512419Y-75548971D01*
X76434326Y-75561906D01*
X76399183Y-75568696D01*
X76353745Y-75569713D01*
X76322430Y-75557182D01*
X76302277Y-75530395D01*
X76295893Y-75502148D01*
X76305379Y-75470924D01*
X76314708Y-75457499D01*
X76348943Y-75433967D01*
X76401565Y-75416095D01*
X76470081Y-75404599D01*
X76552000Y-75400192D01*
X76649150Y-75404179D01*
G37*
X74699803Y-75428811D02*
X74704752Y-75435495D01*
X74710596Y-75446066D01*
X74715057Y-75460153D01*
X74718321Y-75480478D01*
X74720574Y-75509765D01*
X74722002Y-75550737D01*
X74722792Y-75606117D01*
X74723129Y-75678628D01*
X74723200Y-75770994D01*
X74723171Y-75836911D01*
X74722939Y-75915228D01*
X74722319Y-75975496D01*
X74721126Y-76020393D01*
X74719179Y-76052602D01*
X74716294Y-76074800D01*
X74712288Y-76089669D01*
X74706979Y-76099889D01*
X74700183Y-76108138D01*
X74695668Y-76112795D01*
X74687438Y-76119282D01*
X74676078Y-76124194D01*
X74658810Y-76127749D01*
X74632855Y-76130167D01*
X74595436Y-76131667D01*
X74543773Y-76132467D01*
X74475089Y-76132787D01*
X74386606Y-76132845D01*
X74366931Y-76132838D01*
X74279906Y-76132572D01*
X74212254Y-76131806D01*
X74161299Y-76130392D01*
X74124367Y-76128180D01*
X74098783Y-76125022D01*
X74081871Y-76120769D01*
X74070957Y-76115271D01*
X74060464Y-76105285D01*
X74047203Y-76074168D01*
X74048386Y-76038280D01*
X74064550Y-76006733D01*
X74066739Y-76004457D01*
X74075427Y-75998189D01*
X74088769Y-75993523D01*
X74109752Y-75990227D01*
X74141363Y-75988068D01*
X74186590Y-75986814D01*
X74248420Y-75986231D01*
X74329839Y-75986089D01*
X74576445Y-75986089D01*
X74576445Y-75828045D01*
X74414006Y-75828045D01*
X74378338Y-75827964D01*
X74322568Y-75827167D01*
X74283430Y-75825162D01*
X74256976Y-75821521D01*
X74239259Y-75815812D01*
X74226329Y-75807607D01*
X74222686Y-75804423D01*
X74204278Y-75773448D01*
X74203644Y-75737112D01*
X74221183Y-75703493D01*
X74221245Y-75703424D01*
X74230916Y-75694798D01*
X74244209Y-75688742D01*
X74264917Y-75684811D01*
X74296828Y-75682556D01*
X74343734Y-75681531D01*
X74409424Y-75681289D01*
X74577571Y-75681289D01*
X74574186Y-75616378D01*
X74570800Y-75551467D01*
X74328723Y-75548414D01*
X74303707Y-75548086D01*
X74222087Y-75546606D01*
X74159768Y-75544222D01*
X74114154Y-75540227D01*
X74082652Y-75533913D01*
X74062667Y-75524574D01*
X74051604Y-75511503D01*
X74046869Y-75493992D01*
X74045867Y-75471335D01*
X74045873Y-75468970D01*
X74047027Y-75448939D01*
X74051824Y-75433146D01*
X74062632Y-75421090D01*
X74081817Y-75412267D01*
X74111745Y-75406175D01*
X74154783Y-75402311D01*
X74213299Y-75400174D01*
X74289657Y-75399260D01*
X74386226Y-75399067D01*
X74676406Y-75399067D01*
X74699803Y-75428811D01*
G36*
X74699803Y-75428811D02*
G01*
X74704752Y-75435495D01*
X74710596Y-75446066D01*
X74715057Y-75460153D01*
X74718321Y-75480478D01*
X74720574Y-75509765D01*
X74722002Y-75550737D01*
X74722792Y-75606117D01*
X74723129Y-75678628D01*
X74723200Y-75770994D01*
X74723171Y-75836911D01*
X74722939Y-75915228D01*
X74722319Y-75975496D01*
X74721126Y-76020393D01*
X74719179Y-76052602D01*
X74716294Y-76074800D01*
X74712288Y-76089669D01*
X74706979Y-76099889D01*
X74700183Y-76108138D01*
X74695668Y-76112795D01*
X74687438Y-76119282D01*
X74676078Y-76124194D01*
X74658810Y-76127749D01*
X74632855Y-76130167D01*
X74595436Y-76131667D01*
X74543773Y-76132467D01*
X74475089Y-76132787D01*
X74386606Y-76132845D01*
X74366931Y-76132838D01*
X74279906Y-76132572D01*
X74212254Y-76131806D01*
X74161299Y-76130392D01*
X74124367Y-76128180D01*
X74098783Y-76125022D01*
X74081871Y-76120769D01*
X74070957Y-76115271D01*
X74060464Y-76105285D01*
X74047203Y-76074168D01*
X74048386Y-76038280D01*
X74064550Y-76006733D01*
X74066739Y-76004457D01*
X74075427Y-75998189D01*
X74088769Y-75993523D01*
X74109752Y-75990227D01*
X74141363Y-75988068D01*
X74186590Y-75986814D01*
X74248420Y-75986231D01*
X74329839Y-75986089D01*
X74576445Y-75986089D01*
X74576445Y-75828045D01*
X74414006Y-75828045D01*
X74378338Y-75827964D01*
X74322568Y-75827167D01*
X74283430Y-75825162D01*
X74256976Y-75821521D01*
X74239259Y-75815812D01*
X74226329Y-75807607D01*
X74222686Y-75804423D01*
X74204278Y-75773448D01*
X74203644Y-75737112D01*
X74221183Y-75703493D01*
X74221245Y-75703424D01*
X74230916Y-75694798D01*
X74244209Y-75688742D01*
X74264917Y-75684811D01*
X74296828Y-75682556D01*
X74343734Y-75681531D01*
X74409424Y-75681289D01*
X74577571Y-75681289D01*
X74574186Y-75616378D01*
X74570800Y-75551467D01*
X74328723Y-75548414D01*
X74303707Y-75548086D01*
X74222087Y-75546606D01*
X74159768Y-75544222D01*
X74114154Y-75540227D01*
X74082652Y-75533913D01*
X74062667Y-75524574D01*
X74051604Y-75511503D01*
X74046869Y-75493992D01*
X74045867Y-75471335D01*
X74045873Y-75468970D01*
X74047027Y-75448939D01*
X74051824Y-75433146D01*
X74062632Y-75421090D01*
X74081817Y-75412267D01*
X74111745Y-75406175D01*
X74154783Y-75402311D01*
X74213299Y-75400174D01*
X74289657Y-75399260D01*
X74386226Y-75399067D01*
X74676406Y-75399067D01*
X74699803Y-75428811D01*
G37*
X79376734Y-75399083D02*
X79453831Y-75399275D01*
X79512777Y-75399860D01*
X79556364Y-75401051D01*
X79587383Y-75403064D01*
X79608625Y-75406112D01*
X79622882Y-75410409D01*
X79632945Y-75416172D01*
X79641606Y-75423612D01*
X79643391Y-75425293D01*
X79650635Y-75432832D01*
X79656277Y-75441850D01*
X79660517Y-75454984D01*
X79663556Y-75474872D01*
X79665594Y-75504151D01*
X79666830Y-75545458D01*
X79667465Y-75601431D01*
X79667700Y-75674707D01*
X79667734Y-75767923D01*
X79667697Y-75840713D01*
X79667448Y-75918889D01*
X79666812Y-75979103D01*
X79665615Y-76023982D01*
X79663684Y-76056152D01*
X79660846Y-76078239D01*
X79656927Y-76092870D01*
X79651755Y-76102670D01*
X79645156Y-76110267D01*
X79641822Y-76113444D01*
X79633300Y-76119554D01*
X79621298Y-76124229D01*
X79603087Y-76127659D01*
X79575940Y-76130036D01*
X79537129Y-76131552D01*
X79483924Y-76132398D01*
X79413598Y-76132765D01*
X79323422Y-76132845D01*
X79281314Y-76132833D01*
X79200167Y-76132651D01*
X79137675Y-76132098D01*
X79091109Y-76130982D01*
X79057741Y-76129113D01*
X79034844Y-76126298D01*
X79019688Y-76122346D01*
X79009546Y-76117066D01*
X79001689Y-76110267D01*
X78986963Y-76088667D01*
X78979111Y-76059467D01*
X78984610Y-76035560D01*
X79001689Y-76008667D01*
X79006668Y-76004059D01*
X79016443Y-75997772D01*
X79030559Y-75993146D01*
X79052054Y-75989930D01*
X79083968Y-75987870D01*
X79129342Y-75986712D01*
X79191213Y-75986202D01*
X79272622Y-75986089D01*
X79520978Y-75986089D01*
X79520978Y-75828045D01*
X79359801Y-75828045D01*
X79323983Y-75827899D01*
X79258359Y-75826176D01*
X79211118Y-75821741D01*
X79179383Y-75813637D01*
X79160277Y-75800906D01*
X79150923Y-75782592D01*
X79148445Y-75757738D01*
X79149242Y-75737482D01*
X79154494Y-75715656D01*
X79167288Y-75700304D01*
X79190628Y-75690309D01*
X79227517Y-75684553D01*
X79280959Y-75681919D01*
X79353958Y-75681289D01*
X79522105Y-75681289D01*
X79518719Y-75616378D01*
X79515334Y-75551467D01*
X79267617Y-75548418D01*
X79205026Y-75547539D01*
X79136565Y-75546095D01*
X79085661Y-75544164D01*
X79049408Y-75541514D01*
X79024901Y-75537910D01*
X79009235Y-75533121D01*
X78999506Y-75526913D01*
X78993491Y-75520510D01*
X78980482Y-75488828D01*
X78984043Y-75453142D01*
X79003818Y-75422084D01*
X79007069Y-75419161D01*
X79016049Y-75412810D01*
X79028153Y-75407957D01*
X79046159Y-75404403D01*
X79072847Y-75401946D01*
X79110997Y-75400385D01*
X79163386Y-75399518D01*
X79232794Y-75399146D01*
X79322001Y-75399067D01*
X79376734Y-75399083D01*
G36*
X79376734Y-75399083D02*
G01*
X79453831Y-75399275D01*
X79512777Y-75399860D01*
X79556364Y-75401051D01*
X79587383Y-75403064D01*
X79608625Y-75406112D01*
X79622882Y-75410409D01*
X79632945Y-75416172D01*
X79641606Y-75423612D01*
X79643391Y-75425293D01*
X79650635Y-75432832D01*
X79656277Y-75441850D01*
X79660517Y-75454984D01*
X79663556Y-75474872D01*
X79665594Y-75504151D01*
X79666830Y-75545458D01*
X79667465Y-75601431D01*
X79667700Y-75674707D01*
X79667734Y-75767923D01*
X79667697Y-75840713D01*
X79667448Y-75918889D01*
X79666812Y-75979103D01*
X79665615Y-76023982D01*
X79663684Y-76056152D01*
X79660846Y-76078239D01*
X79656927Y-76092870D01*
X79651755Y-76102670D01*
X79645156Y-76110267D01*
X79641822Y-76113444D01*
X79633300Y-76119554D01*
X79621298Y-76124229D01*
X79603087Y-76127659D01*
X79575940Y-76130036D01*
X79537129Y-76131552D01*
X79483924Y-76132398D01*
X79413598Y-76132765D01*
X79323422Y-76132845D01*
X79281314Y-76132833D01*
X79200167Y-76132651D01*
X79137675Y-76132098D01*
X79091109Y-76130982D01*
X79057741Y-76129113D01*
X79034844Y-76126298D01*
X79019688Y-76122346D01*
X79009546Y-76117066D01*
X79001689Y-76110267D01*
X78986963Y-76088667D01*
X78979111Y-76059467D01*
X78984610Y-76035560D01*
X79001689Y-76008667D01*
X79006668Y-76004059D01*
X79016443Y-75997772D01*
X79030559Y-75993146D01*
X79052054Y-75989930D01*
X79083968Y-75987870D01*
X79129342Y-75986712D01*
X79191213Y-75986202D01*
X79272622Y-75986089D01*
X79520978Y-75986089D01*
X79520978Y-75828045D01*
X79359801Y-75828045D01*
X79323983Y-75827899D01*
X79258359Y-75826176D01*
X79211118Y-75821741D01*
X79179383Y-75813637D01*
X79160277Y-75800906D01*
X79150923Y-75782592D01*
X79148445Y-75757738D01*
X79149242Y-75737482D01*
X79154494Y-75715656D01*
X79167288Y-75700304D01*
X79190628Y-75690309D01*
X79227517Y-75684553D01*
X79280959Y-75681919D01*
X79353958Y-75681289D01*
X79522105Y-75681289D01*
X79518719Y-75616378D01*
X79515334Y-75551467D01*
X79267617Y-75548418D01*
X79205026Y-75547539D01*
X79136565Y-75546095D01*
X79085661Y-75544164D01*
X79049408Y-75541514D01*
X79024901Y-75537910D01*
X79009235Y-75533121D01*
X78999506Y-75526913D01*
X78993491Y-75520510D01*
X78980482Y-75488828D01*
X78984043Y-75453142D01*
X79003818Y-75422084D01*
X79007069Y-75419161D01*
X79016049Y-75412810D01*
X79028153Y-75407957D01*
X79046159Y-75404403D01*
X79072847Y-75401946D01*
X79110997Y-75400385D01*
X79163386Y-75399518D01*
X79232794Y-75399146D01*
X79322001Y-75399067D01*
X79376734Y-75399083D01*
G37*
X70809702Y-75408478D02*
X70827663Y-75426989D01*
X70848263Y-75458071D01*
X70873095Y-75503756D01*
X70903750Y-75566078D01*
X70941820Y-75647071D01*
X70956454Y-75678454D01*
X70986203Y-75741638D01*
X71012297Y-75796244D01*
X71033292Y-75839290D01*
X71047739Y-75867793D01*
X71054191Y-75878770D01*
X71055550Y-75878189D01*
X71065542Y-75864242D01*
X71082833Y-75834704D01*
X71105430Y-75793087D01*
X71131338Y-75742903D01*
X71147311Y-75711414D01*
X71176261Y-75656061D01*
X71198749Y-75617044D01*
X71216965Y-75591566D01*
X71233096Y-75576831D01*
X71249330Y-75570042D01*
X71267857Y-75568400D01*
X71278360Y-75568875D01*
X71294476Y-75573082D01*
X71309790Y-75583946D01*
X71326388Y-75604219D01*
X71346357Y-75636654D01*
X71371783Y-75684004D01*
X71404752Y-75749022D01*
X71414485Y-75768277D01*
X71438943Y-75814946D01*
X71459178Y-75851109D01*
X71473311Y-75873497D01*
X71479460Y-75878845D01*
X71480827Y-75875573D01*
X71490202Y-75854664D01*
X71507062Y-75817725D01*
X71529979Y-75767874D01*
X71557520Y-75708226D01*
X71588255Y-75641898D01*
X71614970Y-75584677D01*
X71644593Y-75522688D01*
X71667664Y-75476949D01*
X71685643Y-75444908D01*
X71699990Y-75424014D01*
X71712166Y-75411718D01*
X71723632Y-75405466D01*
X71733042Y-75402574D01*
X71758147Y-75402425D01*
X71785290Y-75417768D01*
X71786590Y-75418753D01*
X71808674Y-75441388D01*
X71819723Y-75463613D01*
X71819769Y-75464253D01*
X71815228Y-75481915D01*
X71802364Y-75516481D01*
X71782605Y-75564826D01*
X71757381Y-75623825D01*
X71728119Y-75690355D01*
X71696250Y-75761291D01*
X71663201Y-75833507D01*
X71630401Y-75903880D01*
X71599280Y-75969285D01*
X71571265Y-76026597D01*
X71547786Y-76072692D01*
X71530272Y-76104446D01*
X71520151Y-76118733D01*
X71485743Y-76132102D01*
X71444046Y-76125741D01*
X71438681Y-76121044D01*
X71422852Y-76098893D01*
X71400650Y-76062132D01*
X71374233Y-76014415D01*
X71345760Y-75959393D01*
X71265986Y-75800150D01*
X71192799Y-75946742D01*
X71183103Y-75966032D01*
X71156125Y-76018380D01*
X71132096Y-76063170D01*
X71113332Y-76096154D01*
X71102146Y-76113089D01*
X71101000Y-76114332D01*
X71072879Y-76129619D01*
X71037817Y-76131302D01*
X71006776Y-76118733D01*
X71004350Y-76115884D01*
X70992090Y-76095259D01*
X70972352Y-76057708D01*
X70946448Y-76005880D01*
X70915685Y-75942423D01*
X70881375Y-75869985D01*
X70844825Y-75791216D01*
X70824585Y-75747093D01*
X70787812Y-75666365D01*
X70759355Y-75602687D01*
X70738331Y-75553752D01*
X70723854Y-75517257D01*
X70715039Y-75490895D01*
X70711004Y-75472361D01*
X70710862Y-75459352D01*
X70713730Y-75449561D01*
X70728387Y-75428678D01*
X70754990Y-75408377D01*
X70755745Y-75408035D01*
X70775335Y-75401034D01*
X70792790Y-75400504D01*
X70809702Y-75408478D01*
G36*
X70809702Y-75408478D02*
G01*
X70827663Y-75426989D01*
X70848263Y-75458071D01*
X70873095Y-75503756D01*
X70903750Y-75566078D01*
X70941820Y-75647071D01*
X70956454Y-75678454D01*
X70986203Y-75741638D01*
X71012297Y-75796244D01*
X71033292Y-75839290D01*
X71047739Y-75867793D01*
X71054191Y-75878770D01*
X71055550Y-75878189D01*
X71065542Y-75864242D01*
X71082833Y-75834704D01*
X71105430Y-75793087D01*
X71131338Y-75742903D01*
X71147311Y-75711414D01*
X71176261Y-75656061D01*
X71198749Y-75617044D01*
X71216965Y-75591566D01*
X71233096Y-75576831D01*
X71249330Y-75570042D01*
X71267857Y-75568400D01*
X71278360Y-75568875D01*
X71294476Y-75573082D01*
X71309790Y-75583946D01*
X71326388Y-75604219D01*
X71346357Y-75636654D01*
X71371783Y-75684004D01*
X71404752Y-75749022D01*
X71414485Y-75768277D01*
X71438943Y-75814946D01*
X71459178Y-75851109D01*
X71473311Y-75873497D01*
X71479460Y-75878845D01*
X71480827Y-75875573D01*
X71490202Y-75854664D01*
X71507062Y-75817725D01*
X71529979Y-75767874D01*
X71557520Y-75708226D01*
X71588255Y-75641898D01*
X71614970Y-75584677D01*
X71644593Y-75522688D01*
X71667664Y-75476949D01*
X71685643Y-75444908D01*
X71699990Y-75424014D01*
X71712166Y-75411718D01*
X71723632Y-75405466D01*
X71733042Y-75402574D01*
X71758147Y-75402425D01*
X71785290Y-75417768D01*
X71786590Y-75418753D01*
X71808674Y-75441388D01*
X71819723Y-75463613D01*
X71819769Y-75464253D01*
X71815228Y-75481915D01*
X71802364Y-75516481D01*
X71782605Y-75564826D01*
X71757381Y-75623825D01*
X71728119Y-75690355D01*
X71696250Y-75761291D01*
X71663201Y-75833507D01*
X71630401Y-75903880D01*
X71599280Y-75969285D01*
X71571265Y-76026597D01*
X71547786Y-76072692D01*
X71530272Y-76104446D01*
X71520151Y-76118733D01*
X71485743Y-76132102D01*
X71444046Y-76125741D01*
X71438681Y-76121044D01*
X71422852Y-76098893D01*
X71400650Y-76062132D01*
X71374233Y-76014415D01*
X71345760Y-75959393D01*
X71265986Y-75800150D01*
X71192799Y-75946742D01*
X71183103Y-75966032D01*
X71156125Y-76018380D01*
X71132096Y-76063170D01*
X71113332Y-76096154D01*
X71102146Y-76113089D01*
X71101000Y-76114332D01*
X71072879Y-76129619D01*
X71037817Y-76131302D01*
X71006776Y-76118733D01*
X71004350Y-76115884D01*
X70992090Y-76095259D01*
X70972352Y-76057708D01*
X70946448Y-76005880D01*
X70915685Y-75942423D01*
X70881375Y-75869985D01*
X70844825Y-75791216D01*
X70824585Y-75747093D01*
X70787812Y-75666365D01*
X70759355Y-75602687D01*
X70738331Y-75553752D01*
X70723854Y-75517257D01*
X70715039Y-75490895D01*
X70711004Y-75472361D01*
X70710862Y-75459352D01*
X70713730Y-75449561D01*
X70728387Y-75428678D01*
X70754990Y-75408377D01*
X70755745Y-75408035D01*
X70775335Y-75401034D01*
X70792790Y-75400504D01*
X70809702Y-75408478D01*
G37*
X78360853Y-75399936D02*
X78427100Y-75405366D01*
X78482400Y-75414964D01*
X78533283Y-75429825D01*
X78604595Y-75462958D01*
X78655752Y-75505640D01*
X78686575Y-75557705D01*
X78696889Y-75618983D01*
X78695952Y-75650232D01*
X78690160Y-75675029D01*
X78675353Y-75696699D01*
X78647380Y-75724049D01*
X78639402Y-75731378D01*
X78615692Y-75752281D01*
X78593298Y-75769251D01*
X78569265Y-75783205D01*
X78540637Y-75795056D01*
X78504460Y-75805720D01*
X78457780Y-75816111D01*
X78397641Y-75827146D01*
X78321090Y-75839738D01*
X78225171Y-75854804D01*
X78206808Y-75857838D01*
X78144478Y-75871458D01*
X78099260Y-75887192D01*
X78072976Y-75904263D01*
X78067447Y-75921897D01*
X78070068Y-75926168D01*
X78088000Y-75941233D01*
X78116126Y-75957867D01*
X78128926Y-75963857D01*
X78150224Y-75971050D01*
X78176610Y-75975827D01*
X78212454Y-75978646D01*
X78262128Y-75979964D01*
X78330000Y-75980237D01*
X78347785Y-75980164D01*
X78415406Y-75979053D01*
X78480345Y-75976828D01*
X78535970Y-75973762D01*
X78575651Y-75970127D01*
X78611162Y-75966059D01*
X78640415Y-75965276D01*
X78659315Y-75969876D01*
X78674429Y-75980551D01*
X78678085Y-75984144D01*
X78694427Y-76015918D01*
X78693107Y-76051572D01*
X78674150Y-76082190D01*
X78653780Y-76093796D01*
X78617796Y-76106491D01*
X78575372Y-76116541D01*
X78571922Y-76117140D01*
X78529252Y-76122356D01*
X78471866Y-76126730D01*
X78406849Y-76129818D01*
X78341289Y-76131177D01*
X78325057Y-76131218D01*
X78226744Y-76128741D01*
X78146692Y-76120735D01*
X78081513Y-76106203D01*
X78027817Y-76084149D01*
X77982216Y-76053576D01*
X77941323Y-76013486D01*
X77921202Y-75987259D01*
X77909576Y-75957712D01*
X77906667Y-75917995D01*
X77906808Y-75906026D01*
X77910681Y-75873345D01*
X77923065Y-75846819D01*
X77948230Y-75815971D01*
X77969442Y-75793831D01*
X77995838Y-75771285D01*
X78025555Y-75752917D01*
X78061785Y-75737661D01*
X78107717Y-75724449D01*
X78166544Y-75712214D01*
X78241456Y-75699889D01*
X78335645Y-75686406D01*
X78380957Y-75679396D01*
X78448911Y-75664837D01*
X78498047Y-75648337D01*
X78527614Y-75630439D01*
X78536864Y-75611685D01*
X78525048Y-75592615D01*
X78491416Y-75573771D01*
X78488370Y-75572557D01*
X78442011Y-75560479D01*
X78379361Y-75552279D01*
X78305927Y-75548119D01*
X78227217Y-75548161D01*
X78148739Y-75552569D01*
X78076000Y-75561505D01*
X78072073Y-75562154D01*
X78023257Y-75569861D01*
X77991005Y-75573473D01*
X77970008Y-75572876D01*
X77954954Y-75567954D01*
X77940534Y-75558596D01*
X77939364Y-75557725D01*
X77914847Y-75527351D01*
X77910054Y-75491850D01*
X77925860Y-75457269D01*
X77930406Y-75452813D01*
X77960020Y-75437673D01*
X78007002Y-75424550D01*
X78067306Y-75413750D01*
X78136888Y-75405581D01*
X78211703Y-75400351D01*
X78287706Y-75398367D01*
X78360853Y-75399936D01*
G36*
X78360853Y-75399936D02*
G01*
X78427100Y-75405366D01*
X78482400Y-75414964D01*
X78533283Y-75429825D01*
X78604595Y-75462958D01*
X78655752Y-75505640D01*
X78686575Y-75557705D01*
X78696889Y-75618983D01*
X78695952Y-75650232D01*
X78690160Y-75675029D01*
X78675353Y-75696699D01*
X78647380Y-75724049D01*
X78639402Y-75731378D01*
X78615692Y-75752281D01*
X78593298Y-75769251D01*
X78569265Y-75783205D01*
X78540637Y-75795056D01*
X78504460Y-75805720D01*
X78457780Y-75816111D01*
X78397641Y-75827146D01*
X78321090Y-75839738D01*
X78225171Y-75854804D01*
X78206808Y-75857838D01*
X78144478Y-75871458D01*
X78099260Y-75887192D01*
X78072976Y-75904263D01*
X78067447Y-75921897D01*
X78070068Y-75926168D01*
X78088000Y-75941233D01*
X78116126Y-75957867D01*
X78128926Y-75963857D01*
X78150224Y-75971050D01*
X78176610Y-75975827D01*
X78212454Y-75978646D01*
X78262128Y-75979964D01*
X78330000Y-75980237D01*
X78347785Y-75980164D01*
X78415406Y-75979053D01*
X78480345Y-75976828D01*
X78535970Y-75973762D01*
X78575651Y-75970127D01*
X78611162Y-75966059D01*
X78640415Y-75965276D01*
X78659315Y-75969876D01*
X78674429Y-75980551D01*
X78678085Y-75984144D01*
X78694427Y-76015918D01*
X78693107Y-76051572D01*
X78674150Y-76082190D01*
X78653780Y-76093796D01*
X78617796Y-76106491D01*
X78575372Y-76116541D01*
X78571922Y-76117140D01*
X78529252Y-76122356D01*
X78471866Y-76126730D01*
X78406849Y-76129818D01*
X78341289Y-76131177D01*
X78325057Y-76131218D01*
X78226744Y-76128741D01*
X78146692Y-76120735D01*
X78081513Y-76106203D01*
X78027817Y-76084149D01*
X77982216Y-76053576D01*
X77941323Y-76013486D01*
X77921202Y-75987259D01*
X77909576Y-75957712D01*
X77906667Y-75917995D01*
X77906808Y-75906026D01*
X77910681Y-75873345D01*
X77923065Y-75846819D01*
X77948230Y-75815971D01*
X77969442Y-75793831D01*
X77995838Y-75771285D01*
X78025555Y-75752917D01*
X78061785Y-75737661D01*
X78107717Y-75724449D01*
X78166544Y-75712214D01*
X78241456Y-75699889D01*
X78335645Y-75686406D01*
X78380957Y-75679396D01*
X78448911Y-75664837D01*
X78498047Y-75648337D01*
X78527614Y-75630439D01*
X78536864Y-75611685D01*
X78525048Y-75592615D01*
X78491416Y-75573771D01*
X78488370Y-75572557D01*
X78442011Y-75560479D01*
X78379361Y-75552279D01*
X78305927Y-75548119D01*
X78227217Y-75548161D01*
X78148739Y-75552569D01*
X78076000Y-75561505D01*
X78072073Y-75562154D01*
X78023257Y-75569861D01*
X77991005Y-75573473D01*
X77970008Y-75572876D01*
X77954954Y-75567954D01*
X77940534Y-75558596D01*
X77939364Y-75557725D01*
X77914847Y-75527351D01*
X77910054Y-75491850D01*
X77925860Y-75457269D01*
X77930406Y-75452813D01*
X77960020Y-75437673D01*
X78007002Y-75424550D01*
X78067306Y-75413750D01*
X78136888Y-75405581D01*
X78211703Y-75400351D01*
X78287706Y-75398367D01*
X78360853Y-75399936D01*
G37*
X74508711Y-71092033D02*
X74604268Y-71109523D01*
X74768558Y-71154564D01*
X74922589Y-71217656D01*
X75068509Y-71299915D01*
X75208466Y-71402457D01*
X75344608Y-71526399D01*
X75388473Y-71571661D01*
X75500758Y-71703865D01*
X75593972Y-71841832D01*
X75670719Y-71989750D01*
X75733603Y-72151803D01*
X75737420Y-72163391D01*
X75787507Y-72349392D01*
X75820899Y-72545521D01*
X75837584Y-72747568D01*
X75837551Y-72951325D01*
X75820791Y-73152581D01*
X75787292Y-73347128D01*
X75737044Y-73530756D01*
X75693190Y-73648053D01*
X75615348Y-73810951D01*
X75521828Y-73964866D01*
X75414822Y-74106671D01*
X75296519Y-74233239D01*
X75169111Y-74341441D01*
X75091606Y-74394120D01*
X74964725Y-74463750D01*
X74827243Y-74522468D01*
X74685716Y-74567587D01*
X74546702Y-74596422D01*
X74532597Y-74598106D01*
X74489153Y-74601434D01*
X74431723Y-74604275D01*
X74366122Y-74606373D01*
X74298167Y-74607468D01*
X74171378Y-74605140D01*
X74023673Y-74592136D01*
X73885779Y-74567133D01*
X73752014Y-74529318D01*
X73728562Y-74520889D01*
X73680612Y-74501408D01*
X73624140Y-74476473D01*
X73562379Y-74447722D01*
X73498563Y-74416790D01*
X73435926Y-74385315D01*
X73377703Y-74354934D01*
X73327127Y-74327283D01*
X73287433Y-74303999D01*
X73261854Y-74286718D01*
X73253625Y-74277079D01*
X73255076Y-74273984D01*
X73266250Y-74254079D01*
X73287134Y-74218420D01*
X73316265Y-74169459D01*
X73352181Y-74109646D01*
X73393420Y-74041433D01*
X73438517Y-73967271D01*
X73619785Y-73670008D01*
X73666315Y-73714539D01*
X73757723Y-73792865D01*
X73871334Y-73867439D01*
X73989122Y-73921474D01*
X74109559Y-73954290D01*
X74231117Y-73965211D01*
X74272585Y-73963868D01*
X74390080Y-73945612D01*
X74500089Y-73906617D01*
X74601430Y-73847670D01*
X74692921Y-73769557D01*
X74773380Y-73673064D01*
X74841627Y-73558978D01*
X74857908Y-73524724D01*
X74903982Y-73401240D01*
X74939106Y-73262918D01*
X74963197Y-73113561D01*
X74976173Y-72956973D01*
X74977949Y-72796956D01*
X74968443Y-72637314D01*
X74947572Y-72481850D01*
X74915252Y-72334366D01*
X74871399Y-72198667D01*
X74833982Y-72112076D01*
X74769185Y-71998688D01*
X74693772Y-71905070D01*
X74607418Y-71830959D01*
X74509795Y-71776094D01*
X74400577Y-71740212D01*
X74279439Y-71723051D01*
X74210038Y-71721880D01*
X74087168Y-71736141D01*
X73971664Y-71771241D01*
X73864953Y-71826682D01*
X73768464Y-71901964D01*
X73752720Y-71916440D01*
X73722150Y-71942962D01*
X73699809Y-71960138D01*
X73689691Y-71964787D01*
X73687706Y-71962597D01*
X73673241Y-71943721D01*
X73649400Y-71910397D01*
X73618029Y-71865380D01*
X73580974Y-71811425D01*
X73540083Y-71751285D01*
X73497202Y-71687718D01*
X73454178Y-71623476D01*
X73412857Y-71561315D01*
X73375086Y-71503991D01*
X73342712Y-71454257D01*
X73317582Y-71414868D01*
X73301542Y-71388580D01*
X73296439Y-71378147D01*
X73301050Y-71373941D01*
X73320267Y-71368933D01*
X73329838Y-71366386D01*
X73357809Y-71355249D01*
X73399448Y-71336802D01*
X73450995Y-71312725D01*
X73508690Y-71284699D01*
X73519957Y-71279154D01*
X73697687Y-71199889D01*
X73867490Y-71140385D01*
X74031430Y-71100245D01*
X74191571Y-71079071D01*
X74349977Y-71076466D01*
X74508711Y-71092033D01*
G36*
X74508711Y-71092033D02*
G01*
X74604268Y-71109523D01*
X74768558Y-71154564D01*
X74922589Y-71217656D01*
X75068509Y-71299915D01*
X75208466Y-71402457D01*
X75344608Y-71526399D01*
X75388473Y-71571661D01*
X75500758Y-71703865D01*
X75593972Y-71841832D01*
X75670719Y-71989750D01*
X75733603Y-72151803D01*
X75737420Y-72163391D01*
X75787507Y-72349392D01*
X75820899Y-72545521D01*
X75837584Y-72747568D01*
X75837551Y-72951325D01*
X75820791Y-73152581D01*
X75787292Y-73347128D01*
X75737044Y-73530756D01*
X75693190Y-73648053D01*
X75615348Y-73810951D01*
X75521828Y-73964866D01*
X75414822Y-74106671D01*
X75296519Y-74233239D01*
X75169111Y-74341441D01*
X75091606Y-74394120D01*
X74964725Y-74463750D01*
X74827243Y-74522468D01*
X74685716Y-74567587D01*
X74546702Y-74596422D01*
X74532597Y-74598106D01*
X74489153Y-74601434D01*
X74431723Y-74604275D01*
X74366122Y-74606373D01*
X74298167Y-74607468D01*
X74171378Y-74605140D01*
X74023673Y-74592136D01*
X73885779Y-74567133D01*
X73752014Y-74529318D01*
X73728562Y-74520889D01*
X73680612Y-74501408D01*
X73624140Y-74476473D01*
X73562379Y-74447722D01*
X73498563Y-74416790D01*
X73435926Y-74385315D01*
X73377703Y-74354934D01*
X73327127Y-74327283D01*
X73287433Y-74303999D01*
X73261854Y-74286718D01*
X73253625Y-74277079D01*
X73255076Y-74273984D01*
X73266250Y-74254079D01*
X73287134Y-74218420D01*
X73316265Y-74169459D01*
X73352181Y-74109646D01*
X73393420Y-74041433D01*
X73438517Y-73967271D01*
X73619785Y-73670008D01*
X73666315Y-73714539D01*
X73757723Y-73792865D01*
X73871334Y-73867439D01*
X73989122Y-73921474D01*
X74109559Y-73954290D01*
X74231117Y-73965211D01*
X74272585Y-73963868D01*
X74390080Y-73945612D01*
X74500089Y-73906617D01*
X74601430Y-73847670D01*
X74692921Y-73769557D01*
X74773380Y-73673064D01*
X74841627Y-73558978D01*
X74857908Y-73524724D01*
X74903982Y-73401240D01*
X74939106Y-73262918D01*
X74963197Y-73113561D01*
X74976173Y-72956973D01*
X74977949Y-72796956D01*
X74968443Y-72637314D01*
X74947572Y-72481850D01*
X74915252Y-72334366D01*
X74871399Y-72198667D01*
X74833982Y-72112076D01*
X74769185Y-71998688D01*
X74693772Y-71905070D01*
X74607418Y-71830959D01*
X74509795Y-71776094D01*
X74400577Y-71740212D01*
X74279439Y-71723051D01*
X74210038Y-71721880D01*
X74087168Y-71736141D01*
X73971664Y-71771241D01*
X73864953Y-71826682D01*
X73768464Y-71901964D01*
X73752720Y-71916440D01*
X73722150Y-71942962D01*
X73699809Y-71960138D01*
X73689691Y-71964787D01*
X73687706Y-71962597D01*
X73673241Y-71943721D01*
X73649400Y-71910397D01*
X73618029Y-71865380D01*
X73580974Y-71811425D01*
X73540083Y-71751285D01*
X73497202Y-71687718D01*
X73454178Y-71623476D01*
X73412857Y-71561315D01*
X73375086Y-71503991D01*
X73342712Y-71454257D01*
X73317582Y-71414868D01*
X73301542Y-71388580D01*
X73296439Y-71378147D01*
X73301050Y-71373941D01*
X73320267Y-71368933D01*
X73329838Y-71366386D01*
X73357809Y-71355249D01*
X73399448Y-71336802D01*
X73450995Y-71312725D01*
X73508690Y-71284699D01*
X73519957Y-71279154D01*
X73697687Y-71199889D01*
X73867490Y-71140385D01*
X74031430Y-71100245D01*
X74191571Y-71079071D01*
X74349977Y-71076466D01*
X74508711Y-71092033D01*
G37*
X70705994Y-73372711D02*
X70705268Y-73450158D01*
X70696689Y-73601594D01*
X70677833Y-73738283D01*
X70647837Y-73864276D01*
X70605836Y-73983625D01*
X70550969Y-74100381D01*
X70484167Y-74211179D01*
X70393363Y-74324739D01*
X70289708Y-74420211D01*
X70173887Y-74497073D01*
X70046586Y-74554797D01*
X69908489Y-74592858D01*
X69870793Y-74598666D01*
X69791752Y-74604396D01*
X69703629Y-74604583D01*
X69614236Y-74599539D01*
X69531384Y-74589578D01*
X69462887Y-74575012D01*
X69432035Y-74565364D01*
X69354730Y-74535123D01*
X69277679Y-74497617D01*
X69208200Y-74456614D01*
X69153615Y-74415879D01*
X69130916Y-74396505D01*
X69108201Y-74378662D01*
X69096779Y-74371778D01*
X69095537Y-74373424D01*
X69092728Y-74391205D01*
X69090776Y-74424370D01*
X69090045Y-74467733D01*
X69090045Y-74563689D01*
X68231896Y-74563689D01*
X68266161Y-74502974D01*
X68271355Y-74493868D01*
X68279715Y-74479249D01*
X68287288Y-74465173D01*
X68294112Y-74450540D01*
X68300227Y-74434249D01*
X68305673Y-74415198D01*
X68310487Y-74392286D01*
X68314708Y-74364413D01*
X68318377Y-74330478D01*
X68321531Y-74289379D01*
X68324211Y-74240015D01*
X68326454Y-74181286D01*
X68328299Y-74112090D01*
X68329787Y-74031326D01*
X68330955Y-73937894D01*
X68331844Y-73830692D01*
X68332491Y-73708620D01*
X68332936Y-73570576D01*
X68333218Y-73415459D01*
X68333375Y-73242168D01*
X68333448Y-73049603D01*
X68333474Y-72836662D01*
X68333485Y-72700530D01*
X69135200Y-72700530D01*
X69135200Y-73850721D01*
X69205756Y-73897089D01*
X69246417Y-73920791D01*
X69300546Y-73946639D01*
X69349689Y-73964829D01*
X69413165Y-73980551D01*
X69509331Y-73991541D01*
X69593900Y-73983365D01*
X69667219Y-73955805D01*
X69729637Y-73908642D01*
X69781502Y-73841658D01*
X69823160Y-73754633D01*
X69854962Y-73647350D01*
X69857545Y-73635009D01*
X69866000Y-73573772D01*
X69871663Y-73496692D01*
X69874576Y-73409002D01*
X69874783Y-73315934D01*
X69872330Y-73222720D01*
X69867261Y-73134594D01*
X69859619Y-73056788D01*
X69849448Y-72994533D01*
X69848167Y-72988666D01*
X69819126Y-72878121D01*
X69784610Y-72787575D01*
X69743456Y-72714953D01*
X69694499Y-72658181D01*
X69636574Y-72615184D01*
X69604620Y-72599615D01*
X69531784Y-72580722D01*
X69450443Y-72577465D01*
X69365319Y-72589389D01*
X69281133Y-72616040D01*
X69202608Y-72656962D01*
X69135200Y-72700530D01*
X68333485Y-72700530D01*
X68333493Y-72602245D01*
X68333689Y-70917378D01*
X69239017Y-70917378D01*
X69214585Y-70954067D01*
X69208318Y-70963647D01*
X69182208Y-71009981D01*
X69164469Y-71057102D01*
X69152908Y-71112251D01*
X69145331Y-71182667D01*
X69144839Y-71189650D01*
X69143062Y-71227641D01*
X69141444Y-71281576D01*
X69139999Y-71348703D01*
X69138740Y-71426271D01*
X69137680Y-71511528D01*
X69136829Y-71601724D01*
X69136203Y-71694107D01*
X69135812Y-71785925D01*
X69135670Y-71874427D01*
X69135790Y-71956862D01*
X69136183Y-72030479D01*
X69136862Y-72092526D01*
X69137841Y-72140251D01*
X69139132Y-72170904D01*
X69140747Y-72181733D01*
X69148957Y-72177333D01*
X69170647Y-72162362D01*
X69200014Y-72140448D01*
X69248879Y-72106236D01*
X69337125Y-72059714D01*
X69435916Y-72026046D01*
X69548510Y-72004231D01*
X69678164Y-71993265D01*
X69770670Y-71992219D01*
X69892011Y-72002014D01*
X70002099Y-72026174D01*
X70105389Y-72065785D01*
X70206338Y-72121932D01*
X70251503Y-72152883D01*
X70356911Y-72244115D01*
X70448538Y-72353106D01*
X70526332Y-72479726D01*
X70590241Y-72623845D01*
X70640214Y-72785332D01*
X70676198Y-72964059D01*
X70698143Y-73159895D01*
X70703900Y-73315934D01*
X70705994Y-73372711D01*
G36*
X70705994Y-73372711D02*
G01*
X70705268Y-73450158D01*
X70696689Y-73601594D01*
X70677833Y-73738283D01*
X70647837Y-73864276D01*
X70605836Y-73983625D01*
X70550969Y-74100381D01*
X70484167Y-74211179D01*
X70393363Y-74324739D01*
X70289708Y-74420211D01*
X70173887Y-74497073D01*
X70046586Y-74554797D01*
X69908489Y-74592858D01*
X69870793Y-74598666D01*
X69791752Y-74604396D01*
X69703629Y-74604583D01*
X69614236Y-74599539D01*
X69531384Y-74589578D01*
X69462887Y-74575012D01*
X69432035Y-74565364D01*
X69354730Y-74535123D01*
X69277679Y-74497617D01*
X69208200Y-74456614D01*
X69153615Y-74415879D01*
X69130916Y-74396505D01*
X69108201Y-74378662D01*
X69096779Y-74371778D01*
X69095537Y-74373424D01*
X69092728Y-74391205D01*
X69090776Y-74424370D01*
X69090045Y-74467733D01*
X69090045Y-74563689D01*
X68231896Y-74563689D01*
X68266161Y-74502974D01*
X68271355Y-74493868D01*
X68279715Y-74479249D01*
X68287288Y-74465173D01*
X68294112Y-74450540D01*
X68300227Y-74434249D01*
X68305673Y-74415198D01*
X68310487Y-74392286D01*
X68314708Y-74364413D01*
X68318377Y-74330478D01*
X68321531Y-74289379D01*
X68324211Y-74240015D01*
X68326454Y-74181286D01*
X68328299Y-74112090D01*
X68329787Y-74031326D01*
X68330955Y-73937894D01*
X68331844Y-73830692D01*
X68332491Y-73708620D01*
X68332936Y-73570576D01*
X68333218Y-73415459D01*
X68333375Y-73242168D01*
X68333448Y-73049603D01*
X68333474Y-72836662D01*
X68333485Y-72700530D01*
X69135200Y-72700530D01*
X69135200Y-73850721D01*
X69205756Y-73897089D01*
X69246417Y-73920791D01*
X69300546Y-73946639D01*
X69349689Y-73964829D01*
X69413165Y-73980551D01*
X69509331Y-73991541D01*
X69593900Y-73983365D01*
X69667219Y-73955805D01*
X69729637Y-73908642D01*
X69781502Y-73841658D01*
X69823160Y-73754633D01*
X69854962Y-73647350D01*
X69857545Y-73635009D01*
X69866000Y-73573772D01*
X69871663Y-73496692D01*
X69874576Y-73409002D01*
X69874783Y-73315934D01*
X69872330Y-73222720D01*
X69867261Y-73134594D01*
X69859619Y-73056788D01*
X69849448Y-72994533D01*
X69848167Y-72988666D01*
X69819126Y-72878121D01*
X69784610Y-72787575D01*
X69743456Y-72714953D01*
X69694499Y-72658181D01*
X69636574Y-72615184D01*
X69604620Y-72599615D01*
X69531784Y-72580722D01*
X69450443Y-72577465D01*
X69365319Y-72589389D01*
X69281133Y-72616040D01*
X69202608Y-72656962D01*
X69135200Y-72700530D01*
X68333485Y-72700530D01*
X68333493Y-72602245D01*
X68333689Y-70917378D01*
X69239017Y-70917378D01*
X69214585Y-70954067D01*
X69208318Y-70963647D01*
X69182208Y-71009981D01*
X69164469Y-71057102D01*
X69152908Y-71112251D01*
X69145331Y-71182667D01*
X69144839Y-71189650D01*
X69143062Y-71227641D01*
X69141444Y-71281576D01*
X69139999Y-71348703D01*
X69138740Y-71426271D01*
X69137680Y-71511528D01*
X69136829Y-71601724D01*
X69136203Y-71694107D01*
X69135812Y-71785925D01*
X69135670Y-71874427D01*
X69135790Y-71956862D01*
X69136183Y-72030479D01*
X69136862Y-72092526D01*
X69137841Y-72140251D01*
X69139132Y-72170904D01*
X69140747Y-72181733D01*
X69148957Y-72177333D01*
X69170647Y-72162362D01*
X69200014Y-72140448D01*
X69248879Y-72106236D01*
X69337125Y-72059714D01*
X69435916Y-72026046D01*
X69548510Y-72004231D01*
X69678164Y-71993265D01*
X69770670Y-71992219D01*
X69892011Y-72002014D01*
X70002099Y-72026174D01*
X70105389Y-72065785D01*
X70206338Y-72121932D01*
X70251503Y-72152883D01*
X70356911Y-72244115D01*
X70448538Y-72353106D01*
X70526332Y-72479726D01*
X70590241Y-72623845D01*
X70640214Y-72785332D01*
X70676198Y-72964059D01*
X70698143Y-73159895D01*
X70703900Y-73315934D01*
X70705994Y-73372711D01*
G37*
X73247755Y-73773467D02*
X73247261Y-73807363D01*
X73243632Y-73882202D01*
X73236022Y-73944401D01*
X73223688Y-74000984D01*
X73179313Y-74127076D01*
X73116400Y-74241679D01*
X73036238Y-74342568D01*
X72939740Y-74428924D01*
X72827822Y-74499932D01*
X72701397Y-74554776D01*
X72561378Y-74592638D01*
X72525149Y-74598351D01*
X72446155Y-74604313D01*
X72357841Y-74604646D01*
X72268075Y-74599659D01*
X72184722Y-74589666D01*
X72115651Y-74574978D01*
X72029187Y-74544749D01*
X71919286Y-74490057D01*
X71821956Y-74422543D01*
X71759867Y-74371556D01*
X71756605Y-74467622D01*
X71753343Y-74563689D01*
X71330450Y-74563689D01*
X71319543Y-74563686D01*
X71225056Y-74563380D01*
X71138331Y-74562616D01*
X71061837Y-74561451D01*
X70998043Y-74559942D01*
X70949418Y-74558147D01*
X70918433Y-74556121D01*
X70907556Y-74553922D01*
X70907578Y-74553463D01*
X70914614Y-74537910D01*
X70930434Y-74515071D01*
X70934734Y-74509638D01*
X70945777Y-74495606D01*
X70955311Y-74482186D01*
X70963461Y-74467722D01*
X70970352Y-74450556D01*
X70976111Y-74429034D01*
X70980862Y-74401498D01*
X70984731Y-74366292D01*
X70987844Y-74321760D01*
X70990325Y-74266246D01*
X70992300Y-74198093D01*
X70993894Y-74115645D01*
X70995234Y-74017246D01*
X70996444Y-73901239D01*
X70997649Y-73765968D01*
X70998595Y-73654586D01*
X71799378Y-73654586D01*
X71799378Y-73850462D01*
X71844048Y-73906973D01*
X71856785Y-73922212D01*
X71903604Y-73964844D01*
X71964255Y-74000672D01*
X71974897Y-74005850D01*
X72013676Y-74022745D01*
X72048692Y-74032909D01*
X72088722Y-74038325D01*
X72142541Y-74040978D01*
X72160648Y-74041383D01*
X72236011Y-74038540D01*
X72296743Y-74026620D01*
X72348452Y-74004037D01*
X72396746Y-73969211D01*
X72401803Y-73964798D01*
X72450272Y-73909160D01*
X72478459Y-73845333D01*
X72487752Y-73770282D01*
X72480520Y-73698693D01*
X72455796Y-73635645D01*
X72411249Y-73577758D01*
X72356319Y-73530808D01*
X72283894Y-73490961D01*
X72197340Y-73463263D01*
X72094670Y-73447096D01*
X71973894Y-73441842D01*
X71965007Y-73441857D01*
X71909660Y-73442655D01*
X71862736Y-73444488D01*
X71828953Y-73447111D01*
X71813028Y-73450274D01*
X71808943Y-73456741D01*
X71804572Y-73478875D01*
X71801604Y-73517988D01*
X71799914Y-73575939D01*
X71799378Y-73654586D01*
X70998595Y-73654586D01*
X70998975Y-73609778D01*
X71000228Y-73467012D01*
X71001651Y-73321942D01*
X71003176Y-73196027D01*
X71004933Y-73087436D01*
X71007051Y-72994334D01*
X71009660Y-72914891D01*
X71012890Y-72847273D01*
X71016869Y-72789649D01*
X71021728Y-72740185D01*
X71027597Y-72697050D01*
X71034604Y-72658410D01*
X71042880Y-72622434D01*
X71052554Y-72587289D01*
X71063756Y-72551142D01*
X71076616Y-72512161D01*
X71092090Y-72469091D01*
X71134994Y-72376871D01*
X71188735Y-72297099D01*
X71257576Y-72222965D01*
X71335185Y-72159405D01*
X71439761Y-72097725D01*
X71559244Y-72050202D01*
X71694508Y-72016567D01*
X71846426Y-71996552D01*
X72015872Y-71989889D01*
X72073890Y-71990287D01*
X72139398Y-71992335D01*
X72200693Y-71996704D01*
X72262097Y-72004035D01*
X72327932Y-72014969D01*
X72402520Y-72030147D01*
X72490184Y-72050209D01*
X72595245Y-72075797D01*
X72623806Y-72082820D01*
X72699054Y-72100776D01*
X72769388Y-72116820D01*
X72830567Y-72130028D01*
X72878354Y-72139474D01*
X72908511Y-72144231D01*
X72936783Y-72147910D01*
X72963060Y-72153187D01*
X72973059Y-72157942D01*
X72969952Y-72166781D01*
X72959194Y-72194072D01*
X72941864Y-72236906D01*
X72919126Y-72292425D01*
X72892147Y-72357772D01*
X72862090Y-72430089D01*
X72855493Y-72445879D01*
X72816907Y-72536484D01*
X72785768Y-72606217D01*
X72761917Y-72655405D01*
X72745198Y-72684374D01*
X72735454Y-72693452D01*
X72727766Y-72691405D01*
X72701415Y-72681760D01*
X72662982Y-72666190D01*
X72617822Y-72646815D01*
X72523293Y-72608814D01*
X72386480Y-72567780D01*
X72245289Y-72542612D01*
X72207314Y-72538611D01*
X72104059Y-72536447D01*
X72016952Y-72549622D01*
X71945129Y-72578756D01*
X71887731Y-72624466D01*
X71843896Y-72687372D01*
X71812762Y-72768092D01*
X71793470Y-72867245D01*
X71786050Y-72926224D01*
X71947936Y-72919445D01*
X72074495Y-72917813D01*
X72225951Y-72924194D01*
X72374396Y-72938777D01*
X72510578Y-72960882D01*
X72575245Y-72975821D01*
X72707490Y-73018741D01*
X72829762Y-73075340D01*
X72939685Y-73144017D01*
X73034883Y-73223170D01*
X73112980Y-73311196D01*
X73171599Y-73406493D01*
X73195595Y-73458864D01*
X73221232Y-73529590D01*
X73237478Y-73600812D01*
X73245822Y-73679712D01*
X73247690Y-73770282D01*
X73247755Y-73773467D01*
G36*
X73247755Y-73773467D02*
G01*
X73247261Y-73807363D01*
X73243632Y-73882202D01*
X73236022Y-73944401D01*
X73223688Y-74000984D01*
X73179313Y-74127076D01*
X73116400Y-74241679D01*
X73036238Y-74342568D01*
X72939740Y-74428924D01*
X72827822Y-74499932D01*
X72701397Y-74554776D01*
X72561378Y-74592638D01*
X72525149Y-74598351D01*
X72446155Y-74604313D01*
X72357841Y-74604646D01*
X72268075Y-74599659D01*
X72184722Y-74589666D01*
X72115651Y-74574978D01*
X72029187Y-74544749D01*
X71919286Y-74490057D01*
X71821956Y-74422543D01*
X71759867Y-74371556D01*
X71756605Y-74467622D01*
X71753343Y-74563689D01*
X71330450Y-74563689D01*
X71319543Y-74563686D01*
X71225056Y-74563380D01*
X71138331Y-74562616D01*
X71061837Y-74561451D01*
X70998043Y-74559942D01*
X70949418Y-74558147D01*
X70918433Y-74556121D01*
X70907556Y-74553922D01*
X70907578Y-74553463D01*
X70914614Y-74537910D01*
X70930434Y-74515071D01*
X70934734Y-74509638D01*
X70945777Y-74495606D01*
X70955311Y-74482186D01*
X70963461Y-74467722D01*
X70970352Y-74450556D01*
X70976111Y-74429034D01*
X70980862Y-74401498D01*
X70984731Y-74366292D01*
X70987844Y-74321760D01*
X70990325Y-74266246D01*
X70992300Y-74198093D01*
X70993894Y-74115645D01*
X70995234Y-74017246D01*
X70996444Y-73901239D01*
X70997649Y-73765968D01*
X70998595Y-73654586D01*
X71799378Y-73654586D01*
X71799378Y-73850462D01*
X71844048Y-73906973D01*
X71856785Y-73922212D01*
X71903604Y-73964844D01*
X71964255Y-74000672D01*
X71974897Y-74005850D01*
X72013676Y-74022745D01*
X72048692Y-74032909D01*
X72088722Y-74038325D01*
X72142541Y-74040978D01*
X72160648Y-74041383D01*
X72236011Y-74038540D01*
X72296743Y-74026620D01*
X72348452Y-74004037D01*
X72396746Y-73969211D01*
X72401803Y-73964798D01*
X72450272Y-73909160D01*
X72478459Y-73845333D01*
X72487752Y-73770282D01*
X72480520Y-73698693D01*
X72455796Y-73635645D01*
X72411249Y-73577758D01*
X72356319Y-73530808D01*
X72283894Y-73490961D01*
X72197340Y-73463263D01*
X72094670Y-73447096D01*
X71973894Y-73441842D01*
X71965007Y-73441857D01*
X71909660Y-73442655D01*
X71862736Y-73444488D01*
X71828953Y-73447111D01*
X71813028Y-73450274D01*
X71808943Y-73456741D01*
X71804572Y-73478875D01*
X71801604Y-73517988D01*
X71799914Y-73575939D01*
X71799378Y-73654586D01*
X70998595Y-73654586D01*
X70998975Y-73609778D01*
X71000228Y-73467012D01*
X71001651Y-73321942D01*
X71003176Y-73196027D01*
X71004933Y-73087436D01*
X71007051Y-72994334D01*
X71009660Y-72914891D01*
X71012890Y-72847273D01*
X71016869Y-72789649D01*
X71021728Y-72740185D01*
X71027597Y-72697050D01*
X71034604Y-72658410D01*
X71042880Y-72622434D01*
X71052554Y-72587289D01*
X71063756Y-72551142D01*
X71076616Y-72512161D01*
X71092090Y-72469091D01*
X71134994Y-72376871D01*
X71188735Y-72297099D01*
X71257576Y-72222965D01*
X71335185Y-72159405D01*
X71439761Y-72097725D01*
X71559244Y-72050202D01*
X71694508Y-72016567D01*
X71846426Y-71996552D01*
X72015872Y-71989889D01*
X72073890Y-71990287D01*
X72139398Y-71992335D01*
X72200693Y-71996704D01*
X72262097Y-72004035D01*
X72327932Y-72014969D01*
X72402520Y-72030147D01*
X72490184Y-72050209D01*
X72595245Y-72075797D01*
X72623806Y-72082820D01*
X72699054Y-72100776D01*
X72769388Y-72116820D01*
X72830567Y-72130028D01*
X72878354Y-72139474D01*
X72908511Y-72144231D01*
X72936783Y-72147910D01*
X72963060Y-72153187D01*
X72973059Y-72157942D01*
X72969952Y-72166781D01*
X72959194Y-72194072D01*
X72941864Y-72236906D01*
X72919126Y-72292425D01*
X72892147Y-72357772D01*
X72862090Y-72430089D01*
X72855493Y-72445879D01*
X72816907Y-72536484D01*
X72785768Y-72606217D01*
X72761917Y-72655405D01*
X72745198Y-72684374D01*
X72735454Y-72693452D01*
X72727766Y-72691405D01*
X72701415Y-72681760D01*
X72662982Y-72666190D01*
X72617822Y-72646815D01*
X72523293Y-72608814D01*
X72386480Y-72567780D01*
X72245289Y-72542612D01*
X72207314Y-72538611D01*
X72104059Y-72536447D01*
X72016952Y-72549622D01*
X71945129Y-72578756D01*
X71887731Y-72624466D01*
X71843896Y-72687372D01*
X71812762Y-72768092D01*
X71793470Y-72867245D01*
X71786050Y-72926224D01*
X71947936Y-72919445D01*
X72074495Y-72917813D01*
X72225951Y-72924194D01*
X72374396Y-72938777D01*
X72510578Y-72960882D01*
X72575245Y-72975821D01*
X72707490Y-73018741D01*
X72829762Y-73075340D01*
X72939685Y-73144017D01*
X73034883Y-73223170D01*
X73112980Y-73311196D01*
X73171599Y-73406493D01*
X73195595Y-73458864D01*
X73221232Y-73529590D01*
X73237478Y-73600812D01*
X73245822Y-73679712D01*
X73247690Y-73770282D01*
X73247755Y-73773467D01*
G37*
X80795614Y-71241792D02*
X80796059Y-71373011D01*
X80796362Y-71520216D01*
X80796548Y-71684349D01*
X80796642Y-71866352D01*
X80796671Y-72067165D01*
X80796661Y-72287732D01*
X80796636Y-72528992D01*
X80796622Y-72791889D01*
X80796622Y-72834040D01*
X80796646Y-73094668D01*
X80796685Y-73333796D01*
X80796708Y-73552360D01*
X80796687Y-73751295D01*
X80796593Y-73931535D01*
X80796395Y-74094015D01*
X80796063Y-74239670D01*
X80795569Y-74369434D01*
X80794883Y-74484243D01*
X80793976Y-74585030D01*
X80792817Y-74672730D01*
X80791378Y-74748279D01*
X80789629Y-74812611D01*
X80787540Y-74866661D01*
X80785083Y-74911363D01*
X80782227Y-74947652D01*
X80778943Y-74976463D01*
X80775202Y-74998731D01*
X80770974Y-75015390D01*
X80766229Y-75027375D01*
X80760939Y-75035621D01*
X80755073Y-75041062D01*
X80748602Y-75044634D01*
X80741497Y-75047270D01*
X80733728Y-75049906D01*
X80725266Y-75053477D01*
X80720908Y-75055145D01*
X80712395Y-75057111D01*
X80699694Y-75058911D01*
X80681885Y-75060555D01*
X80658049Y-75062047D01*
X80627266Y-75063397D01*
X80588617Y-75064611D01*
X80541182Y-75065697D01*
X80484043Y-75066661D01*
X80416279Y-75067511D01*
X80336971Y-75068253D01*
X80245199Y-75068897D01*
X80140044Y-75069447D01*
X80020587Y-75069913D01*
X79885908Y-75070300D01*
X79735088Y-75070616D01*
X79567206Y-75070869D01*
X79381345Y-75071066D01*
X79176583Y-75071213D01*
X78952002Y-75071318D01*
X78706682Y-75071389D01*
X78439704Y-75071432D01*
X78401321Y-75071437D01*
X78135922Y-75071480D01*
X77892050Y-75071525D01*
X77668783Y-75071548D01*
X77465196Y-75071524D01*
X77280367Y-75071430D01*
X77113373Y-75071243D01*
X76963290Y-75070939D01*
X76829196Y-75070494D01*
X76710166Y-75069885D01*
X76605279Y-75069089D01*
X76513610Y-75068080D01*
X76434237Y-75066837D01*
X76366237Y-75065335D01*
X76308686Y-75063551D01*
X76260662Y-75061461D01*
X76221240Y-75059042D01*
X76189499Y-75056270D01*
X76164514Y-75053121D01*
X76145364Y-75049572D01*
X76131123Y-75045598D01*
X76120871Y-75041178D01*
X76113682Y-75036286D01*
X76108635Y-75030900D01*
X76104805Y-75024996D01*
X76101271Y-75018549D01*
X76097108Y-75011537D01*
X76096025Y-75009687D01*
X76093813Y-75004180D01*
X76091786Y-74995868D01*
X76089938Y-74983809D01*
X76088261Y-74967063D01*
X76086745Y-74944687D01*
X76085383Y-74915740D01*
X76084167Y-74879280D01*
X76083089Y-74834367D01*
X76082140Y-74780057D01*
X76081312Y-74715410D01*
X76080597Y-74639484D01*
X76079987Y-74551338D01*
X76079942Y-74542493D01*
X76371378Y-74542493D01*
X76375260Y-74543765D01*
X76398520Y-74545791D01*
X76440874Y-74547626D01*
X76500132Y-74549227D01*
X76574107Y-74550549D01*
X76660610Y-74551548D01*
X76757452Y-74552180D01*
X76862445Y-74552400D01*
X77560651Y-74552400D01*
X78715090Y-74552400D01*
X78714456Y-74476200D01*
X78715574Y-74434160D01*
X78721304Y-74398334D01*
X78733890Y-74360772D01*
X78755568Y-74312577D01*
X78758789Y-74305897D01*
X78784188Y-74256359D01*
X78810996Y-74208369D01*
X78833917Y-74171466D01*
X78838485Y-74164834D01*
X78860516Y-74133593D01*
X78892693Y-74088654D01*
X78933457Y-74032147D01*
X78981245Y-73966204D01*
X79034498Y-73892957D01*
X79091655Y-73814536D01*
X79151155Y-73733072D01*
X79211437Y-73650698D01*
X79270940Y-73569544D01*
X79328105Y-73491742D01*
X79381370Y-73419423D01*
X79429174Y-73354718D01*
X79469957Y-73299759D01*
X79502158Y-73256676D01*
X79524216Y-73227602D01*
X79534571Y-73214667D01*
X79539044Y-73210351D01*
X79543236Y-73208312D01*
X79546643Y-73210926D01*
X79549325Y-73219986D01*
X79551341Y-73237285D01*
X79552748Y-73264614D01*
X79553605Y-73303765D01*
X79553970Y-73356533D01*
X79553903Y-73424707D01*
X79553460Y-73510082D01*
X79552702Y-73614449D01*
X79551685Y-73739600D01*
X79551308Y-73784300D01*
X79550169Y-73905395D01*
X79548972Y-74006688D01*
X79547636Y-74090262D01*
X79546077Y-74158204D01*
X79544215Y-74212599D01*
X79541966Y-74255532D01*
X79539248Y-74289089D01*
X79535979Y-74315355D01*
X79532078Y-74336416D01*
X79527461Y-74354357D01*
X79519192Y-74380770D01*
X79495583Y-74442772D01*
X79469685Y-74495573D01*
X79444535Y-74532645D01*
X79443339Y-74534075D01*
X79441168Y-74538424D01*
X79443328Y-74542026D01*
X79451644Y-74544951D01*
X79467940Y-74547269D01*
X79494041Y-74549051D01*
X79531771Y-74550367D01*
X79582956Y-74551286D01*
X79649420Y-74551878D01*
X79732987Y-74552215D01*
X79835483Y-74552365D01*
X79958732Y-74552400D01*
X80490296Y-74552400D01*
X80451523Y-74494783D01*
X80445432Y-74485893D01*
X80434976Y-74471069D01*
X80425579Y-74457422D01*
X80417183Y-74443765D01*
X80409733Y-74428911D01*
X80403173Y-74411670D01*
X80397446Y-74390855D01*
X80392495Y-74365280D01*
X80388266Y-74333755D01*
X80384701Y-74295093D01*
X80381744Y-74248107D01*
X80379340Y-74191608D01*
X80377431Y-74124409D01*
X80375962Y-74045322D01*
X80374876Y-73953160D01*
X80374118Y-73846734D01*
X80373630Y-73724857D01*
X80373358Y-73586341D01*
X80373243Y-73429999D01*
X80373231Y-73254642D01*
X80373265Y-73059082D01*
X80373289Y-72842133D01*
X80373280Y-72719513D01*
X80373243Y-72514447D01*
X80373227Y-72330116D01*
X80373288Y-72165334D01*
X80373484Y-72018916D01*
X80373870Y-71889674D01*
X80374505Y-71776422D01*
X80375444Y-71677975D01*
X80376745Y-71593144D01*
X80378464Y-71520744D01*
X80380659Y-71459589D01*
X80383385Y-71408492D01*
X80386701Y-71366267D01*
X80390662Y-71331727D01*
X80395325Y-71303686D01*
X80400747Y-71280958D01*
X80406986Y-71262356D01*
X80414097Y-71246693D01*
X80422138Y-71232784D01*
X80431166Y-71219441D01*
X80441236Y-71205479D01*
X80452407Y-71189711D01*
X80492197Y-71131867D01*
X79432314Y-71131867D01*
X79470311Y-71194966D01*
X79484993Y-71220005D01*
X79499531Y-71247586D01*
X79511627Y-71275700D01*
X79521532Y-71306551D01*
X79529494Y-71342344D01*
X79535761Y-71385283D01*
X79540582Y-71437574D01*
X79544206Y-71501419D01*
X79546881Y-71579025D01*
X79548857Y-71672594D01*
X79550382Y-71784333D01*
X79551704Y-71916445D01*
X79552613Y-72036434D01*
X79553020Y-72153063D01*
X79552767Y-72248531D01*
X79551857Y-72322556D01*
X79550293Y-72374855D01*
X79548079Y-72405149D01*
X79545220Y-72413156D01*
X79542161Y-72409858D01*
X79524006Y-72388408D01*
X79494275Y-72351889D01*
X79454639Y-72302442D01*
X79406771Y-72242207D01*
X79352343Y-72173327D01*
X79293027Y-72097943D01*
X79230495Y-72018196D01*
X79166421Y-71936228D01*
X79102475Y-71854180D01*
X79040331Y-71774194D01*
X78981661Y-71698411D01*
X78928137Y-71628973D01*
X78881430Y-71568021D01*
X78843214Y-71517696D01*
X78815161Y-71480140D01*
X78798943Y-71457495D01*
X78753635Y-71385212D01*
X78713661Y-71305463D01*
X78692130Y-71237188D01*
X78688827Y-71179844D01*
X78694116Y-71131867D01*
X77562356Y-71132117D01*
X77601867Y-71162722D01*
X77611248Y-71170089D01*
X77674183Y-71224438D01*
X77742997Y-71292259D01*
X77819596Y-71375516D01*
X77905888Y-71476178D01*
X77923052Y-71496847D01*
X77963833Y-71546409D01*
X78013588Y-71607326D01*
X78070955Y-71677898D01*
X78134569Y-71756424D01*
X78203069Y-71841204D01*
X78275090Y-71930537D01*
X78349270Y-72022722D01*
X78364517Y-72041702D01*
X78424246Y-72116060D01*
X78498653Y-72208848D01*
X78571131Y-72299388D01*
X78640314Y-72385978D01*
X78704841Y-72466918D01*
X78763347Y-72540506D01*
X78814470Y-72605044D01*
X78856847Y-72658829D01*
X78889115Y-72700162D01*
X78909910Y-72727342D01*
X78917869Y-72738668D01*
X78916111Y-72742771D01*
X78903230Y-72763334D01*
X78878885Y-72799561D01*
X78844247Y-72849824D01*
X78800486Y-72912492D01*
X78748775Y-72985936D01*
X78690284Y-73068527D01*
X78626184Y-73158636D01*
X78557646Y-73254631D01*
X78485843Y-73354885D01*
X78411944Y-73457768D01*
X78337121Y-73561650D01*
X78262545Y-73664901D01*
X78189387Y-73765892D01*
X78118819Y-73862994D01*
X78052011Y-73954577D01*
X77990135Y-74039011D01*
X77934361Y-74114667D01*
X77885862Y-74179916D01*
X77845807Y-74233128D01*
X77815369Y-74272673D01*
X77794944Y-74298026D01*
X77748899Y-74352295D01*
X77698612Y-74408775D01*
X77651815Y-74458669D01*
X77560651Y-74552400D01*
X76862445Y-74552400D01*
X76931356Y-74552349D01*
X77029607Y-74552091D01*
X77119030Y-74551637D01*
X77197333Y-74551010D01*
X77262223Y-74550235D01*
X77311411Y-74549335D01*
X77342604Y-74548334D01*
X77353511Y-74547257D01*
X77352322Y-74544037D01*
X77342176Y-74526452D01*
X77325040Y-74500158D01*
X77316540Y-74487691D01*
X77307329Y-74473622D01*
X77299233Y-74459351D01*
X77292185Y-74443479D01*
X77286117Y-74424609D01*
X77280961Y-74401341D01*
X77276651Y-74372278D01*
X77273119Y-74336021D01*
X77270297Y-74291170D01*
X77268118Y-74236328D01*
X77266514Y-74170097D01*
X77265419Y-74091077D01*
X77264765Y-73997871D01*
X77264484Y-73889079D01*
X77264509Y-73763303D01*
X77264772Y-73619145D01*
X77265206Y-73455207D01*
X77265745Y-73270089D01*
X77266279Y-73091232D01*
X77266805Y-72932374D01*
X77267350Y-72793316D01*
X77267945Y-72672665D01*
X77268619Y-72569028D01*
X77269403Y-72481011D01*
X77270326Y-72407223D01*
X77271419Y-72346269D01*
X77272712Y-72296757D01*
X77274235Y-72257293D01*
X77276019Y-72226484D01*
X77278092Y-72202938D01*
X77280486Y-72185260D01*
X77283230Y-72172059D01*
X77286356Y-72161940D01*
X77289892Y-72153511D01*
X77293791Y-72145375D01*
X77313438Y-72108544D01*
X77332225Y-72078391D01*
X77333272Y-72076908D01*
X77347602Y-72054659D01*
X77353511Y-72041702D01*
X77352504Y-72041249D01*
X77335305Y-72039803D01*
X77298656Y-72038480D01*
X77244962Y-72037316D01*
X77176630Y-72036347D01*
X77096064Y-72035611D01*
X77005670Y-72035142D01*
X76907853Y-72034978D01*
X76462195Y-72034978D01*
X76459120Y-73211845D01*
X76456045Y-74388711D01*
X76429407Y-74447622D01*
X76417485Y-74472183D01*
X76400246Y-74502434D01*
X76387074Y-74519560D01*
X76379076Y-74527591D01*
X76371378Y-74542493D01*
X76079942Y-74542493D01*
X76079474Y-74450029D01*
X76079050Y-74334617D01*
X76078706Y-74204160D01*
X76078434Y-74057716D01*
X76078227Y-73894344D01*
X76078076Y-73713101D01*
X76077972Y-73513048D01*
X76077908Y-73293241D01*
X76077876Y-73052739D01*
X76077867Y-72790602D01*
X76077867Y-70599031D01*
X76116249Y-70560649D01*
X76143355Y-70536911D01*
X76170253Y-70525111D01*
X76206560Y-70522267D01*
X76258489Y-70522267D01*
X76258489Y-70610206D01*
X76260427Y-70660102D01*
X76279199Y-70770523D01*
X76316217Y-70871987D01*
X76369369Y-70963152D01*
X76436546Y-71042673D01*
X76515638Y-71109205D01*
X76604534Y-71161406D01*
X76701125Y-71197930D01*
X76803300Y-71217434D01*
X76908950Y-71218573D01*
X77015964Y-71200005D01*
X77122232Y-71160384D01*
X77219219Y-71102516D01*
X77304293Y-71027684D01*
X77373015Y-70939615D01*
X77423918Y-70840616D01*
X77455535Y-70732993D01*
X77466400Y-70619054D01*
X77466400Y-70522267D01*
X79086753Y-70522267D01*
X79297897Y-70522280D01*
X79502020Y-70522330D01*
X79685686Y-70522430D01*
X79849991Y-70522592D01*
X79996029Y-70522829D01*
X80124894Y-70523153D01*
X80237683Y-70523575D01*
X80335488Y-70524109D01*
X80419404Y-70524767D01*
X80490527Y-70525561D01*
X80549950Y-70526504D01*
X80598768Y-70527608D01*
X80638077Y-70528884D01*
X80668969Y-70530347D01*
X80692541Y-70532007D01*
X80709886Y-70533878D01*
X80722099Y-70535972D01*
X80730275Y-70538300D01*
X80735508Y-70540876D01*
X80741504Y-70544445D01*
X80748279Y-70547978D01*
X80754478Y-70551488D01*
X80760126Y-70555918D01*
X80765247Y-70562208D01*
X80769869Y-70571301D01*
X80774015Y-70584139D01*
X80777713Y-70601662D01*
X80780987Y-70624813D01*
X80783863Y-70654534D01*
X80786367Y-70691765D01*
X80788524Y-70737449D01*
X80790360Y-70792527D01*
X80791900Y-70857941D01*
X80793170Y-70934633D01*
X80794195Y-71023544D01*
X80795001Y-71125617D01*
X80795034Y-71131867D01*
X80795614Y-71241792D01*
G36*
X80795614Y-71241792D02*
G01*
X80796059Y-71373011D01*
X80796362Y-71520216D01*
X80796548Y-71684349D01*
X80796642Y-71866352D01*
X80796671Y-72067165D01*
X80796661Y-72287732D01*
X80796636Y-72528992D01*
X80796622Y-72791889D01*
X80796622Y-72834040D01*
X80796646Y-73094668D01*
X80796685Y-73333796D01*
X80796708Y-73552360D01*
X80796687Y-73751295D01*
X80796593Y-73931535D01*
X80796395Y-74094015D01*
X80796063Y-74239670D01*
X80795569Y-74369434D01*
X80794883Y-74484243D01*
X80793976Y-74585030D01*
X80792817Y-74672730D01*
X80791378Y-74748279D01*
X80789629Y-74812611D01*
X80787540Y-74866661D01*
X80785083Y-74911363D01*
X80782227Y-74947652D01*
X80778943Y-74976463D01*
X80775202Y-74998731D01*
X80770974Y-75015390D01*
X80766229Y-75027375D01*
X80760939Y-75035621D01*
X80755073Y-75041062D01*
X80748602Y-75044634D01*
X80741497Y-75047270D01*
X80733728Y-75049906D01*
X80725266Y-75053477D01*
X80720908Y-75055145D01*
X80712395Y-75057111D01*
X80699694Y-75058911D01*
X80681885Y-75060555D01*
X80658049Y-75062047D01*
X80627266Y-75063397D01*
X80588617Y-75064611D01*
X80541182Y-75065697D01*
X80484043Y-75066661D01*
X80416279Y-75067511D01*
X80336971Y-75068253D01*
X80245199Y-75068897D01*
X80140044Y-75069447D01*
X80020587Y-75069913D01*
X79885908Y-75070300D01*
X79735088Y-75070616D01*
X79567206Y-75070869D01*
X79381345Y-75071066D01*
X79176583Y-75071213D01*
X78952002Y-75071318D01*
X78706682Y-75071389D01*
X78439704Y-75071432D01*
X78401321Y-75071437D01*
X78135922Y-75071480D01*
X77892050Y-75071525D01*
X77668783Y-75071548D01*
X77465196Y-75071524D01*
X77280367Y-75071430D01*
X77113373Y-75071243D01*
X76963290Y-75070939D01*
X76829196Y-75070494D01*
X76710166Y-75069885D01*
X76605279Y-75069089D01*
X76513610Y-75068080D01*
X76434237Y-75066837D01*
X76366237Y-75065335D01*
X76308686Y-75063551D01*
X76260662Y-75061461D01*
X76221240Y-75059042D01*
X76189499Y-75056270D01*
X76164514Y-75053121D01*
X76145364Y-75049572D01*
X76131123Y-75045598D01*
X76120871Y-75041178D01*
X76113682Y-75036286D01*
X76108635Y-75030900D01*
X76104805Y-75024996D01*
X76101271Y-75018549D01*
X76097108Y-75011537D01*
X76096025Y-75009687D01*
X76093813Y-75004180D01*
X76091786Y-74995868D01*
X76089938Y-74983809D01*
X76088261Y-74967063D01*
X76086745Y-74944687D01*
X76085383Y-74915740D01*
X76084167Y-74879280D01*
X76083089Y-74834367D01*
X76082140Y-74780057D01*
X76081312Y-74715410D01*
X76080597Y-74639484D01*
X76079987Y-74551338D01*
X76079942Y-74542493D01*
X76371378Y-74542493D01*
X76375260Y-74543765D01*
X76398520Y-74545791D01*
X76440874Y-74547626D01*
X76500132Y-74549227D01*
X76574107Y-74550549D01*
X76660610Y-74551548D01*
X76757452Y-74552180D01*
X76862445Y-74552400D01*
X77560651Y-74552400D01*
X78715090Y-74552400D01*
X78714456Y-74476200D01*
X78715574Y-74434160D01*
X78721304Y-74398334D01*
X78733890Y-74360772D01*
X78755568Y-74312577D01*
X78758789Y-74305897D01*
X78784188Y-74256359D01*
X78810996Y-74208369D01*
X78833917Y-74171466D01*
X78838485Y-74164834D01*
X78860516Y-74133593D01*
X78892693Y-74088654D01*
X78933457Y-74032147D01*
X78981245Y-73966204D01*
X79034498Y-73892957D01*
X79091655Y-73814536D01*
X79151155Y-73733072D01*
X79211437Y-73650698D01*
X79270940Y-73569544D01*
X79328105Y-73491742D01*
X79381370Y-73419423D01*
X79429174Y-73354718D01*
X79469957Y-73299759D01*
X79502158Y-73256676D01*
X79524216Y-73227602D01*
X79534571Y-73214667D01*
X79539044Y-73210351D01*
X79543236Y-73208312D01*
X79546643Y-73210926D01*
X79549325Y-73219986D01*
X79551341Y-73237285D01*
X79552748Y-73264614D01*
X79553605Y-73303765D01*
X79553970Y-73356533D01*
X79553903Y-73424707D01*
X79553460Y-73510082D01*
X79552702Y-73614449D01*
X79551685Y-73739600D01*
X79551308Y-73784300D01*
X79550169Y-73905395D01*
X79548972Y-74006688D01*
X79547636Y-74090262D01*
X79546077Y-74158204D01*
X79544215Y-74212599D01*
X79541966Y-74255532D01*
X79539248Y-74289089D01*
X79535979Y-74315355D01*
X79532078Y-74336416D01*
X79527461Y-74354357D01*
X79519192Y-74380770D01*
X79495583Y-74442772D01*
X79469685Y-74495573D01*
X79444535Y-74532645D01*
X79443339Y-74534075D01*
X79441168Y-74538424D01*
X79443328Y-74542026D01*
X79451644Y-74544951D01*
X79467940Y-74547269D01*
X79494041Y-74549051D01*
X79531771Y-74550367D01*
X79582956Y-74551286D01*
X79649420Y-74551878D01*
X79732987Y-74552215D01*
X79835483Y-74552365D01*
X79958732Y-74552400D01*
X80490296Y-74552400D01*
X80451523Y-74494783D01*
X80445432Y-74485893D01*
X80434976Y-74471069D01*
X80425579Y-74457422D01*
X80417183Y-74443765D01*
X80409733Y-74428911D01*
X80403173Y-74411670D01*
X80397446Y-74390855D01*
X80392495Y-74365280D01*
X80388266Y-74333755D01*
X80384701Y-74295093D01*
X80381744Y-74248107D01*
X80379340Y-74191608D01*
X80377431Y-74124409D01*
X80375962Y-74045322D01*
X80374876Y-73953160D01*
X80374118Y-73846734D01*
X80373630Y-73724857D01*
X80373358Y-73586341D01*
X80373243Y-73429999D01*
X80373231Y-73254642D01*
X80373265Y-73059082D01*
X80373289Y-72842133D01*
X80373280Y-72719513D01*
X80373243Y-72514447D01*
X80373227Y-72330116D01*
X80373288Y-72165334D01*
X80373484Y-72018916D01*
X80373870Y-71889674D01*
X80374505Y-71776422D01*
X80375444Y-71677975D01*
X80376745Y-71593144D01*
X80378464Y-71520744D01*
X80380659Y-71459589D01*
X80383385Y-71408492D01*
X80386701Y-71366267D01*
X80390662Y-71331727D01*
X80395325Y-71303686D01*
X80400747Y-71280958D01*
X80406986Y-71262356D01*
X80414097Y-71246693D01*
X80422138Y-71232784D01*
X80431166Y-71219441D01*
X80441236Y-71205479D01*
X80452407Y-71189711D01*
X80492197Y-71131867D01*
X79432314Y-71131867D01*
X79470311Y-71194966D01*
X79484993Y-71220005D01*
X79499531Y-71247586D01*
X79511627Y-71275700D01*
X79521532Y-71306551D01*
X79529494Y-71342344D01*
X79535761Y-71385283D01*
X79540582Y-71437574D01*
X79544206Y-71501419D01*
X79546881Y-71579025D01*
X79548857Y-71672594D01*
X79550382Y-71784333D01*
X79551704Y-71916445D01*
X79552613Y-72036434D01*
X79553020Y-72153063D01*
X79552767Y-72248531D01*
X79551857Y-72322556D01*
X79550293Y-72374855D01*
X79548079Y-72405149D01*
X79545220Y-72413156D01*
X79542161Y-72409858D01*
X79524006Y-72388408D01*
X79494275Y-72351889D01*
X79454639Y-72302442D01*
X79406771Y-72242207D01*
X79352343Y-72173327D01*
X79293027Y-72097943D01*
X79230495Y-72018196D01*
X79166421Y-71936228D01*
X79102475Y-71854180D01*
X79040331Y-71774194D01*
X78981661Y-71698411D01*
X78928137Y-71628973D01*
X78881430Y-71568021D01*
X78843214Y-71517696D01*
X78815161Y-71480140D01*
X78798943Y-71457495D01*
X78753635Y-71385212D01*
X78713661Y-71305463D01*
X78692130Y-71237188D01*
X78688827Y-71179844D01*
X78694116Y-71131867D01*
X77562356Y-71132117D01*
X77601867Y-71162722D01*
X77611248Y-71170089D01*
X77674183Y-71224438D01*
X77742997Y-71292259D01*
X77819596Y-71375516D01*
X77905888Y-71476178D01*
X77923052Y-71496847D01*
X77963833Y-71546409D01*
X78013588Y-71607326D01*
X78070955Y-71677898D01*
X78134569Y-71756424D01*
X78203069Y-71841204D01*
X78275090Y-71930537D01*
X78349270Y-72022722D01*
X78364517Y-72041702D01*
X78424246Y-72116060D01*
X78498653Y-72208848D01*
X78571131Y-72299388D01*
X78640314Y-72385978D01*
X78704841Y-72466918D01*
X78763347Y-72540506D01*
X78814470Y-72605044D01*
X78856847Y-72658829D01*
X78889115Y-72700162D01*
X78909910Y-72727342D01*
X78917869Y-72738668D01*
X78916111Y-72742771D01*
X78903230Y-72763334D01*
X78878885Y-72799561D01*
X78844247Y-72849824D01*
X78800486Y-72912492D01*
X78748775Y-72985936D01*
X78690284Y-73068527D01*
X78626184Y-73158636D01*
X78557646Y-73254631D01*
X78485843Y-73354885D01*
X78411944Y-73457768D01*
X78337121Y-73561650D01*
X78262545Y-73664901D01*
X78189387Y-73765892D01*
X78118819Y-73862994D01*
X78052011Y-73954577D01*
X77990135Y-74039011D01*
X77934361Y-74114667D01*
X77885862Y-74179916D01*
X77845807Y-74233128D01*
X77815369Y-74272673D01*
X77794944Y-74298026D01*
X77748899Y-74352295D01*
X77698612Y-74408775D01*
X77651815Y-74458669D01*
X77560651Y-74552400D01*
X76862445Y-74552400D01*
X76931356Y-74552349D01*
X77029607Y-74552091D01*
X77119030Y-74551637D01*
X77197333Y-74551010D01*
X77262223Y-74550235D01*
X77311411Y-74549335D01*
X77342604Y-74548334D01*
X77353511Y-74547257D01*
X77352322Y-74544037D01*
X77342176Y-74526452D01*
X77325040Y-74500158D01*
X77316540Y-74487691D01*
X77307329Y-74473622D01*
X77299233Y-74459351D01*
X77292185Y-74443479D01*
X77286117Y-74424609D01*
X77280961Y-74401341D01*
X77276651Y-74372278D01*
X77273119Y-74336021D01*
X77270297Y-74291170D01*
X77268118Y-74236328D01*
X77266514Y-74170097D01*
X77265419Y-74091077D01*
X77264765Y-73997871D01*
X77264484Y-73889079D01*
X77264509Y-73763303D01*
X77264772Y-73619145D01*
X77265206Y-73455207D01*
X77265745Y-73270089D01*
X77266279Y-73091232D01*
X77266805Y-72932374D01*
X77267350Y-72793316D01*
X77267945Y-72672665D01*
X77268619Y-72569028D01*
X77269403Y-72481011D01*
X77270326Y-72407223D01*
X77271419Y-72346269D01*
X77272712Y-72296757D01*
X77274235Y-72257293D01*
X77276019Y-72226484D01*
X77278092Y-72202938D01*
X77280486Y-72185260D01*
X77283230Y-72172059D01*
X77286356Y-72161940D01*
X77289892Y-72153511D01*
X77293791Y-72145375D01*
X77313438Y-72108544D01*
X77332225Y-72078391D01*
X77333272Y-72076908D01*
X77347602Y-72054659D01*
X77353511Y-72041702D01*
X77352504Y-72041249D01*
X77335305Y-72039803D01*
X77298656Y-72038480D01*
X77244962Y-72037316D01*
X77176630Y-72036347D01*
X77096064Y-72035611D01*
X77005670Y-72035142D01*
X76907853Y-72034978D01*
X76462195Y-72034978D01*
X76459120Y-73211845D01*
X76456045Y-74388711D01*
X76429407Y-74447622D01*
X76417485Y-74472183D01*
X76400246Y-74502434D01*
X76387074Y-74519560D01*
X76379076Y-74527591D01*
X76371378Y-74542493D01*
X76079942Y-74542493D01*
X76079474Y-74450029D01*
X76079050Y-74334617D01*
X76078706Y-74204160D01*
X76078434Y-74057716D01*
X76078227Y-73894344D01*
X76078076Y-73713101D01*
X76077972Y-73513048D01*
X76077908Y-73293241D01*
X76077876Y-73052739D01*
X76077867Y-72790602D01*
X76077867Y-70599031D01*
X76116249Y-70560649D01*
X76143355Y-70536911D01*
X76170253Y-70525111D01*
X76206560Y-70522267D01*
X76258489Y-70522267D01*
X76258489Y-70610206D01*
X76260427Y-70660102D01*
X76279199Y-70770523D01*
X76316217Y-70871987D01*
X76369369Y-70963152D01*
X76436546Y-71042673D01*
X76515638Y-71109205D01*
X76604534Y-71161406D01*
X76701125Y-71197930D01*
X76803300Y-71217434D01*
X76908950Y-71218573D01*
X77015964Y-71200005D01*
X77122232Y-71160384D01*
X77219219Y-71102516D01*
X77304293Y-71027684D01*
X77373015Y-70939615D01*
X77423918Y-70840616D01*
X77455535Y-70732993D01*
X77466400Y-70619054D01*
X77466400Y-70522267D01*
X79086753Y-70522267D01*
X79297897Y-70522280D01*
X79502020Y-70522330D01*
X79685686Y-70522430D01*
X79849991Y-70522592D01*
X79996029Y-70522829D01*
X80124894Y-70523153D01*
X80237683Y-70523575D01*
X80335488Y-70524109D01*
X80419404Y-70524767D01*
X80490527Y-70525561D01*
X80549950Y-70526504D01*
X80598768Y-70527608D01*
X80638077Y-70528884D01*
X80668969Y-70530347D01*
X80692541Y-70532007D01*
X80709886Y-70533878D01*
X80722099Y-70535972D01*
X80730275Y-70538300D01*
X80735508Y-70540876D01*
X80741504Y-70544445D01*
X80748279Y-70547978D01*
X80754478Y-70551488D01*
X80760126Y-70555918D01*
X80765247Y-70562208D01*
X80769869Y-70571301D01*
X80774015Y-70584139D01*
X80777713Y-70601662D01*
X80780987Y-70624813D01*
X80783863Y-70654534D01*
X80786367Y-70691765D01*
X80788524Y-70737449D01*
X80790360Y-70792527D01*
X80791900Y-70857941D01*
X80793170Y-70934633D01*
X80794195Y-71023544D01*
X80795001Y-71125617D01*
X80795034Y-71131867D01*
X80795614Y-71241792D01*
G37*
%TD*%
M02*
