%TF.GenerationSoftware,KiCad,Pcbnew,9.0.6*%
%TF.CreationDate,2025-12-29T02:06:04+05:30*%
%TF.ProjectId,DATA LOGGER,44415441-204c-44f4-9747-45522e6b6963,rev?*%
%TF.SameCoordinates,Original*%
%TF.FileFunction,Drillmap*%
%TF.FilePolarity,Positive*%
%FSLAX45Y45*%
G04 Gerber Fmt 4.5, Leading zero omitted, Abs format (unit mm)*
G04 Created by KiCad (PCBNEW 9.0.6) date 2025-12-29 02:06:04*
%MOMM*%
%LPD*%
G01*
G04 APERTURE LIST*
%ADD10C,0.050000*%
%ADD11C,0.200000*%
%ADD12C,0.100000*%
G04 APERTURE END LIST*
D10*
X9738300Y-8944200D02*
G75*
G02*
X9560500Y-9122000I-177800J0D01*
G01*
X9513550Y-5949700D02*
G75*
G02*
X9744150Y-6180300I0J-230600D01*
G01*
X5257800Y-9118600D02*
X9560500Y-9122000D01*
X5312450Y-5948300D02*
X9513550Y-5949700D01*
X5109250Y-6151500D02*
G75*
G02*
X5312450Y-5948300I203200J0D01*
G01*
X5105400Y-8966200D02*
X5109250Y-6151500D01*
X5257800Y-9118600D02*
G75*
G02*
X5105400Y-8966200I0J152400D01*
G01*
X9744150Y-6180300D02*
X9738300Y-8944200D01*
D11*
D12*
X5819000Y-7121000D02*
X5849000Y-7151000D01*
X5849000Y-7121000D02*
X5819000Y-7151000D01*
X5855000Y-8023000D02*
X5885000Y-8053000D01*
X5885000Y-8023000D02*
X5855000Y-8053000D01*
X5998000Y-6684000D02*
X6028000Y-6714000D01*
X6028000Y-6684000D02*
X5998000Y-6714000D01*
X6173000Y-6946000D02*
X6203000Y-6976000D01*
X6203000Y-6946000D02*
X6173000Y-6976000D01*
X6188363Y-8174475D02*
X6218363Y-8204475D01*
X6218363Y-8174475D02*
X6188363Y-8204475D01*
X6261000Y-8208000D02*
X6291000Y-8238000D01*
X6291000Y-8208000D02*
X6261000Y-8238000D01*
X6301000Y-6793000D02*
X6331000Y-6823000D01*
X6331000Y-6793000D02*
X6301000Y-6823000D01*
X6301000Y-7642500D02*
X6331000Y-7672500D01*
X6331000Y-7642500D02*
X6301000Y-7672500D01*
X6357000Y-7773000D02*
X6387000Y-7803000D01*
X6387000Y-7773000D02*
X6357000Y-7803000D01*
X6366000Y-6884000D02*
X6396000Y-6914000D01*
X6396000Y-6884000D02*
X6366000Y-6914000D01*
X6377000Y-7527000D02*
X6407000Y-7557000D01*
X6407000Y-7527000D02*
X6377000Y-7557000D01*
X6378000Y-7249000D02*
X6408000Y-7279000D01*
X6408000Y-7249000D02*
X6378000Y-7279000D01*
X6385000Y-7027000D02*
X6415000Y-7057000D01*
X6415000Y-7027000D02*
X6385000Y-7057000D01*
X6539000Y-8199000D02*
X6569000Y-8229000D01*
X6569000Y-8199000D02*
X6539000Y-8229000D01*
X6549000Y-8487000D02*
X6579000Y-8517000D01*
X6579000Y-8487000D02*
X6549000Y-8517000D01*
X6550000Y-7379000D02*
X6580000Y-7409000D01*
X6580000Y-7379000D02*
X6550000Y-7409000D01*
X6584000Y-6709000D02*
X6614000Y-6739000D01*
X6614000Y-6709000D02*
X6584000Y-6739000D01*
X6638268Y-7151879D02*
X6668268Y-7181879D01*
X6668268Y-7151879D02*
X6638268Y-7181879D01*
X6709000Y-7053000D02*
X6739000Y-7083000D01*
X6739000Y-7053000D02*
X6709000Y-7083000D01*
X6793500Y-7256500D02*
X6823500Y-7286500D01*
X6823500Y-7256500D02*
X6793500Y-7286500D01*
X6968000Y-7744000D02*
X6998000Y-7774000D01*
X6998000Y-7744000D02*
X6968000Y-7774000D01*
X6994000Y-6776000D02*
X7024000Y-6806000D01*
X7024000Y-6776000D02*
X6994000Y-6806000D01*
X7075000Y-7275000D02*
X7105000Y-7305000D01*
X7105000Y-7275000D02*
X7075000Y-7305000D01*
X7081000Y-7924000D02*
X7111000Y-7954000D01*
X7111000Y-7924000D02*
X7081000Y-7954000D01*
X7087000Y-7503000D02*
X7117000Y-7533000D01*
X7117000Y-7503000D02*
X7087000Y-7533000D01*
X7144060Y-6762744D02*
X7174060Y-6792744D01*
X7174060Y-6762744D02*
X7144060Y-6792744D01*
X7145000Y-7236000D02*
X7175000Y-7266000D01*
X7175000Y-7236000D02*
X7145000Y-7266000D01*
X7240831Y-7006999D02*
X7270831Y-7036999D01*
X7270831Y-7006999D02*
X7240831Y-7036999D01*
X7272000Y-7116000D02*
X7302000Y-7146000D01*
X7302000Y-7116000D02*
X7272000Y-7146000D01*
X7342000Y-6703000D02*
X7372000Y-6733000D01*
X7372000Y-6703000D02*
X7342000Y-6733000D01*
X7345000Y-6205000D02*
X7375000Y-6235000D01*
X7375000Y-6205000D02*
X7345000Y-6235000D01*
X7372000Y-7149000D02*
X7402000Y-7179000D01*
X7402000Y-7149000D02*
X7372000Y-7179000D01*
X7419000Y-6760000D02*
X7449000Y-6790000D01*
X7449000Y-6760000D02*
X7419000Y-6790000D01*
X7475000Y-7037000D02*
X7505000Y-7067000D01*
X7505000Y-7037000D02*
X7475000Y-7067000D01*
X7502500Y-6748000D02*
X7532500Y-6778000D01*
X7532500Y-6748000D02*
X7502500Y-6778000D01*
X7503000Y-6580000D02*
X7533000Y-6610000D01*
X7533000Y-6580000D02*
X7503000Y-6610000D01*
X7589000Y-7059000D02*
X7619000Y-7089000D01*
X7619000Y-7059000D02*
X7589000Y-7089000D01*
X7601000Y-7925000D02*
X7631000Y-7955000D01*
X7631000Y-7925000D02*
X7601000Y-7955000D01*
X7621000Y-7260000D02*
X7651000Y-7290000D01*
X7651000Y-7260000D02*
X7621000Y-7290000D01*
X7634000Y-6520000D02*
X7664000Y-6550000D01*
X7664000Y-6520000D02*
X7634000Y-6550000D01*
X7663000Y-7579000D02*
X7693000Y-7609000D01*
X7693000Y-7579000D02*
X7663000Y-7609000D01*
X7676009Y-7442761D02*
X7706009Y-7472761D01*
X7706009Y-7442761D02*
X7676009Y-7472761D01*
X7717000Y-7916000D02*
X7747000Y-7946000D01*
X7747000Y-7916000D02*
X7717000Y-7946000D01*
X7774766Y-6779900D02*
X7804766Y-6809900D01*
X7804766Y-6779900D02*
X7774766Y-6809900D01*
X7940500Y-7391500D02*
X7970500Y-7421500D01*
X7970500Y-7391500D02*
X7940500Y-7421500D01*
X7968000Y-7295000D02*
X7998000Y-7325000D01*
X7998000Y-7295000D02*
X7968000Y-7325000D01*
X8107426Y-7026573D02*
X8137426Y-7056573D01*
X8137426Y-7026573D02*
X8107426Y-7056573D01*
X8108000Y-7556000D02*
X8138000Y-7586000D01*
X8138000Y-7556000D02*
X8108000Y-7586000D01*
X8121000Y-7461000D02*
X8151000Y-7491000D01*
X8151000Y-7461000D02*
X8121000Y-7491000D01*
X8244000Y-7778000D02*
X8274000Y-7808000D01*
X8274000Y-7778000D02*
X8244000Y-7808000D01*
X8394400Y-7192000D02*
X8424400Y-7222000D01*
X8424400Y-7192000D02*
X8394400Y-7222000D01*
X8451000Y-8787000D02*
X8481000Y-8817000D01*
X8481000Y-8787000D02*
X8451000Y-8817000D01*
X8531000Y-7761000D02*
X8561000Y-7791000D01*
X8561000Y-7761000D02*
X8531000Y-7791000D01*
X8535000Y-7361000D02*
X8565000Y-7391000D01*
X8565000Y-7361000D02*
X8535000Y-7391000D01*
X8544000Y-6643000D02*
X8574000Y-6673000D01*
X8574000Y-6643000D02*
X8544000Y-6673000D01*
X8606000Y-8268000D02*
X8636000Y-8298000D01*
X8636000Y-8268000D02*
X8606000Y-8298000D01*
X8666000Y-8069500D02*
X8696000Y-8099500D01*
X8696000Y-8069500D02*
X8666000Y-8099500D01*
X8722824Y-6925323D02*
X8752824Y-6955323D01*
X8752824Y-6925323D02*
X8722824Y-6955323D01*
X8762427Y-7055426D02*
X8792427Y-7085426D01*
X8792427Y-7055426D02*
X8762427Y-7085426D01*
X8824000Y-7377000D02*
X8854000Y-7407000D01*
X8854000Y-7377000D02*
X8824000Y-7407000D01*
X8955000Y-6778000D02*
X8985000Y-6808000D01*
X8985000Y-6778000D02*
X8955000Y-6808000D01*
X8965427Y-8135573D02*
X8995427Y-8165573D01*
X8995427Y-8135573D02*
X8965427Y-8165573D01*
X9157000Y-8241000D02*
X9187000Y-8271000D01*
X9187000Y-8241000D02*
X9157000Y-8271000D01*
X9182000Y-7831000D02*
X9212000Y-7861000D01*
X9212000Y-7831000D02*
X9182000Y-7861000D01*
X5605000Y-6932500D02*
G75*
G02*
X5505000Y-6932500I-50000J0D01*
G01*
X5505000Y-6932500D02*
G75*
G02*
X5605000Y-6932500I50000J0D01*
G01*
X5605000Y-7186500D02*
G75*
G02*
X5505000Y-7186500I-50000J0D01*
G01*
X5505000Y-7186500D02*
G75*
G02*
X5605000Y-7186500I50000J0D01*
G01*
X5826500Y-8940000D02*
G75*
G02*
X5726500Y-8940000I-50000J0D01*
G01*
X5726500Y-8940000D02*
G75*
G02*
X5826500Y-8940000I50000J0D01*
G01*
X6080500Y-8940000D02*
G75*
G02*
X5980500Y-8940000I-50000J0D01*
G01*
X5980500Y-8940000D02*
G75*
G02*
X6080500Y-8940000I50000J0D01*
G01*
X6334500Y-8940000D02*
G75*
G02*
X6234500Y-8940000I-50000J0D01*
G01*
X6234500Y-8940000D02*
G75*
G02*
X6334500Y-8940000I50000J0D01*
G01*
X6588500Y-8940000D02*
G75*
G02*
X6488500Y-8940000I-50000J0D01*
G01*
X6488500Y-8940000D02*
G75*
G02*
X6588500Y-8940000I50000J0D01*
G01*
X6842500Y-8940000D02*
G75*
G02*
X6742500Y-8940000I-50000J0D01*
G01*
X6742500Y-8940000D02*
G75*
G02*
X6842500Y-8940000I50000J0D01*
G01*
X7096500Y-8940000D02*
G75*
G02*
X6996500Y-8940000I-50000J0D01*
G01*
X6996500Y-8940000D02*
G75*
G02*
X7096500Y-8940000I50000J0D01*
G01*
X7350500Y-8940000D02*
G75*
G02*
X7250500Y-8940000I-50000J0D01*
G01*
X7250500Y-8940000D02*
G75*
G02*
X7350500Y-8940000I50000J0D01*
G01*
X7604500Y-8940000D02*
G75*
G02*
X7504500Y-8940000I-50000J0D01*
G01*
X7504500Y-8940000D02*
G75*
G02*
X7604500Y-8940000I50000J0D01*
G01*
X7858500Y-8940000D02*
G75*
G02*
X7758500Y-8940000I-50000J0D01*
G01*
X7758500Y-8940000D02*
G75*
G02*
X7858500Y-8940000I50000J0D01*
G01*
X8341100Y-8940000D02*
G75*
G02*
X8241100Y-8940000I-50000J0D01*
G01*
X8241100Y-8940000D02*
G75*
G02*
X8341100Y-8940000I50000J0D01*
G01*
X8595100Y-8940000D02*
G75*
G02*
X8495100Y-8940000I-50000J0D01*
G01*
X8495100Y-8940000D02*
G75*
G02*
X8595100Y-8940000I50000J0D01*
G01*
X8849100Y-8940000D02*
G75*
G02*
X8749100Y-8940000I-50000J0D01*
G01*
X8749100Y-8940000D02*
G75*
G02*
X8849100Y-8940000I50000J0D01*
G01*
X9103100Y-8940000D02*
G75*
G02*
X9003100Y-8940000I-50000J0D01*
G01*
X9003100Y-8940000D02*
G75*
G02*
X9103100Y-8940000I50000J0D01*
G01*
X9271000Y-6692500D02*
G75*
G02*
X9171000Y-6692500I-50000J0D01*
G01*
X9171000Y-6692500D02*
G75*
G02*
X9271000Y-6692500I50000J0D01*
G01*
X9271000Y-6946500D02*
G75*
G02*
X9171000Y-6946500I-50000J0D01*
G01*
X9171000Y-6946500D02*
G75*
G02*
X9271000Y-6946500I50000J0D01*
G01*
X9271000Y-7200500D02*
G75*
G02*
X9171000Y-7200500I-50000J0D01*
G01*
X9171000Y-7200500D02*
G75*
G02*
X9271000Y-7200500I50000J0D01*
G01*
X9510000Y-7669500D02*
G75*
G02*
X9410000Y-7669500I-50000J0D01*
G01*
X9410000Y-7669500D02*
G75*
G02*
X9510000Y-7669500I50000J0D01*
G01*
X9510000Y-7923500D02*
G75*
G02*
X9410000Y-7923500I-50000J0D01*
G01*
X9410000Y-7923500D02*
G75*
G02*
X9510000Y-7923500I50000J0D01*
G01*
X9510000Y-8177500D02*
G75*
G02*
X9410000Y-8177500I-50000J0D01*
G01*
X9410000Y-8177500D02*
G75*
G02*
X9510000Y-8177500I50000J0D01*
G01*
X9510000Y-8431500D02*
G75*
G02*
X9410000Y-8431500I-50000J0D01*
G01*
X9410000Y-8431500D02*
G75*
G02*
X9510000Y-8431500I50000J0D01*
G01*
X9525000Y-6692500D02*
G75*
G02*
X9425000Y-6692500I-50000J0D01*
G01*
X9425000Y-6692500D02*
G75*
G02*
X9525000Y-6692500I50000J0D01*
G01*
X9525000Y-6946500D02*
G75*
G02*
X9425000Y-6946500I-50000J0D01*
G01*
X9425000Y-6946500D02*
G75*
G02*
X9525000Y-6946500I50000J0D01*
G01*
X9525000Y-7200500D02*
G75*
G02*
X9425000Y-7200500I-50000J0D01*
G01*
X9425000Y-7200500D02*
G75*
G02*
X9525000Y-7200500I50000J0D01*
G01*
D11*
X5363677Y-9435984D02*
X5363677Y-9235984D01*
X5363677Y-9235984D02*
X5411296Y-9235984D01*
X5411296Y-9235984D02*
X5439867Y-9245508D01*
X5439867Y-9245508D02*
X5458915Y-9264555D01*
X5458915Y-9264555D02*
X5468439Y-9283603D01*
X5468439Y-9283603D02*
X5477963Y-9321698D01*
X5477963Y-9321698D02*
X5477963Y-9350270D01*
X5477963Y-9350270D02*
X5468439Y-9388365D01*
X5468439Y-9388365D02*
X5458915Y-9407412D01*
X5458915Y-9407412D02*
X5439867Y-9426460D01*
X5439867Y-9426460D02*
X5411296Y-9435984D01*
X5411296Y-9435984D02*
X5363677Y-9435984D01*
X5563677Y-9435984D02*
X5563677Y-9302650D01*
X5563677Y-9340746D02*
X5573201Y-9321698D01*
X5573201Y-9321698D02*
X5582724Y-9312174D01*
X5582724Y-9312174D02*
X5601772Y-9302650D01*
X5601772Y-9302650D02*
X5620820Y-9302650D01*
X5687486Y-9435984D02*
X5687486Y-9302650D01*
X5687486Y-9235984D02*
X5677962Y-9245508D01*
X5677962Y-9245508D02*
X5687486Y-9255031D01*
X5687486Y-9255031D02*
X5697010Y-9245508D01*
X5697010Y-9245508D02*
X5687486Y-9235984D01*
X5687486Y-9235984D02*
X5687486Y-9255031D01*
X5811296Y-9435984D02*
X5792248Y-9426460D01*
X5792248Y-9426460D02*
X5782724Y-9407412D01*
X5782724Y-9407412D02*
X5782724Y-9235984D01*
X5916058Y-9435984D02*
X5897010Y-9426460D01*
X5897010Y-9426460D02*
X5887486Y-9407412D01*
X5887486Y-9407412D02*
X5887486Y-9235984D01*
X6144629Y-9435984D02*
X6144629Y-9235984D01*
X6144629Y-9235984D02*
X6211296Y-9378841D01*
X6211296Y-9378841D02*
X6277962Y-9235984D01*
X6277962Y-9235984D02*
X6277962Y-9435984D01*
X6458915Y-9435984D02*
X6458915Y-9331222D01*
X6458915Y-9331222D02*
X6449391Y-9312174D01*
X6449391Y-9312174D02*
X6430343Y-9302650D01*
X6430343Y-9302650D02*
X6392248Y-9302650D01*
X6392248Y-9302650D02*
X6373201Y-9312174D01*
X6458915Y-9426460D02*
X6439867Y-9435984D01*
X6439867Y-9435984D02*
X6392248Y-9435984D01*
X6392248Y-9435984D02*
X6373201Y-9426460D01*
X6373201Y-9426460D02*
X6363677Y-9407412D01*
X6363677Y-9407412D02*
X6363677Y-9388365D01*
X6363677Y-9388365D02*
X6373201Y-9369317D01*
X6373201Y-9369317D02*
X6392248Y-9359793D01*
X6392248Y-9359793D02*
X6439867Y-9359793D01*
X6439867Y-9359793D02*
X6458915Y-9350270D01*
X6554153Y-9302650D02*
X6554153Y-9502650D01*
X6554153Y-9312174D02*
X6573201Y-9302650D01*
X6573201Y-9302650D02*
X6611296Y-9302650D01*
X6611296Y-9302650D02*
X6630343Y-9312174D01*
X6630343Y-9312174D02*
X6639867Y-9321698D01*
X6639867Y-9321698D02*
X6649391Y-9340746D01*
X6649391Y-9340746D02*
X6649391Y-9397889D01*
X6649391Y-9397889D02*
X6639867Y-9416936D01*
X6639867Y-9416936D02*
X6630343Y-9426460D01*
X6630343Y-9426460D02*
X6611296Y-9435984D01*
X6611296Y-9435984D02*
X6573201Y-9435984D01*
X6573201Y-9435984D02*
X6554153Y-9426460D01*
X6735105Y-9416936D02*
X6744629Y-9426460D01*
X6744629Y-9426460D02*
X6735105Y-9435984D01*
X6735105Y-9435984D02*
X6725582Y-9426460D01*
X6725582Y-9426460D02*
X6735105Y-9416936D01*
X6735105Y-9416936D02*
X6735105Y-9435984D01*
X6735105Y-9312174D02*
X6744629Y-9321698D01*
X6744629Y-9321698D02*
X6735105Y-9331222D01*
X6735105Y-9331222D02*
X6725582Y-9321698D01*
X6725582Y-9321698D02*
X6735105Y-9312174D01*
X6735105Y-9312174D02*
X6735105Y-9331222D01*
D12*
X5072900Y-9749500D02*
X5102900Y-9779500D01*
X5102900Y-9749500D02*
X5072900Y-9779500D01*
D11*
X5401772Y-9655984D02*
X5420820Y-9655984D01*
X5420820Y-9655984D02*
X5439867Y-9665508D01*
X5439867Y-9665508D02*
X5449391Y-9675031D01*
X5449391Y-9675031D02*
X5458915Y-9694079D01*
X5458915Y-9694079D02*
X5468439Y-9732174D01*
X5468439Y-9732174D02*
X5468439Y-9779793D01*
X5468439Y-9779793D02*
X5458915Y-9817889D01*
X5458915Y-9817889D02*
X5449391Y-9836936D01*
X5449391Y-9836936D02*
X5439867Y-9846460D01*
X5439867Y-9846460D02*
X5420820Y-9855984D01*
X5420820Y-9855984D02*
X5401772Y-9855984D01*
X5401772Y-9855984D02*
X5382724Y-9846460D01*
X5382724Y-9846460D02*
X5373201Y-9836936D01*
X5373201Y-9836936D02*
X5363677Y-9817889D01*
X5363677Y-9817889D02*
X5354153Y-9779793D01*
X5354153Y-9779793D02*
X5354153Y-9732174D01*
X5354153Y-9732174D02*
X5363677Y-9694079D01*
X5363677Y-9694079D02*
X5373201Y-9675031D01*
X5373201Y-9675031D02*
X5382724Y-9665508D01*
X5382724Y-9665508D02*
X5401772Y-9655984D01*
X5554153Y-9836936D02*
X5563677Y-9846460D01*
X5563677Y-9846460D02*
X5554153Y-9855984D01*
X5554153Y-9855984D02*
X5544629Y-9846460D01*
X5544629Y-9846460D02*
X5554153Y-9836936D01*
X5554153Y-9836936D02*
X5554153Y-9855984D01*
X5630343Y-9655984D02*
X5754153Y-9655984D01*
X5754153Y-9655984D02*
X5687486Y-9732174D01*
X5687486Y-9732174D02*
X5716058Y-9732174D01*
X5716058Y-9732174D02*
X5735105Y-9741698D01*
X5735105Y-9741698D02*
X5744629Y-9751222D01*
X5744629Y-9751222D02*
X5754153Y-9770270D01*
X5754153Y-9770270D02*
X5754153Y-9817889D01*
X5754153Y-9817889D02*
X5744629Y-9836936D01*
X5744629Y-9836936D02*
X5735105Y-9846460D01*
X5735105Y-9846460D02*
X5716058Y-9855984D01*
X5716058Y-9855984D02*
X5658915Y-9855984D01*
X5658915Y-9855984D02*
X5639867Y-9846460D01*
X5639867Y-9846460D02*
X5630343Y-9836936D01*
X5877962Y-9655984D02*
X5897010Y-9655984D01*
X5897010Y-9655984D02*
X5916058Y-9665508D01*
X5916058Y-9665508D02*
X5925582Y-9675031D01*
X5925582Y-9675031D02*
X5935105Y-9694079D01*
X5935105Y-9694079D02*
X5944629Y-9732174D01*
X5944629Y-9732174D02*
X5944629Y-9779793D01*
X5944629Y-9779793D02*
X5935105Y-9817889D01*
X5935105Y-9817889D02*
X5925582Y-9836936D01*
X5925582Y-9836936D02*
X5916058Y-9846460D01*
X5916058Y-9846460D02*
X5897010Y-9855984D01*
X5897010Y-9855984D02*
X5877962Y-9855984D01*
X5877962Y-9855984D02*
X5858915Y-9846460D01*
X5858915Y-9846460D02*
X5849391Y-9836936D01*
X5849391Y-9836936D02*
X5839867Y-9817889D01*
X5839867Y-9817889D02*
X5830343Y-9779793D01*
X5830343Y-9779793D02*
X5830343Y-9732174D01*
X5830343Y-9732174D02*
X5839867Y-9694079D01*
X5839867Y-9694079D02*
X5849391Y-9675031D01*
X5849391Y-9675031D02*
X5858915Y-9665508D01*
X5858915Y-9665508D02*
X5877962Y-9655984D01*
X6068439Y-9655984D02*
X6087486Y-9655984D01*
X6087486Y-9655984D02*
X6106534Y-9665508D01*
X6106534Y-9665508D02*
X6116058Y-9675031D01*
X6116058Y-9675031D02*
X6125582Y-9694079D01*
X6125582Y-9694079D02*
X6135105Y-9732174D01*
X6135105Y-9732174D02*
X6135105Y-9779793D01*
X6135105Y-9779793D02*
X6125582Y-9817889D01*
X6125582Y-9817889D02*
X6116058Y-9836936D01*
X6116058Y-9836936D02*
X6106534Y-9846460D01*
X6106534Y-9846460D02*
X6087486Y-9855984D01*
X6087486Y-9855984D02*
X6068439Y-9855984D01*
X6068439Y-9855984D02*
X6049391Y-9846460D01*
X6049391Y-9846460D02*
X6039867Y-9836936D01*
X6039867Y-9836936D02*
X6030343Y-9817889D01*
X6030343Y-9817889D02*
X6020820Y-9779793D01*
X6020820Y-9779793D02*
X6020820Y-9732174D01*
X6020820Y-9732174D02*
X6030343Y-9694079D01*
X6030343Y-9694079D02*
X6039867Y-9675031D01*
X6039867Y-9675031D02*
X6049391Y-9665508D01*
X6049391Y-9665508D02*
X6068439Y-9655984D01*
X6220820Y-9855984D02*
X6220820Y-9722650D01*
X6220820Y-9741698D02*
X6230343Y-9732174D01*
X6230343Y-9732174D02*
X6249391Y-9722650D01*
X6249391Y-9722650D02*
X6277963Y-9722650D01*
X6277963Y-9722650D02*
X6297010Y-9732174D01*
X6297010Y-9732174D02*
X6306534Y-9751222D01*
X6306534Y-9751222D02*
X6306534Y-9855984D01*
X6306534Y-9751222D02*
X6316058Y-9732174D01*
X6316058Y-9732174D02*
X6335105Y-9722650D01*
X6335105Y-9722650D02*
X6363677Y-9722650D01*
X6363677Y-9722650D02*
X6382724Y-9732174D01*
X6382724Y-9732174D02*
X6392248Y-9751222D01*
X6392248Y-9751222D02*
X6392248Y-9855984D01*
X6487486Y-9855984D02*
X6487486Y-9722650D01*
X6487486Y-9741698D02*
X6497010Y-9732174D01*
X6497010Y-9732174D02*
X6516058Y-9722650D01*
X6516058Y-9722650D02*
X6544629Y-9722650D01*
X6544629Y-9722650D02*
X6563677Y-9732174D01*
X6563677Y-9732174D02*
X6573201Y-9751222D01*
X6573201Y-9751222D02*
X6573201Y-9855984D01*
X6573201Y-9751222D02*
X6582724Y-9732174D01*
X6582724Y-9732174D02*
X6601772Y-9722650D01*
X6601772Y-9722650D02*
X6630343Y-9722650D01*
X6630343Y-9722650D02*
X6649391Y-9732174D01*
X6649391Y-9732174D02*
X6658915Y-9751222D01*
X6658915Y-9751222D02*
X6658915Y-9855984D01*
X7049391Y-9646460D02*
X6877963Y-9903603D01*
X7306534Y-9655984D02*
X7325582Y-9655984D01*
X7325582Y-9655984D02*
X7344629Y-9665508D01*
X7344629Y-9665508D02*
X7354153Y-9675031D01*
X7354153Y-9675031D02*
X7363677Y-9694079D01*
X7363677Y-9694079D02*
X7373201Y-9732174D01*
X7373201Y-9732174D02*
X7373201Y-9779793D01*
X7373201Y-9779793D02*
X7363677Y-9817889D01*
X7363677Y-9817889D02*
X7354153Y-9836936D01*
X7354153Y-9836936D02*
X7344629Y-9846460D01*
X7344629Y-9846460D02*
X7325582Y-9855984D01*
X7325582Y-9855984D02*
X7306534Y-9855984D01*
X7306534Y-9855984D02*
X7287486Y-9846460D01*
X7287486Y-9846460D02*
X7277963Y-9836936D01*
X7277963Y-9836936D02*
X7268439Y-9817889D01*
X7268439Y-9817889D02*
X7258915Y-9779793D01*
X7258915Y-9779793D02*
X7258915Y-9732174D01*
X7258915Y-9732174D02*
X7268439Y-9694079D01*
X7268439Y-9694079D02*
X7277963Y-9675031D01*
X7277963Y-9675031D02*
X7287486Y-9665508D01*
X7287486Y-9665508D02*
X7306534Y-9655984D01*
X7458915Y-9836936D02*
X7468439Y-9846460D01*
X7468439Y-9846460D02*
X7458915Y-9855984D01*
X7458915Y-9855984D02*
X7449391Y-9846460D01*
X7449391Y-9846460D02*
X7458915Y-9836936D01*
X7458915Y-9836936D02*
X7458915Y-9855984D01*
X7592248Y-9655984D02*
X7611296Y-9655984D01*
X7611296Y-9655984D02*
X7630344Y-9665508D01*
X7630344Y-9665508D02*
X7639867Y-9675031D01*
X7639867Y-9675031D02*
X7649391Y-9694079D01*
X7649391Y-9694079D02*
X7658915Y-9732174D01*
X7658915Y-9732174D02*
X7658915Y-9779793D01*
X7658915Y-9779793D02*
X7649391Y-9817889D01*
X7649391Y-9817889D02*
X7639867Y-9836936D01*
X7639867Y-9836936D02*
X7630344Y-9846460D01*
X7630344Y-9846460D02*
X7611296Y-9855984D01*
X7611296Y-9855984D02*
X7592248Y-9855984D01*
X7592248Y-9855984D02*
X7573201Y-9846460D01*
X7573201Y-9846460D02*
X7563677Y-9836936D01*
X7563677Y-9836936D02*
X7554153Y-9817889D01*
X7554153Y-9817889D02*
X7544629Y-9779793D01*
X7544629Y-9779793D02*
X7544629Y-9732174D01*
X7544629Y-9732174D02*
X7554153Y-9694079D01*
X7554153Y-9694079D02*
X7563677Y-9675031D01*
X7563677Y-9675031D02*
X7573201Y-9665508D01*
X7573201Y-9665508D02*
X7592248Y-9655984D01*
X7849391Y-9855984D02*
X7735106Y-9855984D01*
X7792248Y-9855984D02*
X7792248Y-9655984D01*
X7792248Y-9655984D02*
X7773201Y-9684555D01*
X7773201Y-9684555D02*
X7754153Y-9703603D01*
X7754153Y-9703603D02*
X7735106Y-9713127D01*
X8039867Y-9855984D02*
X7925582Y-9855984D01*
X7982725Y-9855984D02*
X7982725Y-9655984D01*
X7982725Y-9655984D02*
X7963677Y-9684555D01*
X7963677Y-9684555D02*
X7944629Y-9703603D01*
X7944629Y-9703603D02*
X7925582Y-9713127D01*
X8154153Y-9741698D02*
X8135106Y-9732174D01*
X8135106Y-9732174D02*
X8125582Y-9722650D01*
X8125582Y-9722650D02*
X8116058Y-9703603D01*
X8116058Y-9703603D02*
X8116058Y-9694079D01*
X8116058Y-9694079D02*
X8125582Y-9675031D01*
X8125582Y-9675031D02*
X8135106Y-9665508D01*
X8135106Y-9665508D02*
X8154153Y-9655984D01*
X8154153Y-9655984D02*
X8192248Y-9655984D01*
X8192248Y-9655984D02*
X8211296Y-9665508D01*
X8211296Y-9665508D02*
X8220820Y-9675031D01*
X8220820Y-9675031D02*
X8230344Y-9694079D01*
X8230344Y-9694079D02*
X8230344Y-9703603D01*
X8230344Y-9703603D02*
X8220820Y-9722650D01*
X8220820Y-9722650D02*
X8211296Y-9732174D01*
X8211296Y-9732174D02*
X8192248Y-9741698D01*
X8192248Y-9741698D02*
X8154153Y-9741698D01*
X8154153Y-9741698D02*
X8135106Y-9751222D01*
X8135106Y-9751222D02*
X8125582Y-9760746D01*
X8125582Y-9760746D02*
X8116058Y-9779793D01*
X8116058Y-9779793D02*
X8116058Y-9817889D01*
X8116058Y-9817889D02*
X8125582Y-9836936D01*
X8125582Y-9836936D02*
X8135106Y-9846460D01*
X8135106Y-9846460D02*
X8154153Y-9855984D01*
X8154153Y-9855984D02*
X8192248Y-9855984D01*
X8192248Y-9855984D02*
X8211296Y-9846460D01*
X8211296Y-9846460D02*
X8220820Y-9836936D01*
X8220820Y-9836936D02*
X8230344Y-9817889D01*
X8230344Y-9817889D02*
X8230344Y-9779793D01*
X8230344Y-9779793D02*
X8220820Y-9760746D01*
X8220820Y-9760746D02*
X8211296Y-9751222D01*
X8211296Y-9751222D02*
X8192248Y-9741698D01*
X8306534Y-9655984D02*
X8306534Y-9694079D01*
X8382725Y-9655984D02*
X8382725Y-9694079D01*
X8677963Y-9932174D02*
X8668439Y-9922650D01*
X8668439Y-9922650D02*
X8649391Y-9894079D01*
X8649391Y-9894079D02*
X8639868Y-9875031D01*
X8639868Y-9875031D02*
X8630344Y-9846460D01*
X8630344Y-9846460D02*
X8620820Y-9798841D01*
X8620820Y-9798841D02*
X8620820Y-9760746D01*
X8620820Y-9760746D02*
X8630344Y-9713127D01*
X8630344Y-9713127D02*
X8639868Y-9684555D01*
X8639868Y-9684555D02*
X8649391Y-9665508D01*
X8649391Y-9665508D02*
X8668439Y-9636936D01*
X8668439Y-9636936D02*
X8677963Y-9627412D01*
X8839868Y-9655984D02*
X8801772Y-9655984D01*
X8801772Y-9655984D02*
X8782725Y-9665508D01*
X8782725Y-9665508D02*
X8773201Y-9675031D01*
X8773201Y-9675031D02*
X8754153Y-9703603D01*
X8754153Y-9703603D02*
X8744630Y-9741698D01*
X8744630Y-9741698D02*
X8744630Y-9817889D01*
X8744630Y-9817889D02*
X8754153Y-9836936D01*
X8754153Y-9836936D02*
X8763677Y-9846460D01*
X8763677Y-9846460D02*
X8782725Y-9855984D01*
X8782725Y-9855984D02*
X8820820Y-9855984D01*
X8820820Y-9855984D02*
X8839868Y-9846460D01*
X8839868Y-9846460D02*
X8849391Y-9836936D01*
X8849391Y-9836936D02*
X8858915Y-9817889D01*
X8858915Y-9817889D02*
X8858915Y-9770270D01*
X8858915Y-9770270D02*
X8849391Y-9751222D01*
X8849391Y-9751222D02*
X8839868Y-9741698D01*
X8839868Y-9741698D02*
X8820820Y-9732174D01*
X8820820Y-9732174D02*
X8782725Y-9732174D01*
X8782725Y-9732174D02*
X8763677Y-9741698D01*
X8763677Y-9741698D02*
X8754153Y-9751222D01*
X8754153Y-9751222D02*
X8744630Y-9770270D01*
X9030344Y-9722650D02*
X9030344Y-9855984D01*
X8982725Y-9646460D02*
X8935106Y-9789317D01*
X8935106Y-9789317D02*
X9058915Y-9789317D01*
X9287487Y-9855984D02*
X9287487Y-9655984D01*
X9373201Y-9855984D02*
X9373201Y-9751222D01*
X9373201Y-9751222D02*
X9363677Y-9732174D01*
X9363677Y-9732174D02*
X9344630Y-9722650D01*
X9344630Y-9722650D02*
X9316058Y-9722650D01*
X9316058Y-9722650D02*
X9297011Y-9732174D01*
X9297011Y-9732174D02*
X9287487Y-9741698D01*
X9497011Y-9855984D02*
X9477963Y-9846460D01*
X9477963Y-9846460D02*
X9468439Y-9836936D01*
X9468439Y-9836936D02*
X9458915Y-9817889D01*
X9458915Y-9817889D02*
X9458915Y-9760746D01*
X9458915Y-9760746D02*
X9468439Y-9741698D01*
X9468439Y-9741698D02*
X9477963Y-9732174D01*
X9477963Y-9732174D02*
X9497011Y-9722650D01*
X9497011Y-9722650D02*
X9525582Y-9722650D01*
X9525582Y-9722650D02*
X9544630Y-9732174D01*
X9544630Y-9732174D02*
X9554153Y-9741698D01*
X9554153Y-9741698D02*
X9563677Y-9760746D01*
X9563677Y-9760746D02*
X9563677Y-9817889D01*
X9563677Y-9817889D02*
X9554153Y-9836936D01*
X9554153Y-9836936D02*
X9544630Y-9846460D01*
X9544630Y-9846460D02*
X9525582Y-9855984D01*
X9525582Y-9855984D02*
X9497011Y-9855984D01*
X9677963Y-9855984D02*
X9658915Y-9846460D01*
X9658915Y-9846460D02*
X9649392Y-9827412D01*
X9649392Y-9827412D02*
X9649392Y-9655984D01*
X9830344Y-9846460D02*
X9811296Y-9855984D01*
X9811296Y-9855984D02*
X9773201Y-9855984D01*
X9773201Y-9855984D02*
X9754153Y-9846460D01*
X9754153Y-9846460D02*
X9744630Y-9827412D01*
X9744630Y-9827412D02*
X9744630Y-9751222D01*
X9744630Y-9751222D02*
X9754153Y-9732174D01*
X9754153Y-9732174D02*
X9773201Y-9722650D01*
X9773201Y-9722650D02*
X9811296Y-9722650D01*
X9811296Y-9722650D02*
X9830344Y-9732174D01*
X9830344Y-9732174D02*
X9839868Y-9751222D01*
X9839868Y-9751222D02*
X9839868Y-9770270D01*
X9839868Y-9770270D02*
X9744630Y-9789317D01*
X9916058Y-9846460D02*
X9935106Y-9855984D01*
X9935106Y-9855984D02*
X9973201Y-9855984D01*
X9973201Y-9855984D02*
X9992249Y-9846460D01*
X9992249Y-9846460D02*
X10001773Y-9827412D01*
X10001773Y-9827412D02*
X10001773Y-9817889D01*
X10001773Y-9817889D02*
X9992249Y-9798841D01*
X9992249Y-9798841D02*
X9973201Y-9789317D01*
X9973201Y-9789317D02*
X9944630Y-9789317D01*
X9944630Y-9789317D02*
X9925582Y-9779793D01*
X9925582Y-9779793D02*
X9916058Y-9760746D01*
X9916058Y-9760746D02*
X9916058Y-9751222D01*
X9916058Y-9751222D02*
X9925582Y-9732174D01*
X9925582Y-9732174D02*
X9944630Y-9722650D01*
X9944630Y-9722650D02*
X9973201Y-9722650D01*
X9973201Y-9722650D02*
X9992249Y-9732174D01*
X10068439Y-9932174D02*
X10077963Y-9922650D01*
X10077963Y-9922650D02*
X10097011Y-9894079D01*
X10097011Y-9894079D02*
X10106534Y-9875031D01*
X10106534Y-9875031D02*
X10116058Y-9846460D01*
X10116058Y-9846460D02*
X10125582Y-9798841D01*
X10125582Y-9798841D02*
X10125582Y-9760746D01*
X10125582Y-9760746D02*
X10116058Y-9713127D01*
X10116058Y-9713127D02*
X10106534Y-9684555D01*
X10106534Y-9684555D02*
X10097011Y-9665508D01*
X10097011Y-9665508D02*
X10077963Y-9636936D01*
X10077963Y-9636936D02*
X10068439Y-9627412D01*
D12*
X5102900Y-10028500D02*
G75*
G02*
X5002900Y-10028500I-50000J0D01*
G01*
X5002900Y-10028500D02*
G75*
G02*
X5102900Y-10028500I50000J0D01*
G01*
D11*
X5468439Y-10119984D02*
X5354153Y-10119984D01*
X5411296Y-10119984D02*
X5411296Y-9919984D01*
X5411296Y-9919984D02*
X5392248Y-9948555D01*
X5392248Y-9948555D02*
X5373201Y-9967603D01*
X5373201Y-9967603D02*
X5354153Y-9977127D01*
X5554153Y-10100936D02*
X5563677Y-10110460D01*
X5563677Y-10110460D02*
X5554153Y-10119984D01*
X5554153Y-10119984D02*
X5544629Y-10110460D01*
X5544629Y-10110460D02*
X5554153Y-10100936D01*
X5554153Y-10100936D02*
X5554153Y-10119984D01*
X5687486Y-9919984D02*
X5706534Y-9919984D01*
X5706534Y-9919984D02*
X5725582Y-9929508D01*
X5725582Y-9929508D02*
X5735105Y-9939031D01*
X5735105Y-9939031D02*
X5744629Y-9958079D01*
X5744629Y-9958079D02*
X5754153Y-9996174D01*
X5754153Y-9996174D02*
X5754153Y-10043793D01*
X5754153Y-10043793D02*
X5744629Y-10081889D01*
X5744629Y-10081889D02*
X5735105Y-10100936D01*
X5735105Y-10100936D02*
X5725582Y-10110460D01*
X5725582Y-10110460D02*
X5706534Y-10119984D01*
X5706534Y-10119984D02*
X5687486Y-10119984D01*
X5687486Y-10119984D02*
X5668439Y-10110460D01*
X5668439Y-10110460D02*
X5658915Y-10100936D01*
X5658915Y-10100936D02*
X5649391Y-10081889D01*
X5649391Y-10081889D02*
X5639867Y-10043793D01*
X5639867Y-10043793D02*
X5639867Y-9996174D01*
X5639867Y-9996174D02*
X5649391Y-9958079D01*
X5649391Y-9958079D02*
X5658915Y-9939031D01*
X5658915Y-9939031D02*
X5668439Y-9929508D01*
X5668439Y-9929508D02*
X5687486Y-9919984D01*
X5877962Y-9919984D02*
X5897010Y-9919984D01*
X5897010Y-9919984D02*
X5916058Y-9929508D01*
X5916058Y-9929508D02*
X5925582Y-9939031D01*
X5925582Y-9939031D02*
X5935105Y-9958079D01*
X5935105Y-9958079D02*
X5944629Y-9996174D01*
X5944629Y-9996174D02*
X5944629Y-10043793D01*
X5944629Y-10043793D02*
X5935105Y-10081889D01*
X5935105Y-10081889D02*
X5925582Y-10100936D01*
X5925582Y-10100936D02*
X5916058Y-10110460D01*
X5916058Y-10110460D02*
X5897010Y-10119984D01*
X5897010Y-10119984D02*
X5877962Y-10119984D01*
X5877962Y-10119984D02*
X5858915Y-10110460D01*
X5858915Y-10110460D02*
X5849391Y-10100936D01*
X5849391Y-10100936D02*
X5839867Y-10081889D01*
X5839867Y-10081889D02*
X5830343Y-10043793D01*
X5830343Y-10043793D02*
X5830343Y-9996174D01*
X5830343Y-9996174D02*
X5839867Y-9958079D01*
X5839867Y-9958079D02*
X5849391Y-9939031D01*
X5849391Y-9939031D02*
X5858915Y-9929508D01*
X5858915Y-9929508D02*
X5877962Y-9919984D01*
X6068439Y-9919984D02*
X6087486Y-9919984D01*
X6087486Y-9919984D02*
X6106534Y-9929508D01*
X6106534Y-9929508D02*
X6116058Y-9939031D01*
X6116058Y-9939031D02*
X6125582Y-9958079D01*
X6125582Y-9958079D02*
X6135105Y-9996174D01*
X6135105Y-9996174D02*
X6135105Y-10043793D01*
X6135105Y-10043793D02*
X6125582Y-10081889D01*
X6125582Y-10081889D02*
X6116058Y-10100936D01*
X6116058Y-10100936D02*
X6106534Y-10110460D01*
X6106534Y-10110460D02*
X6087486Y-10119984D01*
X6087486Y-10119984D02*
X6068439Y-10119984D01*
X6068439Y-10119984D02*
X6049391Y-10110460D01*
X6049391Y-10110460D02*
X6039867Y-10100936D01*
X6039867Y-10100936D02*
X6030343Y-10081889D01*
X6030343Y-10081889D02*
X6020820Y-10043793D01*
X6020820Y-10043793D02*
X6020820Y-9996174D01*
X6020820Y-9996174D02*
X6030343Y-9958079D01*
X6030343Y-9958079D02*
X6039867Y-9939031D01*
X6039867Y-9939031D02*
X6049391Y-9929508D01*
X6049391Y-9929508D02*
X6068439Y-9919984D01*
X6220820Y-10119984D02*
X6220820Y-9986650D01*
X6220820Y-10005698D02*
X6230343Y-9996174D01*
X6230343Y-9996174D02*
X6249391Y-9986650D01*
X6249391Y-9986650D02*
X6277963Y-9986650D01*
X6277963Y-9986650D02*
X6297010Y-9996174D01*
X6297010Y-9996174D02*
X6306534Y-10015222D01*
X6306534Y-10015222D02*
X6306534Y-10119984D01*
X6306534Y-10015222D02*
X6316058Y-9996174D01*
X6316058Y-9996174D02*
X6335105Y-9986650D01*
X6335105Y-9986650D02*
X6363677Y-9986650D01*
X6363677Y-9986650D02*
X6382724Y-9996174D01*
X6382724Y-9996174D02*
X6392248Y-10015222D01*
X6392248Y-10015222D02*
X6392248Y-10119984D01*
X6487486Y-10119984D02*
X6487486Y-9986650D01*
X6487486Y-10005698D02*
X6497010Y-9996174D01*
X6497010Y-9996174D02*
X6516058Y-9986650D01*
X6516058Y-9986650D02*
X6544629Y-9986650D01*
X6544629Y-9986650D02*
X6563677Y-9996174D01*
X6563677Y-9996174D02*
X6573201Y-10015222D01*
X6573201Y-10015222D02*
X6573201Y-10119984D01*
X6573201Y-10015222D02*
X6582724Y-9996174D01*
X6582724Y-9996174D02*
X6601772Y-9986650D01*
X6601772Y-9986650D02*
X6630343Y-9986650D01*
X6630343Y-9986650D02*
X6649391Y-9996174D01*
X6649391Y-9996174D02*
X6658915Y-10015222D01*
X6658915Y-10015222D02*
X6658915Y-10119984D01*
X7049391Y-9910460D02*
X6877963Y-10167603D01*
X7306534Y-9919984D02*
X7325582Y-9919984D01*
X7325582Y-9919984D02*
X7344629Y-9929508D01*
X7344629Y-9929508D02*
X7354153Y-9939031D01*
X7354153Y-9939031D02*
X7363677Y-9958079D01*
X7363677Y-9958079D02*
X7373201Y-9996174D01*
X7373201Y-9996174D02*
X7373201Y-10043793D01*
X7373201Y-10043793D02*
X7363677Y-10081889D01*
X7363677Y-10081889D02*
X7354153Y-10100936D01*
X7354153Y-10100936D02*
X7344629Y-10110460D01*
X7344629Y-10110460D02*
X7325582Y-10119984D01*
X7325582Y-10119984D02*
X7306534Y-10119984D01*
X7306534Y-10119984D02*
X7287486Y-10110460D01*
X7287486Y-10110460D02*
X7277963Y-10100936D01*
X7277963Y-10100936D02*
X7268439Y-10081889D01*
X7268439Y-10081889D02*
X7258915Y-10043793D01*
X7258915Y-10043793D02*
X7258915Y-9996174D01*
X7258915Y-9996174D02*
X7268439Y-9958079D01*
X7268439Y-9958079D02*
X7277963Y-9939031D01*
X7277963Y-9939031D02*
X7287486Y-9929508D01*
X7287486Y-9929508D02*
X7306534Y-9919984D01*
X7458915Y-10100936D02*
X7468439Y-10110460D01*
X7468439Y-10110460D02*
X7458915Y-10119984D01*
X7458915Y-10119984D02*
X7449391Y-10110460D01*
X7449391Y-10110460D02*
X7458915Y-10100936D01*
X7458915Y-10100936D02*
X7458915Y-10119984D01*
X7592248Y-9919984D02*
X7611296Y-9919984D01*
X7611296Y-9919984D02*
X7630344Y-9929508D01*
X7630344Y-9929508D02*
X7639867Y-9939031D01*
X7639867Y-9939031D02*
X7649391Y-9958079D01*
X7649391Y-9958079D02*
X7658915Y-9996174D01*
X7658915Y-9996174D02*
X7658915Y-10043793D01*
X7658915Y-10043793D02*
X7649391Y-10081889D01*
X7649391Y-10081889D02*
X7639867Y-10100936D01*
X7639867Y-10100936D02*
X7630344Y-10110460D01*
X7630344Y-10110460D02*
X7611296Y-10119984D01*
X7611296Y-10119984D02*
X7592248Y-10119984D01*
X7592248Y-10119984D02*
X7573201Y-10110460D01*
X7573201Y-10110460D02*
X7563677Y-10100936D01*
X7563677Y-10100936D02*
X7554153Y-10081889D01*
X7554153Y-10081889D02*
X7544629Y-10043793D01*
X7544629Y-10043793D02*
X7544629Y-9996174D01*
X7544629Y-9996174D02*
X7554153Y-9958079D01*
X7554153Y-9958079D02*
X7563677Y-9939031D01*
X7563677Y-9939031D02*
X7573201Y-9929508D01*
X7573201Y-9929508D02*
X7592248Y-9919984D01*
X7725582Y-9919984D02*
X7849391Y-9919984D01*
X7849391Y-9919984D02*
X7782725Y-9996174D01*
X7782725Y-9996174D02*
X7811296Y-9996174D01*
X7811296Y-9996174D02*
X7830344Y-10005698D01*
X7830344Y-10005698D02*
X7839867Y-10015222D01*
X7839867Y-10015222D02*
X7849391Y-10034270D01*
X7849391Y-10034270D02*
X7849391Y-10081889D01*
X7849391Y-10081889D02*
X7839867Y-10100936D01*
X7839867Y-10100936D02*
X7830344Y-10110460D01*
X7830344Y-10110460D02*
X7811296Y-10119984D01*
X7811296Y-10119984D02*
X7754153Y-10119984D01*
X7754153Y-10119984D02*
X7735106Y-10110460D01*
X7735106Y-10110460D02*
X7725582Y-10100936D01*
X7944629Y-10119984D02*
X7982725Y-10119984D01*
X7982725Y-10119984D02*
X8001772Y-10110460D01*
X8001772Y-10110460D02*
X8011296Y-10100936D01*
X8011296Y-10100936D02*
X8030344Y-10072365D01*
X8030344Y-10072365D02*
X8039867Y-10034270D01*
X8039867Y-10034270D02*
X8039867Y-9958079D01*
X8039867Y-9958079D02*
X8030344Y-9939031D01*
X8030344Y-9939031D02*
X8020820Y-9929508D01*
X8020820Y-9929508D02*
X8001772Y-9919984D01*
X8001772Y-9919984D02*
X7963677Y-9919984D01*
X7963677Y-9919984D02*
X7944629Y-9929508D01*
X7944629Y-9929508D02*
X7935106Y-9939031D01*
X7935106Y-9939031D02*
X7925582Y-9958079D01*
X7925582Y-9958079D02*
X7925582Y-10005698D01*
X7925582Y-10005698D02*
X7935106Y-10024746D01*
X7935106Y-10024746D02*
X7944629Y-10034270D01*
X7944629Y-10034270D02*
X7963677Y-10043793D01*
X7963677Y-10043793D02*
X8001772Y-10043793D01*
X8001772Y-10043793D02*
X8020820Y-10034270D01*
X8020820Y-10034270D02*
X8030344Y-10024746D01*
X8030344Y-10024746D02*
X8039867Y-10005698D01*
X8211296Y-9986650D02*
X8211296Y-10119984D01*
X8163677Y-9910460D02*
X8116058Y-10053317D01*
X8116058Y-10053317D02*
X8239867Y-10053317D01*
X8306534Y-9919984D02*
X8306534Y-9958079D01*
X8382725Y-9919984D02*
X8382725Y-9958079D01*
X8677963Y-10196174D02*
X8668439Y-10186650D01*
X8668439Y-10186650D02*
X8649391Y-10158079D01*
X8649391Y-10158079D02*
X8639868Y-10139031D01*
X8639868Y-10139031D02*
X8630344Y-10110460D01*
X8630344Y-10110460D02*
X8620820Y-10062841D01*
X8620820Y-10062841D02*
X8620820Y-10024746D01*
X8620820Y-10024746D02*
X8630344Y-9977127D01*
X8630344Y-9977127D02*
X8639868Y-9948555D01*
X8639868Y-9948555D02*
X8649391Y-9929508D01*
X8649391Y-9929508D02*
X8668439Y-9900936D01*
X8668439Y-9900936D02*
X8677963Y-9891412D01*
X8744630Y-9939031D02*
X8754153Y-9929508D01*
X8754153Y-9929508D02*
X8773201Y-9919984D01*
X8773201Y-9919984D02*
X8820820Y-9919984D01*
X8820820Y-9919984D02*
X8839868Y-9929508D01*
X8839868Y-9929508D02*
X8849391Y-9939031D01*
X8849391Y-9939031D02*
X8858915Y-9958079D01*
X8858915Y-9958079D02*
X8858915Y-9977127D01*
X8858915Y-9977127D02*
X8849391Y-10005698D01*
X8849391Y-10005698D02*
X8735106Y-10119984D01*
X8735106Y-10119984D02*
X8858915Y-10119984D01*
X9039868Y-9919984D02*
X8944630Y-9919984D01*
X8944630Y-9919984D02*
X8935106Y-10015222D01*
X8935106Y-10015222D02*
X8944630Y-10005698D01*
X8944630Y-10005698D02*
X8963677Y-9996174D01*
X8963677Y-9996174D02*
X9011296Y-9996174D01*
X9011296Y-9996174D02*
X9030344Y-10005698D01*
X9030344Y-10005698D02*
X9039868Y-10015222D01*
X9039868Y-10015222D02*
X9049391Y-10034270D01*
X9049391Y-10034270D02*
X9049391Y-10081889D01*
X9049391Y-10081889D02*
X9039868Y-10100936D01*
X9039868Y-10100936D02*
X9030344Y-10110460D01*
X9030344Y-10110460D02*
X9011296Y-10119984D01*
X9011296Y-10119984D02*
X8963677Y-10119984D01*
X8963677Y-10119984D02*
X8944630Y-10110460D01*
X8944630Y-10110460D02*
X8935106Y-10100936D01*
X9287487Y-10119984D02*
X9287487Y-9919984D01*
X9373201Y-10119984D02*
X9373201Y-10015222D01*
X9373201Y-10015222D02*
X9363677Y-9996174D01*
X9363677Y-9996174D02*
X9344630Y-9986650D01*
X9344630Y-9986650D02*
X9316058Y-9986650D01*
X9316058Y-9986650D02*
X9297011Y-9996174D01*
X9297011Y-9996174D02*
X9287487Y-10005698D01*
X9497011Y-10119984D02*
X9477963Y-10110460D01*
X9477963Y-10110460D02*
X9468439Y-10100936D01*
X9468439Y-10100936D02*
X9458915Y-10081889D01*
X9458915Y-10081889D02*
X9458915Y-10024746D01*
X9458915Y-10024746D02*
X9468439Y-10005698D01*
X9468439Y-10005698D02*
X9477963Y-9996174D01*
X9477963Y-9996174D02*
X9497011Y-9986650D01*
X9497011Y-9986650D02*
X9525582Y-9986650D01*
X9525582Y-9986650D02*
X9544630Y-9996174D01*
X9544630Y-9996174D02*
X9554153Y-10005698D01*
X9554153Y-10005698D02*
X9563677Y-10024746D01*
X9563677Y-10024746D02*
X9563677Y-10081889D01*
X9563677Y-10081889D02*
X9554153Y-10100936D01*
X9554153Y-10100936D02*
X9544630Y-10110460D01*
X9544630Y-10110460D02*
X9525582Y-10119984D01*
X9525582Y-10119984D02*
X9497011Y-10119984D01*
X9677963Y-10119984D02*
X9658915Y-10110460D01*
X9658915Y-10110460D02*
X9649392Y-10091412D01*
X9649392Y-10091412D02*
X9649392Y-9919984D01*
X9830344Y-10110460D02*
X9811296Y-10119984D01*
X9811296Y-10119984D02*
X9773201Y-10119984D01*
X9773201Y-10119984D02*
X9754153Y-10110460D01*
X9754153Y-10110460D02*
X9744630Y-10091412D01*
X9744630Y-10091412D02*
X9744630Y-10015222D01*
X9744630Y-10015222D02*
X9754153Y-9996174D01*
X9754153Y-9996174D02*
X9773201Y-9986650D01*
X9773201Y-9986650D02*
X9811296Y-9986650D01*
X9811296Y-9986650D02*
X9830344Y-9996174D01*
X9830344Y-9996174D02*
X9839868Y-10015222D01*
X9839868Y-10015222D02*
X9839868Y-10034270D01*
X9839868Y-10034270D02*
X9744630Y-10053317D01*
X9916058Y-10110460D02*
X9935106Y-10119984D01*
X9935106Y-10119984D02*
X9973201Y-10119984D01*
X9973201Y-10119984D02*
X9992249Y-10110460D01*
X9992249Y-10110460D02*
X10001773Y-10091412D01*
X10001773Y-10091412D02*
X10001773Y-10081889D01*
X10001773Y-10081889D02*
X9992249Y-10062841D01*
X9992249Y-10062841D02*
X9973201Y-10053317D01*
X9973201Y-10053317D02*
X9944630Y-10053317D01*
X9944630Y-10053317D02*
X9925582Y-10043793D01*
X9925582Y-10043793D02*
X9916058Y-10024746D01*
X9916058Y-10024746D02*
X9916058Y-10015222D01*
X9916058Y-10015222D02*
X9925582Y-9996174D01*
X9925582Y-9996174D02*
X9944630Y-9986650D01*
X9944630Y-9986650D02*
X9973201Y-9986650D01*
X9973201Y-9986650D02*
X9992249Y-9996174D01*
X10068439Y-10196174D02*
X10077963Y-10186650D01*
X10077963Y-10186650D02*
X10097011Y-10158079D01*
X10097011Y-10158079D02*
X10106534Y-10139031D01*
X10106534Y-10139031D02*
X10116058Y-10110460D01*
X10116058Y-10110460D02*
X10125582Y-10062841D01*
X10125582Y-10062841D02*
X10125582Y-10024746D01*
X10125582Y-10024746D02*
X10116058Y-9977127D01*
X10116058Y-9977127D02*
X10106534Y-9948555D01*
X10106534Y-9948555D02*
X10097011Y-9929508D01*
X10097011Y-9929508D02*
X10077963Y-9900936D01*
X10077963Y-9900936D02*
X10068439Y-9891412D01*
M02*
