%TF.GenerationSoftware,KiCad,Pcbnew,9.0.6*%
%TF.CreationDate,2025-12-29T02:06:04+05:30*%
%TF.ProjectId,DATA LOGGER,44415441-204c-44f4-9747-45522e6b6963,rev?*%
%TF.SameCoordinates,Original*%
%TF.FileFunction,Plated,1,4,PTH,Drill*%
%TF.FilePolarity,Positive*%
%FSLAX46Y46*%
G04 Gerber Fmt 4.6, Leading zero omitted, Abs format (unit mm)*
G04 Created by KiCad (PCBNEW 9.0.6) date 2025-12-29 02:06:04*
%MOMM*%
%LPD*%
G01*
G04 APERTURE LIST*
%TA.AperFunction,ViaDrill*%
%ADD10C,0.300000*%
%TD*%
%TA.AperFunction,ComponentDrill*%
%ADD11C,1.000000*%
%TD*%
G04 APERTURE END LIST*
D10*
X58340000Y-71360000D03*
X58700000Y-80380000D03*
X60130000Y-66990000D03*
X61880000Y-69610000D03*
X62033630Y-81894752D03*
X62760000Y-82230000D03*
X63160000Y-68080000D03*
X63160000Y-76575000D03*
X63720000Y-77880000D03*
X63810000Y-68990000D03*
X63920000Y-75420000D03*
X63930000Y-72640000D03*
X64000000Y-70420000D03*
X65540000Y-82140000D03*
X65640000Y-85020000D03*
X65650000Y-73940000D03*
X65990000Y-67240000D03*
X66532677Y-71668795D03*
X67240000Y-70680000D03*
X68085000Y-72715000D03*
X69830000Y-77590000D03*
X70090000Y-67910000D03*
X70900000Y-72900000D03*
X70960000Y-79390000D03*
X71020000Y-75180000D03*
X71590602Y-67777437D03*
X71600000Y-72510000D03*
X72558315Y-70219987D03*
X72870000Y-71310000D03*
X73570000Y-67180000D03*
X73600000Y-62200000D03*
X73870000Y-71640000D03*
X74340000Y-67750000D03*
X74900000Y-70520000D03*
X75175000Y-67630000D03*
X75180000Y-65950000D03*
X76040000Y-70740000D03*
X76160000Y-79400000D03*
X76360000Y-72750000D03*
X76490000Y-65350000D03*
X76780000Y-75940000D03*
X76910091Y-74577611D03*
X77320000Y-79310000D03*
X77897660Y-67949000D03*
X79555000Y-74065000D03*
X79830000Y-73100000D03*
X81224265Y-70415735D03*
X81230000Y-75710000D03*
X81360000Y-74760000D03*
X82590000Y-77930000D03*
X84094000Y-72070000D03*
X84660000Y-88020000D03*
X85460000Y-77760000D03*
X85500000Y-73760000D03*
X85590000Y-66580000D03*
X86210000Y-82830000D03*
X86810000Y-80845000D03*
X87378235Y-69403235D03*
X87774265Y-70704265D03*
X88390000Y-73920000D03*
X89700000Y-67930000D03*
X89804265Y-81505735D03*
X91720000Y-82560000D03*
X91970000Y-78460000D03*
D11*
%TO.C,BT1*%
X55550000Y-69325000D03*
X55550000Y-71865000D03*
%TO.C,J2*%
X57765000Y-89400000D03*
X60305000Y-89400000D03*
X62845000Y-89400000D03*
X65385000Y-89400000D03*
X67925000Y-89400000D03*
X70465000Y-89400000D03*
X73005000Y-89400000D03*
X75545000Y-89400000D03*
X78085000Y-89400000D03*
%TO.C,J1*%
X82911000Y-89400000D03*
X85451000Y-89400000D03*
X87991000Y-89400000D03*
X90531000Y-89400000D03*
%TO.C,J4*%
X92210000Y-66925000D03*
X92210000Y-69465000D03*
X92210000Y-72005000D03*
%TO.C,J3*%
X94600000Y-76695000D03*
X94600000Y-79235000D03*
X94600000Y-81775000D03*
X94600000Y-84315000D03*
%TO.C,J4*%
X94750000Y-66925000D03*
X94750000Y-69465000D03*
X94750000Y-72005000D03*
M02*
