%TF.GenerationSoftware,KiCad,Pcbnew,9.0.6*%
%TF.CreationDate,2025-12-29T02:05:30+05:30*%
%TF.ProjectId,DATA LOGGER,44415441-204c-44f4-9747-45522e6b6963,rev?*%
%TF.SameCoordinates,Original*%
%TF.FileFunction,Copper,L2,Inr*%
%TF.FilePolarity,Positive*%
%FSLAX46Y46*%
G04 Gerber Fmt 4.6, Leading zero omitted, Abs format (unit mm)*
G04 Created by KiCad (PCBNEW 9.0.6) date 2025-12-29 02:05:30*
%MOMM*%
%LPD*%
G01*
G04 APERTURE LIST*
%TA.AperFunction,ComponentPad*%
%ADD10C,1.700000*%
%TD*%
%TA.AperFunction,ComponentPad*%
%ADD11R,1.700000X1.700000*%
%TD*%
%TA.AperFunction,ViaPad*%
%ADD12C,0.600000*%
%TD*%
%TA.AperFunction,Conductor*%
%ADD13C,0.200000*%
%TD*%
G04 APERTURE END LIST*
D10*
%TO.N,GND*%
%TO.C,J4*%
X94750000Y-72005000D03*
%TO.N,/RESET*%
X92210000Y-72005000D03*
%TO.N,/MOSI*%
X94750000Y-69465000D03*
%TO.N,/SCK*%
X92210000Y-69465000D03*
%TO.N,/Vcc*%
X94750000Y-66925000D03*
D11*
%TO.N,/MISO*%
X92210000Y-66925000D03*
%TD*%
D10*
%TO.N,/TX*%
%TO.C,J3*%
X94600000Y-84315000D03*
%TO.N,/RX*%
X94600000Y-81775000D03*
%TO.N,/Vcc*%
X94600000Y-79235000D03*
D11*
%TO.N,GND*%
X94600000Y-76695000D03*
%TD*%
D10*
%TO.N,/Vcc*%
%TO.C,J2*%
X78085000Y-89400000D03*
%TO.N,GND*%
X75545000Y-89400000D03*
%TO.N,/D8*%
X73005000Y-89400000D03*
%TO.N,/D7*%
X70465000Y-89400000D03*
%TO.N,/D6*%
X67925000Y-89400000D03*
%TO.N,/D5*%
X65385000Y-89400000D03*
%TO.N,/D4*%
X62845000Y-89400000D03*
%TO.N,/D3*%
X60305000Y-89400000D03*
D11*
%TO.N,/D2*%
X57765000Y-89400000D03*
%TD*%
D10*
%TO.N,/SCL*%
%TO.C,J1*%
X90531000Y-89400000D03*
%TO.N,/SDA*%
X87991000Y-89400000D03*
%TO.N,/Vcc*%
X85451000Y-89400000D03*
D11*
%TO.N,GND*%
X82911000Y-89400000D03*
%TD*%
%TO.N,/Vcc*%
%TO.C,BT1*%
X55550000Y-69325000D03*
D10*
%TO.N,GND*%
X55550000Y-71865000D03*
%TD*%
D12*
%TO.N,/SCK*%
X87774265Y-70704265D03*
X88390000Y-73920000D03*
X86810000Y-80845000D03*
X76780000Y-75940000D03*
%TO.N,/SDA*%
X74340000Y-67750000D03*
X76040000Y-70740000D03*
%TO.N,/SCK*%
X87378235Y-69403235D03*
%TO.N,/Vcc*%
X65540000Y-82140000D03*
X84660000Y-88020000D03*
%TO.N,GND*%
X82590000Y-77930000D03*
%TO.N,/Vcc*%
X76910091Y-74577611D03*
X70900000Y-72900000D03*
X91970000Y-78460000D03*
X85500000Y-73760000D03*
X81224265Y-70415735D03*
%TO.N,/RESET*%
X76490000Y-65350000D03*
X73570000Y-67180000D03*
%TO.N,GND*%
X73600000Y-62200000D03*
X60130000Y-66990000D03*
X71600000Y-72510000D03*
X76360000Y-72750000D03*
X79830000Y-73100000D03*
X81360000Y-74760000D03*
X85590000Y-66580000D03*
%TO.N,/D2*%
X70090000Y-67910000D03*
X65640000Y-85020000D03*
%TO.N,GND*%
X58700000Y-80380000D03*
X58340000Y-71360000D03*
X64000000Y-70420000D03*
%TO.N,/Vcc*%
X63810000Y-68990000D03*
X61880000Y-69610000D03*
%TO.N,Net-(U2-VCC)*%
X63160000Y-68080000D03*
%TO.N,Net-(U4-PB7)*%
X72870000Y-71310000D03*
X71590602Y-67777437D03*
%TO.N,/SDA*%
X65990000Y-67240000D03*
X66532677Y-71668795D03*
X63930000Y-72640000D03*
X63920000Y-75420000D03*
%TO.N,/SCL*%
X73870000Y-71640000D03*
X65650000Y-73940000D03*
%TO.N,/Vcc*%
X68085000Y-72715000D03*
X67240000Y-70680000D03*
%TO.N,Net-(U2-SQW{slash}~INT)*%
X63720000Y-77880000D03*
X62760000Y-82230000D03*
%TO.N,Net-(U2-VCC)*%
X63160000Y-76575000D03*
X62033630Y-81894752D03*
%TO.N,Net-(U4-AREF)*%
X79555000Y-74065000D03*
X81230000Y-75710000D03*
%TO.N,/SDA*%
X75175000Y-67630000D03*
X75180000Y-65950000D03*
%TO.N,/MOSI*%
X77320000Y-79310000D03*
X86210000Y-82830000D03*
%TO.N,/MISO*%
X84094000Y-72070000D03*
X89700000Y-67930000D03*
%TO.N,/SCL*%
X74900000Y-70520000D03*
X85460000Y-77760000D03*
%TO.N,/RX*%
X77897660Y-67949000D03*
X89804265Y-81505735D03*
%TO.N,/TX*%
X72558315Y-70219987D03*
X91720000Y-82560000D03*
%TO.N,Net-(U4-PB7)*%
X69830000Y-77590000D03*
X70960000Y-79390000D03*
%TO.N,Net-(U4-PB6)*%
X71020000Y-75180000D03*
X76160000Y-79400000D03*
%TD*%
D13*
%TO.N,/RESET*%
X74960057Y-65320000D02*
X73570000Y-66710057D01*
X76460000Y-65320000D02*
X74960057Y-65320000D01*
X76490000Y-65350000D02*
X76460000Y-65320000D01*
X73570000Y-66710057D02*
X73570000Y-67180000D01*
%TO.N,/SDA*%
X75175000Y-66642360D02*
X75175000Y-67630000D01*
X75180000Y-66637360D02*
X75175000Y-66642360D01*
X75180000Y-65950000D02*
X75180000Y-66637360D01*
%TO.N,/TX*%
X86061000Y-78611000D02*
X89690000Y-82240000D01*
X91400000Y-82240000D02*
X91720000Y-82560000D01*
X86061000Y-77133900D02*
X86061000Y-78611000D01*
X74420000Y-68580000D02*
X77507100Y-68580000D01*
X77507100Y-68580000D02*
X86061000Y-77133900D01*
X89690000Y-82240000D02*
X91400000Y-82240000D01*
X72780013Y-70219987D02*
X74420000Y-68580000D01*
X72558315Y-70219987D02*
X72780013Y-70219987D01*
%TO.N,/RX*%
X86462000Y-76513340D02*
X77897660Y-67949000D01*
X86462000Y-78432000D02*
X86462000Y-76513340D01*
X89560000Y-81530000D02*
X86462000Y-78432000D01*
X89780000Y-81530000D02*
X89560000Y-81530000D01*
X89804265Y-81505735D02*
X89780000Y-81530000D01*
%TO.N,Net-(U4-PB7)*%
X71590000Y-70140000D02*
X71590000Y-67778039D01*
X72760000Y-71310000D02*
X71590000Y-70140000D01*
X72870000Y-71310000D02*
X72760000Y-71310000D01*
X71590000Y-67778039D02*
X71590602Y-67777437D01*
%TO.N,/SCK*%
X88380000Y-73520000D02*
X88380000Y-71310000D01*
X88390000Y-73920000D02*
X88390000Y-73530000D01*
X88380000Y-71310000D02*
X87774265Y-70704265D01*
X88390000Y-73530000D02*
X88380000Y-73520000D01*
X76780000Y-77020000D02*
X76780000Y-75940000D01*
X81220000Y-81460000D02*
X76780000Y-77020000D01*
X86040000Y-81460000D02*
X81220000Y-81460000D01*
X86655000Y-80845000D02*
X86040000Y-81460000D01*
X86810000Y-80845000D02*
X86655000Y-80845000D01*
%TO.N,/SDA*%
X73320057Y-67780000D02*
X74340000Y-67780000D01*
X74340000Y-67780000D02*
X74340000Y-67750000D01*
X72716494Y-67176437D02*
X73320057Y-67780000D01*
X67138917Y-67176437D02*
X72716494Y-67176437D01*
X66532677Y-67782677D02*
X67138917Y-67176437D01*
%TO.N,/D2*%
X66320000Y-84340000D02*
X65640000Y-85020000D01*
X66320000Y-75459943D02*
X66320000Y-84340000D01*
X65049000Y-74188943D02*
X66320000Y-75459943D01*
X65401057Y-73339000D02*
X65049000Y-73691057D01*
X68340943Y-73539000D02*
X66098943Y-73539000D01*
X68801000Y-73078943D02*
X68340943Y-73539000D01*
X68801000Y-69189000D02*
X68801000Y-73078943D01*
X66098943Y-73539000D02*
X65898943Y-73339000D01*
X69190000Y-68790000D02*
X69190000Y-68800000D01*
X65898943Y-73339000D02*
X65401057Y-73339000D01*
X70070000Y-67910000D02*
X69190000Y-68790000D01*
X70090000Y-67910000D02*
X70070000Y-67910000D01*
X65049000Y-73691057D02*
X65049000Y-74188943D01*
X69190000Y-68800000D02*
X68801000Y-69189000D01*
%TO.N,/Vcc*%
X68085000Y-72715000D02*
X67240000Y-71870000D01*
X67240000Y-71870000D02*
X67240000Y-70680000D01*
%TO.N,GND*%
X79830000Y-73230000D02*
X79830000Y-73100000D01*
X81360000Y-74760000D02*
X79830000Y-73230000D01*
%TO.N,Net-(U4-AREF)*%
X80090000Y-74570000D02*
X81230000Y-75710000D01*
X79555000Y-74065000D02*
X80060000Y-74570000D01*
X80060000Y-74570000D02*
X80090000Y-74570000D01*
%TO.N,Net-(U2-VCC)*%
X62400057Y-81740000D02*
X63090000Y-81050057D01*
X62188382Y-81740000D02*
X62400057Y-81740000D01*
X62033630Y-81894752D02*
X62188382Y-81740000D01*
X63090000Y-81050057D02*
X63090000Y-76645000D01*
X63090000Y-76645000D02*
X63160000Y-76575000D01*
%TO.N,Net-(U2-SQW{slash}~INT)*%
X63520000Y-81470000D02*
X62760000Y-82230000D01*
X63520000Y-78080000D02*
X63520000Y-81470000D01*
X63720000Y-77880000D02*
X63520000Y-78080000D01*
%TO.N,Net-(U2-VCC)*%
X63160000Y-76575000D02*
X63160000Y-68080000D01*
%TO.N,/SDA*%
X63930000Y-74860000D02*
X63930000Y-72640000D01*
X63920000Y-75420000D02*
X63920000Y-74870000D01*
X63920000Y-74870000D02*
X63930000Y-74860000D01*
%TO.N,Net-(U4-PB6)*%
X71180000Y-75340000D02*
X72100000Y-75340000D01*
X71020000Y-75180000D02*
X71180000Y-75340000D01*
X72100000Y-75340000D02*
X76160000Y-79400000D01*
%TO.N,/SDA*%
X66532677Y-67782677D02*
X65990000Y-67240000D01*
X66532677Y-71668795D02*
X66532677Y-67782677D01*
%TO.N,/SCL*%
X71570000Y-73940000D02*
X73870000Y-71640000D01*
X65650000Y-73940000D02*
X71570000Y-73940000D01*
%TO.N,/MOSI*%
X80840000Y-82830000D02*
X77320000Y-79310000D01*
X86210000Y-82830000D02*
X80840000Y-82830000D01*
%TO.N,/MISO*%
X85560000Y-72070000D02*
X84094000Y-72070000D01*
X89700000Y-67930000D02*
X85560000Y-72070000D01*
%TO.N,/SCL*%
X76420000Y-69000000D02*
X74900000Y-70520000D01*
X85460000Y-77100000D02*
X77360000Y-69000000D01*
X77360000Y-69000000D02*
X76420000Y-69000000D01*
X85460000Y-77760000D02*
X85460000Y-77100000D01*
%TO.N,Net-(U4-PB7)*%
X69830000Y-78260000D02*
X69830000Y-77590000D01*
X70960000Y-79390000D02*
X69830000Y-78260000D01*
%TD*%
M02*
