%TF.GenerationSoftware,KiCad,Pcbnew,9.0.6*%
%TF.CreationDate,2025-12-29T02:06:04+05:30*%
%TF.ProjectId,DATA LOGGER,44415441-204c-44f4-9747-45522e6b6963,rev?*%
%TF.SameCoordinates,Original*%
%TF.FileFunction,Drillmap*%
%TF.FilePolarity,Positive*%
%FSLAX45Y45*%
G04 Gerber Fmt 4.5, Leading zero omitted, Abs format (unit mm)*
G04 Created by KiCad (PCBNEW 9.0.6) date 2025-12-29 02:06:04*
%MOMM*%
%LPD*%
G01*
G04 APERTURE LIST*
%ADD10C,0.050000*%
%ADD11C,0.200000*%
G04 APERTURE END LIST*
D10*
X9738300Y-8944200D02*
G75*
G02*
X9560500Y-9122000I-177800J0D01*
G01*
X9513550Y-5949700D02*
G75*
G02*
X9744150Y-6180300I0J-230600D01*
G01*
X5257800Y-9118600D02*
X9560500Y-9122000D01*
X5312450Y-5948300D02*
X9513550Y-5949700D01*
X5109250Y-6151500D02*
G75*
G02*
X5312450Y-5948300I203200J0D01*
G01*
X5105400Y-8966200D02*
X5109250Y-6151500D01*
X5257800Y-9118600D02*
G75*
G02*
X5105400Y-8966200I0J152400D01*
G01*
X9744150Y-6180300D02*
X9738300Y-8944200D01*
D11*
X5253000Y-8770000D02*
X5453000Y-8970000D01*
X5453000Y-8770000D02*
X5253000Y-8970000D01*
X5264000Y-6101000D02*
X5464000Y-6301000D01*
X5464000Y-6101000D02*
X5264000Y-6301000D01*
X9314350Y-6114300D02*
X9514350Y-6314300D01*
X9514350Y-6114300D02*
X9314350Y-6314300D01*
X9391000Y-8761000D02*
X9591000Y-8961000D01*
X9591000Y-8761000D02*
X9391000Y-8961000D01*
X5363677Y-9435984D02*
X5363677Y-9235984D01*
X5363677Y-9235984D02*
X5411296Y-9235984D01*
X5411296Y-9235984D02*
X5439867Y-9245508D01*
X5439867Y-9245508D02*
X5458915Y-9264555D01*
X5458915Y-9264555D02*
X5468439Y-9283603D01*
X5468439Y-9283603D02*
X5477963Y-9321698D01*
X5477963Y-9321698D02*
X5477963Y-9350270D01*
X5477963Y-9350270D02*
X5468439Y-9388365D01*
X5468439Y-9388365D02*
X5458915Y-9407412D01*
X5458915Y-9407412D02*
X5439867Y-9426460D01*
X5439867Y-9426460D02*
X5411296Y-9435984D01*
X5411296Y-9435984D02*
X5363677Y-9435984D01*
X5563677Y-9435984D02*
X5563677Y-9302650D01*
X5563677Y-9340746D02*
X5573201Y-9321698D01*
X5573201Y-9321698D02*
X5582724Y-9312174D01*
X5582724Y-9312174D02*
X5601772Y-9302650D01*
X5601772Y-9302650D02*
X5620820Y-9302650D01*
X5687486Y-9435984D02*
X5687486Y-9302650D01*
X5687486Y-9235984D02*
X5677962Y-9245508D01*
X5677962Y-9245508D02*
X5687486Y-9255031D01*
X5687486Y-9255031D02*
X5697010Y-9245508D01*
X5697010Y-9245508D02*
X5687486Y-9235984D01*
X5687486Y-9235984D02*
X5687486Y-9255031D01*
X5811296Y-9435984D02*
X5792248Y-9426460D01*
X5792248Y-9426460D02*
X5782724Y-9407412D01*
X5782724Y-9407412D02*
X5782724Y-9235984D01*
X5916058Y-9435984D02*
X5897010Y-9426460D01*
X5897010Y-9426460D02*
X5887486Y-9407412D01*
X5887486Y-9407412D02*
X5887486Y-9235984D01*
X6144629Y-9435984D02*
X6144629Y-9235984D01*
X6144629Y-9235984D02*
X6211296Y-9378841D01*
X6211296Y-9378841D02*
X6277962Y-9235984D01*
X6277962Y-9235984D02*
X6277962Y-9435984D01*
X6458915Y-9435984D02*
X6458915Y-9331222D01*
X6458915Y-9331222D02*
X6449391Y-9312174D01*
X6449391Y-9312174D02*
X6430343Y-9302650D01*
X6430343Y-9302650D02*
X6392248Y-9302650D01*
X6392248Y-9302650D02*
X6373201Y-9312174D01*
X6458915Y-9426460D02*
X6439867Y-9435984D01*
X6439867Y-9435984D02*
X6392248Y-9435984D01*
X6392248Y-9435984D02*
X6373201Y-9426460D01*
X6373201Y-9426460D02*
X6363677Y-9407412D01*
X6363677Y-9407412D02*
X6363677Y-9388365D01*
X6363677Y-9388365D02*
X6373201Y-9369317D01*
X6373201Y-9369317D02*
X6392248Y-9359793D01*
X6392248Y-9359793D02*
X6439867Y-9359793D01*
X6439867Y-9359793D02*
X6458915Y-9350270D01*
X6554153Y-9302650D02*
X6554153Y-9502650D01*
X6554153Y-9312174D02*
X6573201Y-9302650D01*
X6573201Y-9302650D02*
X6611296Y-9302650D01*
X6611296Y-9302650D02*
X6630343Y-9312174D01*
X6630343Y-9312174D02*
X6639867Y-9321698D01*
X6639867Y-9321698D02*
X6649391Y-9340746D01*
X6649391Y-9340746D02*
X6649391Y-9397889D01*
X6649391Y-9397889D02*
X6639867Y-9416936D01*
X6639867Y-9416936D02*
X6630343Y-9426460D01*
X6630343Y-9426460D02*
X6611296Y-9435984D01*
X6611296Y-9435984D02*
X6573201Y-9435984D01*
X6573201Y-9435984D02*
X6554153Y-9426460D01*
X6735105Y-9416936D02*
X6744629Y-9426460D01*
X6744629Y-9426460D02*
X6735105Y-9435984D01*
X6735105Y-9435984D02*
X6725582Y-9426460D01*
X6725582Y-9426460D02*
X6735105Y-9416936D01*
X6735105Y-9416936D02*
X6735105Y-9435984D01*
X6735105Y-9312174D02*
X6744629Y-9321698D01*
X6744629Y-9321698D02*
X6735105Y-9331222D01*
X6735105Y-9331222D02*
X6725582Y-9321698D01*
X6725582Y-9321698D02*
X6735105Y-9312174D01*
X6735105Y-9312174D02*
X6735105Y-9331222D01*
X4902900Y-9664500D02*
X5102900Y-9864500D01*
X5102900Y-9664500D02*
X4902900Y-9864500D01*
X5354153Y-9675031D02*
X5363677Y-9665508D01*
X5363677Y-9665508D02*
X5382724Y-9655984D01*
X5382724Y-9655984D02*
X5430344Y-9655984D01*
X5430344Y-9655984D02*
X5449391Y-9665508D01*
X5449391Y-9665508D02*
X5458915Y-9675031D01*
X5458915Y-9675031D02*
X5468439Y-9694079D01*
X5468439Y-9694079D02*
X5468439Y-9713127D01*
X5468439Y-9713127D02*
X5458915Y-9741698D01*
X5458915Y-9741698D02*
X5344629Y-9855984D01*
X5344629Y-9855984D02*
X5468439Y-9855984D01*
X5554153Y-9836936D02*
X5563677Y-9846460D01*
X5563677Y-9846460D02*
X5554153Y-9855984D01*
X5554153Y-9855984D02*
X5544629Y-9846460D01*
X5544629Y-9846460D02*
X5554153Y-9836936D01*
X5554153Y-9836936D02*
X5554153Y-9855984D01*
X5687486Y-9655984D02*
X5706534Y-9655984D01*
X5706534Y-9655984D02*
X5725582Y-9665508D01*
X5725582Y-9665508D02*
X5735105Y-9675031D01*
X5735105Y-9675031D02*
X5744629Y-9694079D01*
X5744629Y-9694079D02*
X5754153Y-9732174D01*
X5754153Y-9732174D02*
X5754153Y-9779793D01*
X5754153Y-9779793D02*
X5744629Y-9817889D01*
X5744629Y-9817889D02*
X5735105Y-9836936D01*
X5735105Y-9836936D02*
X5725582Y-9846460D01*
X5725582Y-9846460D02*
X5706534Y-9855984D01*
X5706534Y-9855984D02*
X5687486Y-9855984D01*
X5687486Y-9855984D02*
X5668439Y-9846460D01*
X5668439Y-9846460D02*
X5658915Y-9836936D01*
X5658915Y-9836936D02*
X5649391Y-9817889D01*
X5649391Y-9817889D02*
X5639867Y-9779793D01*
X5639867Y-9779793D02*
X5639867Y-9732174D01*
X5639867Y-9732174D02*
X5649391Y-9694079D01*
X5649391Y-9694079D02*
X5658915Y-9675031D01*
X5658915Y-9675031D02*
X5668439Y-9665508D01*
X5668439Y-9665508D02*
X5687486Y-9655984D01*
X5877962Y-9655984D02*
X5897010Y-9655984D01*
X5897010Y-9655984D02*
X5916058Y-9665508D01*
X5916058Y-9665508D02*
X5925582Y-9675031D01*
X5925582Y-9675031D02*
X5935105Y-9694079D01*
X5935105Y-9694079D02*
X5944629Y-9732174D01*
X5944629Y-9732174D02*
X5944629Y-9779793D01*
X5944629Y-9779793D02*
X5935105Y-9817889D01*
X5935105Y-9817889D02*
X5925582Y-9836936D01*
X5925582Y-9836936D02*
X5916058Y-9846460D01*
X5916058Y-9846460D02*
X5897010Y-9855984D01*
X5897010Y-9855984D02*
X5877962Y-9855984D01*
X5877962Y-9855984D02*
X5858915Y-9846460D01*
X5858915Y-9846460D02*
X5849391Y-9836936D01*
X5849391Y-9836936D02*
X5839867Y-9817889D01*
X5839867Y-9817889D02*
X5830343Y-9779793D01*
X5830343Y-9779793D02*
X5830343Y-9732174D01*
X5830343Y-9732174D02*
X5839867Y-9694079D01*
X5839867Y-9694079D02*
X5849391Y-9675031D01*
X5849391Y-9675031D02*
X5858915Y-9665508D01*
X5858915Y-9665508D02*
X5877962Y-9655984D01*
X6068439Y-9655984D02*
X6087486Y-9655984D01*
X6087486Y-9655984D02*
X6106534Y-9665508D01*
X6106534Y-9665508D02*
X6116058Y-9675031D01*
X6116058Y-9675031D02*
X6125582Y-9694079D01*
X6125582Y-9694079D02*
X6135105Y-9732174D01*
X6135105Y-9732174D02*
X6135105Y-9779793D01*
X6135105Y-9779793D02*
X6125582Y-9817889D01*
X6125582Y-9817889D02*
X6116058Y-9836936D01*
X6116058Y-9836936D02*
X6106534Y-9846460D01*
X6106534Y-9846460D02*
X6087486Y-9855984D01*
X6087486Y-9855984D02*
X6068439Y-9855984D01*
X6068439Y-9855984D02*
X6049391Y-9846460D01*
X6049391Y-9846460D02*
X6039867Y-9836936D01*
X6039867Y-9836936D02*
X6030343Y-9817889D01*
X6030343Y-9817889D02*
X6020820Y-9779793D01*
X6020820Y-9779793D02*
X6020820Y-9732174D01*
X6020820Y-9732174D02*
X6030343Y-9694079D01*
X6030343Y-9694079D02*
X6039867Y-9675031D01*
X6039867Y-9675031D02*
X6049391Y-9665508D01*
X6049391Y-9665508D02*
X6068439Y-9655984D01*
X6220820Y-9855984D02*
X6220820Y-9722650D01*
X6220820Y-9741698D02*
X6230343Y-9732174D01*
X6230343Y-9732174D02*
X6249391Y-9722650D01*
X6249391Y-9722650D02*
X6277963Y-9722650D01*
X6277963Y-9722650D02*
X6297010Y-9732174D01*
X6297010Y-9732174D02*
X6306534Y-9751222D01*
X6306534Y-9751222D02*
X6306534Y-9855984D01*
X6306534Y-9751222D02*
X6316058Y-9732174D01*
X6316058Y-9732174D02*
X6335105Y-9722650D01*
X6335105Y-9722650D02*
X6363677Y-9722650D01*
X6363677Y-9722650D02*
X6382724Y-9732174D01*
X6382724Y-9732174D02*
X6392248Y-9751222D01*
X6392248Y-9751222D02*
X6392248Y-9855984D01*
X6487486Y-9855984D02*
X6487486Y-9722650D01*
X6487486Y-9741698D02*
X6497010Y-9732174D01*
X6497010Y-9732174D02*
X6516058Y-9722650D01*
X6516058Y-9722650D02*
X6544629Y-9722650D01*
X6544629Y-9722650D02*
X6563677Y-9732174D01*
X6563677Y-9732174D02*
X6573201Y-9751222D01*
X6573201Y-9751222D02*
X6573201Y-9855984D01*
X6573201Y-9751222D02*
X6582724Y-9732174D01*
X6582724Y-9732174D02*
X6601772Y-9722650D01*
X6601772Y-9722650D02*
X6630343Y-9722650D01*
X6630343Y-9722650D02*
X6649391Y-9732174D01*
X6649391Y-9732174D02*
X6658915Y-9751222D01*
X6658915Y-9751222D02*
X6658915Y-9855984D01*
X7049391Y-9646460D02*
X6877963Y-9903603D01*
X7306534Y-9655984D02*
X7325582Y-9655984D01*
X7325582Y-9655984D02*
X7344629Y-9665508D01*
X7344629Y-9665508D02*
X7354153Y-9675031D01*
X7354153Y-9675031D02*
X7363677Y-9694079D01*
X7363677Y-9694079D02*
X7373201Y-9732174D01*
X7373201Y-9732174D02*
X7373201Y-9779793D01*
X7373201Y-9779793D02*
X7363677Y-9817889D01*
X7363677Y-9817889D02*
X7354153Y-9836936D01*
X7354153Y-9836936D02*
X7344629Y-9846460D01*
X7344629Y-9846460D02*
X7325582Y-9855984D01*
X7325582Y-9855984D02*
X7306534Y-9855984D01*
X7306534Y-9855984D02*
X7287486Y-9846460D01*
X7287486Y-9846460D02*
X7277963Y-9836936D01*
X7277963Y-9836936D02*
X7268439Y-9817889D01*
X7268439Y-9817889D02*
X7258915Y-9779793D01*
X7258915Y-9779793D02*
X7258915Y-9732174D01*
X7258915Y-9732174D02*
X7268439Y-9694079D01*
X7268439Y-9694079D02*
X7277963Y-9675031D01*
X7277963Y-9675031D02*
X7287486Y-9665508D01*
X7287486Y-9665508D02*
X7306534Y-9655984D01*
X7458915Y-9836936D02*
X7468439Y-9846460D01*
X7468439Y-9846460D02*
X7458915Y-9855984D01*
X7458915Y-9855984D02*
X7449391Y-9846460D01*
X7449391Y-9846460D02*
X7458915Y-9836936D01*
X7458915Y-9836936D02*
X7458915Y-9855984D01*
X7592248Y-9655984D02*
X7611296Y-9655984D01*
X7611296Y-9655984D02*
X7630344Y-9665508D01*
X7630344Y-9665508D02*
X7639867Y-9675031D01*
X7639867Y-9675031D02*
X7649391Y-9694079D01*
X7649391Y-9694079D02*
X7658915Y-9732174D01*
X7658915Y-9732174D02*
X7658915Y-9779793D01*
X7658915Y-9779793D02*
X7649391Y-9817889D01*
X7649391Y-9817889D02*
X7639867Y-9836936D01*
X7639867Y-9836936D02*
X7630344Y-9846460D01*
X7630344Y-9846460D02*
X7611296Y-9855984D01*
X7611296Y-9855984D02*
X7592248Y-9855984D01*
X7592248Y-9855984D02*
X7573201Y-9846460D01*
X7573201Y-9846460D02*
X7563677Y-9836936D01*
X7563677Y-9836936D02*
X7554153Y-9817889D01*
X7554153Y-9817889D02*
X7544629Y-9779793D01*
X7544629Y-9779793D02*
X7544629Y-9732174D01*
X7544629Y-9732174D02*
X7554153Y-9694079D01*
X7554153Y-9694079D02*
X7563677Y-9675031D01*
X7563677Y-9675031D02*
X7573201Y-9665508D01*
X7573201Y-9665508D02*
X7592248Y-9655984D01*
X7725582Y-9655984D02*
X7858915Y-9655984D01*
X7858915Y-9655984D02*
X7773201Y-9855984D01*
X7963677Y-9741698D02*
X7944629Y-9732174D01*
X7944629Y-9732174D02*
X7935106Y-9722650D01*
X7935106Y-9722650D02*
X7925582Y-9703603D01*
X7925582Y-9703603D02*
X7925582Y-9694079D01*
X7925582Y-9694079D02*
X7935106Y-9675031D01*
X7935106Y-9675031D02*
X7944629Y-9665508D01*
X7944629Y-9665508D02*
X7963677Y-9655984D01*
X7963677Y-9655984D02*
X8001772Y-9655984D01*
X8001772Y-9655984D02*
X8020820Y-9665508D01*
X8020820Y-9665508D02*
X8030344Y-9675031D01*
X8030344Y-9675031D02*
X8039867Y-9694079D01*
X8039867Y-9694079D02*
X8039867Y-9703603D01*
X8039867Y-9703603D02*
X8030344Y-9722650D01*
X8030344Y-9722650D02*
X8020820Y-9732174D01*
X8020820Y-9732174D02*
X8001772Y-9741698D01*
X8001772Y-9741698D02*
X7963677Y-9741698D01*
X7963677Y-9741698D02*
X7944629Y-9751222D01*
X7944629Y-9751222D02*
X7935106Y-9760746D01*
X7935106Y-9760746D02*
X7925582Y-9779793D01*
X7925582Y-9779793D02*
X7925582Y-9817889D01*
X7925582Y-9817889D02*
X7935106Y-9836936D01*
X7935106Y-9836936D02*
X7944629Y-9846460D01*
X7944629Y-9846460D02*
X7963677Y-9855984D01*
X7963677Y-9855984D02*
X8001772Y-9855984D01*
X8001772Y-9855984D02*
X8020820Y-9846460D01*
X8020820Y-9846460D02*
X8030344Y-9836936D01*
X8030344Y-9836936D02*
X8039867Y-9817889D01*
X8039867Y-9817889D02*
X8039867Y-9779793D01*
X8039867Y-9779793D02*
X8030344Y-9760746D01*
X8030344Y-9760746D02*
X8020820Y-9751222D01*
X8020820Y-9751222D02*
X8001772Y-9741698D01*
X8106534Y-9655984D02*
X8239867Y-9655984D01*
X8239867Y-9655984D02*
X8154153Y-9855984D01*
X8306534Y-9655984D02*
X8306534Y-9694079D01*
X8382725Y-9655984D02*
X8382725Y-9694079D01*
X8677963Y-9932174D02*
X8668439Y-9922650D01*
X8668439Y-9922650D02*
X8649391Y-9894079D01*
X8649391Y-9894079D02*
X8639868Y-9875031D01*
X8639868Y-9875031D02*
X8630344Y-9846460D01*
X8630344Y-9846460D02*
X8620820Y-9798841D01*
X8620820Y-9798841D02*
X8620820Y-9760746D01*
X8620820Y-9760746D02*
X8630344Y-9713127D01*
X8630344Y-9713127D02*
X8639868Y-9684555D01*
X8639868Y-9684555D02*
X8649391Y-9665508D01*
X8649391Y-9665508D02*
X8668439Y-9636936D01*
X8668439Y-9636936D02*
X8677963Y-9627412D01*
X8839868Y-9722650D02*
X8839868Y-9855984D01*
X8792249Y-9646460D02*
X8744630Y-9789317D01*
X8744630Y-9789317D02*
X8868439Y-9789317D01*
X9097011Y-9855984D02*
X9097011Y-9655984D01*
X9182725Y-9855984D02*
X9182725Y-9751222D01*
X9182725Y-9751222D02*
X9173201Y-9732174D01*
X9173201Y-9732174D02*
X9154153Y-9722650D01*
X9154153Y-9722650D02*
X9125582Y-9722650D01*
X9125582Y-9722650D02*
X9106534Y-9732174D01*
X9106534Y-9732174D02*
X9097011Y-9741698D01*
X9306534Y-9855984D02*
X9287487Y-9846460D01*
X9287487Y-9846460D02*
X9277963Y-9836936D01*
X9277963Y-9836936D02*
X9268439Y-9817889D01*
X9268439Y-9817889D02*
X9268439Y-9760746D01*
X9268439Y-9760746D02*
X9277963Y-9741698D01*
X9277963Y-9741698D02*
X9287487Y-9732174D01*
X9287487Y-9732174D02*
X9306534Y-9722650D01*
X9306534Y-9722650D02*
X9335106Y-9722650D01*
X9335106Y-9722650D02*
X9354153Y-9732174D01*
X9354153Y-9732174D02*
X9363677Y-9741698D01*
X9363677Y-9741698D02*
X9373201Y-9760746D01*
X9373201Y-9760746D02*
X9373201Y-9817889D01*
X9373201Y-9817889D02*
X9363677Y-9836936D01*
X9363677Y-9836936D02*
X9354153Y-9846460D01*
X9354153Y-9846460D02*
X9335106Y-9855984D01*
X9335106Y-9855984D02*
X9306534Y-9855984D01*
X9487487Y-9855984D02*
X9468439Y-9846460D01*
X9468439Y-9846460D02*
X9458915Y-9827412D01*
X9458915Y-9827412D02*
X9458915Y-9655984D01*
X9639868Y-9846460D02*
X9620820Y-9855984D01*
X9620820Y-9855984D02*
X9582725Y-9855984D01*
X9582725Y-9855984D02*
X9563677Y-9846460D01*
X9563677Y-9846460D02*
X9554153Y-9827412D01*
X9554153Y-9827412D02*
X9554153Y-9751222D01*
X9554153Y-9751222D02*
X9563677Y-9732174D01*
X9563677Y-9732174D02*
X9582725Y-9722650D01*
X9582725Y-9722650D02*
X9620820Y-9722650D01*
X9620820Y-9722650D02*
X9639868Y-9732174D01*
X9639868Y-9732174D02*
X9649392Y-9751222D01*
X9649392Y-9751222D02*
X9649392Y-9770270D01*
X9649392Y-9770270D02*
X9554153Y-9789317D01*
X9725582Y-9846460D02*
X9744630Y-9855984D01*
X9744630Y-9855984D02*
X9782725Y-9855984D01*
X9782725Y-9855984D02*
X9801773Y-9846460D01*
X9801773Y-9846460D02*
X9811296Y-9827412D01*
X9811296Y-9827412D02*
X9811296Y-9817889D01*
X9811296Y-9817889D02*
X9801773Y-9798841D01*
X9801773Y-9798841D02*
X9782725Y-9789317D01*
X9782725Y-9789317D02*
X9754153Y-9789317D01*
X9754153Y-9789317D02*
X9735106Y-9779793D01*
X9735106Y-9779793D02*
X9725582Y-9760746D01*
X9725582Y-9760746D02*
X9725582Y-9751222D01*
X9725582Y-9751222D02*
X9735106Y-9732174D01*
X9735106Y-9732174D02*
X9754153Y-9722650D01*
X9754153Y-9722650D02*
X9782725Y-9722650D01*
X9782725Y-9722650D02*
X9801773Y-9732174D01*
X9877963Y-9932174D02*
X9887487Y-9922650D01*
X9887487Y-9922650D02*
X9906534Y-9894079D01*
X9906534Y-9894079D02*
X9916058Y-9875031D01*
X9916058Y-9875031D02*
X9925582Y-9846460D01*
X9925582Y-9846460D02*
X9935106Y-9798841D01*
X9935106Y-9798841D02*
X9935106Y-9760746D01*
X9935106Y-9760746D02*
X9925582Y-9713127D01*
X9925582Y-9713127D02*
X9916058Y-9684555D01*
X9916058Y-9684555D02*
X9906534Y-9665508D01*
X9906534Y-9665508D02*
X9887487Y-9636936D01*
X9887487Y-9636936D02*
X9877963Y-9627412D01*
X10239868Y-9932174D02*
X10230344Y-9922650D01*
X10230344Y-9922650D02*
X10211296Y-9894079D01*
X10211296Y-9894079D02*
X10201773Y-9875031D01*
X10201773Y-9875031D02*
X10192249Y-9846460D01*
X10192249Y-9846460D02*
X10182725Y-9798841D01*
X10182725Y-9798841D02*
X10182725Y-9760746D01*
X10182725Y-9760746D02*
X10192249Y-9713127D01*
X10192249Y-9713127D02*
X10201773Y-9684555D01*
X10201773Y-9684555D02*
X10211296Y-9665508D01*
X10211296Y-9665508D02*
X10230344Y-9636936D01*
X10230344Y-9636936D02*
X10239868Y-9627412D01*
X10316058Y-9722650D02*
X10316058Y-9855984D01*
X10316058Y-9741698D02*
X10325582Y-9732174D01*
X10325582Y-9732174D02*
X10344630Y-9722650D01*
X10344630Y-9722650D02*
X10373201Y-9722650D01*
X10373201Y-9722650D02*
X10392249Y-9732174D01*
X10392249Y-9732174D02*
X10401773Y-9751222D01*
X10401773Y-9751222D02*
X10401773Y-9855984D01*
X10525582Y-9855984D02*
X10506534Y-9846460D01*
X10506534Y-9846460D02*
X10497011Y-9836936D01*
X10497011Y-9836936D02*
X10487487Y-9817889D01*
X10487487Y-9817889D02*
X10487487Y-9760746D01*
X10487487Y-9760746D02*
X10497011Y-9741698D01*
X10497011Y-9741698D02*
X10506534Y-9732174D01*
X10506534Y-9732174D02*
X10525582Y-9722650D01*
X10525582Y-9722650D02*
X10554154Y-9722650D01*
X10554154Y-9722650D02*
X10573201Y-9732174D01*
X10573201Y-9732174D02*
X10582725Y-9741698D01*
X10582725Y-9741698D02*
X10592249Y-9760746D01*
X10592249Y-9760746D02*
X10592249Y-9817889D01*
X10592249Y-9817889D02*
X10582725Y-9836936D01*
X10582725Y-9836936D02*
X10573201Y-9846460D01*
X10573201Y-9846460D02*
X10554154Y-9855984D01*
X10554154Y-9855984D02*
X10525582Y-9855984D01*
X10649392Y-9722650D02*
X10725582Y-9722650D01*
X10677963Y-9655984D02*
X10677963Y-9827412D01*
X10677963Y-9827412D02*
X10687487Y-9846460D01*
X10687487Y-9846460D02*
X10706534Y-9855984D01*
X10706534Y-9855984D02*
X10725582Y-9855984D01*
X10944630Y-9722650D02*
X10944630Y-9922650D01*
X10944630Y-9732174D02*
X10963677Y-9722650D01*
X10963677Y-9722650D02*
X11001773Y-9722650D01*
X11001773Y-9722650D02*
X11020820Y-9732174D01*
X11020820Y-9732174D02*
X11030344Y-9741698D01*
X11030344Y-9741698D02*
X11039868Y-9760746D01*
X11039868Y-9760746D02*
X11039868Y-9817889D01*
X11039868Y-9817889D02*
X11030344Y-9836936D01*
X11030344Y-9836936D02*
X11020820Y-9846460D01*
X11020820Y-9846460D02*
X11001773Y-9855984D01*
X11001773Y-9855984D02*
X10963677Y-9855984D01*
X10963677Y-9855984D02*
X10944630Y-9846460D01*
X11154154Y-9855984D02*
X11135106Y-9846460D01*
X11135106Y-9846460D02*
X11125582Y-9827412D01*
X11125582Y-9827412D02*
X11125582Y-9655984D01*
X11316058Y-9855984D02*
X11316058Y-9751222D01*
X11316058Y-9751222D02*
X11306534Y-9732174D01*
X11306534Y-9732174D02*
X11287487Y-9722650D01*
X11287487Y-9722650D02*
X11249392Y-9722650D01*
X11249392Y-9722650D02*
X11230344Y-9732174D01*
X11316058Y-9846460D02*
X11297011Y-9855984D01*
X11297011Y-9855984D02*
X11249392Y-9855984D01*
X11249392Y-9855984D02*
X11230344Y-9846460D01*
X11230344Y-9846460D02*
X11220820Y-9827412D01*
X11220820Y-9827412D02*
X11220820Y-9808365D01*
X11220820Y-9808365D02*
X11230344Y-9789317D01*
X11230344Y-9789317D02*
X11249392Y-9779793D01*
X11249392Y-9779793D02*
X11297011Y-9779793D01*
X11297011Y-9779793D02*
X11316058Y-9770270D01*
X11382725Y-9722650D02*
X11458915Y-9722650D01*
X11411296Y-9655984D02*
X11411296Y-9827412D01*
X11411296Y-9827412D02*
X11420820Y-9846460D01*
X11420820Y-9846460D02*
X11439868Y-9855984D01*
X11439868Y-9855984D02*
X11458915Y-9855984D01*
X11601773Y-9846460D02*
X11582725Y-9855984D01*
X11582725Y-9855984D02*
X11544630Y-9855984D01*
X11544630Y-9855984D02*
X11525582Y-9846460D01*
X11525582Y-9846460D02*
X11516058Y-9827412D01*
X11516058Y-9827412D02*
X11516058Y-9751222D01*
X11516058Y-9751222D02*
X11525582Y-9732174D01*
X11525582Y-9732174D02*
X11544630Y-9722650D01*
X11544630Y-9722650D02*
X11582725Y-9722650D01*
X11582725Y-9722650D02*
X11601773Y-9732174D01*
X11601773Y-9732174D02*
X11611296Y-9751222D01*
X11611296Y-9751222D02*
X11611296Y-9770270D01*
X11611296Y-9770270D02*
X11516058Y-9789317D01*
X11782725Y-9855984D02*
X11782725Y-9655984D01*
X11782725Y-9846460D02*
X11763677Y-9855984D01*
X11763677Y-9855984D02*
X11725582Y-9855984D01*
X11725582Y-9855984D02*
X11706534Y-9846460D01*
X11706534Y-9846460D02*
X11697011Y-9836936D01*
X11697011Y-9836936D02*
X11687487Y-9817889D01*
X11687487Y-9817889D02*
X11687487Y-9760746D01*
X11687487Y-9760746D02*
X11697011Y-9741698D01*
X11697011Y-9741698D02*
X11706534Y-9732174D01*
X11706534Y-9732174D02*
X11725582Y-9722650D01*
X11725582Y-9722650D02*
X11763677Y-9722650D01*
X11763677Y-9722650D02*
X11782725Y-9732174D01*
X11858915Y-9932174D02*
X11868439Y-9922650D01*
X11868439Y-9922650D02*
X11887487Y-9894079D01*
X11887487Y-9894079D02*
X11897011Y-9875031D01*
X11897011Y-9875031D02*
X11906534Y-9846460D01*
X11906534Y-9846460D02*
X11916058Y-9798841D01*
X11916058Y-9798841D02*
X11916058Y-9760746D01*
X11916058Y-9760746D02*
X11906534Y-9713127D01*
X11906534Y-9713127D02*
X11897011Y-9684555D01*
X11897011Y-9684555D02*
X11887487Y-9665508D01*
X11887487Y-9665508D02*
X11868439Y-9636936D01*
X11868439Y-9636936D02*
X11858915Y-9627412D01*
M02*
